<svg width="92" height="110" viewBox="0 0 92 110" fill="none" xmlns="http://www.w3.org/2000/svg">
<path d="M76.8043 58.1014C76.752 49.1768 80.7955 42.4506 88.9611 37.491C84.3941 30.948 77.4848 27.3494 68.377 26.6559C59.7533 25.9754 50.3184 31.6809 46.8637 31.6809C43.2127 31.6809 34.8639 26.8914 28.2947 26.8914C14.7377 27.1008 0.330078 37.7004 0.330078 59.266C0.330078 65.6389 1.49473 72.2211 3.82402 78.9996C6.93848 87.9242 18.1662 109.791 29.8781 109.438C36.0023 109.294 40.3338 105.093 48.3031 105.093C56.0369 105.093 60.0412 109.438 66.8721 109.438C78.6887 109.267 88.8434 89.3898 91.8008 80.4391C75.9537 72.967 76.8043 58.5594 76.8043 58.1014ZM63.051 18.1893C69.6855 10.3115 69.0836 3.14043 68.8873 0.5625C63.0248 0.902734 56.2463 4.55371 52.3859 9.04219C48.133 13.8578 45.6336 19.8119 46.1701 26.525C52.5037 27.0092 58.2877 23.7508 63.051 18.1893Z" fill="#BCBCBC"/>
</svg>
