<svg width="139" height="160" viewBox="0 0 139 160" fill="none" xmlns="http://www.w3.org/2000/svg">
<path d="M138.884 47.2534H138.241V48.5334L138.884 49.1734C139.347 55.6467 133.146 59.4201 133.146 59.4201C133.047 55.4001 129.966 54.9401 129.966 54.9401C122.467 53.0001 120.406 61.9867 120.406 61.9867C119.565 69.5201 124.865 69.6734 124.865 69.6734C127.846 70.5067 130.596 67.1134 130.596 67.1134V68.3934L129.96 74.1601C128.462 79.2667 121.678 77.3601 121.678 77.3601C118.737 76.1467 118.498 78.0067 118.498 78.0067C118.83 86.9267 122.957 90.1734 122.957 90.1734C127.813 92.5601 127.416 93.3734 127.416 93.3734C128.456 95.3867 126.137 96.5801 126.137 96.5801C123.991 97.7001 123.593 99.1467 123.593 99.1467C122.745 101.04 126.137 104.907 126.137 104.907C127.409 105.04 128.052 107.473 128.052 107.473C127.74 110.593 124.865 110.673 124.865 110.673C123.977 111.247 122.321 116.44 122.321 116.44C115.742 137.907 93.4096 140.96 88.7853 141.367C89.2557 146.52 89.2955 153.287 86.6521 155.513C86.6521 155.513 83.8563 159.047 77.1055 156.793C77.1055 156.793 84.1147 150.953 82.8295 135.013C82.8295 135.013 80.7956 134.693 79.6495 134.373C79.6495 134.373 78.1058 159.307 65.0016 160C65.0016 160 59.1318 160.2 57.3563 156.8C57.3563 156.8 71.5073 152.233 75.8268 133.093L73.2828 131.813C73.2828 131.813 64.0873 156.36 48.4391 156.793C48.4391 156.793 42.5627 157.633 38.8858 150.393C38.8858 150.393 57.2371 149.027 70.0896 129.247L67.5456 127.327C67.5456 127.327 48.5385 149.433 32.5192 145.9C32.5192 145.9 21.4091 143.46 21.694 133.733C21.694 133.733 43.5366 141.053 65.0016 123.487L63.0936 120.287C63.0936 120.287 39.8862 132.22 22.3366 129.253C22.3366 129.253 -0.764793 124.807 6.41008 108.113C6.41008 108.113 30.0746 123.847 60.543 115.8V111.953C60.543 111.953 1.75933 116.993 0.043457 85.0467C0.043457 85.0467 0.792082 76.5201 4.49546 76.0801C4.49546 76.0801 20.0377 100.06 60.543 107.473V104.273C60.543 104.273 3.47521 84.5401 3.22346 49.1734C3.22346 49.1734 3.71371 34.4401 15.3273 36.3601C15.3273 36.3601 16.4072 70.2667 61.8216 99.7867L63.087 97.2201C63.087 97.2201 20.3557 70.1134 21.058 19.0667C21.058 19.0667 23.549 -6.89325 42.7085 1.76675C42.7085 1.76675 30.1408 55.7867 66.2736 92.1001C66.2736 92.1001 71.514 82.1334 86.6587 82.4867C86.6587 82.4867 110.111 81.5201 112.761 107.473C112.761 107.473 114.802 132.52 87.9241 135.02C87.9241 135.02 88.1692 136.28 88.4276 138.18C111.377 136.533 115.312 113.88 115.312 113.88C118.73 89.0134 96.212 81.2067 96.212 81.2067C78.4901 74.4334 65.6376 87.6067 65.6376 87.6067C48.3993 73.4867 46.5377 45.3334 46.5377 45.3334L50.9963 43.4134C45.3916 39.7067 47.8097 31.8801 47.8097 31.8801C50.7247 34.3134 61.1856 29.9667 61.1856 29.9667C59.6817 24.0001 63.0936 22.9134 63.0936 22.9134C66.1411 22.4934 80.9215 22.9134 80.9215 22.9134C80.9215 16.7201 85.3801 17.1534 85.3801 17.1534C86.8575 18.8134 92.3893 19.7134 92.3893 19.7134C101.439 23.5867 100.671 24.1934 100.671 24.1934C101.134 25.2867 101.943 24.8401 101.943 24.8401C101.843 19.4067 107.673 21.6401 107.673 21.6401C108.256 27.4334 124.229 35.0867 124.229 35.0867C126.568 36.6734 124.229 39.5734 124.229 39.5734L126.773 41.4934H129.324L130.596 42.1334L136.962 42.7734C139.539 43.3934 138.884 47.2601 138.884 47.2601V47.2534ZM91.7533 33.1601C91.7533 33.1601 88.2156 34.8667 90.4747 38.9267C90.4747 38.9267 91.4685 40.3534 93.6613 41.4867C93.6613 41.4867 89.1563 33.5001 99.392 35.7201C99.392 35.7201 97.1262 31.3201 91.7533 33.1601ZM121.685 42.1267H117.226V43.4067L120.406 46.6067L122.957 41.4867L121.685 42.1267Z" fill="url(#paint0_radial)"/>
<defs>
<radialGradient id="paint0_radial" cx="0" cy="0" r="1" gradientUnits="userSpaceOnUse" gradientTransform="translate(86.9999 110) rotate(-72.646) scale(50.2892 43.6608)">
<stop offset="0.053167" stop-color="#9A0000"/>
<stop offset="0.310815" stop-color="#6F0000"/>
<stop offset="0.527016" stop-color="#680000"/>
<stop offset="0.728432" stop-color="#CADC00"/>
<stop offset="0.941219" stop-color="#929E00"/>
</radialGradient>
</defs>
</svg>
