<svg width="176" height="153" viewBox="0 0 176 153" fill="none" xmlns="http://www.w3.org/2000/svg">
<g clip-path="url(#clip0)">
<g opacity="0.7">
<g opacity="0.7" filter="url(#filter0_d)">
<path d="M159.54 90.4841C166.795 66.8483 156.121 39.8988 136.844 24.4235C117.567 8.94701 91.2648 4.03641 66.7656 7.31089C45.6941 10.1273 24.7099 19.1993 11.4522 35.8248C5.36129 43.4645 1.72978 56.0517 9.49319 61.9836C18.8227 69.1104 32.8148 58.1011 43.7272 62.4293C53.3523 66.2469 54.8266 79.337 52.8384 89.5031C50.8503 99.6692 47.0732 110.621 51.6227 119.926C55.9046 128.681 66.5808 132.78 76.3066 132.2C87.1094 131.556 97.152 126.031 107.885 124.354C113.262 123.514 118.564 123.87 123.949 122.921C129.884 121.874 135.518 119.763 140.483 116.311C149.402 110.11 156.344 100.895 159.54 90.4841Z" fill="url(#paint0_linear)"/>
</g>
<g filter="url(#filter1_d)">
<path d="M25.2292 66.6347C28.3615 67.2117 31.1385 69.4696 32.3471 72.4204C34.9176 78.6971 30.4093 85.8087 31.597 92.4822C31.9765 94.6164 32.9278 96.8465 32.127 98.8556C31.1861 101.213 28.0911 102.083 25.6602 101.337C23.2292 100.592 21.3539 98.6712 19.6995 96.7365C16.5319 93.0338 13.6888 88.8777 12.5683 84.1392C10.6835 76.1764 15.4057 64.8236 25.2292 66.6347Z" fill="url(#paint1_linear)"/>
</g>
<g filter="url(#filter2_d)">
<path d="M31.7716 17.5614C30.2085 15.3765 30.3167 12.1042 32.1291 10.0993C33.942 8.09503 37.3222 7.68317 39.4656 9.30701C40.6823 10.2286 41.4632 11.8271 41.0895 13.3102C40.7749 14.5598 39.7895 15.3952 38.8863 16.2387C38.0938 16.9783 37.6582 17.8033 37.0012 18.6307C35.509 20.51 32.9218 19.1688 31.7716 17.5614Z" fill="url(#paint2_linear)"/>
</g>
<g filter="url(#filter3_d)">
<path d="M26.3967 106.446C26.9247 105.949 27.7243 105.737 28.3995 105.981C29.2241 106.279 29.7265 107.248 29.547 108.115C29.3665 108.983 28.5581 109.667 27.682 109.744C25.607 109.929 24.9791 107.782 26.3967 106.446Z" fill="url(#paint3_linear)"/>
</g>
<g filter="url(#filter4_d)">
<path d="M46.7224 117.978C49.4653 115.397 53.6184 114.295 57.1256 115.564C61.4093 117.114 64.0187 122.147 63.0866 126.651C62.1487 131.157 57.9494 134.711 53.3988 135.113C42.6207 136.072 39.3591 124.92 46.7224 117.978Z" fill="url(#paint4_linear)"/>
</g>
<g filter="url(#filter5_d)">
<path d="M6.45171 55.6855C8.07858 54.1547 10.542 53.5007 12.6222 54.2534C15.163 55.1729 16.7107 58.1581 16.1579 60.8296C15.6015 63.5023 13.1108 65.6103 10.4117 65.8488C4.01884 66.4174 2.08427 59.8027 6.45171 55.6855Z" fill="url(#paint5_linear)"/>
</g>
<g filter="url(#filter6_d)">
<path d="M37.6279 22.5868C37.432 22.94 35.6155 24.2338 35.2159 24.2187C34.7277 24.2003 34.3662 23.1227 34.3143 22.6323C34.2629 22.1414 34.5757 21.6412 35.0274 21.4515C36.0969 21.0015 38.1532 21.6373 37.6279 22.5868Z" fill="url(#paint6_linear)"/>
</g>
<g filter="url(#filter7_d)">
<path d="M156.35 72.8197C156.878 72.3229 157.677 72.1106 158.353 72.3549C159.177 72.6534 159.68 73.6223 159.5 74.4893C159.32 75.3568 158.511 76.041 157.635 76.1185C155.56 76.303 154.932 74.156 156.35 72.8197Z" fill="url(#paint7_linear)"/>
</g>
<g filter="url(#filter8_d)">
<path d="M156.591 78.4535C154.681 78.738 153.046 80.0512 151.128 80.2776C148.998 80.5294 146.616 79.4457 144.8 80.5638C143.458 81.3907 143.006 83.2293 143.46 84.7429C143.913 86.2564 145.096 87.463 146.413 88.3526C149.155 90.2026 152.724 90.8943 155.868 89.9233C158.838 89.0055 161.512 86.3606 162.25 83.3058C162.958 80.3765 159.262 78.0552 156.591 78.4535Z" fill="url(#paint8_linear)"/>
</g>
<g filter="url(#filter9_d)">
<path d="M34.4835 68.0878C35.3996 67.4811 36.8034 67.8548 37.3172 68.8258C37.8317 69.7971 37.3699 71.1485 36.3799 71.624C35.3892 72.0992 34.0619 71.6349 33.5615 70.6558C33.0612 69.6767 33.4466 68.3494 34.3799 67.7693" fill="url(#paint9_linear)"/>
</g>
<path d="M133.245 40.1677L122.367 46.4976L122.148 46.6255L90.8 64.8672L90.5811 64.9946L59.2327 83.2368L59.0138 83.3641L52.3613 87.2354C52.4874 87.3044 52.6157 87.3673 52.7409 87.4368L59.1974 83.6796L59.4162 83.5523L90.7647 65.31L90.9835 65.1827L122.331 46.941L122.551 46.8131L133.547 40.4141C133.447 40.3326 133.347 40.2496 133.245 40.1677Z" fill="url(#paint10_linear)"/>
<path d="M118.692 40.1843L118.472 40.3122L87.1248 58.5539L86.906 58.6813L55.5575 76.9235L55.3387 77.0508L44.1621 83.5547C44.3112 83.6067 44.458 83.6649 44.6067 83.7183L55.5214 77.3668L55.7402 77.2395L87.0887 58.9973L87.3075 58.8699L118.655 40.6282L118.875 40.5003L127.117 35.704C127.003 35.6293 126.887 35.5569 126.773 35.4821L118.692 40.1843Z" fill="url(#paint11_linear)"/>
<path d="M115.018 33.8706L114.799 33.9985L83.4512 52.2402L83.2323 52.3676L51.8839 70.6098L51.665 70.7371L28.6133 84.1514C28.6993 84.2425 28.7843 84.3342 28.8712 84.4248L51.8491 71.0535L52.068 70.9262L83.4164 52.6839L83.6353 52.5566L114.983 34.3148L115.203 34.187L119.938 31.4316C119.811 31.3626 119.685 31.2964 119.557 31.2293L115.018 33.8706Z" fill="url(#paint12_linear)"/>
<path d="M111.345 27.558L111.126 27.6858L79.778 45.9276L79.5592 46.0549L48.2107 64.2972L47.9919 64.4245L23.8574 78.4688C23.9311 78.567 24.0056 78.6648 24.0793 78.7631L48.176 64.7409L48.3948 64.6135L79.7433 46.3713L79.9621 46.2439L111.31 28.0022L111.529 27.8744L112.12 27.5307C111.985 27.4682 111.85 27.4057 111.714 27.3432L111.345 27.558Z" fill="url(#paint13_linear)"/>
<path d="M120.53 43.3415L120.31 43.4693L88.9627 61.7111L88.7439 61.8384L57.3954 80.0807L57.1766 80.208L48.4668 85.2764C48.601 85.3371 48.7315 85.4058 48.8648 85.4671L57.3602 80.5235L57.579 80.3961L88.9275 62.1539L89.1463 62.0266L120.494 43.7848L120.714 43.657L130.43 38.0026C130.323 37.9237 130.217 37.8443 130.11 37.7668L120.53 43.3415Z" fill="url(#paint14_linear)"/>
<path d="M116.856 37.0276L116.637 37.1555L85.2892 55.3972L85.0703 55.5245L53.7219 73.7668L53.503 73.8941L39.3184 82.1484C39.488 82.1873 39.6552 82.236 39.8245 82.2762L53.6866 74.2096L53.9055 74.0823L85.2539 55.84L85.4728 55.7127L116.82 37.4709L117.04 37.3431L123.613 33.5179C123.493 33.4467 123.375 33.3745 123.254 33.3047L116.856 37.0276Z" fill="url(#paint15_linear)"/>
<path d="M113.182 30.7143L112.963 30.8421L81.6149 49.0839L81.3961 49.2112L50.0476 67.4535L49.8288 67.5808L26.1426 81.3643C26.2224 81.459 26.3005 81.5547 26.3803 81.6494L50.0129 67.8972L50.2317 67.7698L81.5802 49.5276L81.799 49.4003L113.147 31.1585L113.366 31.0307L116.097 29.4418C115.966 29.3767 115.836 29.3112 115.705 29.2461L113.182 30.7143Z" fill="url(#paint16_linear)"/>
<path d="M155.194 69.6529L140.737 78.0652L140.518 78.1931L109.17 96.4348L108.951 96.5621L82.3633 112.034C82.4554 112.122 82.5475 112.209 82.6383 112.296L109.135 96.8776L109.354 96.7503L140.701 78.5085L140.921 78.3807L155.335 69.9929C155.288 69.8801 155.241 69.7665 155.194 69.6529Z" fill="url(#paint17_linear)"/>
<path d="M137.063 71.7515L136.844 71.8793L105.496 90.1211L105.277 90.2484L76.8965 106.764C76.9877 106.852 77.079 106.94 77.1702 107.028L105.461 90.5647L105.68 90.4374L137.028 72.1957L137.247 72.0678L152.229 63.3497C152.172 63.2417 152.115 63.1337 152.058 63.0256L137.063 71.7515Z" fill="url(#paint18_linear)"/>
<path d="M133.388 65.4387L133.168 65.5665L101.821 83.8083L101.602 83.9356L71.373 101.526C71.4669 101.613 71.5599 101.7 71.6538 101.786L101.786 84.252L102.005 84.1247L133.352 65.8829L133.572 65.7551L148.51 57.0625C148.443 56.9601 148.378 56.8572 148.31 56.7553L133.388 65.4387Z" fill="url(#paint19_linear)"/>
<path d="M129.714 59.1255L129.494 59.2533L98.1469 77.4951L97.9281 77.6224L66.5796 95.8647L66.3607 95.992L65.5918 96.4395C65.691 96.5229 65.7901 96.6064 65.8893 96.6899L66.5448 96.3084L66.7637 96.181L98.1121 77.9388L98.331 77.8114L129.679 59.5697L129.898 59.4418L144.181 51.1308C144.103 51.0345 144.028 50.9372 143.949 50.842L129.714 59.1255Z" fill="url(#paint20_linear)"/>
<path d="M126.041 52.8113L125.821 52.9392L94.4732 71.1809L94.2544 71.3082L62.9059 89.5505L62.6871 89.6778L59.3477 91.6211C59.456 91.6981 59.5627 91.7783 59.671 91.8553L62.8707 89.9933L63.0895 89.866L94.438 71.6237L94.6568 71.4964L126.004 53.2546L126.224 53.1268L139.213 45.5685C139.124 45.4789 139.033 45.3908 138.944 45.3026L126.041 52.8113Z" fill="url(#paint21_linear)"/>
<path d="M138.899 74.9087L138.679 75.0365L107.332 93.2783L107.113 93.4056L79.623 109.402C79.7143 109.49 79.8055 109.578 79.8968 109.667L107.297 93.722L107.516 93.5946L138.863 75.3529L139.083 75.225L153.858 66.6271C153.806 66.516 153.754 66.4054 153.702 66.2943L138.899 74.9087Z" fill="url(#paint22_linear)"/>
<path d="M135.225 68.5954L135.006 68.7232L103.658 86.9649L103.439 87.0923L74.1543 104.134C74.2464 104.221 74.3389 104.308 74.4316 104.396L103.623 87.4086L103.842 87.2813L135.19 69.0396L135.41 68.9117L150.446 60.1619C150.384 60.0569 150.322 59.9515 150.26 59.8465L135.225 68.5954Z" fill="url(#paint23_linear)"/>
<path d="M131.552 62.2818L131.333 62.4097L99.985 80.6514L99.7662 80.7788L68.5293 98.9561C68.6258 99.0411 68.7236 99.1242 68.8206 99.21L99.9503 81.0951L100.169 80.9678L131.517 62.726L131.736 62.5982L146.424 54.0514C146.352 53.9521 146.282 53.8517 146.208 53.7534L131.552 62.2818Z" fill="url(#paint24_linear)"/>
<path d="M127.879 55.968L127.659 56.0959L96.3115 74.3376L96.0927 74.465L64.7442 92.7072L64.5253 92.8345L62.541 93.9893C62.6446 94.0702 62.7511 94.1481 62.8552 94.2299L64.7094 93.1509L64.9283 93.0236L96.2768 74.7813L96.4956 74.654L127.843 56.4122L128.063 56.2844L141.782 48.3011C141.698 48.2084 141.615 48.1158 141.531 48.0236L127.879 55.968Z" fill="url(#paint25_linear)"/>
<path d="M124.204 49.6549L123.984 49.7828L92.6362 68.0245L92.4174 68.1519L61.0689 86.3941L60.8501 86.5214L55.9648 89.3643C56.0816 89.4375 56.1969 89.5104 56.3128 89.5841L61.0337 86.8369L61.2525 86.7096L92.601 68.4674L92.8198 68.34L124.167 50.0983L124.387 49.9704L136.471 42.9383C136.377 42.8523 136.282 42.7677 136.186 42.6822L124.204 49.6549Z" fill="url(#paint26_linear)"/>
<path d="M155.433 103.319L155.214 103.447L123.866 121.688L123.647 121.816L107.834 131.018C107.97 131.08 108.105 131.142 108.241 131.203L123.83 122.132L124.049 122.004L155.396 103.763L155.616 103.635L160.521 100.78C160.533 100.633 160.541 100.486 160.552 100.34L155.433 103.319Z" fill="url(#paint27_linear)"/>
<path d="M151.758 97.0057L151.538 97.1336L120.191 115.375L119.972 115.503L100.389 126.898C100.503 126.972 100.615 127.05 100.73 127.122L120.155 115.818L120.374 115.691L151.722 97.4491L151.942 97.3212L160.576 92.2968C160.567 92.1621 160.555 92.0266 160.545 91.8924L151.758 97.0057Z" fill="url(#paint28_linear)"/>
<path d="M148.084 90.6922L147.864 90.82L116.517 109.062L116.298 109.189L93.8887 122.229C93.9913 122.311 94.0931 122.393 94.1962 122.473L116.481 109.505L116.7 109.378L148.047 91.136L148.267 91.0082L159.582 84.4235C159.559 84.2961 159.538 84.168 159.515 84.0405L148.084 90.6922Z" fill="url(#paint29_linear)"/>
<path d="M144.409 84.378L144.19 84.5058L112.842 102.748L112.623 102.875L87.959 117.228C88.0546 117.313 88.1503 117.399 88.2454 117.483L112.807 103.19L113.026 103.063L144.373 84.8213L144.593 84.6935L157.804 77.0058C157.768 76.8855 157.73 76.7676 157.694 76.6473L144.409 84.378Z" fill="url(#paint30_linear)"/>
<path d="M157.269 106.476L157.049 106.604L125.702 124.846L125.483 124.973L112.102 132.76C112.253 132.814 112.406 132.864 112.557 132.917L125.667 125.288L125.885 125.161L157.233 106.919L157.453 106.791L159.928 105.351C159.956 105.195 159.983 105.038 160.009 104.881L157.269 106.476Z" fill="url(#paint31_linear)"/>
<path d="M153.595 100.162L153.375 100.29L122.028 118.531L121.809 118.659L103.949 129.052C104.074 129.12 104.2 129.187 104.324 129.256L121.992 118.975L122.211 118.847L153.558 100.606L153.778 100.478L160.702 96.4487C160.703 96.3069 160.706 96.165 160.706 96.0242L153.595 100.162Z" fill="url(#paint32_linear)"/>
<path d="M149.922 93.8485L149.702 93.9764L118.354 112.218L118.136 112.345L97.0488 124.616C97.1576 124.694 97.2677 124.77 97.3765 124.848L118.319 112.661L118.538 112.534L149.886 94.2919L150.105 94.164L160.187 88.2974C160.169 88.1663 160.154 88.0352 160.137 87.9041L149.922 93.8485Z" fill="url(#paint33_linear)"/>
<path d="M146.247 87.5359L146.027 87.6638L114.68 105.906L114.461 106.033L90.8633 119.765C90.9624 119.848 91.0637 119.929 91.1629 120.013L114.644 106.348L114.863 106.221L146.211 87.9793L146.43 87.8514L158.786 80.6613C158.757 80.5374 158.726 80.4155 158.695 80.2921L146.247 87.5359Z" fill="url(#paint34_linear)"/>
<path d="M142.573 81.2225L142.354 81.3504L111.006 99.5921L110.787 99.7194L85.1309 114.649C85.2247 114.736 85.3177 114.823 85.4116 114.91L110.972 100.035L111.191 99.908L142.539 81.6662L142.758 81.5384L156.652 73.4533C156.611 73.3361 156.568 73.2199 156.526 73.1032L142.573 81.2225Z" fill="url(#paint35_linear)"/>
<path d="M158.932 109.734L158.887 109.76L127.54 128.001L127.321 128.129L116.879 134.205C117.051 134.247 117.224 134.287 117.397 134.327L127.505 128.445L127.724 128.318L158.786 110.242C158.835 110.072 158.884 109.904 158.932 109.734Z" fill="url(#paint36_linear)"/>
<path d="M130.993 134.443L129.311 135.422C129.59 135.404 129.868 135.383 130.147 135.359L131.178 134.759L131.396 134.632L153.101 122.001C153.272 121.763 153.442 121.525 153.608 121.283L131.212 134.315L130.993 134.443Z" fill="url(#paint37_linear)"/>
<path d="M129.158 131.287L122.406 135.216C122.608 135.239 122.809 135.266 123.011 135.286L129.342 131.602L129.56 131.475L156.791 115.629C156.876 115.442 156.955 115.251 157.037 115.064L129.377 131.159L129.158 131.287Z" fill="url(#paint38_linear)"/>
<path d="M39.5213 5.96828L27.2138 13.1303C26.7456 13.5286 26.2845 13.9369 25.834 14.3555L41.1945 5.41697C40.6326 5.58749 40.0747 5.77096 39.5213 5.96828Z" fill="url(#paint39_linear)"/>
<path d="M22.4571 20.546L22.6759 20.4187L50.9794 3.94838C50.7356 3.94791 50.4913 3.94655 50.2483 3.95149L22.4932 20.1027L22.2744 20.23L19.5044 21.8419C19.3552 22.0687 19.205 22.2937 19.0605 22.5225L22.4571 20.546Z" fill="url(#paint40_linear)"/>
<path d="M40.8276 52.1133L41.0465 51.986L72.3949 33.7437L72.6138 33.6164L95.4019 20.3556C95.2605 20.2967 95.1201 20.2372 94.9796 20.1778L72.4305 33.2995L72.2117 33.4269L40.8632 51.6691L40.6444 51.7964L16.6594 65.7538C16.7058 65.8679 16.754 65.9811 16.8013 66.0947L40.8276 52.1133Z" fill="url(#paint41_linear)"/>
<path d="M37.1533 45.8004L37.3721 45.6731L68.7206 27.4308L68.9394 27.3035L87.0444 16.7679C86.9075 16.7064 86.7705 16.6449 86.6336 16.5834L68.7562 26.9866L68.5374 27.114L37.1889 45.3562L36.9701 45.4835L14.3322 58.6569C14.3637 58.7798 14.3987 58.9006 14.4302 59.0234L37.1533 45.8004Z" fill="url(#paint42_linear)"/>
<path d="M33.4787 39.4872L33.6976 39.3599L65.046 21.1177L65.2649 20.9903L79.026 12.9825C78.8943 12.9179 78.7635 12.8529 78.6323 12.7892L65.0821 20.6743L64.8633 20.8016L33.5148 39.0439L33.296 39.1712L12.9703 50.9991C12.9842 51.1322 12.995 51.2659 13.0098 51.3985L33.4787 39.4872Z" fill="url(#paint43_linear)"/>
<path d="M29.8055 33.1741L30.0243 33.0467L61.3728 14.8045L61.5916 14.6772L71.0607 9.16695C70.9246 9.10496 70.7886 9.04297 70.653 8.98186L61.4081 14.3617L61.1892 14.489L29.8407 32.7313L29.6219 32.8586L12.7921 42.6522C12.7826 42.7977 12.7737 42.944 12.7656 43.0899L29.8055 33.1741Z" fill="url(#paint44_linear)"/>
<path d="M26.1307 26.8601L26.3495 26.7328L57.698 8.49055L57.9168 8.36322L62.3319 5.794C62.1716 5.74494 62.0102 5.70005 61.8486 5.65289L57.7332 8.04773L57.5144 8.17506L26.1659 26.4173L25.9471 26.5446L14.3513 33.2924C14.3045 33.4585 14.2618 33.6257 14.2168 33.793L26.1307 26.8601Z" fill="url(#paint45_linear)"/>
<path d="M38.9901 48.9571L39.2089 48.8297L70.5574 30.5875L70.7762 30.4602L91.1925 18.5796C91.0529 18.5196 90.9124 18.4602 90.7737 18.3998L70.593 30.1433L70.3742 30.2706L39.0257 48.5129L38.8069 48.6402L15.3869 62.2687C15.4254 62.3875 15.4626 62.5058 15.5025 62.625L38.9901 48.9571Z" fill="url(#paint46_linear)"/>
<path d="M35.3164 42.6436L35.5352 42.5163L66.8837 24.2741L67.1025 24.1467L82.9868 14.9034C82.8534 14.8399 82.7208 14.7758 82.5883 14.7118L66.9193 23.8298L66.7005 23.9572L35.352 42.1994L35.1332 42.3268L13.5235 54.9018C13.5471 55.0293 13.5702 55.1558 13.5943 55.2841L35.3164 42.6436Z" fill="url(#paint47_linear)"/>
<path d="M31.6419 36.3301L31.8607 36.2028L63.2092 17.9605L63.428 17.8332L75.0809 11.0522C74.9483 10.9882 74.8158 10.9241 74.6838 10.861L63.2453 17.5172L63.0265 17.6445L31.678 35.8868L31.4592 36.0141L12.7092 46.9251C12.7125 47.0643 12.7145 47.2032 12.7187 47.3419L31.6419 36.3301Z" fill="url(#paint48_linear)"/>
<path d="M27.9696 30.017L28.1884 29.8897L59.5369 11.6474L59.7557 11.5201L66.8634 7.384C66.7186 7.32713 66.575 7.26835 66.4311 7.21323L59.5721 11.2046L59.3533 11.332L28.0048 29.5742L27.786 29.7015L13.299 38.1318C13.2742 38.2874 13.2449 38.4432 13.2207 38.5997L27.9696 30.017Z" fill="url(#paint49_linear)"/>
<path d="M24.2947 23.704L24.5135 23.5767L55.862 5.33445L56.0808 5.20712L57.2303 4.53822C57.0436 4.5045 56.8566 4.47217 56.6706 4.4416L55.8972 4.89163L55.6784 5.01896L24.3299 23.2612L24.1111 23.3885L16.2045 27.9895C16.1257 28.1754 16.0468 28.3613 15.9707 28.5479L24.2947 23.704Z" fill="url(#paint50_linear)"/>
<path d="M46.0445 91.3348L45.8232 91.0413L40.3359 94.2344C40.4465 94.3112 40.5583 94.3861 40.6698 94.4624L46.0445 91.3348Z" fill="url(#paint51_linear)"/>
<path d="M41.6051 85.4664L41.3828 85.1734L34.1055 89.4082C34.2029 89.4927 34.2994 89.5777 34.3971 89.6608L41.6051 85.4664Z" fill="url(#paint52_linear)"/>
<path d="M44.5 58.4268L44.7189 58.2994L76.0673 40.0572L76.2862 39.9299L103.854 23.8876C103.714 23.8282 103.574 23.7682 103.434 23.7088L76.1029 39.613L75.8841 39.7403L44.5356 57.9826L44.3168 58.1099L19.852 72.3465C19.9124 72.4524 19.9747 72.5574 20.0361 72.6628L44.5 58.4268Z" fill="url(#paint53_linear)"/>
<path d="M43.8261 88.4001L43.6039 88.1071L37.1289 91.875C37.2333 91.9554 37.3372 92.0349 37.4417 92.1153L43.8261 88.4001Z" fill="url(#paint54_linear)"/>
<path d="M31.5422 87.0962L39.3837 82.5331L39.1623 82.2396L31.2637 86.8359C31.3553 86.9226 31.45 87.0086 31.5422 87.0962Z" fill="url(#paint55_linear)"/>
<path d="M46.3395 61.5841L46.5583 61.4568L77.9068 43.2146L78.1256 43.0872L108.03 25.6852C107.892 25.6242 107.754 25.5638 107.615 25.5033L77.9424 42.7703L77.7236 42.8977L46.3751 61.1399L46.1563 61.2673L21.7617 75.4629C21.8284 75.5653 21.8932 75.6687 21.9608 75.7706L46.3395 61.5841Z" fill="url(#paint56_linear)"/>
<path d="M18.3111 69.4433L42.6652 55.2712L42.884 55.1439L74.2325 36.9016L74.4513 36.7743L99.6359 22.1189C99.4946 22.06 99.3532 22.0011 99.2119 21.9422L74.2672 36.4579L74.0484 36.5853L42.6999 54.8275L42.4811 54.9548L18.1516 69.1126C18.205 69.2227 18.2567 69.3338 18.3111 69.4433Z" fill="url(#paint57_linear)"/>
<path d="M50.4845 97.2021L50.2622 96.9091L47.3438 98.6074C47.4675 98.6766 47.5904 98.7462 47.7145 98.814L50.4845 97.2021Z" fill="url(#paint58_linear)"/>
<path d="M52.7044 100.136L52.4817 99.8422L51.1582 100.612C51.289 100.677 51.4189 100.743 51.5497 100.808L52.7044 100.136Z" fill="url(#paint59_linear)"/>
<path d="M43.7402 96.4785C43.857 96.5518 43.9741 96.6236 44.0917 96.6963L48.2651 94.2677L48.0428 93.9748L43.7402 96.4785Z" fill="url(#paint60_linear)"/>
</g>
<path d="M67.0129 90.5332C66.9373 90.6872 65.7123 93.1781 64.357 95.8414C62.9555 98.5908 62.3945 102.257 62.3945 102.257C62.3945 102.257 58.6838 103.846 55.8116 104.579C55.8116 104.579 59.4529 104.946 62.1151 103.846C62.1151 103.846 60.224 111.055 57.213 112.307L53.8617 113.498L57.1416 113.621C57.1416 113.621 54.6496 116.431 53.3595 118.112C51.107 121.044 47.4048 122.555 44.4022 123.207C43.9945 123.295 43.6017 123.367 43.2255 123.425C40.0738 123.915 42.7255 122.175 42.7255 122.175C42.7255 122.175 39.1429 119.547 41.5236 113.56C43.9042 107.572 45.3057 104.396 45.3057 103.05C45.3057 103.05 46.4256 104.396 46.5664 105.496C46.5664 105.496 46.9173 101.89 49.9283 98.8969C52.9393 95.9019 58.4023 94.2522 58.4023 94.2522L57.5618 96.5141C57.5618 96.5141 59.1734 94.5583 60.9951 93.5191C62.6025 92.6026 65.9014 91.3049 66.7966 90.7202C66.8825 90.6713 66.9561 90.6077 67.0129 90.5332Z" fill="#74AEAF"/>
<path opacity="0.68" d="M149.678 99.0801H139.91V124.748H149.678V99.0801Z" fill="#E2E8E6"/>
<path opacity="0.68" d="M149.678 95.8252H139.91V97.3046H149.678V95.8252Z" fill="#E2E8E6"/>
<path opacity="0.68" d="M135.025 78.0674H113.453V123.52H135.025V78.0674Z" fill="#E2E8E6"/>
<path d="M121.473 98.8599V98.539C126.937 98.539 131.382 94.6612 131.382 89.8945H131.75C131.75 94.8381 127.14 98.8599 121.473 98.8599Z" fill="#070C0A"/>
<path d="M83.7344 39.3581C83.7344 42.0616 88.0117 45.6359 95.0506 45.086C102.089 44.5361 100.881 47.1022 100.881 47.1022L105.714 48.0645C105.714 48.0645 107.815 47.148 106.975 45.5442C106.134 43.9404 106.502 43.4363 108.288 41.5118C110.074 39.5872 108.025 34.2717 102.667 36.5628C102.667 36.5628 99.7092 34.6016 96.1012 33.7811C90.9625 32.6126 83.7344 33.5714 83.7344 39.3581Z" fill="#1B1C17"/>
<path d="M110.021 51.6841L103.247 55.8375L102.43 54.7414L101.257 53.1724L99.4629 50.7676L101.846 47.3382L102.405 46.5353L103.087 46.002L107.382 49.4772L110.021 51.6841Z" fill="#F6C5A7"/>
<path d="M101.257 53.1725L99.4629 50.7677L101.846 47.3383C102.4 46.9607 102.781 46.7041 102.781 46.7041C102.781 46.7041 103.712 50.9033 101.257 53.1725Z" fill="#F0B48D"/>
<path d="M90.7441 43.3179C90.7441 43.3179 92.2672 50.4324 96.689 51.9753C101.111 53.5182 102.781 46.7037 102.781 46.7037C102.781 46.7037 104.796 45.7608 104.059 43.875C103.322 41.9892 101.16 43.1036 101.209 44.2179C101.209 44.2179 100.914 45.2036 100.325 44.8179C99.7351 44.4322 99.5877 41.6035 99.5877 41.6035C99.5877 41.6035 93.6429 44.0465 90.7441 43.3179Z" fill="#F6C5A7"/>
<path d="M102.372 36.8287C98.1293 32.5922 93.0432 32.9155 92.9924 32.9192L92.9609 32.5996C93.0136 32.5953 98.2786 32.2535 102.649 36.6175L102.372 36.8287Z" fill="#1B1C17"/>
<path d="M85.4342 59.019C85.4342 59.019 84.3521 57.4889 83.8268 58.2526C83.3015 59.0164 85.1861 61.2508 85.1861 61.2508C85.1861 61.2508 86.6417 62.1937 86.4679 61.4909C86.3039 60.8278 85.4342 59.019 85.4342 59.019Z" fill="#F6C5A7"/>
<path d="M83.3691 65.1566L85.1008 66.012L87.6436 63.4044L86.1377 60.7881L83.734 61.0936L83.3691 65.1566Z" fill="#F6C5A7"/>
<path d="M23.3477 94.1133C23.3477 94.1133 24.9235 99.2489 24.9235 101.723C24.9235 104.198 26.4994 106.856 26.4994 106.856L32.908 108.458L27.55 108.688C27.55 108.688 28.7056 111.621 30.0714 112.721C31.4372 113.821 33.4333 115.745 34.694 117.212C35.9547 118.678 39.1065 118.403 39.1065 118.403L36.6774 119.869C36.6774 119.869 38.5341 120.328 39.8709 121.611C41.2076 122.894 45.6194 122.802 45.6194 122.802C45.6194 122.802 48.3166 119.167 46.2855 112.996C44.2543 106.825 42.0131 105.236 42.0131 105.236L40.5423 108.458L39.7718 102.976C39.7718 102.976 36.3399 100.776 33.3983 99.7988C30.4566 98.8212 29.1959 97.6603 29.1959 97.6603L29.6862 99.6766C28.7769 98.8329 27.9997 97.8878 27.3749 96.8661C26.3243 95.1553 23.3477 94.1133 23.3477 94.1133Z" fill="#72A797"/>
<path opacity="0.59" d="M25.5539 81.042C25.5539 81.042 29.4558 86.1179 32.2076 88.3127C35.1953 90.6955 32.908 97.1108 32.908 97.1108C32.908 97.1108 35.4994 92.9561 35.4994 91.9174C35.4994 91.9174 38.301 94.3614 38.7913 96.011C39.2816 97.6607 40.3813 98.3437 39.8709 100.532C39.3604 102.721 40.6123 102.365 41.1726 100.532C41.1726 100.532 42.2932 102.915 43.624 104.381C44.9547 105.848 46.9541 115.273 46.8841 115.457C46.8141 115.64 38.5714 115.374 34.4489 107.436C33.6885 105.972 29.6162 104.381 28.1453 102.915C26.6745 101.449 24.2669 96.5227 23.3477 94.1136L25.7377 94.5294C25.7377 94.5294 23.7076 93.0963 23.7679 91.2148C23.8286 89.3195 26.1142 84.0358 25.5539 81.042Z" fill="#74AEAF"/>
<path d="M42.7257 130.868H42.7257C40.089 130.868 37.9997 129.171 37.4245 126.927C37.1145 125.717 36.6777 122.161 36.6777 122.161H48.7736C48.7736 122.161 48.3369 125.717 48.0268 126.927C47.4516 129.171 45.3623 130.868 42.7257 130.868Z" fill="#D0DBD7"/>
<path d="M85.8928 64.6984L85.1009 66.012C85.1009 66.012 84.8422 67.234 86.6282 68.7003C88.4142 70.1667 92.3365 72.7939 92.3365 72.7939L97.0291 72.1524L98.2198 68.0894C98.2198 68.0894 88.4375 62.5906 87.6438 63.4045C87.1397 63.9116 86.5491 64.348 85.8928 64.6984Z" fill="#2E67BB"/>
<path d="M97.0645 75.4204C97.0645 75.4204 102.247 79.4761 105.469 77.6316C108.691 75.787 102.948 70.166 102.948 70.166L97.0645 75.4204Z" fill="#BDC7C3"/>
<path d="M94.3421 122.803V126.788H88.6953L87.6973 119.823L94.3421 122.803Z" fill="#F6CAAD"/>
<path d="M94.4734 122.804H85.6484L83.8309 115.016L81.6562 105.707V102.548L90.3761 97.4492L90.5253 98.3675L90.7438 99.7239L94.4734 122.804Z" fill="#B4895C"/>
<path d="M91.6536 97.4492L90.7438 99.7239L83.8309 115.016L81.6562 105.707V105.586L90.5253 98.3675L91.6536 97.4492Z" fill="#96734D"/>
<path d="M94.3097 126.789C94.3097 126.789 94.6774 129.309 94.3097 130.867H90.5276C90.5276 130.867 90.0548 129.673 89.1618 130.064C88.2688 130.455 87.2182 130.867 84.7493 130.867H79.0618C79.0618 130.867 78.2091 130.98 78.6617 130.064C79.1144 129.147 85.1229 128.164 88.6949 126.789H94.3097Z" fill="#CC9F66"/>
<path d="M65.8972 120.236L62.9023 126.789H69.0482L73.1981 120.465L65.8972 120.236Z" fill="#F6CAAD"/>
<path d="M121.767 90.0546C121.763 90.1151 121.755 90.1737 121.746 90.2361C121.528 91.7556 121.145 92.9616 120.658 93.9294C119.04 97.1591 116.285 97.7401 114.749 98.5154C112.753 99.5235 88.6948 100.532 88.6948 100.532L74.2492 122.804H64.7246C64.7246 122.804 76.0658 95.1579 78.5041 93.2018C80.4966 91.6033 95.9607 88.6102 102.241 87.0523C103.825 86.66 104.804 86.4181 104.804 86.4181C104.804 86.4181 116.071 84.6713 120.248 87.2447C121.286 87.8844 121.885 88.7899 121.767 90.0546Z" fill="#CC9F66"/>
<path d="M68.2158 122.876L67.8867 122.733C67.9235 122.668 71.6095 116.219 75.3665 109.808C82.9964 96.7877 83.4799 96.6046 83.6619 96.5357C84.6343 96.1675 109.409 91.2229 110.464 91.0127L110.546 91.3254C101.654 93.0992 84.6637 96.5241 83.8156 96.8273C82.9848 97.3621 74.037 112.688 68.2158 122.876Z" fill="#96734D"/>
<path d="M121.766 90.0545C121.762 90.115 121.754 90.1737 121.745 90.236C121.527 91.7555 121.144 92.9616 120.657 93.9294C119.485 93.9697 117.902 93.8102 115.835 93.2017C111.029 91.7904 104.112 88.0805 102.24 87.0522C103.824 86.66 104.804 86.4181 104.804 86.4181C104.804 86.4181 116.07 84.6713 120.247 87.2447L121.766 90.0545Z" fill="#96734D"/>
<path d="M95.209 78.8115H44.6758V80.7276H95.209V78.8115Z" fill="#1B1C17"/>
<path d="M88.1702 81.79H51.7148V82.4603H88.1702V81.79Z" fill="#1B1C17"/>
<path d="M51.7142 80.5439L46.5664 130.867H47.3018L55.8114 80.5439H51.7142Z" fill="#1B1C17"/>
<path d="M88.1695 80.5439L93.3174 130.867H92.582L84.0723 80.5439H88.1695Z" fill="#1B1C17"/>
<path d="M58.6418 67.8037H53.3594V77.815H58.6418V67.8037Z" fill="#1B1C17"/>
<path d="M73.3675 74.448H44.5815L38.2539 56.3936H67.0399L73.3675 74.448Z" fill="#3060A9"/>
<path opacity="0.26" d="M57.9182 73.5311H45.5563L39.8711 57.3096H52.233L57.9182 73.5311Z" fill="#70AEAB"/>
<path d="M55.7027 71.607H46.4225L46.3262 71.332H55.6063L55.7027 71.607Z" fill="#70AEAB"/>
<path d="M54.9976 69.5904H45.7174L45.6211 69.3154H54.9012L54.9976 69.5904Z" fill="#70AEAB"/>
<path d="M54.2906 67.5738H45.0104L44.9141 67.2988H54.1943L54.2906 67.5738Z" fill="#70AEAB"/>
<path d="M53.5836 65.5582H44.3034L44.207 65.2832H53.4872L53.5836 65.5582Z" fill="#70AEAB"/>
<path d="M52.8766 63.5415H43.5964L43.5 63.2666H52.7802L52.8766 63.5415Z" fill="#70AEAB"/>
<path d="M52.1694 61.525H42.8893L42.793 61.25H52.0731L52.1694 61.525Z" fill="#70AEAB"/>
<path d="M51.4624 59.5093H42.1823L42.0859 59.2344H51.3661L51.4624 59.5093Z" fill="#70AEAB"/>
<path opacity="0.26" d="M71.6467 73.5311H59.2848L53.5996 57.3096H65.9615L71.6467 73.5311Z" fill="#70AEAB"/>
<path d="M69.4313 71.607H60.1511L60.0547 71.332H69.3349L69.4313 71.607Z" fill="#70AEAB"/>
<path d="M68.7242 69.5904H59.444L59.3477 69.3154H68.6278L68.7242 69.5904Z" fill="#70AEAB"/>
<path d="M68.0171 67.5738H58.737L58.6406 67.2988H67.9208L68.0171 67.5738Z" fill="#70AEAB"/>
<path d="M67.3102 65.5582H58.03L57.9336 65.2832H67.2138L67.3102 65.5582Z" fill="#70AEAB"/>
<path d="M66.6051 63.5415H57.3249L57.2285 63.2666H66.5087L66.6051 63.5415Z" fill="#70AEAB"/>
<path d="M65.898 61.525H56.6178L56.5215 61.25H65.8016L65.898 61.525Z" fill="#70AEAB"/>
<path d="M65.191 59.5093H55.9108L55.8145 59.2344H65.0947L65.191 59.5093Z" fill="#70AEAB"/>
<path d="M65.6575 78.8921H53.3594V77.7334H64.3294C64.6816 77.7334 65.0194 77.8555 65.2685 78.0728C65.5176 78.2901 65.6575 78.5848 65.6575 78.8921Z" fill="#1B1C17"/>
<path d="M125.15 101.723C125.149 102.574 124.761 103.389 124.072 103.991C123.383 104.592 122.448 104.93 121.473 104.931H102.001C101.133 104.931 100.293 104.662 99.6302 104.174C98.9669 103.686 98.523 103.008 98.3768 102.262C98.3412 102.084 98.3236 101.904 98.3242 101.723C98.325 100.873 98.7127 100.057 99.4021 99.4559C100.092 98.8545 101.026 98.5163 102.001 98.5156H121.473C122.448 98.5167 123.382 98.855 124.072 99.4563C124.761 100.058 125.149 100.873 125.15 101.723Z" fill="#6FACA7"/>
<path d="M134.824 69.8018H134.824C135.799 69.8018 136.734 70.1397 137.424 70.7412C138.113 71.3428 138.501 72.1587 138.501 73.0094V89.9945C138.501 90.8453 138.113 91.6611 137.424 92.2627C136.734 92.8642 135.799 93.2022 134.824 93.2022C133.848 93.2022 132.913 92.8642 132.223 92.2627C131.534 91.6611 131.146 90.8453 131.146 89.9945V73.0094C131.146 72.1587 131.534 71.3428 132.223 70.7412C132.913 70.1397 133.848 69.8018 134.824 69.8018Z" fill="#6FACA7"/>
<path d="M120.422 104.931H119.057V127.384H120.422V104.931Z" fill="#1B1C17"/>
<path d="M120.423 127.385H106.064V128.576H120.423V127.385Z" fill="#1B1C17"/>
<path d="M121.746 104.931H117.734V110.613H121.746V104.931Z" fill="#1B1C17"/>
<path d="M106.956 130.545C107.448 130.116 107.448 129.419 106.956 128.99C106.463 128.56 105.665 128.56 105.173 128.99C104.68 129.419 104.68 130.116 105.173 130.545C105.665 130.975 106.463 130.975 106.956 130.545Z" fill="#1B1C17"/>
<path d="M121.65 130.02C121.81 129.429 121.39 128.836 120.713 128.697C120.035 128.557 119.356 128.923 119.196 129.515C119.036 130.106 119.456 130.698 120.133 130.838C120.811 130.977 121.49 130.611 121.65 130.02Z" fill="#1B1C17"/>
<path d="M69.0603 126.789C69.0603 126.789 69.4019 129.309 69.0603 130.867H65.5467C65.5467 130.867 65.1075 129.673 64.2779 130.064C63.4483 130.455 62.4723 130.867 60.1787 130.867H54.1275C54.1275 130.867 53.3354 130.98 53.7559 130.064C54.1764 129.147 59.5443 128.164 62.8627 126.789H69.0603Z" fill="#CC9F66"/>
<path d="M110.021 51.6844L103.247 55.8377L102.43 54.7417C103.117 53.2644 104.655 50.6799 107.382 49.4775L110.021 51.6844Z" fill="#F8F4F3"/>
<path d="M125.15 90.7262C125.15 90.7262 121.473 93.6589 113.488 90.7262C105.504 87.7935 102.667 86.9466 102.667 86.9466C102.667 86.9466 102.569 85.9019 102.43 84.1954L102.428 84.1935C102.214 81.5285 101.903 77.2522 101.728 72.8293C101.461 66.1135 101.506 59.064 102.667 56.8168C105.084 52.1428 110.022 51.6846 110.022 51.6846C117.166 55.3504 120.948 67.6311 121.782 76.1543C122.616 84.6775 125.15 90.7262 125.15 90.7262Z" fill="#4C85DA"/>
<path d="M108.919 75.1762C107.679 78.6586 102.43 84.1948 102.43 84.1948L102.428 84.193C102.214 81.5279 101.903 77.2517 101.729 72.8288L111.192 59.6445C111.192 59.6445 110.442 70.8993 108.919 75.1762Z" fill="#295FB0"/>
<path d="M77.5158 76.6489L78.1159 78.8121C78.1159 78.8121 98.1157 79.5759 102.668 76.2766C107.221 72.9773 114.089 59.396 109.882 56.3936C105.676 53.3912 101.688 59.2303 100.217 62.9572C98.7461 66.6842 96.0846 70.7865 94.4737 71.332C92.8628 71.8775 77.307 75.8202 77.5158 76.6489Z" fill="#4C85DA"/>
<path d="M84.5956 66.5655H79.6929L78.5723 56.4844H85.7163L84.5956 66.5655Z" fill="#FE707C"/>
<path d="M85.6079 61.8008H83.3691V61.2509H85.6079C86.0591 61.2509 86.4917 61.0946 86.8107 60.8163C87.1297 60.538 87.3089 60.1606 87.3089 59.7671C87.3089 59.3736 87.1297 58.9961 86.8107 58.7179C86.4917 58.4396 86.0591 58.2833 85.6079 58.2833H84.6824V57.7334H85.6079C86.2263 57.7334 86.8192 57.9477 87.2565 58.3291C87.6937 58.7104 87.9393 59.2277 87.9393 59.7671C87.9393 60.3065 87.6937 60.8237 87.2565 61.2051C86.8192 61.5865 86.2263 61.8008 85.6079 61.8008Z" fill="#FE707C"/>
<path d="M78.9084 59.5091C78.9084 59.5091 78.2591 60.1768 78.154 60.9405C78.0489 61.7042 78.0703 62.952 79.3728 63.6875C80.6754 64.4231 82.2512 63.8732 81.3057 62.3763C80.3602 60.8794 79.0916 59.2932 78.9084 59.5091Z" fill="#F6C5A7"/>
<path d="M72.0986 27.6734C76.1604 24.1302 76.1604 18.3854 72.0986 14.8422C68.0368 11.299 61.4514 11.299 57.3896 14.8422C53.3279 18.3854 53.3279 24.1302 57.3896 27.6734C61.4514 31.2167 68.0368 31.2167 72.0986 27.6734Z" fill="#4C85DA"/>
<path d="M70.8479 26.5828C74.2191 23.6419 74.2191 18.8737 70.8479 15.9329C67.4766 12.992 62.0107 12.992 58.6394 15.9329C55.2681 18.8737 55.2681 23.6419 58.6394 26.5828C62.0107 29.5237 67.4766 29.5237 70.8479 26.5828Z" fill="white"/>
<path d="M65.1406 21.6048C65.3603 21.4132 65.3603 21.1024 65.1406 20.9108C64.9209 20.7191 64.5648 20.7191 64.3451 20.9108C64.1254 21.1024 64.1254 21.4132 64.3451 21.6048C64.5648 21.7965 64.9209 21.7965 65.1406 21.6048Z" fill="#4C85DA"/>
<path d="M64.7439 16.4918C64.7119 16.4918 64.6802 16.4863 64.6506 16.4756C64.621 16.4649 64.5941 16.4493 64.5714 16.4295C64.5488 16.4097 64.5308 16.3863 64.5186 16.3605C64.5063 16.3346 64.5 16.307 64.5 16.279V14.6884C64.5 14.6604 64.5063 14.6328 64.5186 14.6069C64.5308 14.5811 64.5488 14.5577 64.5714 14.5379C64.5941 14.5182 64.621 14.5025 64.6506 14.4918C64.6802 14.4811 64.7119 14.4756 64.7439 14.4756C64.776 14.4756 64.8077 14.4811 64.8373 14.4918C64.8669 14.5025 64.8938 14.5182 64.9164 14.5379C64.9391 14.5577 64.957 14.5811 64.9693 14.6069C64.9815 14.6328 64.9879 14.6604 64.9879 14.6884V16.279C64.9879 16.307 64.9815 16.3346 64.9693 16.3605C64.957 16.3863 64.9391 16.4097 64.9164 16.4295C64.8938 16.4493 64.8669 16.4649 64.8373 16.4756C64.8077 16.4863 64.776 16.4918 64.7439 16.4918Z" fill="#4C85DA"/>
<path d="M64.7439 28.0357C64.7119 28.0357 64.6802 28.0302 64.6506 28.0195C64.621 28.0089 64.5941 27.9932 64.5714 27.9734C64.5488 27.9537 64.5308 27.9302 64.5186 27.9044C64.5063 27.8786 64.5 27.8509 64.5 27.823V26.2323C64.5 26.2044 64.5063 26.1767 64.5186 26.1509C64.5308 26.1251 64.5488 26.1016 64.5714 26.0819C64.5941 26.0621 64.621 26.0464 64.6506 26.0357C64.6802 26.025 64.7119 26.0195 64.7439 26.0195C64.8086 26.0195 64.8707 26.042 64.9164 26.0819C64.9622 26.1218 64.9879 26.1759 64.9879 26.2323V27.823C64.9879 27.8794 64.9622 27.9335 64.9164 27.9734C64.8707 28.0133 64.8086 28.0357 64.7439 28.0357Z" fill="#4C85DA"/>
<path d="M70.2031 21.2641C70.2032 21.2077 70.2291 21.1536 70.2749 21.1138C70.3207 21.074 70.3828 21.0517 70.4475 21.0518L72.271 21.0547C72.3357 21.0548 72.3976 21.0774 72.4433 21.1173C72.489 21.1573 72.5145 21.2115 72.5144 21.2679C72.5143 21.3244 72.4885 21.3784 72.4427 21.4183C72.3968 21.4581 72.3347 21.4804 72.27 21.4803L70.4466 21.4773C70.4146 21.4773 70.3829 21.4717 70.3533 21.461C70.3237 21.4502 70.2969 21.4345 70.2742 21.4147C70.2516 21.3949 70.2337 21.3714 70.2215 21.3456C70.2093 21.3198 70.2031 21.2921 70.2031 21.2641Z" fill="#4C85DA"/>
<path d="M56.9707 21.2427C56.9708 21.1862 56.9966 21.1321 57.0425 21.0923C57.0883 21.0525 57.1504 21.0302 57.2151 21.0303L59.0386 21.0332C59.1033 21.0334 59.1653 21.0559 59.2109 21.0958C59.2566 21.1358 59.2822 21.19 59.2821 21.2464C59.282 21.2744 59.2756 21.302 59.2633 21.3278C59.251 21.3536 59.233 21.377 59.2103 21.3968C59.1876 21.4165 59.1607 21.4321 59.1311 21.4428C59.1014 21.4534 59.0697 21.4589 59.0377 21.4588L57.2142 21.4558C57.1495 21.4557 57.0875 21.4332 57.0418 21.3932C56.9962 21.3532 56.9706 21.2991 56.9707 21.2427Z" fill="#4C85DA"/>
<path d="M64.7433 24.8092C64.7157 24.8092 64.6884 24.8045 64.6629 24.7953C64.6374 24.7861 64.6142 24.7725 64.5947 24.7555C64.5752 24.7385 64.5597 24.7183 64.5492 24.6961C64.5386 24.6738 64.5332 24.65 64.5332 24.6259V21.2065L67.7932 16.5345C67.8075 16.5139 67.8263 16.496 67.8486 16.4817C67.8709 16.4675 67.8961 16.4572 67.9229 16.4515C67.9498 16.4458 67.9776 16.4448 68.0049 16.4484C68.0322 16.4521 68.0584 16.4605 68.082 16.473C68.1055 16.4855 68.1261 16.5019 68.1424 16.5214C68.1587 16.5408 68.1704 16.5629 68.1769 16.5863C68.1834 16.6097 68.1846 16.634 68.1804 16.6578C68.1761 16.6816 68.1665 16.7044 68.1522 16.725L64.9534 21.3093V24.6259C64.9534 24.65 64.948 24.6738 64.9375 24.6961C64.9269 24.7183 64.9114 24.7385 64.8919 24.7555C64.8724 24.7726 64.8492 24.7861 64.8237 24.7953C64.7982 24.8045 64.7709 24.8092 64.7433 24.8092Z" fill="#4C85DA"/>
<path d="M86.968 106.976L86.8477 106.997L90.4196 122.815L90.5399 122.794L86.968 106.976Z" fill="#96734D"/>
<path d="M82.1458 67.0695C83.5002 67.0695 84.5981 66.8441 84.5981 66.566C84.5981 66.2879 83.5002 66.0625 82.1458 66.0625C80.7913 66.0625 79.6934 66.2879 79.6934 66.566C79.6934 66.8441 80.7913 67.0695 82.1458 67.0695Z" fill="#FE707C"/>
<path d="M77.5164 76.6484C77.5164 76.6484 74.417 76.7267 73.1826 77.0704C71.9481 77.4141 70.837 78.7909 71.204 78.8117C72.5522 78.8882 73.1595 78.216 74.3223 78.3764C75.4851 78.5368 77.3861 78.8117 78.1165 78.8117L77.5164 76.6484Z" fill="#F6C5A7"/>
<path d="M125.15 101.723C125.149 102.574 124.761 103.389 124.072 103.991C123.383 104.592 122.448 104.93 121.473 104.931H102.001C101.134 104.93 100.294 104.662 99.6304 104.174C98.9671 103.686 98.5231 103.008 98.377 102.262C99.3351 102.592 113.175 107.189 124.37 99.751C124.877 100.313 125.152 101.008 125.15 101.723Z" fill="#4F8D88"/>
<mask id="path-137-inside-1" fill="white">
<path d="M99.9192 23.2926H88.7637V18.2256C88.7641 18.0592 88.8026 17.8946 88.8771 17.7414C88.9515 17.5882 89.0603 17.4496 89.1971 17.3336L90.0792 16.5889L90.147 16.65L89.265 17.3948C89.1376 17.5028 89.0362 17.632 88.9669 17.7746C88.8975 17.9173 88.8616 18.0706 88.8612 18.2256V23.2075H99.8216V18.2256C99.8214 18.0707 99.7857 17.9174 99.7165 17.7747C99.6473 17.632 99.5461 17.5029 99.4189 17.3948L98.5359 16.65L98.6037 16.5889L99.4867 17.3336C99.6233 17.4496 99.732 17.5883 99.8063 17.7415C99.8806 17.8947 99.9189 18.0593 99.9192 18.2256V23.2926Z"/>
</mask>
<path d="M99.9192 23.2926H88.7637V18.2256C88.7641 18.0592 88.8026 17.8946 88.8771 17.7414C88.9515 17.5882 89.0603 17.4496 89.1971 17.3336L90.0792 16.5889L90.147 16.65L89.265 17.3948C89.1376 17.5028 89.0362 17.632 88.9669 17.7746C88.8975 17.9173 88.8616 18.0706 88.8612 18.2256V23.2075H99.8216V18.2256C99.8214 18.0707 99.7857 17.9174 99.7165 17.7747C99.6473 17.632 99.5461 17.5029 99.4189 17.3948L98.5359 16.65L98.6037 16.5889L99.4867 17.3336C99.6233 17.4496 99.732 17.5883 99.8063 17.7415C99.8806 17.8947 99.9189 18.0593 99.9192 18.2256V23.2926Z" fill="#70A794"/>
<path d="M99.9192 23.2926V24.2926H100.919V23.2926H99.9192ZM88.7637 23.2926H87.7637V24.2926H88.7637V23.2926ZM88.7637 18.2256L87.7637 18.2232V18.2256H88.7637ZM89.1971 17.3336L88.552 16.5696L88.5505 16.5708L89.1971 17.3336ZM90.0792 16.5889L90.7487 15.8461L90.1007 15.2619L89.434 15.8248L90.0792 16.5889ZM90.147 16.65L90.7922 17.4141L91.6679 16.6747L90.8166 15.9073L90.147 16.65ZM89.265 17.3948L88.6198 16.6308L88.6184 16.632L89.265 17.3948ZM88.8612 18.2256L87.8612 18.2231V18.2256H88.8612ZM88.8612 23.2075H87.8612V24.2075H88.8612V23.2075ZM99.8216 23.2075V24.2075H100.822V23.2075H99.8216ZM99.8216 18.2256H100.822L100.822 18.2242L99.8216 18.2256ZM99.4189 17.3948L100.066 16.6325L100.064 16.6304L99.4189 17.3948ZM98.5359 16.65L97.866 15.9075L97.0148 16.6754L97.8911 17.4145L98.5359 16.65ZM98.6037 16.5889L99.2484 15.8245L98.5816 15.262L97.9338 15.8463L98.6037 16.5889ZM99.4867 17.3336L100.134 16.5713L100.131 16.5692L99.4867 17.3336ZM99.9192 18.2256H100.919L100.919 18.2241L99.9192 18.2256ZM99.9192 22.2926H88.7637V24.2926H99.9192V22.2926ZM89.7637 23.2926V18.2256H87.7637V23.2926H89.7637ZM89.7637 18.2281C89.7637 18.2159 89.7663 18.1995 89.7765 18.1785L87.9777 17.3043C87.839 17.5897 87.7645 17.9026 87.7637 18.2232L89.7637 18.2281ZM89.7765 18.1785C89.787 18.1568 89.8072 18.1274 89.8437 18.0965L88.5505 16.5708C88.3135 16.7718 88.116 17.0196 87.9777 17.3043L89.7765 18.1785ZM89.8423 18.0977L90.7243 17.3529L89.434 15.8248L88.552 16.5696L89.8423 18.0977ZM89.4096 17.3316L89.4775 17.3928L90.8166 15.9073L90.7487 15.8461L89.4096 17.3316ZM89.5019 15.886L88.6198 16.6308L89.9101 18.1589L90.7922 17.4141L89.5019 15.886ZM88.6184 16.632C88.3907 16.825 88.2007 17.0633 88.0675 17.3376L89.8663 18.2117C89.8717 18.2006 89.8845 18.1806 89.9116 18.1576L88.6184 16.632ZM88.0675 17.3376C87.9339 17.6124 87.862 17.914 87.8613 18.2231L89.8612 18.2281C89.8612 18.2272 89.8613 18.2258 89.8619 18.2236C89.8624 18.2213 89.8636 18.2173 89.8663 18.2117L88.0675 17.3376ZM87.8612 18.2256V23.2075H89.8612V18.2256H87.8612ZM88.8612 24.2075H99.8216V22.2075H88.8612V24.2075ZM100.822 23.2075V18.2256H98.8216V23.2075H100.822ZM100.822 18.2242C100.821 17.915 100.75 17.6134 100.616 17.3385L98.8166 18.2109C98.8193 18.2165 98.8205 18.2204 98.821 18.2226C98.8215 18.2248 98.8216 18.2262 98.8216 18.227L100.822 18.2242ZM100.616 17.3385C100.483 17.0642 100.294 16.8257 100.066 16.6325L98.7716 18.1571C98.7986 18.18 98.8113 18.1999 98.8166 18.2109L100.616 17.3385ZM100.064 16.6304L99.1806 15.8856L97.8911 17.4145L98.7742 18.1592L100.064 16.6304ZM99.2057 17.3926L99.2735 17.3314L97.9338 15.8463L97.866 15.9075L99.2057 17.3926ZM97.9589 17.3533L98.842 18.0981L100.131 16.5692L99.2484 15.8245L97.9589 17.3533ZM98.8395 18.096C98.8759 18.1269 98.896 18.1562 98.9065 18.1778L100.706 17.3052C100.568 17.0204 100.371 16.7724 100.134 16.5713L98.8395 18.096ZM98.9065 18.1778C98.9166 18.1987 98.9192 18.215 98.9192 18.2271L100.919 18.2241C100.919 17.9036 100.844 17.5907 100.706 17.3052L98.9065 18.1778ZM98.9192 18.2256V23.2926H100.919V18.2256H98.9192Z" fill="white" mask="url(#path-137-inside-1)"/>
<mask id="path-139-inside-2" fill="white">
<path d="M95.5671 14.1453L95.2012 13.8363C95.0329 13.6933 94.8212 13.5953 94.5912 13.5538C94.3611 13.5124 94.1223 13.5291 93.9028 13.6022C93.7374 13.6582 93.587 13.7435 93.461 13.8526L93.1148 14.1453L93.0469 14.0841L93.3933 13.7913C93.5289 13.6741 93.6907 13.5826 93.8687 13.5224C94.1055 13.4436 94.3631 13.4255 94.6112 13.4703C94.8593 13.5151 95.0876 13.6209 95.2691 13.7751L95.635 14.0841L95.5671 14.1453Z"/>
</mask>
<path d="M95.5671 14.1453L95.2012 13.8363C95.0329 13.6933 94.8212 13.5953 94.5912 13.5538C94.3611 13.5124 94.1223 13.5291 93.9028 13.6022C93.7374 13.6582 93.587 13.7435 93.461 13.8526L93.1148 14.1453L93.0469 14.0841L93.3933 13.7913C93.5289 13.6741 93.6907 13.5826 93.8687 13.5224C94.1055 13.4436 94.3631 13.4255 94.6112 13.4703C94.8593 13.5151 95.0876 13.6209 95.2691 13.7751L95.635 14.0841L95.5671 14.1453Z" fill="#70A794"/>
<path d="M95.5671 14.1453L94.9219 14.9093L95.5886 15.4722L96.2367 14.888L95.5671 14.1453ZM95.2012 13.8363L94.5538 14.5985L94.556 14.6003L95.2012 13.8363ZM93.9028 13.6022L93.5871 12.6533L93.5817 12.6551L93.9028 13.6022ZM93.461 13.8526L94.1066 14.6164L94.1158 14.6084L93.461 13.8526ZM93.1148 14.1453L92.4453 14.8881L93.0937 15.4724L93.7603 14.909L93.1148 14.1453ZM93.0469 14.0841L92.4014 13.3203L91.5263 14.0599L92.3774 14.8269L93.0469 14.0841ZM93.3933 13.7913L94.0388 14.5551L94.0471 14.5479L93.3933 13.7913ZM93.8687 13.5224L93.553 12.5735L93.5483 12.5751L93.8687 13.5224ZM95.2691 13.7751L94.6215 14.5371L94.6239 14.5391L95.2691 13.7751ZM95.635 14.0841L96.3045 14.8268L97.1557 14.0595L96.2802 13.3201L95.635 14.0841ZM96.2123 13.3812L95.8464 13.0723L94.556 14.6003L94.9219 14.9093L96.2123 13.3812ZM95.8486 13.0741C95.538 12.8103 95.1616 12.6406 94.7687 12.5697L94.4137 14.538C94.4808 14.5501 94.5278 14.5763 94.5538 14.5985L95.8486 13.0741ZM94.7687 12.5697C94.3757 12.4988 93.9672 12.5268 93.5871 12.6533L94.2185 14.551C94.2774 14.5314 94.3466 14.5259 94.4137 14.538L94.7687 12.5697ZM93.5817 12.6551C93.2998 12.7507 93.0347 12.8989 92.8063 13.0967L94.1158 14.6084C94.1392 14.5881 94.175 14.5658 94.2239 14.5492L93.5817 12.6551ZM92.8155 13.0888L92.4692 13.3815L93.7603 14.909L94.1066 14.6163L92.8155 13.0888ZM93.7842 13.4024L93.7163 13.3412L92.3774 14.8269L92.4453 14.8881L93.7842 13.4024ZM93.6924 14.8478L94.0388 14.5551L92.7477 13.0276L92.4014 13.3203L93.6924 14.8478ZM94.0471 14.5479C94.0803 14.5193 94.1276 14.4905 94.1892 14.4696L93.5483 12.5751C93.2539 12.6747 92.9775 12.829 92.7394 13.0347L94.0471 14.5479ZM94.1844 14.4712C94.2605 14.4459 94.3484 14.4391 94.4336 14.4544L94.7889 12.4862C94.3778 12.412 93.9504 12.4413 93.553 12.5735L94.1844 14.4712ZM94.4336 14.4544C94.5188 14.4698 94.5823 14.5038 94.6215 14.5371L95.9167 13.0132C95.593 12.738 95.1999 12.5604 94.7889 12.4862L94.4336 14.4544ZM94.6239 14.5391L94.9898 14.8481L96.2802 13.3201L95.9143 13.0111L94.6239 14.5391ZM94.9654 13.3413L94.8975 13.4025L96.2367 14.888L96.3045 14.8268L94.9654 13.3413Z" fill="white" mask="url(#path-139-inside-2)"/>
<mask id="path-141-inside-3" fill="white">
<path d="M94.3404 21.4277L94.3143 21.4129L88.7852 18.2608L88.8385 18.1895L94.3416 21.3268L99.8443 18.3337L99.8959 18.4059L94.3404 21.4277Z"/>
</mask>
<path d="M94.3404 21.4277L94.3143 21.4129L88.7852 18.2608L88.8385 18.1895L94.3416 21.3268L99.8443 18.3337L99.8959 18.4059L94.3404 21.4277Z" fill="#70A794"/>
<path d="M94.3404 21.4277L93.847 22.2975L94.3302 22.5716L94.8182 22.3062L94.3404 21.4277ZM94.3143 21.4129L93.819 22.2816L93.821 22.2827L94.3143 21.4129ZM88.7852 18.2608L87.9844 17.6618L87.306 18.5686L88.2899 19.1295L88.7852 18.2608ZM88.8385 18.1895L89.3338 17.3207L88.5667 16.8834L88.0378 17.5904L88.8385 18.1895ZM94.3416 21.3268L93.8463 22.1955L94.3302 22.4714L94.8194 22.2053L94.3416 21.3268ZM99.8443 18.3337L100.658 17.7522L100.143 17.0327L99.3665 17.4553L99.8443 18.3337ZM99.8959 18.4059L100.374 19.2844L101.367 18.7442L100.709 17.8244L99.8959 18.4059ZM94.8337 20.5579L94.8076 20.5431L93.821 22.2827L93.847 22.2975L94.8337 20.5579ZM94.8096 20.5442L89.2804 17.392L88.2899 19.1295L93.819 22.2816L94.8096 20.5442ZM89.5859 18.8598L89.6392 18.7885L88.0378 17.5904L87.9844 17.6618L89.5859 18.8598ZM88.3432 19.0582L93.8463 22.1955L94.8369 20.4581L89.3338 17.3207L88.3432 19.0582ZM94.8194 22.2053L100.322 19.2122L99.3665 17.4553L93.8638 20.4483L94.8194 22.2053ZM99.0308 18.9153L99.0824 18.9875L100.709 17.8244L100.658 17.7522L99.0308 18.9153ZM99.4181 17.5275L93.8626 20.5492L94.8182 22.3062L100.374 19.2844L99.4181 17.5275Z" fill="white" mask="url(#path-141-inside-3)"/>
<mask id="path-143-inside-4" fill="white">
<path d="M98.6186 19.078H98.521V14.1574H90.162V18.9674H90.0645V14.0723H98.6186V19.078Z"/>
</mask>
<path d="M98.6186 19.078H98.521V14.1574H90.162V18.9674H90.0645V14.0723H98.6186V19.078Z" fill="#70A794"/>
<path d="M98.6186 19.078V20.078H99.6186V19.078H98.6186ZM98.521 19.078H97.521V20.078H98.521V19.078ZM98.521 14.1574H99.521V13.1574H98.521V14.1574ZM90.162 14.1574V13.1574H89.162V14.1574H90.162ZM90.162 18.9674V19.9674H91.162V18.9674H90.162ZM90.0645 18.9674H89.0645V19.9674H90.0645V18.9674ZM90.0645 14.0723V13.0723H89.0645V14.0723H90.0645ZM98.6186 14.0723H99.6186V13.0723H98.6186V14.0723ZM98.6186 18.078H98.521V20.078H98.6186V18.078ZM99.521 19.078V14.1574H97.521V19.078H99.521ZM98.521 13.1574H90.162V15.1574H98.521V13.1574ZM89.162 14.1574V18.9674H91.162V14.1574H89.162ZM90.162 17.9674H90.0645V19.9674H90.162V17.9674ZM91.0645 18.9674V14.0723H89.0645V18.9674H91.0645ZM90.0645 15.0723H98.6186V13.0723H90.0645V15.0723ZM97.6186 14.0723V19.078H99.6186V14.0723H97.6186Z" fill="white" mask="url(#path-143-inside-4)"/>
<mask id="path-145-inside-5" fill="white">
<path d="M94.3153 21.3424L91.127 23.2139L91.1815 23.2845L94.3698 21.413L94.3153 21.3424Z"/>
</mask>
<path d="M94.3153 21.3424L91.127 23.2139L91.1815 23.2845L94.3698 21.413L94.3153 21.3424Z" fill="#70A794"/>
<path d="M91.127 23.2139L90.5162 22.4221L89.6538 22.9283L90.2645 23.7201L91.127 23.2139ZM94.3153 21.3424L95.1777 20.8361L94.5669 20.0443L93.7045 20.5506L94.3153 21.3424ZM94.3698 21.413L94.9805 22.2048L95.8429 21.6986L95.2322 20.9068L94.3698 21.413ZM91.1815 23.2845L90.319 23.7907L90.9298 24.5825L91.7922 24.0763L91.1815 23.2845ZM91.7377 24.0057L94.926 22.1342L93.7045 20.5506L90.5162 22.4221L91.7377 24.0057ZM93.4529 21.8486L93.5074 21.9192L95.2322 20.9068L95.1777 20.8361L93.4529 21.8486ZM93.759 20.6212L90.5707 22.4927L91.7922 24.0763L94.9805 22.2048L93.759 20.6212ZM92.0439 22.7783L91.9894 22.7076L90.2645 23.7201L90.319 23.7907L92.0439 22.7783Z" fill="white" mask="url(#path-145-inside-5)"/>
<mask id="path-147-inside-6" fill="white">
<path d="M96.9838 15.7168H91.5684V15.8019H96.9838V15.7168Z"/>
</mask>
<path d="M96.9838 15.7168H91.5684V15.8019H96.9838V15.7168Z" fill="#70A794"/>
<path d="M91.5684 15.7168V14.7168H90.5684V15.7168H91.5684ZM96.9838 15.7168H97.9838V14.7168H96.9838V15.7168ZM96.9838 15.8019V16.8019H97.9838V15.8019H96.9838ZM91.5684 15.8019H90.5684V16.8019H91.5684V15.8019ZM91.5684 16.7168H96.9838V14.7168H91.5684V16.7168ZM95.9838 15.7168V15.8019H97.9838V15.7168H95.9838ZM96.9838 14.8019H91.5684V16.8019H96.9838V14.8019ZM92.5684 15.8019V15.7168H90.5684V15.8019H92.5684Z" fill="white" mask="url(#path-147-inside-6)"/>
<mask id="path-149-inside-7" fill="white">
<path d="M96.9838 16.5537H91.5684V16.6388H96.9838V16.5537Z"/>
</mask>
<path d="M96.9838 16.5537H91.5684V16.6388H96.9838V16.5537Z" fill="#70A794"/>
<path d="M91.5684 16.5537V15.5537H90.5684V16.5537H91.5684ZM96.9838 16.5537H97.9838V15.5537H96.9838V16.5537ZM96.9838 16.6388V17.6388H97.9838V16.6388H96.9838ZM91.5684 16.6388H90.5684V17.6388H91.5684V16.6388ZM91.5684 17.5537H96.9838V15.5537H91.5684V17.5537ZM95.9838 16.5537V16.6388H97.9838V16.5537H95.9838ZM96.9838 15.6388H91.5684V17.6388H96.9838V15.6388ZM92.5684 16.6388V16.5537H90.5684V16.6388H92.5684Z" fill="white" mask="url(#path-149-inside-7)"/>
<mask id="path-151-inside-8" fill="white">
<path d="M96.9838 17.3467H91.5684V17.4318H96.9838V17.3467Z"/>
</mask>
<path d="M96.9838 17.3467H91.5684V17.4318H96.9838V17.3467Z" fill="#70A794"/>
<path d="M91.5684 17.3467V16.3467H90.5684V17.3467H91.5684ZM96.9838 17.3467H97.9838V16.3467H96.9838V17.3467ZM96.9838 17.4318V18.4318H97.9838V17.4318H96.9838ZM91.5684 17.4318H90.5684V18.4318H91.5684V17.4318ZM91.5684 18.3467H96.9838V16.3467H91.5684V18.3467ZM95.9838 17.3467V17.4318H97.9838V17.3467H95.9838ZM96.9838 16.4318H91.5684V18.4318H96.9838V16.4318ZM92.5684 17.4318V17.3467H90.5684V17.4318H92.5684Z" fill="white" mask="url(#path-151-inside-8)"/>
<mask id="path-153-inside-9" fill="white">
<path d="M96.9838 18.1826H91.5684V18.2677H96.9838V18.1826Z"/>
</mask>
<path d="M96.9838 18.1826H91.5684V18.2677H96.9838V18.1826Z" fill="#70A794"/>
<path d="M91.5684 18.1826V17.1826H90.5684V18.1826H91.5684ZM96.9838 18.1826H97.9838V17.1826H96.9838V18.1826ZM96.9838 18.2677V19.2677H97.9838V18.2677H96.9838ZM91.5684 18.2677H90.5684V19.2677H91.5684V18.2677ZM91.5684 19.1826H96.9838V17.1826H91.5684V19.1826ZM95.9838 18.1826V18.2677H97.9838V18.1826H95.9838ZM96.9838 17.2677H91.5684V19.2677H96.9838V17.2677ZM92.5684 18.2677V18.1826H90.5684V18.2677H92.5684Z" fill="white" mask="url(#path-153-inside-9)"/>
<mask id="path-155-inside-10" fill="white">
<path d="M96.9838 19.0352H91.5684V19.1203H96.9838V19.0352Z"/>
</mask>
<path d="M96.9838 19.0352H91.5684V19.1203H96.9838V19.0352Z" fill="#70A794"/>
<path d="M91.5684 19.0352V18.0352H90.5684V19.0352H91.5684ZM96.9838 19.0352H97.9838V18.0352H96.9838V19.0352ZM96.9838 19.1203V20.1203H97.9838V19.1203H96.9838ZM91.5684 19.1203H90.5684V20.1203H91.5684V19.1203ZM91.5684 20.0352H96.9838V18.0352H91.5684V20.0352ZM95.9838 19.0352V19.1203H97.9838V19.0352H95.9838ZM96.9838 18.1203H91.5684V20.1203H96.9838V18.1203ZM92.5684 19.1203V19.0352H90.5684V19.1203H92.5684Z" fill="white" mask="url(#path-155-inside-10)"/>
<path d="M55.692 49.0371H55.592H42.1973H42.0973V48.9371V42.853V42.8527C42.0978 42.6375 42.1477 42.425 42.2435 42.2279C42.3393 42.0308 42.4788 41.8534 42.6531 41.7057L42.6532 41.7056L43.7123 40.8113L43.779 40.755L43.8438 40.8134L43.9253 40.8869L44.0104 40.9636L43.9228 41.0376L42.8639 41.9317C42.8638 41.9317 42.8638 41.9317 42.8638 41.9318C42.7209 42.0529 42.6081 42.197 42.5312 42.3552C42.4544 42.5132 42.4149 42.6825 42.4144 42.8531V48.7349H55.3748L55.3748 42.8531L55.3748 42.853M55.692 49.0371L54.9912 41.8554C55.144 41.9852 55.2655 42.1402 55.3486 42.3116C55.4316 42.4829 55.4745 42.667 55.4748 42.853H55.3748M55.692 49.0371V48.9371V42.853L55.692 42.8528C55.6916 42.6377 55.642 42.4252 55.5464 42.2281C55.4508 42.031 55.3115 41.8535 55.1374 41.7057L55.1372 41.7055L54.0769 40.8113L54.0102 40.755L53.9454 40.8134L53.864 40.8869L53.7789 40.9637L53.8665 41.0376L54.9265 41.9316C54.9266 41.9317 54.9266 41.9317 54.9266 41.9318M55.692 49.0371L54.9266 41.9318M55.3748 42.853C55.3745 42.6824 55.3352 42.5132 55.2586 42.3552C55.182 42.1971 55.0694 42.053 54.9266 41.9318M55.3748 42.853L54.9266 41.9318M43.8583 40.9612L43.7812 41.0263L43.7913 41.0354L43.8583 40.9612ZM43.8583 40.9612L43.7938 40.8847L43.7833 40.8936L43.8583 40.9612ZM42.1973 48.8371V42.853L53.9979 41.0354L53.931 40.9612L53.9954 40.8847L54.0059 40.8935L54.0124 40.8877L55.0727 41.782C55.2367 41.9212 55.3672 42.0878 55.4564 42.2717C55.5456 42.4556 55.5917 42.6533 55.592 42.853V48.8371V48.9371H55.492H42.2973H42.1973V48.8371Z" fill="white" stroke="white" stroke-width="0.2"/>
<path d="M50.3035 38.029L50.3702 38.0853L50.435 38.0268L50.5165 37.9534L50.6016 37.8766L50.514 37.8027L50.0749 37.4319C50.0749 37.4319 50.0749 37.4318 50.0748 37.4318C49.8427 37.2346 49.5522 37.1004 49.238 37.0437C48.9238 36.987 48.5974 37.0098 48.2971 37.1097L48.2971 37.1097L48.2966 37.1099C48.0714 37.1861 47.8658 37.3021 47.6928 37.4516L47.2772 37.8027L47.1897 37.8767L47.2749 37.9534L47.3564 38.0268L47.4212 38.0853L47.4879 38.0289L47.9037 37.6775L47.9037 37.6775L47.9046 37.6767C48.0455 37.5547 48.2145 37.4586 48.4014 37.3952C48.6488 37.3129 48.9186 37.294 49.1784 37.3408C49.4384 37.3877 49.6761 37.4982 49.8639 37.6578L49.8642 37.658L50.3035 38.029Z" fill="white" stroke="white" stroke-width="0.2"/>
<path d="M48.8454 46.7847L48.8938 46.8123L48.9427 46.7857L55.6134 43.1573L55.7128 43.1032L55.6469 43.0112L55.5849 42.9246L55.5335 42.8527L55.4558 42.895L48.8975 46.4622L42.3382 42.7227L42.2616 42.679L42.2087 42.7496L42.1446 42.8352L42.0766 42.9259L42.1751 42.982L48.8141 46.7669L48.8142 46.767L48.8454 46.7847Z" fill="white" stroke="white" stroke-width="0.2"/>
<path d="M54.031 43.9758H54.131V43.8758V37.8652V37.7652H54.031H43.7598H43.6598V37.8652V43.7429V43.8429H43.7598H43.8769H43.9769V43.7429V38.0675H53.8139V43.8758V43.9758H53.9139H54.031Z" fill="white" stroke="white" stroke-width="0.2"/>
<path d="M48.9496 46.5451L48.8885 46.4659L48.8023 46.5165L44.9741 48.7636L44.8878 48.8142L44.9489 48.8934L45.0144 48.9782L45.0754 49.0574L45.1617 49.0068L48.9899 46.7597L49.0761 46.7091L49.015 46.6299L48.9496 46.5451Z" fill="white" stroke="white" stroke-width="0.2"/>
<path d="M52.1687 39.8408V39.7408H52.0687H45.5664H45.4664V39.8408V39.943V40.043H45.5664H52.0687H52.1687V39.943V39.8408Z" fill="white" stroke="white" stroke-width="0.2"/>
<path d="M52.1687 40.8447V40.7447H52.0687H45.5664H45.4664V40.8447V40.947V41.047H45.5664H52.0687H52.1687V40.947V40.8447Z" fill="white" stroke="white" stroke-width="0.2"/>
<path d="M52.1687 41.7969V41.6969H52.0687H45.5664H45.4664V41.7969V41.899V41.999H45.5664H52.0687H52.1687V41.899V41.7969Z" fill="white" stroke="white" stroke-width="0.2"/>
<path d="M52.1687 42.8008V42.7008H52.0687H45.5664H45.4664V42.8008V42.903V43.003H45.5664H52.0687H52.1687V42.903V42.8008Z" fill="white" stroke="white" stroke-width="0.2"/>
<path d="M52.1687 43.8242V43.7242H52.0687H45.5664H45.4664V43.8242V43.9265V44.0265H45.5664H52.0687H52.1687V43.9265V43.8242Z" fill="white" stroke="white" stroke-width="0.2"/>
<path d="M131.578 43.318L131.513 43.393C131.457 43.3443 131.379 43.315 131.295 43.3149C131.295 43.3149 131.295 43.3149 131.295 43.3149L131.295 43.2149L131.578 43.318ZM131.578 43.318L131.513 43.393C131.568 43.4413 131.596 43.5036 131.596 43.5652V47.7341H122.205V43.5652C122.205 43.5036 122.233 43.4412 122.288 43.393C122.344 43.3443 122.422 43.315 122.506 43.3149L131.578 43.318ZM131.85 48.068H131.95V47.968V43.5651L131.95 43.565C131.95 43.4054 131.877 43.2557 131.753 43.1476C131.629 43.0399 131.464 42.9812 131.295 42.9811H131.295L122.506 42.9811L122.506 42.9811C122.337 42.9812 122.172 43.0399 122.048 43.1476C121.924 43.2557 121.851 43.4054 121.851 43.565V43.5651V47.968V48.068H121.951H131.85Z" fill="white" stroke="black" stroke-width="0.2"/>
<path d="M121.907 43.5593L121.838 43.6489L121.935 43.7067L126.142 46.1979C126.142 46.198 126.142 46.198 126.142 46.198C126.367 46.3319 126.632 46.4029 126.902 46.4032L126.902 46.4032C127.172 46.4029 127.437 46.3319 127.662 46.198C127.662 46.198 127.662 46.198 127.662 46.1979L131.869 43.7067L131.966 43.6489L131.897 43.5593L131.81 43.4484L131.756 43.3788L131.68 43.4237L127.474 45.9151L127.473 45.9153C127.306 46.0151 127.107 46.0692 126.902 46.0692C126.697 46.0692 126.498 46.0151 126.331 45.9153L126.33 45.9151L122.124 43.4237L122.048 43.3788L121.994 43.4484L121.907 43.5593Z" fill="white" stroke="black" stroke-width="0.2"/>
<path d="M127.85 45.7999L127.76 45.7561L127.706 45.8403L127.631 45.9571L127.577 46.0413L127.667 46.0852L131.682 48.0439L131.772 48.0878L131.826 48.0036L131.901 47.8867L131.955 47.8025L131.865 47.7587L127.85 45.7999Z" fill="white" stroke="black" stroke-width="0.2"/>
<path d="M126.096 45.8396L126.042 45.7554L125.952 45.7993L121.938 47.7576L121.848 47.8015L121.902 47.8856L121.977 48.0025L122.031 48.0867L122.121 48.0429L126.135 46.0845L126.225 46.0407L126.171 45.9565L126.096 45.8396Z" fill="white" stroke="black" stroke-width="0.2"/>
<path d="M42.7268 122.148C42.7268 122.148 40.2162 122.037 39.4514 123.484C38.6866 124.932 36.0057 126.12 34.6866 126.38V124.45L33.2823 126.38C33.2823 126.38 32.4312 126.788 30.7716 127.122C29.112 127.456 27.5801 128.533 27.5801 128.533C27.5801 128.533 28.4737 126.452 29.5375 125.339C30.6014 124.227 31.112 124.153 31.112 124.153L29.4099 124.45C29.4099 124.45 30.5163 122.593 31.4099 121.628C32.3035 120.663 33.2992 119.812 35.7929 119.652C38.2867 119.493 42.7268 122.148 42.7268 122.148Z" fill="#4F8D88"/>
</g>
<defs>
<filter id="filter0_d" x="-0.925781" y="0.34668" width="184.752" height="153.907" filterUnits="userSpaceOnUse" color-interpolation-filters="sRGB">
<feFlood flood-opacity="0" result="BackgroundImageFix"/>
<feColorMatrix in="SourceAlpha" type="matrix" values="0 0 0 0 0 0 0 0 0 0 0 0 0 0 0 0 0 0 127 0" result="hardAlpha"/>
<feOffset dx="8" dy="8"/>
<feGaussianBlur stdDeviation="7"/>
<feColorMatrix type="matrix" values="0 0 0 0 0 0 0 0 0 0 0 0 0 0 0 0 0 0 0.25 0"/>
<feBlend mode="normal" in2="BackgroundImageFix" result="effect1_dropShadow"/>
<feBlend mode="normal" in="SourceGraphic" in2="effect1_dropShadow" result="shape"/>
</filter>
<filter id="filter1_d" x="6.16016" y="60.4424" width="48.9922" height="63.1545" filterUnits="userSpaceOnUse" color-interpolation-filters="sRGB">
<feFlood flood-opacity="0" result="BackgroundImageFix"/>
<feColorMatrix in="SourceAlpha" type="matrix" values="0 0 0 0 0 0 0 0 0 0 0 0 0 0 0 0 0 0 127 0" result="hardAlpha"/>
<feOffset dx="8" dy="8"/>
<feGaussianBlur stdDeviation="7"/>
<feColorMatrix type="matrix" values="0 0 0 0 0 0 0 0 0 0 0 0 0 0 0 0 0 0 0.25 0"/>
<feBlend mode="normal" in2="BackgroundImageFix" result="effect1_dropShadow"/>
<feBlend mode="normal" in="SourceGraphic" in2="effect1_dropShadow" result="shape"/>
</filter>
<filter id="filter2_d" x="24.6777" y="2.30566" width="38.505" height="39.2417" filterUnits="userSpaceOnUse" color-interpolation-filters="sRGB">
<feFlood flood-opacity="0" result="BackgroundImageFix"/>
<feColorMatrix in="SourceAlpha" type="matrix" values="0 0 0 0 0 0 0 0 0 0 0 0 0 0 0 0 0 0 127 0" result="hardAlpha"/>
<feOffset dx="8" dy="8"/>
<feGaussianBlur stdDeviation="7"/>
<feColorMatrix type="matrix" values="0 0 0 0 0 0 0 0 0 0 0 0 0 0 0 0 0 0 0.25 0"/>
<feBlend mode="normal" in2="BackgroundImageFix" result="effect1_dropShadow"/>
<feBlend mode="normal" in="SourceGraphic" in2="effect1_dropShadow" result="shape"/>
</filter>
<filter id="filter3_d" x="19.6328" y="99.8789" width="31.9504" height="31.8763" filterUnits="userSpaceOnUse" color-interpolation-filters="sRGB">
<feFlood flood-opacity="0" result="BackgroundImageFix"/>
<feColorMatrix in="SourceAlpha" type="matrix" values="0 0 0 0 0 0 0 0 0 0 0 0 0 0 0 0 0 0 127 0" result="hardAlpha"/>
<feOffset dx="8" dy="8"/>
<feGaussianBlur stdDeviation="7"/>
<feColorMatrix type="matrix" values="0 0 0 0 0 0 0 0 0 0 0 0 0 0 0 0 0 0 0.25 0"/>
<feBlend mode="normal" in2="BackgroundImageFix" result="effect1_dropShadow"/>
<feBlend mode="normal" in="SourceGraphic" in2="effect1_dropShadow" result="shape"/>
</filter>
<filter id="filter4_d" x="36.7559" y="109.036" width="48.5202" height="48.1352" filterUnits="userSpaceOnUse" color-interpolation-filters="sRGB">
<feFlood flood-opacity="0" result="BackgroundImageFix"/>
<feColorMatrix in="SourceAlpha" type="matrix" values="0 0 0 0 0 0 0 0 0 0 0 0 0 0 0 0 0 0 127 0" result="hardAlpha"/>
<feOffset dx="8" dy="8"/>
<feGaussianBlur stdDeviation="7"/>
<feColorMatrix type="matrix" values="0 0 0 0 0 0 0 0 0 0 0 0 0 0 0 0 0 0 0.25 0"/>
<feBlend mode="normal" in2="BackgroundImageFix" result="effect1_dropShadow"/>
<feBlend mode="normal" in="SourceGraphic" in2="effect1_dropShadow" result="shape"/>
</filter>
<filter id="filter5_d" x="-1.90234" y="47.9404" width="40.1712" height="39.9429" filterUnits="userSpaceOnUse" color-interpolation-filters="sRGB">
<feFlood flood-opacity="0" result="BackgroundImageFix"/>
<feColorMatrix in="SourceAlpha" type="matrix" values="0 0 0 0 0 0 0 0 0 0 0 0 0 0 0 0 0 0 127 0" result="hardAlpha"/>
<feOffset dx="8" dy="8"/>
<feGaussianBlur stdDeviation="7"/>
<feColorMatrix type="matrix" values="0 0 0 0 0 0 0 0 0 0 0 0 0 0 0 0 0 0 0.25 0"/>
<feBlend mode="normal" in2="BackgroundImageFix" result="effect1_dropShadow"/>
<feBlend mode="normal" in="SourceGraphic" in2="effect1_dropShadow" result="shape"/>
</filter>
<filter id="filter6_d" x="28.3086" y="15.3037" width="31.4035" height="30.915" filterUnits="userSpaceOnUse" color-interpolation-filters="sRGB">
<feFlood flood-opacity="0" result="BackgroundImageFix"/>
<feColorMatrix in="SourceAlpha" type="matrix" values="0 0 0 0 0 0 0 0 0 0 0 0 0 0 0 0 0 0 127 0" result="hardAlpha"/>
<feOffset dx="8" dy="8"/>
<feGaussianBlur stdDeviation="7"/>
<feColorMatrix type="matrix" values="0 0 0 0 0 0 0 0 0 0 0 0 0 0 0 0 0 0 0.25 0"/>
<feBlend mode="normal" in2="BackgroundImageFix" result="effect1_dropShadow"/>
<feBlend mode="normal" in="SourceGraphic" in2="effect1_dropShadow" result="shape"/>
</filter>
<filter id="filter7_d" x="149.586" y="66.2529" width="31.9504" height="31.8763" filterUnits="userSpaceOnUse" color-interpolation-filters="sRGB">
<feFlood flood-opacity="0" result="BackgroundImageFix"/>
<feColorMatrix in="SourceAlpha" type="matrix" values="0 0 0 0 0 0 0 0 0 0 0 0 0 0 0 0 0 0 127 0" result="hardAlpha"/>
<feOffset dx="8" dy="8"/>
<feGaussianBlur stdDeviation="7"/>
<feColorMatrix type="matrix" values="0 0 0 0 0 0 0 0 0 0 0 0 0 0 0 0 0 0 0.25 0"/>
<feBlend mode="normal" in2="BackgroundImageFix" result="effect1_dropShadow"/>
<feBlend mode="normal" in="SourceGraphic" in2="effect1_dropShadow" result="shape"/>
</filter>
<filter id="filter8_d" x="137.289" y="72.4092" width="47.0492" height="39.9532" filterUnits="userSpaceOnUse" color-interpolation-filters="sRGB">
<feFlood flood-opacity="0" result="BackgroundImageFix"/>
<feColorMatrix in="SourceAlpha" type="matrix" values="0 0 0 0 0 0 0 0 0 0 0 0 0 0 0 0 0 0 127 0" result="hardAlpha"/>
<feOffset dx="8" dy="8"/>
<feGaussianBlur stdDeviation="7"/>
<feColorMatrix type="matrix" values="0 0 0 0 0 0 0 0 0 0 0 0 0 0 0 0 0 0 0.25 0"/>
<feBlend mode="normal" in2="BackgroundImageFix" result="effect1_dropShadow"/>
<feBlend mode="normal" in="SourceGraphic" in2="effect1_dropShadow" result="shape"/>
</filter>
<filter id="filter9_d" x="27.3418" y="61.7695" width="32.1883" height="32.0425" filterUnits="userSpaceOnUse" color-interpolation-filters="sRGB">
<feFlood flood-opacity="0" result="BackgroundImageFix"/>
<feColorMatrix in="SourceAlpha" type="matrix" values="0 0 0 0 0 0 0 0 0 0 0 0 0 0 0 0 0 0 127 0" result="hardAlpha"/>
<feOffset dx="8" dy="8"/>
<feGaussianBlur stdDeviation="7"/>
<feColorMatrix type="matrix" values="0 0 0 0 0 0 0 0 0 0 0 0 0 0 0 0 0 0 0.25 0"/>
<feBlend mode="normal" in2="BackgroundImageFix" result="effect1_dropShadow"/>
<feBlend mode="normal" in="SourceGraphic" in2="effect1_dropShadow" result="shape"/>
</filter>
<linearGradient id="paint0_linear" x1="9.8484" y1="-18.8349" x2="178.968" y2="-8.22823" gradientUnits="userSpaceOnUse">
<stop offset="0.0756841" stop-color="#B565D8"/>
<stop offset="0.945898" stop-color="#EE609C"/>
</linearGradient>
<linearGradient id="paint1_linear" x1="1.56914" y1="72.1504" x2="23.8341" y2="56.241" gradientUnits="userSpaceOnUse">
<stop offset="0.0756841" stop-color="#B565D8"/>
<stop offset="0.945898" stop-color="#EE609C"/>
</linearGradient>
<linearGradient id="paint2_linear" x1="27.9397" y1="9.57859" x2="38.8982" y2="4.61146" gradientUnits="userSpaceOnUse">
<stop offset="0.0756841" stop-color="#B565D8"/>
<stop offset="0.945898" stop-color="#EE609C"/>
</linearGradient>
<linearGradient id="paint3_linear" x1="24.4167" y1="108.409" x2="26.5213" y2="104.573" gradientUnits="userSpaceOnUse">
<stop offset="0.0756841" stop-color="#B565D8"/>
<stop offset="0.945898" stop-color="#EE609C"/>
</linearGradient>
<linearGradient id="paint4_linear" x1="36.4375" y1="128.176" x2="47.3697" y2="108.252" gradientUnits="userSpaceOnUse">
<stop offset="0.0756841" stop-color="#B565D8"/>
<stop offset="0.945898" stop-color="#EE609C"/>
</linearGradient>
<linearGradient id="paint5_linear" x1="0.351354" y1="61.7342" x2="6.83564" y2="49.9163" gradientUnits="userSpaceOnUse">
<stop offset="0.0756841" stop-color="#B565D8"/>
<stop offset="0.945898" stop-color="#EE609C"/>
</linearGradient>
<linearGradient id="paint6_linear" x1="38.4718" y1="21.7312" x2="37.8772" y2="24.93" gradientUnits="userSpaceOnUse">
<stop offset="0.0756841" stop-color="#B565D8"/>
<stop offset="0.945898" stop-color="#EE609C"/>
</linearGradient>
<linearGradient id="paint7_linear" x1="154.37" y1="74.783" x2="156.474" y2="70.9472" gradientUnits="userSpaceOnUse">
<stop offset="0.0756841" stop-color="#B565D8"/>
<stop offset="0.945898" stop-color="#EE609C"/>
</linearGradient>
<linearGradient id="paint8_linear" x1="149.38" y1="70.9984" x2="166.039" y2="80.1654" gradientUnits="userSpaceOnUse">
<stop offset="0.0756841" stop-color="#B565D8"/>
<stop offset="0.945898" stop-color="#EE609C"/>
</linearGradient>
<linearGradient id="paint9_linear" x1="34.821" y1="66.3486" x2="38.8422" y2="68.5114" gradientUnits="userSpaceOnUse">
<stop offset="0.0756841" stop-color="#B565D8"/>
<stop offset="0.945898" stop-color="#EE609C"/>
</linearGradient>
<linearGradient id="paint10_linear" x1="54.7917" y1="85.7366" x2="59.237" y2="92.1763" gradientUnits="userSpaceOnUse">
<stop offset="0.0756841" stop-color="#B565D8"/>
<stop offset="0.945898" stop-color="#EE609C"/>
</linearGradient>
<linearGradient id="paint11_linear" x1="46.6463" y1="82.0246" x2="51.0815" y2="88.4723" gradientUnits="userSpaceOnUse">
<stop offset="0.0756841" stop-color="#B565D8"/>
<stop offset="0.945898" stop-color="#EE609C"/>
</linearGradient>
<linearGradient id="paint12_linear" x1="31.3523" y1="82.4728" x2="35.7584" y2="88.9714" gradientUnits="userSpaceOnUse">
<stop offset="0.0756841" stop-color="#B565D8"/>
<stop offset="0.945898" stop-color="#EE609C"/>
</linearGradient>
<linearGradient id="paint13_linear" x1="26.5032" y1="76.8444" x2="30.9241" y2="83.3315" gradientUnits="userSpaceOnUse">
<stop offset="0.0756841" stop-color="#B565D8"/>
<stop offset="0.945898" stop-color="#EE609C"/>
</linearGradient>
<linearGradient id="paint14_linear" x1="50.9208" y1="83.7638" x2="55.3616" y2="90.2071" gradientUnits="userSpaceOnUse">
<stop offset="0.0756841" stop-color="#B565D8"/>
<stop offset="0.945898" stop-color="#EE609C"/>
</linearGradient>
<linearGradient id="paint15_linear" x1="41.8434" y1="80.5946" x2="46.2713" y2="87.0483" gradientUnits="userSpaceOnUse">
<stop offset="0.0756841" stop-color="#B565D8"/>
<stop offset="0.945898" stop-color="#EE609C"/>
</linearGradient>
<linearGradient id="paint16_linear" x1="28.8399" y1="79.71" x2="33.2525" y2="86.2035" gradientUnits="userSpaceOnUse">
<stop offset="0.0756841" stop-color="#B565D8"/>
<stop offset="0.945898" stop-color="#EE609C"/>
</linearGradient>
<linearGradient id="paint17_linear" x1="84.5448" y1="110.68" x2="89.0421" y2="117.077" gradientUnits="userSpaceOnUse">
<stop offset="0.0756841" stop-color="#B565D8"/>
<stop offset="0.945898" stop-color="#EE609C"/>
</linearGradient>
<linearGradient id="paint18_linear" x1="79.1489" y1="105.368" x2="83.6442" y2="111.795" gradientUnits="userSpaceOnUse">
<stop offset="0.0756841" stop-color="#B565D8"/>
<stop offset="0.945898" stop-color="#EE609C"/>
</linearGradient>
<linearGradient id="paint19_linear" x1="73.68" y1="100.099" x2="78.1637" y2="106.536" gradientUnits="userSpaceOnUse">
<stop offset="0.0756841" stop-color="#B565D8"/>
<stop offset="0.945898" stop-color="#EE609C"/>
</linearGradient>
<linearGradient id="paint20_linear" x1="67.9429" y1="94.9866" x2="72.4174" y2="101.43" gradientUnits="userSpaceOnUse">
<stop offset="0.0756841" stop-color="#B565D8"/>
<stop offset="0.945898" stop-color="#EE609C"/>
</linearGradient>
<linearGradient id="paint21_linear" x1="61.7378" y1="90.1458" x2="66.1907" y2="96.5791" gradientUnits="userSpaceOnUse">
<stop offset="0.0756841" stop-color="#B565D8"/>
<stop offset="0.945898" stop-color="#EE609C"/>
</linearGradient>
<linearGradient id="paint22_linear" x1="81.8424" y1="108.026" x2="86.3451" y2="114.447" gradientUnits="userSpaceOnUse">
<stop offset="0.0756841" stop-color="#B565D8"/>
<stop offset="0.945898" stop-color="#EE609C"/>
</linearGradient>
<linearGradient id="paint23_linear" x1="76.4355" y1="102.722" x2="80.9245" y2="109.153" gradientUnits="userSpaceOnUse">
<stop offset="0.0756841" stop-color="#B565D8"/>
<stop offset="0.945898" stop-color="#EE609C"/>
</linearGradient>
<linearGradient id="paint24_linear" x1="70.8593" y1="97.5155" x2="75.3381" y2="103.956" gradientUnits="userSpaceOnUse">
<stop offset="0.0756841" stop-color="#B565D8"/>
<stop offset="0.945898" stop-color="#EE609C"/>
</linearGradient>
<linearGradient id="paint25_linear" x1="64.912" y1="92.5248" x2="69.3825" y2="98.9719" gradientUnits="userSpaceOnUse">
<stop offset="0.0756841" stop-color="#B565D8"/>
<stop offset="0.945898" stop-color="#EE609C"/>
</linearGradient>
<linearGradient id="paint26_linear" x1="58.3745" y1="87.8776" x2="62.8238" y2="94.3141" gradientUnits="userSpaceOnUse">
<stop offset="0.0756841" stop-color="#B565D8"/>
<stop offset="0.945898" stop-color="#EE609C"/>
</linearGradient>
<linearGradient id="paint27_linear" x1="109.403" y1="130.02" x2="114.09" y2="136.247" gradientUnits="userSpaceOnUse">
<stop offset="0.0756841" stop-color="#B565D8"/>
<stop offset="0.945898" stop-color="#EE609C"/>
</linearGradient>
<linearGradient id="paint28_linear" x1="102.184" y1="125.769" x2="106.788" y2="132.073" gradientUnits="userSpaceOnUse">
<stop offset="0.0756841" stop-color="#B565D8"/>
<stop offset="0.945898" stop-color="#EE609C"/>
</linearGradient>
<linearGradient id="paint29_linear" x1="95.8507" y1="121.003" x2="100.404" y2="127.352" gradientUnits="userSpaceOnUse">
<stop offset="0.0756841" stop-color="#B565D8"/>
<stop offset="0.945898" stop-color="#EE609C"/>
</linearGradient>
<linearGradient id="paint30_linear" x1="90.0462" y1="115.928" x2="94.5662" y2="122.306" gradientUnits="userSpaceOnUse">
<stop offset="0.0756841" stop-color="#B565D8"/>
<stop offset="0.945898" stop-color="#EE609C"/>
</linearGradient>
<linearGradient id="paint31_linear" x1="113.524" y1="131.848" x2="118.277" y2="138.01" gradientUnits="userSpaceOnUse">
<stop offset="0.0756841" stop-color="#B565D8"/>
<stop offset="0.945898" stop-color="#EE609C"/>
</linearGradient>
<linearGradient id="paint32_linear" x1="105.641" y1="127.983" x2="110.281" y2="134.254" gradientUnits="userSpaceOnUse">
<stop offset="0.0756841" stop-color="#B565D8"/>
<stop offset="0.945898" stop-color="#EE609C"/>
</linearGradient>
<linearGradient id="paint33_linear" x1="98.9336" y1="123.435" x2="103.509" y2="129.764" gradientUnits="userSpaceOnUse">
<stop offset="0.0756841" stop-color="#B565D8"/>
<stop offset="0.945898" stop-color="#EE609C"/>
</linearGradient>
<linearGradient id="paint34_linear" x1="92.8925" y1="118.499" x2="97.4275" y2="124.864" gradientUnits="userSpaceOnUse">
<stop offset="0.0756841" stop-color="#B565D8"/>
<stop offset="0.945898" stop-color="#EE609C"/>
</linearGradient>
<linearGradient id="paint35_linear" x1="87.2685" y1="113.321" x2="91.7904" y2="119.725" gradientUnits="userSpaceOnUse">
<stop offset="0.0756841" stop-color="#B565D8"/>
<stop offset="0.945898" stop-color="#EE609C"/>
</linearGradient>
<linearGradient id="paint36_linear" x1="118.123" y1="133.396" x2="122.989" y2="139.472" gradientUnits="userSpaceOnUse">
<stop offset="0.0756841" stop-color="#B565D8"/>
<stop offset="0.945898" stop-color="#EE609C"/>
</linearGradient>
<linearGradient id="paint37_linear" x1="130.014" y1="134.928" x2="135.372" y2="140.345" gradientUnits="userSpaceOnUse">
<stop offset="0.0756841" stop-color="#B565D8"/>
<stop offset="0.945898" stop-color="#EE609C"/>
</linearGradient>
<linearGradient id="paint38_linear" x1="123.424" y1="134.539" x2="128.434" y2="140.416" gradientUnits="userSpaceOnUse">
<stop offset="0.0756841" stop-color="#B565D8"/>
<stop offset="0.945898" stop-color="#EE609C"/>
</linearGradient>
<linearGradient id="paint39_linear" x1="26.0815" y1="13.7047" x2="31.8377" y2="18.1412" gradientUnits="userSpaceOnUse">
<stop offset="0.0756841" stop-color="#B565D8"/>
<stop offset="0.945898" stop-color="#EE609C"/>
</linearGradient>
<linearGradient id="paint40_linear" x1="19.8124" y1="21.5782" x2="24.895" y2="27.3643" gradientUnits="userSpaceOnUse">
<stop offset="0.0756841" stop-color="#B565D8"/>
<stop offset="0.945898" stop-color="#EE609C"/>
</linearGradient>
<linearGradient id="paint41_linear" x1="18.9743" y1="64.322" x2="23.4476" y2="70.7669" gradientUnits="userSpaceOnUse">
<stop offset="0.0756841" stop-color="#B565D8"/>
<stop offset="0.945898" stop-color="#EE609C"/>
</linearGradient>
<linearGradient id="paint42_linear" x1="16.4209" y1="57.3568" x2="20.9338" y2="63.7688" gradientUnits="userSpaceOnUse">
<stop offset="0.0756841" stop-color="#B565D8"/>
<stop offset="0.945898" stop-color="#EE609C"/>
</linearGradient>
<linearGradient id="paint43_linear" x1="14.8001" y1="49.8499" x2="19.3501" y2="56.2017" gradientUnits="userSpaceOnUse">
<stop offset="0.0756841" stop-color="#B565D8"/>
<stop offset="0.945898" stop-color="#EE609C"/>
</linearGradient>
<linearGradient id="paint44_linear" x1="14.3208" y1="41.6781" x2="18.9435" y2="47.9649" gradientUnits="userSpaceOnUse">
<stop offset="0.0756841" stop-color="#B565D8"/>
<stop offset="0.945898" stop-color="#EE609C"/>
</linearGradient>
<linearGradient id="paint45_linear" x1="15.4619" y1="32.5617" x2="20.2117" y2="38.7268" gradientUnits="userSpaceOnUse">
<stop offset="0.0756841" stop-color="#B565D8"/>
<stop offset="0.945898" stop-color="#EE609C"/>
</linearGradient>
<linearGradient id="paint46_linear" x1="17.5868" y1="60.9038" x2="22.0787" y2="67.3334" gradientUnits="userSpaceOnUse">
<stop offset="0.0756841" stop-color="#B565D8"/>
<stop offset="0.945898" stop-color="#EE609C"/>
</linearGradient>
<linearGradient id="paint47_linear" x1="15.4868" y1="53.6746" x2="20.0236" y2="60.0663" gradientUnits="userSpaceOnUse">
<stop offset="0.0756841" stop-color="#B565D8"/>
<stop offset="0.945898" stop-color="#EE609C"/>
</linearGradient>
<linearGradient id="paint48_linear" x1="14.3978" y1="45.858" x2="18.9802" y2="52.1812" gradientUnits="userSpaceOnUse">
<stop offset="0.0756841" stop-color="#B565D8"/>
<stop offset="0.945898" stop-color="#EE609C"/>
</linearGradient>
<linearGradient id="paint49_linear" x1="14.6342" y1="37.2703" x2="19.3098" y2="43.5078" gradientUnits="userSpaceOnUse">
<stop offset="0.0756841" stop-color="#B565D8"/>
<stop offset="0.945898" stop-color="#EE609C"/>
</linearGradient>
<linearGradient id="paint50_linear" x1="17.007" y1="27.4381" x2="21.8719" y2="33.483" gradientUnits="userSpaceOnUse">
<stop offset="0.0756841" stop-color="#B565D8"/>
<stop offset="0.945898" stop-color="#EE609C"/>
</linearGradient>
<linearGradient id="paint51_linear" x1="40.4675" y1="94.0734" x2="45.5603" y2="95.0839" gradientUnits="userSpaceOnUse">
<stop offset="0.0756841" stop-color="#B565D8"/>
<stop offset="0.945898" stop-color="#EE609C"/>
</linearGradient>
<linearGradient id="paint52_linear" x1="34.2916" y1="89.2154" x2="39.9208" y2="91.1801" gradientUnits="userSpaceOnUse">
<stop offset="0.0756841" stop-color="#B565D8"/>
<stop offset="0.945898" stop-color="#EE609C"/>
</linearGradient>
<linearGradient id="paint53_linear" x1="22.3676" y1="70.7979" x2="26.8106" y2="77.2672" gradientUnits="userSpaceOnUse">
<stop offset="0.0756841" stop-color="#B565D8"/>
<stop offset="0.945898" stop-color="#EE609C"/>
</linearGradient>
<linearGradient id="paint54_linear" x1="37.2906" y1="91.6965" x2="42.7308" y2="93.2492" gradientUnits="userSpaceOnUse">
<stop offset="0.0756841" stop-color="#B565D8"/>
<stop offset="0.945898" stop-color="#EE609C"/>
</linearGradient>
<linearGradient id="paint55_linear" x1="31.4687" y1="86.6322" x2="37.2" y2="88.8929" gradientUnits="userSpaceOnUse">
<stop offset="0.0756841" stop-color="#B565D8"/>
<stop offset="0.945898" stop-color="#EE609C"/>
</linearGradient>
<linearGradient id="paint56_linear" x1="24.3468" y1="73.8739" x2="28.7778" y2="80.353" gradientUnits="userSpaceOnUse">
<stop offset="0.0756841" stop-color="#B565D8"/>
<stop offset="0.945898" stop-color="#EE609C"/>
</linearGradient>
<linearGradient id="paint57_linear" x1="20.567" y1="67.6223" x2="25.0241" y2="74.0804" gradientUnits="userSpaceOnUse">
<stop offset="0.0756841" stop-color="#B565D8"/>
<stop offset="0.945898" stop-color="#EE609C"/>
</linearGradient>
<linearGradient id="paint58_linear" x1="47.3971" y1="98.4919" x2="50.7358" y2="98.2045" gradientUnits="userSpaceOnUse">
<stop offset="0.0756841" stop-color="#B565D8"/>
<stop offset="0.945898" stop-color="#EE609C"/>
</linearGradient>
<linearGradient id="paint59_linear" x1="51.1629" y1="100.525" x2="52.7498" y2="100.011" gradientUnits="userSpaceOnUse">
<stop offset="0.0756841" stop-color="#B565D8"/>
<stop offset="0.945898" stop-color="#EE609C"/>
</linearGradient>
<linearGradient id="paint60_linear" x1="43.8357" y1="96.3385" x2="48.293" y2="96.6919" gradientUnits="userSpaceOnUse">
<stop offset="0.0756841" stop-color="#B565D8"/>
<stop offset="0.945898" stop-color="#EE609C"/>
</linearGradient>
<clipPath id="clip0">
<rect width="175.39" height="153" fill="white"/>
</clipPath>
</defs>
</svg>
