<svg width="199" height="186" viewBox="0 0 199 186" fill="none" xmlns="http://www.w3.org/2000/svg">
<g clip-path="url(#clip0)">
<g opacity="0.7">
<g opacity="0.7" filter="url(#filter0_d)">
<path d="M178.824 103.801C186.476 78.874 161.508 61.7694 141.177 45.4486C120.847 29.1266 131.721 1.52499 105.884 4.97836C83.6609 7.94868 30.3354 33.3514 16.3534 50.8852C9.92971 58.9422 6.0998 72.2171 14.2874 78.4731C24.1266 85.9893 31.3166 84.1777 42.8252 88.7424C52.9761 92.7686 49.1573 106.256 47.0605 116.977C44.9637 127.699 53.9205 129.768 58.7186 139.581C63.2344 148.815 74.4939 153.137 84.7511 152.526C96.144 151.847 106.735 146.019 118.055 144.251C123.725 143.366 129.317 143.741 134.997 142.74C141.255 141.635 147.197 139.409 152.433 135.769C161.84 129.228 175.454 114.781 178.824 103.801Z" fill="url(#paint0_linear)"/>
</g>
<g filter="url(#filter1_d)">
<path d="M30.8831 83.3773C34.1865 83.9858 37.1152 86.3671 38.3899 89.4791C41.1008 96.0987 36.3462 103.599 37.5988 110.637C37.999 112.888 39.0023 115.24 38.1577 117.359C37.1655 119.845 33.9013 120.762 31.3376 119.975C28.7739 119.189 26.796 117.164 25.0513 115.124C21.7107 111.219 18.7122 106.836 17.5305 101.838C15.5427 93.4404 20.5229 81.4673 30.8831 83.3773Z" fill="url(#paint1_linear)"/>
</g>
<g filter="url(#filter2_d)">
<path d="M37.7811 31.6228C36.1325 29.3186 36.2466 25.8675 38.1581 23.753C40.07 21.6393 43.6349 21.205 45.8954 22.9175C47.1785 23.8895 48.0021 25.5753 47.608 27.1394C47.2762 28.4573 46.237 29.3383 45.2844 30.2279C44.4487 31.0079 43.9893 31.878 43.2964 32.7506C41.7227 34.7325 38.9941 33.3181 37.7811 31.6228Z" fill="url(#paint2_linear)"/>
</g>
<g filter="url(#filter3_d)">
<path d="M32.115 125.363C32.6719 124.839 33.5151 124.615 34.2272 124.873C35.0969 125.188 35.6267 126.21 35.4374 127.124C35.247 128.039 34.3944 128.761 33.4705 128.842C31.2822 129.037 30.62 126.773 32.115 125.363Z" fill="url(#paint3_linear)"/>
</g>
<g filter="url(#filter4_d)">
<path d="M53.5508 137.527C56.4435 134.805 60.8235 133.642 64.5223 134.98C69.0401 136.615 71.792 141.923 70.809 146.673C69.8198 151.425 65.3911 155.174 60.5919 155.598C49.225 156.609 45.7852 144.847 53.5508 137.527Z" fill="url(#paint4_linear)"/>
</g>
<g filter="url(#filter5_d)">
<path d="M11.0793 71.8299C12.7951 70.2154 15.393 69.5257 17.5869 70.3196C20.2665 71.2893 21.8988 74.4376 21.3157 77.255C20.729 80.0737 18.1022 82.2969 15.2556 82.5485C8.51352 83.1481 6.47326 76.1719 11.0793 71.8299Z" fill="url(#paint5_linear)"/>
</g>
<g filter="url(#filter6_d)">
<path d="M43.9572 36.9228C43.7507 37.2953 41.8349 38.6598 41.4134 38.6439C40.8986 38.6245 40.5174 37.4881 40.4626 36.9708C40.4084 36.4531 40.7383 35.9256 41.2147 35.7255C42.3426 35.251 44.5113 35.9215 43.9572 36.9228Z" fill="url(#paint6_linear)"/>
</g>
<g filter="url(#filter7_d)">
<path d="M169.166 89.8994C169.723 89.3754 170.566 89.1515 171.278 89.4092C172.148 89.7239 172.677 90.7458 172.488 91.6602C172.298 92.5751 171.445 93.2967 170.521 93.3783C168.333 93.573 167.671 91.3087 169.166 89.8994Z" fill="url(#paint7_linear)"/>
</g>
<g filter="url(#filter8_d)">
<path d="M169.422 95.8409C167.408 96.1409 165.683 97.5259 163.66 97.7647C161.414 98.0302 158.902 96.8873 156.987 98.0665C155.571 98.9385 155.095 100.878 155.573 102.474C156.051 104.07 157.299 105.343 158.688 106.281C161.579 108.232 165.344 108.961 168.659 107.937C171.791 106.969 174.611 104.18 175.389 100.958C176.136 97.869 172.239 95.4209 169.422 95.8409Z" fill="url(#paint8_linear)"/>
</g>
<g filter="url(#filter9_d)">
<path d="M40.6426 84.9104C41.6088 84.2706 43.0893 84.6647 43.6312 85.6888C44.1737 86.7131 43.6867 88.1384 42.6426 88.6399C41.5978 89.141 40.198 88.6513 39.6703 87.6188C39.1426 86.5862 39.5491 85.1864 40.5334 84.5746" fill="url(#paint9_linear)"/>
</g>
<path d="M144.799 55.4644L133.327 62.1401L133.095 62.275L100.035 81.5133L99.804 81.6476L66.7428 100.887L66.512 101.021L59.4961 105.104C59.629 105.176 59.7644 105.243 59.8964 105.316L66.7057 101.354L66.9364 101.219L99.9976 81.9804L100.228 81.8461L133.289 62.6077L133.52 62.4729L145.117 55.7243C145.012 55.6383 144.906 55.5508 144.799 55.4644Z" fill="url(#paint10_linear)"/>
<path d="M129.451 55.4819L129.22 55.6167L96.1595 74.855L95.9287 74.9893L62.8676 94.2282L62.6368 94.3625L50.8496 101.222C51.0069 101.277 51.1616 101.338 51.3185 101.394L62.8295 94.6958L63.0602 94.5615L96.1214 75.3226L96.3522 75.1883L129.412 55.9499L129.644 55.8151L138.337 50.7568C138.216 50.6779 138.094 50.6016 137.973 50.5227L129.451 55.4819Z" fill="url(#paint11_linear)"/>
<path d="M125.577 48.8238L125.345 48.9586L92.285 68.197L92.0543 68.3313L58.9931 87.5702L58.7623 87.7045L34.4512 101.852C34.5418 101.948 34.6316 102.044 34.7232 102.14L58.9565 88.0381L59.1873 87.9038L92.2484 68.6649L92.4792 68.5306L125.539 49.2923L125.771 49.1574L130.765 46.2516C130.632 46.1788 130.498 46.109 130.364 46.0382L125.577 48.8238Z" fill="url(#paint12_linear)"/>
<path d="M121.703 42.1652L121.471 42.3L88.4112 61.5384L88.1805 61.6727L55.1193 80.9116L54.8885 81.0459L29.4355 95.8574C29.5132 95.9611 29.5919 96.0642 29.6696 96.1679L55.0827 81.3795L55.3135 81.2452L88.3746 62.0063L88.6054 61.8721L121.666 42.6337L121.897 42.4989L122.52 42.1364C122.378 42.0705 122.235 42.0046 122.092 41.9387L121.703 42.1652Z" fill="url(#paint13_linear)"/>
<path d="M131.391 58.8112L131.159 58.946L98.099 78.1844L97.8682 78.3187L64.807 97.5575L64.5762 97.6918L55.3906 103.037C55.5321 103.101 55.6698 103.174 55.8104 103.238L64.7699 98.0246L65.0006 97.8903L98.0618 78.6514L98.2926 78.5171L131.353 59.2787L131.585 59.1439L141.832 53.1806C141.719 53.0974 141.607 53.0137 141.494 52.932L131.391 58.8112Z" fill="url(#paint14_linear)"/>
<path d="M127.515 52.1523L127.283 52.2872L94.2226 71.5255L93.9918 71.6598L60.9307 90.8987L60.6999 91.033L45.7402 99.7383C45.9192 99.7793 46.0954 99.8306 46.274 99.8731L60.8935 91.3657L61.1243 91.2314L94.1854 71.9925L94.4162 71.8583L127.476 52.6199L127.708 52.4851L134.641 48.4509C134.514 48.3758 134.389 48.2997 134.262 48.226L127.515 52.1523Z" fill="url(#paint15_linear)"/>
<path d="M123.641 45.494L123.409 45.6288L90.3487 64.8672L90.118 65.0015L57.0568 84.2403L56.826 84.3746L31.8457 98.9111C31.9299 99.011 32.0122 99.112 32.0964 99.2119L57.0202 84.7083L57.2509 84.574L90.3121 65.3351L90.5429 65.2008L123.603 45.9625L123.835 45.8276L126.714 44.1519C126.576 44.0833 126.439 44.0142 126.302 43.9456L123.641 45.494Z" fill="url(#paint16_linear)"/>
<path d="M167.946 86.5601L152.7 95.432L152.468 95.5668L119.408 114.805L119.177 114.939L91.1367 131.257C91.2339 131.349 91.331 131.442 91.4267 131.533L119.371 115.272L119.602 115.138L152.662 95.8996L152.894 95.7647L168.095 86.9187C168.046 86.7998 167.996 86.6799 167.946 86.5601Z" fill="url(#paint17_linear)"/>
<path d="M148.825 88.7732L148.593 88.908L115.533 108.146L115.302 108.281L85.3711 125.698C85.4673 125.791 85.5636 125.884 85.6598 125.977L115.497 108.614L115.727 108.48L148.788 89.2417L149.019 89.1068L164.82 79.9124C164.759 79.7985 164.699 79.6846 164.639 79.5707L148.825 88.7732Z" fill="url(#paint18_linear)"/>
<path d="M144.952 82.1155L144.72 82.2504L111.66 101.489L111.429 101.623L79.5488 120.175C79.6478 120.266 79.7459 120.358 79.8449 120.449L111.623 101.957L111.854 101.822L144.914 82.584L145.146 82.4492L160.9 73.2817C160.83 73.1737 160.76 73.0652 160.689 72.9578L144.952 82.1155Z" fill="url(#paint19_linear)"/>
<path d="M141.077 75.457L140.845 75.5918L107.785 94.8302L107.554 94.9645L74.4929 114.203L74.2621 114.338L73.4512 114.81C73.5557 114.898 73.6603 114.986 73.7649 115.074L74.4563 114.671L74.6871 114.537L107.748 95.2981L107.979 95.1638L141.039 75.9255L141.271 75.7907L156.333 67.0255C156.252 66.924 156.173 66.8214 156.089 66.721L141.077 75.457Z" fill="url(#paint20_linear)"/>
<path d="M137.202 68.7994L136.97 68.9342L103.91 88.1726L103.679 88.3069L70.6179 107.546L70.3871 107.68L66.8652 109.729C66.9795 109.811 67.092 109.895 67.2062 109.976L70.5807 108.013L70.8115 107.878L103.873 88.6396L104.103 88.5053L137.164 69.2669L137.395 69.1321L151.094 61.1609C151 61.0664 150.904 60.9735 150.81 60.8805L137.202 68.7994Z" fill="url(#paint21_linear)"/>
<path d="M150.762 92.1033L150.531 92.2381L117.47 111.476L117.24 111.611L88.248 128.481C88.3443 128.574 88.4405 128.667 88.5367 128.76L117.434 111.944L117.665 111.81L150.725 92.5718L150.956 92.4369L166.539 83.3692C166.484 83.2521 166.429 83.1354 166.374 83.0183L150.762 92.1033Z" fill="url(#paint22_linear)"/>
<path d="M146.888 85.4448L146.657 85.5796L113.596 104.818L113.365 104.952L82.4805 122.925C82.5776 123.017 82.6752 123.108 82.7729 123.201L113.56 105.286L113.79 105.152L146.851 85.9133L147.082 85.7784L162.94 76.5505C162.874 76.4399 162.81 76.3286 162.744 76.218L146.888 85.4448Z" fill="url(#paint23_linear)"/>
<path d="M143.013 78.786L142.781 78.9208L109.721 98.1592L109.49 98.2935L76.5469 117.464C76.6487 117.554 76.7518 117.641 76.8541 117.732L109.684 98.6271L109.915 98.4928L142.976 79.2545L143.207 79.1196L158.697 70.1059C158.621 70.0011 158.547 69.8953 158.469 69.7916L143.013 78.786Z" fill="url(#paint24_linear)"/>
<path d="M139.14 72.1281L138.908 72.2629L105.848 91.5013L105.617 91.6356L72.5559 110.874L72.3252 111.009L70.2324 112.227C70.3416 112.312 70.454 112.394 70.5638 112.48L72.5193 111.342L72.7501 111.208L105.811 91.9692L106.042 91.8349L139.102 72.5966L139.334 72.4617L153.802 64.0423C153.715 63.9446 153.627 63.8468 153.538 63.7496L139.14 72.1281Z" fill="url(#paint25_linear)"/>
<path d="M135.266 65.4698L135.034 65.6047L101.974 84.843L101.743 84.9773L68.6817 104.216L68.451 104.351L63.2988 107.349C63.4219 107.426 63.5436 107.503 63.6658 107.581L68.6446 104.683L68.8754 104.549L101.937 85.3101L102.167 85.1758L135.228 65.9374L135.459 65.8026L148.204 58.3863C148.104 58.2956 148.004 58.2063 147.903 58.1161L135.266 65.4698Z" fill="url(#paint26_linear)"/>
<path d="M168.198 122.065L167.966 122.2L134.906 141.438L134.675 141.573L117.998 151.277C118.142 151.343 118.284 151.409 118.427 151.473L134.868 141.906L135.099 141.772L168.159 122.533L168.39 122.398L173.564 119.388C173.577 119.233 173.585 119.078 173.596 118.924L168.198 122.065Z" fill="url(#paint27_linear)"/>
<path d="M164.324 115.408L164.092 115.543L131.032 134.781L130.801 134.915L110.148 146.934C110.269 147.011 110.387 147.094 110.508 147.17L130.995 135.248L131.226 135.114L164.286 115.875L164.518 115.74L173.624 110.442C173.614 110.299 173.602 110.157 173.591 110.015L164.324 115.408Z" fill="url(#paint28_linear)"/>
<path d="M160.449 108.749L160.218 108.884L127.157 128.123L126.927 128.257L103.293 142.01C103.401 142.096 103.509 142.182 103.617 142.266L127.119 128.59L127.35 128.456L160.41 109.218L160.642 109.083L172.576 102.138C172.551 102.004 172.529 101.869 172.504 101.734L160.449 108.749Z" fill="url(#paint29_linear)"/>
<path d="M156.576 102.09L156.344 102.225L123.284 121.463L123.053 121.598L97.041 136.734C97.1419 136.825 97.2427 136.915 97.3431 137.004L123.246 121.93L123.477 121.796L156.538 102.558L156.769 102.423L170.702 94.3151C170.664 94.1883 170.624 94.064 170.586 93.9371L156.576 102.09Z" fill="url(#paint30_linear)"/>
<path d="M170.135 125.394L169.904 125.529L136.843 144.768L136.613 144.902L122.5 153.114C122.66 153.171 122.821 153.224 122.98 153.28L136.806 145.235L137.037 145.1L170.097 125.862L170.329 125.727L172.94 124.208C172.969 124.043 172.997 123.878 173.025 123.713L170.135 125.394Z" fill="url(#paint31_linear)"/>
<path d="M166.261 118.736L166.029 118.871L132.969 138.109L132.738 138.243L113.902 149.204C114.034 149.276 114.167 149.347 114.298 149.419L132.931 138.577L133.161 138.442L166.222 119.204L166.453 119.069L173.756 114.82C173.757 114.67 173.76 114.521 173.759 114.372L166.261 118.736Z" fill="url(#paint32_linear)"/>
<path d="M162.387 112.079L162.155 112.214L129.095 131.452L128.864 131.586L106.625 144.527C106.74 144.609 106.856 144.69 106.971 144.772L129.057 131.919L129.288 131.785L162.348 112.546L162.58 112.411L173.213 106.224C173.194 106.086 173.178 105.948 173.16 105.81L162.387 112.079Z" fill="url(#paint33_linear)"/>
<path d="M158.513 105.42L158.281 105.555L125.221 124.793L124.99 124.927L100.104 139.409C100.208 139.497 100.315 139.583 100.419 139.671L125.184 125.26L125.415 125.126L158.475 105.887L158.707 105.752L171.738 98.1695C171.706 98.0388 171.673 97.9102 171.641 97.7801L158.513 105.42Z" fill="url(#paint34_linear)"/>
<path d="M154.638 98.7615L154.406 98.8963L121.346 118.135L121.115 118.269L94.0566 134.015C94.1557 134.106 94.2537 134.198 94.3528 134.289L121.31 118.602L121.541 118.468L154.601 99.2295L154.833 99.0946L169.486 90.5679C169.442 90.4442 169.397 90.3217 169.353 90.1986L154.638 98.7615Z" fill="url(#paint35_linear)"/>
<path d="M171.89 128.831L171.842 128.859L138.782 148.097L138.551 148.231L127.539 154.64C127.72 154.684 127.903 154.726 128.085 154.768L138.746 148.565L138.976 148.431L171.735 129.368C171.787 129.188 171.839 129.011 171.89 128.831Z" fill="url(#paint36_linear)"/>
<path d="M142.425 154.889L140.65 155.922C140.945 155.903 141.238 155.881 141.532 155.855L142.619 155.223L142.85 155.088L165.741 141.768C165.921 141.517 166.101 141.266 166.275 141.011L142.656 154.755L142.425 154.889Z" fill="url(#paint37_linear)"/>
<path d="M140.488 151.561L133.367 155.705C133.58 155.73 133.792 155.758 134.005 155.779L140.681 151.894L140.912 151.76L169.63 135.048C169.72 134.851 169.803 134.65 169.89 134.452L140.719 151.427L140.488 151.561Z" fill="url(#paint38_linear)"/>
<path d="M45.9549 19.3964L32.975 26.9497C32.4812 27.3698 31.9949 27.8004 31.5198 28.2419L47.7195 18.815C47.1269 18.9948 46.5385 19.1883 45.9549 19.3964Z" fill="url(#paint39_linear)"/>
<path d="M27.9593 34.7707L28.1901 34.6364L58.0399 17.2663C57.7828 17.2658 57.5251 17.2643 57.2688 17.2696L27.9974 34.3031L27.7666 34.4374L24.8453 36.1374C24.688 36.3766 24.5296 36.6139 24.3772 36.8552L27.9593 34.7707Z" fill="url(#paint40_linear)"/>
<path d="M47.332 68.063L47.5628 67.9288L80.6239 48.6899L80.8547 48.5556L104.888 34.5703C104.739 34.5081 104.591 34.4455 104.442 34.3828L80.6615 48.2214L80.4307 48.3557L47.3695 67.5946L47.1387 67.7289L21.8433 82.4487C21.8923 82.5691 21.9431 82.6884 21.993 82.8083L47.332 68.063Z" fill="url(#paint41_linear)"/>
<path d="M43.4575 61.4049L43.6883 61.2706L76.7494 42.0317L76.9802 41.8974L96.0744 30.7862C95.9299 30.7213 95.7855 30.6565 95.6411 30.5917L76.787 41.5632L76.5562 41.6975L43.4951 60.9364L43.2643 61.0707L19.3897 74.9637C19.4229 75.0933 19.4598 75.2207 19.493 75.3503L43.4575 61.4049Z" fill="url(#paint42_linear)"/>
<path d="M39.5836 54.7463L39.8144 54.612L72.8756 35.3731L73.1063 35.2388L87.6193 26.7935C87.4804 26.7254 87.3424 26.6568 87.2041 26.5897L72.9136 34.9056L72.6829 35.0398L39.6217 54.2787L39.3909 54.413L17.9547 66.8871C17.9694 67.0275 17.9808 67.1685 17.9964 67.3083L39.5836 54.7463Z" fill="url(#paint43_linear)"/>
<path d="M35.7094 48.0881L35.9402 47.9538L69.0013 28.7149L69.2321 28.5806L79.2185 22.7693C79.075 22.7039 78.9315 22.6386 78.7885 22.5741L69.0385 28.2479L68.8077 28.3821L35.7465 47.621L35.5158 47.7553L17.7664 58.084C17.7565 58.2374 17.747 58.3918 17.7385 58.5456L35.7094 48.0881Z" fill="url(#paint44_linear)"/>
<path d="M31.8326 41.4293L32.0634 41.295L65.1245 22.0561L65.3553 21.9218L70.0116 19.2122C69.8425 19.1605 69.6723 19.1131 69.502 19.0634L65.1617 21.5891L64.9309 21.7234L31.8698 40.9622L31.639 41.0965L19.4097 48.213C19.3603 48.3881 19.3153 48.5645 19.2678 48.7409L31.8326 41.4293Z" fill="url(#paint45_linear)"/>
<path d="M45.3947 64.7335L45.6255 64.5992L78.6866 45.3603L78.9174 45.226L100.449 32.6964C100.302 32.6331 100.154 32.5705 100.007 32.5067L78.7242 44.8918L78.4934 45.0261L45.4322 64.265L45.2015 64.3993L20.502 78.7724C20.5426 78.8976 20.5818 79.0225 20.6238 79.1481L45.3947 64.7335Z" fill="url(#paint46_linear)"/>
<path d="M41.521 58.0758L41.7518 57.9415L74.8129 38.7026L75.0437 38.5683L91.7958 28.82C91.6551 28.753 91.5153 28.6855 91.3755 28.6179L74.8505 38.2341L74.6197 38.3684L41.5586 57.6073L41.3278 57.7416L18.5375 71.0037C18.5624 71.1381 18.5867 71.2716 18.6121 71.4069L41.521 58.0758Z" fill="url(#paint47_linear)"/>
<path d="M37.6467 51.4176L37.8775 51.2833L70.9387 32.0444L71.1694 31.9102L83.4589 24.7587C83.3191 24.6911 83.1794 24.6236 83.0401 24.557L70.9767 31.5769L70.746 31.7112L37.6848 50.9501L37.454 51.0844L17.6796 62.5915C17.6832 62.7383 17.6852 62.8847 17.6897 63.031L37.6467 51.4176Z" fill="url(#paint48_linear)"/>
<path d="M33.7717 44.7587L34.0025 44.6244L67.0637 25.3855L67.2944 25.2513L74.7905 20.8892C74.6377 20.8292 74.4863 20.7672 74.3346 20.7091L67.1008 24.9185L66.87 25.0528L33.8089 44.2917L33.5781 44.426L18.2996 53.3168C18.2735 53.4809 18.2426 53.6453 18.2171 53.8103L33.7717 44.7587Z" fill="url(#paint49_linear)"/>
<path d="M29.8962 38.1012L30.127 37.9669L63.1881 18.728L63.4189 18.5937L64.6312 17.8882C64.4343 17.8527 64.2371 17.8186 64.0409 17.7864L63.2253 18.261L62.9945 18.3953L29.9334 37.6341L29.7026 37.7684L21.3641 42.6208C21.2809 42.8168 21.1977 43.0129 21.1174 43.2097L29.8962 38.1012Z" fill="url(#paint50_linear)"/>
<path d="M52.8349 109.426L52.6015 109.117L46.8145 112.484C46.9311 112.565 47.049 112.644 47.1666 112.725L52.8349 109.426Z" fill="url(#paint51_linear)"/>
<path d="M48.1535 103.238L47.9191 102.929L40.2441 107.396C40.3469 107.485 40.4487 107.574 40.5518 107.662L48.1535 103.238Z" fill="url(#paint52_linear)"/>
<path d="M51.206 74.721L51.4368 74.5867L84.498 55.3478L84.7288 55.2135L113.803 38.2948C113.655 38.2321 113.507 38.1689 113.359 38.1062L84.5355 54.8793L84.3048 55.0136L51.2436 74.2525L51.0128 74.3868L25.2113 89.4011C25.2751 89.5129 25.3408 89.6236 25.4055 89.7348L51.206 74.721Z" fill="url(#paint53_linear)"/>
<path d="M50.4948 106.331L50.2604 106.022L43.4316 109.996C43.5418 110.081 43.6514 110.165 43.7615 110.25L50.4948 106.331Z" fill="url(#paint54_linear)"/>
<path d="M37.5418 104.957L45.8117 100.145L45.5782 99.8351L37.248 104.683C37.3447 104.774 37.4446 104.865 37.5418 104.957Z" fill="url(#paint55_linear)"/>
<path d="M53.1452 78.0505L53.3759 77.9162L86.4371 58.6773L86.6679 58.543L118.206 40.1903C118.061 40.126 117.915 40.0622 117.768 39.9984L86.4746 58.2088L86.2439 58.3431L53.1827 77.582L52.9519 77.7163L27.2246 92.6875C27.2949 92.7955 27.3633 92.9045 27.4345 93.012L53.1452 78.0505Z" fill="url(#paint56_linear)"/>
<path d="M23.5867 86.3385L49.2714 71.3921L49.5022 71.2579L82.5634 52.019L82.7941 51.8847L109.355 36.4286C109.206 36.3665 109.057 36.3044 108.907 36.2422L82.6 51.551L82.3692 51.6853L49.308 70.9242L49.0773 71.0585L23.4185 85.9898C23.4749 86.1059 23.5294 86.223 23.5867 86.3385Z" fill="url(#paint57_linear)"/>
<path d="M57.5174 115.615L57.283 115.306L54.2051 117.097C54.3356 117.17 54.4652 117.243 54.5961 117.315L57.5174 115.615Z" fill="url(#paint58_linear)"/>
<path d="M59.8573 118.709L59.6223 118.399L58.2266 119.211C58.3645 119.28 58.5015 119.349 58.6394 119.417L59.8573 118.709Z" fill="url(#paint59_linear)"/>
<path d="M50.4043 114.852C50.5274 114.929 50.6509 115.005 50.7749 115.081L55.1764 112.52L54.942 112.211L50.4043 114.852Z" fill="url(#paint60_linear)"/>
</g>
<path d="M112.995 25.2148H76.9668V115.855H112.995V25.2148Z" fill="#997B71"/>
<path d="M111.88 26.3594H78.2227V114.71H111.88V26.3594Z" fill="#E0EFF1"/>
<path d="M92.4018 49.0852C92.4009 50.5122 91.9591 51.9133 91.1219 53.1443C90.2847 54.3753 89.0822 55.3918 87.6383 56.0893C86.1943 56.7867 84.5609 57.14 82.906 57.1127C81.2512 57.0855 79.6347 56.6786 78.2227 55.9341V42.2318C79.635 41.4871 81.252 41.0803 82.9073 41.0532C84.5626 41.0261 86.1963 41.3798 87.6405 42.0778C89.0846 42.7758 90.2869 43.7929 91.1238 45.0245C91.9606 46.2562 92.4018 47.6578 92.4018 49.0852Z" fill="#E4B083"/>
<path opacity="0.79" d="M81.1582 56.8707C81.1674 56.2701 83.372 55.8982 83.7996 55.6027C84.2272 55.3072 85.3343 54.3185 86.6527 54.299C87.9711 54.2795 89.7899 55.9405 90.1252 55.9443C90.4604 55.9481 90.8725 55.3521 91.2913 55.3569C91.7101 55.3616 92.3394 56.3391 92.7046 56.3433C93.0698 56.3474 93.3592 54.9645 94.3653 54.9529C95.3714 54.9412 96.7037 56.0768 96.8294 56.0783C96.9551 56.0797 97.3602 55.9224 97.7246 55.9152C98.0014 55.9096 101.962 56.8797 101.29 56.877C99.3875 56.8693 81.157 56.9515 81.1582 56.8707Z" fill="white"/>
<path opacity="0.79" d="M111.88 46.8811V47.7858C106.795 47.7945 101.168 47.8033 100.296 47.7989C99.6216 47.7989 103.586 47.034 103.865 47.0384C104.23 47.0428 104.63 47.1652 104.757 47.1652C104.884 47.1608 106.222 46.2735 107.226 46.2823C108.23 46.2867 108.518 47.3619 108.883 47.3619C109.249 47.3575 109.877 46.5926 110.298 46.5882C110.719 46.5839 111.129 47.0472 111.464 47.0428C111.54 47.0428 111.682 46.9772 111.88 46.8811Z" fill="white"/>
<path d="M91.0193 67.068C91.162 67.1151 84.5678 67.0628 78.2227 66.9895V64.5918C79.8773 64.7358 80.618 66.1074 81.6108 66.0629C82.6187 66.0157 83.1774 64.7044 84.4494 64.8012C85.7215 64.8928 85.8885 65.7802 86.2953 65.8927C86.6961 66.0079 86.523 65.6781 87.4763 65.8142C88.4296 65.9451 89.4163 66.5445 91.0193 67.068Z" fill="#FDFEFE"/>
<path d="M111.879 57.3401V114.71H91.6424C88.7884 111.764 94.8716 102.249 93.5435 98.1495C92.2102 94.0542 97.1529 90.7761 100.007 88.8093C102.856 86.8425 99.6267 84.3818 98.1515 79.6308C96.6814 74.8754 102.856 73.7303 104.189 70.9505C105.517 68.1708 103.049 62.7467 104.189 59.4905C105.33 56.2299 109.892 56.3567 111.879 57.3401Z" fill="#D2DEC9"/>
<path d="M94.9805 26.3604V115.856" stroke="#997B71" stroke-width="3" stroke-miterlimit="10"/>
<path d="M94.9805 26.3604V115.856" stroke="#997B71" stroke-width="3" stroke-miterlimit="10"/>
<path d="M112.996 71.1074H76.9648" stroke="#997B71" stroke-width="3" stroke-miterlimit="10"/>
<path d="M112.996 71.1074H76.9648" stroke="#997B71" stroke-width="3" stroke-miterlimit="10"/>
<path d="M86.8996 91.8428L86.72 95.0414L86.5098 98.8696L86.3714 101.379H80.7453L80.6119 98.8696L80.4068 95.0414L80.2324 91.8428H86.8996Z" fill="#FDFEFE"/>
<path d="M86.7195 95.042L86.5092 98.8703H80.6114L80.4062 95.042H86.7195Z" fill="#CC9300"/>
<path d="M86.8996 91.166H80.2324V91.8436H86.8996V91.166Z" fill="#CC9300"/>
<path d="M86.5307 90.9082H80.5938V91.4228H86.5307V90.9082Z" fill="#CC9300"/>
<path d="M108.951 107.609V147.435C108.951 149.31 107.321 150.83 105.316 150.83H95.2618C93.2568 150.83 91.6268 149.31 91.6268 147.435V107.609C91.6249 107.261 91.6833 106.915 91.7999 106.582C92.2615 105.208 93.6414 104.214 95.2618 104.214H105.316C106.936 104.214 108.316 105.208 108.778 106.582C108.894 106.915 108.953 107.261 108.951 107.609ZM89.1562 103.657V154.104H111.423V103.657H89.1562Z" fill="#E4D9C4"/>
<g style="mix-blend-mode:multiply">
<path d="M108.951 107.609V147.435C108.951 149.31 107.321 150.83 105.316 150.83H95.2618C93.2568 150.83 91.6268 149.31 91.6268 147.435V107.609C91.6249 107.261 91.6833 106.915 91.7999 106.582C92.2615 105.208 93.6414 104.214 95.2618 104.214H105.316C106.936 104.214 108.316 105.208 108.778 106.582C108.894 106.915 108.953 107.261 108.951 107.609ZM89.1562 103.657V154.104H111.423V103.657H89.1562Z" fill="#DFDFDF"/>
</g>
<path d="M92.5584 148.889C92.7533 149.645 91.1685 150.878 90.8392 151.334C90.51 151.79 82.8307 154.464 82.5955 154.788C82.3603 155.113 82.5126 155.633 82.6067 155.836C82.7008 156.039 90.0842 156.239 91.4012 155.996C92.7182 155.752 95.9052 156.425 97.4474 155.611C97.7075 155.474 96.6726 149.742 96.3433 149.176C96.0141 148.611 92.3702 148.159 92.5584 148.889Z" fill="#5A5A5A"/>
<path d="M141.962 84.1864C141.803 83.8007 141.613 83.4253 141.392 83.0628C141.084 82.5414 140.674 81.9023 140.175 81.1824C140.145 81.1407 140.121 81.0968 140.101 81.0512C140.081 81.0109 140.065 80.9693 140.054 80.9267C140.048 80.9125 140.044 80.8979 140.042 80.883C139.586 79.238 141.806 74.7876 142.079 75.3157C142.371 75.8842 145.582 79.4332 146.394 80.2371C147.061 80.8998 142.083 84.5093 141.962 84.1864Z" fill="#DFB89A"/>
<g style="mix-blend-mode:multiply">
<path d="M142.573 79.1172C142.495 79.4973 141.89 82.942 141.391 83.0631C141.083 82.5417 140.673 81.9025 140.174 81.1826C140.144 81.141 140.12 81.0971 140.1 81.0514C140.08 80.9976 140.064 80.9573 140.053 80.927C140.047 80.9128 140.043 80.8981 140.041 80.8832C140.041 80.7924 142.573 79.1172 142.573 79.1172Z" fill="#DFDFDF"/>
</g>
<path d="M132.763 74.5181C132.964 75.2603 136.522 81.8196 137.603 81.8945C140.753 82.1127 143.645 78.5338 143.748 77.8428C143.851 77.1517 142.378 72.0901 141.402 71.516C140.425 70.942 138.385 69.8418 137.306 69.9588C136.227 70.0758 132.481 73.4718 132.763 74.5181Z" fill="#DFB89A"/>
<path d="M144.392 77.8354C144.878 77.963 145.315 76.0152 145.558 75.4586C145.801 74.902 145.395 70.8743 145.182 70.1209C144.791 68.7367 143.132 66.9259 141.016 66.7014C138.524 66.437 136.308 67.738 134.97 67.8512C129.656 68.3009 128.094 70.5489 129.936 73.0293C130.471 73.75 131.963 74.8815 132.749 74.2141C133.818 73.307 136.98 71.3706 137.678 72.4515C138.377 73.5323 138.169 74.4294 139.133 74.9579C140.096 75.4863 141.41 73.0454 141.658 73.0498C141.907 73.0542 143.191 77.52 144.392 77.8354Z" fill="#382B25"/>
<path d="M142.576 75.0971C143.028 74.2797 142.847 73.3916 142.171 73.1136C141.495 72.8355 140.58 73.2728 140.128 74.0902C139.675 74.9076 139.857 75.7957 140.533 76.0738C141.209 76.3518 142.123 75.9146 142.576 75.0971Z" fill="#DFB89A"/>
<path d="M124.461 113.826C116.364 116.515 105.343 120.963 104.611 121.892C103.878 122.822 91.7831 149.061 92.1733 149.481C92.5635 149.902 96.27 151.332 97.2455 150.911C98.2209 150.491 109.731 130.391 110.804 128.036C111.877 125.682 124.461 113.826 124.461 113.826Z" fill="#B0881F"/>
<path d="M139.585 126.558H137.244V144.531H139.585V126.558Z" fill="#6E787D"/>
<path d="M138.416 150.403H129.783L138.416 146.193V150.403Z" fill="#6E787D"/>
<path d="M138.414 150.403H147.046L138.414 146.193V150.403Z" fill="#6E787D"/>
<path d="M139.857 143.988H136.975V146.87H139.857V143.988Z" fill="#495053"/>
<path d="M138.416 152.679L139.857 146.858H136.975L138.416 152.679Z" fill="#3A3F42"/>
<path d="M147.046 153.612C148.201 153.612 149.137 152.894 149.137 152.008C149.137 151.122 148.201 150.403 147.046 150.403C145.891 150.403 144.955 151.122 144.955 152.008C144.955 152.894 145.891 153.612 147.046 153.612Z" fill="#3A3F42"/>
<path d="M138.415 155.708C139.57 155.708 140.506 154.989 140.506 154.103C140.506 153.217 139.57 152.499 138.415 152.499C137.26 152.499 136.324 153.217 136.324 154.103C136.324 154.989 137.26 155.708 138.415 155.708Z" fill="#3A3F42"/>
<path d="M129.782 153.612C130.937 153.612 131.873 152.894 131.873 152.008C131.873 151.122 130.937 150.403 129.782 150.403C128.628 150.403 127.691 151.122 127.691 152.008C127.691 152.894 128.628 153.612 129.782 153.612Z" fill="#3A3F42"/>
<path d="M123.845 151.163C124.009 151.839 123.875 152.544 123.469 153.14C123.139 153.596 115.618 155.897 115.383 156.222C115.148 156.546 115.521 157.141 115.615 157.344C115.709 157.547 122.195 157.737 123.512 157.494C124.829 157.25 129.029 157.908 130.572 157.095C130.832 156.957 128.784 151.24 128.455 150.674C128.125 150.109 123.657 150.433 123.845 151.163Z" fill="#5A5A5A"/>
<path d="M148.271 110.348C147.939 111.646 147.916 118.018 146.242 119.905C144.568 121.792 136.671 122.128 133.16 122.367C129.648 122.606 118.325 125.533 117.838 126.327C117.35 127.121 129.66 151.391 129.129 151.842C128.704 152.199 126.411 151.46 123.94 151.909C123.286 152.028 113.429 136.957 111.478 133.465C109.527 129.973 106.472 124.312 107.822 121.456C108.474 120.077 111.981 118.536 122.527 114.482H122.531C125.766 113.238 129.66 111.758 134.342 109.975C134.357 109.968 134.369 109.965 134.377 109.961C135.793 109.423 148.599 109.05 148.271 110.348Z" fill="#CC9300"/>
<g style="mix-blend-mode:multiply">
<path d="M135.93 110.281C133.23 110.926 123.682 114.378 122.531 114.482C125.766 113.238 129.66 111.757 134.342 109.974C134.357 109.968 134.369 109.964 134.377 109.961C134.985 109.749 135.93 110.281 135.93 110.281Z" fill="#DFDFDF"/>
</g>
<path d="M143.228 127.201H133.596L132.416 123.08H144.414L143.228 127.201Z" fill="#495053"/>
<path d="M119.086 96.2179C118.52 96.0832 116.011 96.0722 114.631 96.703C113.251 97.3337 111.788 97.64 111.495 97.9764C111.203 98.3128 107.053 99.5725 106.879 100.182C106.754 100.622 111.913 100.558 112.872 100.499C113.897 100.436 115.69 99.8987 115.836 99.6884C115.982 99.4782 121.915 96.8907 119.086 96.2179Z" fill="#D5B093"/>
<path d="M140.92 83.6016C140.234 84.2142 139.547 85.6546 139.605 86.6024C139.663 87.5502 140.078 87.2072 140.171 87.0326C140.263 86.8581 140.92 83.6016 140.92 83.6016Z" fill="#CC9300"/>
<path d="M139.753 87.1596C137.57 89.2243 131.9 93.4985 130.943 94.0031C129.987 94.5077 119.745 95.7871 118.501 95.7851C117.258 95.7832 118.063 97.0937 118.501 97.2199C118.94 97.346 132.495 97.5983 134.35 96.463C136.205 95.3276 142.795 86.4342 142.573 85.9927C142.35 85.5512 141.545 85.4656 139.753 87.1596Z" fill="#F1E7DE"/>
<g style="mix-blend-mode:multiply">
<path d="M134.348 96.4614C132.838 97.3899 123.552 97.3932 119.932 97.2923C119.108 97.2721 118.582 97.2419 118.5 97.2183C118.063 97.0938 117.259 95.7819 118.5 95.7853C118.671 95.7853 119.011 95.7617 119.471 95.718C122.374 95.4489 130.119 94.4363 130.942 94.0024C131.898 93.4978 137.568 89.2248 139.753 87.1594C141.544 85.4639 142.351 85.5521 142.573 85.9928C142.795 86.4335 136.206 95.3278 134.348 96.4614Z" fill="#DFDFDF"/>
</g>
<path d="M134.879 109.674C135.257 109.915 135.584 109.954 136.26 110.216C140.595 111.9 148.669 111.963 149.894 110.612C149.822 110.038 149.3 108.082 149.246 107.973L135.184 107.593C135.175 107.647 135.166 107.701 135.156 107.764C135.066 108.353 134.951 109.022 134.879 109.674Z" fill="#382B25"/>
<path d="M151.181 95.1497C149.574 98.601 151.079 106.299 149.176 109.043C148.27 110.348 139.999 109.693 136.799 108.508C136.147 108.266 135.088 107.688 135.118 107.448C136.234 98.4471 135.643 98.5112 135.483 97.0949C135.292 95.3995 139.039 88.3478 140.974 85.0848C141.271 84.5836 141.513 84.2304 141.669 84.0824C142.293 83.4937 143.183 82.9319 143.842 82.4206C145.239 81.334 146.257 80.2811 146.288 80.0894C146.3 80.0322 146.565 80.1937 147.334 81.0817C147.336 81.0835 147.338 81.0859 147.338 81.0885C147.599 81.3912 147.915 81.7814 148.302 82.2726C150.689 85.3203 152.878 91.4964 151.181 95.1497Z" fill="#E6DCD4"/>
<path d="M134.865 109.898C135.14 110.144 135.773 110.406 136.121 110.602L136.261 108.26C135.73 108.023 135.487 107.799 135.042 107.376C134.985 107.966 134.909 109.246 134.865 109.898Z" fill="#E4D9C4"/>
<path d="M139.605 86.6018C138.039 89.6003 136.29 97.9778 135.658 100.025C135.027 102.072 134.783 106.046 135.339 105.294C135.895 104.542 136.155 103.014 136.416 101.346C136.676 99.6778 139.517 87.449 139.873 87.1443C140.228 86.8397 139.735 86.3526 139.605 86.6018Z" fill="#CC9300"/>
<g style="mix-blend-mode:multiply">
<path d="M135.658 100.025C137.295 98.9137 148.696 89.1492 147.596 90.9914C146.496 92.8335 135.627 101.041 135.645 100.829C135.663 100.616 135.658 100.025 135.658 100.025Z" fill="#DFDFDF"/>
</g>
<g style="mix-blend-mode:multiply">
<path d="M152.545 93.6248C152.727 89.8078 149.213 95.3385 147.458 105.584C146.574 110.738 147.324 116.159 145.191 118.853C143.662 120.785 141.957 120.93 135.653 121.581C133.372 121.816 130.006 122 125.708 123.522C122.716 124.581 127.976 125.015 128.269 125.141C128.562 125.267 141.716 125.179 145.3 124.958C148.885 124.737 151.238 123.208 150.751 118.853C150.263 114.498 150.135 110.04 150.165 107.266C150.263 98.2672 152.399 96.6834 152.545 93.6248Z" fill="#DFDFDF"/>
</g>
<path d="M152.738 92.9633C152.92 89.1463 150.032 95.6367 148.276 105.882C147.393 111.037 148.143 116.457 146.009 119.151C144.48 121.083 142.776 121.229 136.472 121.879C134.19 122.115 129.824 122.221 125.526 123.742C122.533 124.802 125.087 125.382 125.379 125.508C125.672 125.634 142.535 125.477 146.119 125.256C149.704 125.035 152.057 123.507 151.569 119.151C151.082 114.796 150.954 110.338 150.984 107.564C151.082 98.5654 152.592 96.0219 152.738 92.9633Z" fill="#E2A16D"/>
<path d="M111.968 97.0813C111.402 96.9466 110.143 96.829 108.763 97.4597C107.383 98.0905 105.92 98.3968 105.627 98.7332C105.335 99.0696 101.311 99.8895 101.137 100.499C101.011 100.939 106.277 100.832 107.237 100.773C108.261 100.71 109.822 100.655 109.968 100.445C110.114 100.235 114.796 97.754 111.968 97.0813Z" fill="#DFB89A"/>
<path d="M147.892 90.7228C146.37 92.1962 134.923 100.653 133.651 101.427C132.379 102.201 127.599 102.214 125.254 102.066C123.37 101.948 115.726 100.697 112.703 100.001C111.961 99.8324 111.497 99.6945 111.462 99.6171C111.286 99.2201 111.438 96.714 112.242 96.7476C112.359 96.751 112.761 96.751 113.366 96.7443C116.901 96.6972 127.369 96.4785 128.43 96.5424C129.675 96.6165 131.216 96.0076 131.692 95.7317C132.168 95.4593 139.417 89.643 141.505 86.9788C143.596 84.3112 147.521 83.0329 148.251 83.5274C152.562 86.4506 149.394 89.273 147.892 90.7228Z" fill="#F1E7DE"/>
<path d="M128.816 101.343H71.7617V104.034H128.816V101.343Z" fill="#E4D9C4"/>
<path d="M115.502 100.499H95.75V101.341H115.502V100.499Z" fill="#495053"/>
<path d="M87.7849 85.8973L96.5394 100.905C96.5474 100.918 96.5521 100.933 96.5534 100.948C96.5547 100.963 96.5525 100.978 96.547 100.993C96.5414 101.007 96.5327 101.021 96.5211 101.032C96.5096 101.044 96.4956 101.053 96.4799 101.06L95.847 101.334C95.8313 101.341 95.8141 101.345 95.7965 101.346C95.779 101.347 95.7613 101.346 95.7446 101.341C95.7278 101.336 95.7124 101.328 95.699 101.319C95.6857 101.309 95.6748 101.296 95.6668 101.283L86.9123 86.2757C86.8963 86.2483 86.8936 86.2165 86.9048 86.1874C86.916 86.1583 86.9401 86.1341 86.9719 86.1204L87.6047 85.8459C87.6365 85.8321 87.6734 85.8298 87.7072 85.8394C87.7409 85.8491 87.7689 85.8699 87.7849 85.8973Z" fill="#495053"/>
<path d="M86.8848 103.267V159.61C86.8848 159.946 87.0396 160.269 87.3153 160.506C87.5909 160.744 87.9648 160.877 88.3546 160.877H112.219C112.412 160.877 112.604 160.845 112.782 160.781C112.96 160.717 113.122 160.624 113.259 160.506C113.395 160.389 113.504 160.249 113.577 160.095C113.651 159.941 113.689 159.777 113.689 159.61V103.267H86.8848ZM110.712 153.436C110.712 155.455 108.754 157.093 106.338 157.093H94.2394C91.8243 157.093 89.8617 155.455 89.8617 153.436V110.556C89.8644 109.976 90.0292 109.405 90.3424 108.891C90.6555 108.378 91.1076 107.937 91.6604 107.606C92.4148 107.147 93.316 106.901 94.2394 106.903H106.338C107.26 106.901 108.16 107.145 108.914 107.603C109.467 107.934 109.919 108.376 110.232 108.89C110.545 109.404 110.71 109.976 110.712 110.556V153.436Z" fill="#E4D9C4"/>
<g style="mix-blend-mode:multiply">
<path d="M134.342 109.975C129.66 111.758 125.766 113.238 122.531 114.482H122.527" fill="#DFDFDF"/>
</g>
<g style="mix-blend-mode:multiply">
<path d="M113.69 104.034H86.8867V104.789H113.69V104.034Z" fill="#DFDFDF"/>
</g>
<path d="M145.913 79.7398C145.498 78.8933 148.49 81.4788 147.901 81.7675C143.532 83.9084 139.618 87.1531 139.98 86.0846C140.822 83.6005 141.073 83.1539 141.392 83.063C142.341 82.7921 146.153 80.2291 145.913 79.7398Z" fill="#F1E7DE"/>
<path d="M58.2121 70.4675C57.5861 70.4675 53.7934 65.105 54.0387 65.0419C54.2804 64.9787 55.7017 63.7218 55.8188 63.3114C55.8993 63.0274 56.3341 61.4121 56.3085 60.2695C56.2975 59.8939 56.2901 59.5562 56.2828 59.3132C56.2792 59.2374 56.2755 59.1711 56.2755 59.1143C56.2572 58.4515 61.3055 59.7393 61.1664 60.4936C61.0968 60.8692 61.0639 61.6741 61.0566 62.4316C61.0566 62.804 61.0602 63.167 61.0712 63.4637C61.0727 63.6772 61.0922 63.8903 61.1298 64.1013C61.2359 64.4769 62.4879 65.105 62.8687 65.5121C63.2531 65.9193 58.8381 70.4675 58.2121 70.4675Z" fill="#E3C7B1"/>
<g style="mix-blend-mode:multiply">
<path d="M61.0716 63.463C60.6725 63.3841 57.451 62.0364 56.3089 60.2688C56.2979 59.8932 56.2905 59.5555 56.2832 59.3125C57.3449 59.5745 60.592 61.6955 61.057 62.4309C61.057 62.8034 61.0606 63.1663 61.0716 63.463Z" fill="#E8E8E8"/>
</g>
<path d="M63.9294 58.5305C63.4047 60.4267 62.7087 62.2879 61.0579 62.5578C59.6622 62.7856 56.9911 60.672 55.9015 59.3717C55.8942 59.3647 55.8869 59.3542 55.8796 59.3472C55.7204 59.1647 55.5859 58.9671 55.4787 58.7583C55.435 58.6637 55.3949 58.5725 55.3585 58.4849C55.3293 58.4218 55.3038 58.3587 55.282 58.2991C55.2377 58.1935 55.1999 58.0858 55.169 57.9767C55.1325 57.854 55.107 57.7348 55.0852 57.6192C55.0706 57.5315 55.0597 57.4439 55.0524 57.3563C55.0487 57.3142 55.0451 57.2722 55.0451 57.2336C55.0123 56.5291 55.1799 55.5897 55.4714 53.5919C55.763 51.6185 57.1769 51.4292 57.9276 51.7657C58.0697 51.8288 58.3831 51.8498 58.8022 51.8428C60.5951 51.8218 64.2829 51.3206 64.3048 51.7657C64.3084 51.8323 64.3121 51.9059 64.3121 51.983C64.323 52.1758 64.3303 52.3966 64.3376 52.635C64.3776 54.2999 64.3667 56.9532 63.9294 58.5305Z" fill="#E3C7B1"/>
<g style="mix-blend-mode:multiply">
<path d="M64.3109 51.9828C64.3218 52.1756 64.3291 52.3964 64.3364 52.6347H64.3327C61.8147 54.2295 58.6188 52.6838 57.8535 52.116L57.8608 52.1125L58.801 51.8426L63.7096 50.4336C63.7096 50.4336 65.0579 50.693 65.2766 51.3239C64.9999 51.5888 64.6735 51.8115 64.3109 51.9828Z" fill="#E8E8E8"/>
</g>
<path d="M66.1766 50.1082C65.9524 50.5518 65.6486 50.9622 65.2766 51.3244C64.9999 51.5894 64.6734 51.8121 64.3109 51.9834C63.7096 52.2743 62.9589 52.4706 61.9786 52.6108C59.6318 52.9543 58.1159 52.2743 57.9264 52.1376C57.9084 52.1232 57.8853 52.1145 57.8608 52.1131C57.6713 52.1096 57.3871 52.5828 57.2522 53.764C57.1028 55.0819 56.9315 55.8249 56.4578 55.8179C55.8492 55.8109 55.1605 56.0563 55.0658 56.7327C55.0415 56.8989 55.0341 57.0667 55.0439 57.234C55.0439 57.2725 55.0475 57.3146 55.0512 57.3567C55.0585 57.4443 55.0694 57.5319 55.084 57.6195C55.1058 57.7352 55.1313 57.8544 55.1678 57.977C55.1987 58.0862 55.2365 58.1938 55.2808 58.2995C55.3026 58.3591 55.3281 58.4222 55.3573 58.4853C55.4983 58.7865 55.6728 59.0753 55.8784 59.3475C55.8857 59.3545 55.893 59.365 55.9003 59.3721C55.9148 59.3966 55.9367 59.4211 55.9549 59.4457C56.108 59.6419 54.6285 58.7692 54.326 57.9245C54.0272 57.0763 50.6559 52.1546 54.5155 49.2284C56.6722 47.5933 56.972 47.1495 60.3465 46.6763C63.7209 46.2031 64.3514 47.13 66.8144 46.3192C67.2729 46.1683 67.0002 48.587 66.1766 50.1082Z" fill="#3A3F42"/>
<path d="M56.262 55.0239C56.6998 55.9251 56.9531 56.3441 55.7657 57.0094C55.2496 57.2985 54.685 56.7217 54.2472 55.8205C53.8094 54.9193 53.9055 54.0105 54.4619 53.7905C55.0183 53.5705 55.8242 54.1227 56.262 55.0239Z" fill="#E3C7B1"/>
<path d="M65.4602 147.519C65.9724 148.65 66.1993 149.378 66.1956 149.442C66.192 149.506 69.5233 149.284 69.3538 149C69.1843 148.716 68.7557 146.461 68.7263 146.161C68.6969 145.861 65.2773 147.115 65.4602 147.519Z" fill="#E3C7B1"/>
<path d="M47.5794 148.533C47.3847 149.656 47.1724 150.696 46.9929 151.121C46.8134 151.546 50.3721 151.378 50.6313 150.597C50.8906 149.816 50.6019 148.841 50.6629 148.254C50.7238 147.666 47.7714 147.426 47.5794 148.533Z" fill="#E3C7B1"/>
<path d="M65.0245 147.102C64.7435 146.673 64.0594 151.842 64.3599 152.185C64.6604 152.529 68.786 153.144 69.6033 153.546C70.4206 153.948 73.0171 154.719 74.2522 154.808C75.4873 154.897 76.9113 154.479 76.4973 154.021C76.0833 153.563 73.0639 151.345 72.6835 150.999C72.3032 150.652 69.0113 146.513 68.6263 146.529C68.2413 146.546 65.0909 147.203 65.0245 147.102Z" fill="#ACACAC"/>
<path d="M65.2427 95.3688C65.182 98.8952 69.1449 145.774 68.921 146.447C68.6971 147.119 63.9165 147.931 63.1019 147.565C62.2872 147.198 60.3375 123.544 59.6982 121.727C59.059 119.91 55.519 104.626 54.8701 102.979C54.2211 101.332 56.2573 96.2187 57.7822 95.6866C59.307 95.1544 65.2709 93.7267 65.2427 95.3688Z" fill="#6E787D"/>
<g style="mix-blend-mode:multiply">
<path d="M68.9205 146.447C68.7307 147.022 65.1939 147.702 63.6749 147.654C63.4786 147.658 63.2835 147.628 63.1012 147.565C62.4373 147.266 61.0182 131.509 60.1736 124.698C59.9805 123.148 59.8163 122.063 59.6976 121.726C59.1898 120.282 56.855 110.35 55.5903 105.495C55.2622 104.235 55.0057 103.317 54.8707 102.978C54.22 101.332 56.2558 96.2197 57.7802 95.6867C59.3073 95.1538 65.2711 93.7272 65.2411 95.3685C65.181 98.8953 69.1435 145.774 68.9205 146.447Z" fill="#E8E8E8"/>
</g>
<path d="M51.1033 147.265C51.1639 148.758 51.951 151.374 51.9569 152.035C51.9628 152.697 50.313 153.149 49.8224 153.579C49.3319 154.009 47.385 155.947 46.6127 156.354C45.8404 156.762 43.1017 157.675 42.231 157.242C41.3604 156.809 44.1153 153.249 44.7476 152.555C45.3799 151.86 47.1245 148.344 47.127 148.332C47.1295 148.321 48.6112 148.819 49.3464 148.454C50.0816 148.089 51.1033 147.265 51.1033 147.265Z" fill="#ACACAC"/>
<g style="mix-blend-mode:multiply">
<path d="M58.6317 112.989C59.9935 118.513 58.9521 115.886 59.7248 121.249C59.2156 119.83 56.871 110.07 55.6016 105.299C55.7357 104.007 55.8173 103.202 55.8173 103.202C57.6658 108.552 57.2701 107.466 58.6317 112.989Z" fill="#E8E8E8"/>
</g>
<path d="M57.3034 97.938C56.8152 100.916 53.9045 118.973 53.9396 121.701C53.9744 124.427 52.1135 146.995 51.8662 147.564C51.6165 148.139 49.3959 148.691 47.7304 148.777C46.7133 148.827 45.9048 148.702 45.8796 148.299C45.6919 145.32 46.2663 118.685 46.2307 116.385C46.2034 114.522 45.8592 103.174 45.9871 98.3432C46.0157 97.2065 46.0722 96.4315 46.1626 96.2235C46.6435 95.1264 57.7316 95.3261 57.3034 97.938Z" fill="#6E787D"/>
<path d="M67.5478 83.3897C67.8839 84.0959 69.6494 88.0006 71.8747 88.5338C74.0999 89.067 77.1249 87.185 78.2376 86.5891C79.3502 85.9931 84.5657 82.4801 84.8091 82.1664C85.0525 81.8528 83.9051 80.159 83.3487 80.2217C82.7924 80.2845 78.7939 81.8528 78.0985 81.9469C77.4031 82.041 74.3086 82.6369 73.6827 82.5742C73.0569 82.5115 72.1181 79.814 71.7356 78.7789C71.3531 77.7438 67.0112 82.262 67.5478 83.3897Z" fill="#E3C7B1"/>
<path d="M71.5587 83.626C70.6199 84.4426 70.4877 87.576 69.7223 87.4194C69.301 87.3339 67.8363 84.8129 66.5588 82.4438C66.121 81.6367 65.7052 80.8463 65.3584 80.1769C64.8765 79.2392 64.5296 78.5365 64.458 78.3561C64.2515 77.8458 66.2752 72.7159 67.3545 70.0525C67.355 70.0459 67.3569 70.0395 67.36 70.0335C67.7399 69.0959 68.0015 68.4692 68.0015 68.4692C68.018 68.3837 68.1309 68.576 68.3154 68.9843C69.235 70.9878 71.9359 78.1615 73.7668 82.3465C73.9073 82.6694 72.4976 82.8118 71.5587 83.626Z" fill="#CC9300"/>
<g style="mix-blend-mode:multiply">
<path d="M66.8998 76.9658C66.0187 79.5176 66.9702 78.9786 66.56 82.4444C66.1222 81.6373 65.7064 80.8468 65.3595 80.1774C65.3154 79.7643 65.2852 79.3869 65.2769 79.0973C65.2273 77.4594 66.414 72.6951 67.3557 70.053C67.3562 70.0465 67.358 70.0401 67.3611 70.0341C67.7411 69.0964 68.0027 68.4697 68.0027 68.4697C68.0192 68.3843 67.9478 68.1964 68.1323 68.6047C68.6923 69.9124 67.7809 74.4139 66.8998 76.9658Z" fill="#E8E8E8"/>
</g>
<path d="M65.4162 94.7139C65.5457 95.6539 59.4471 97.0971 56.8976 97.4105C55.7412 97.5506 53.3652 97.712 51.1047 97.6645C49.1499 97.6265 47.2804 97.4319 46.3718 96.9334C46.3625 96.9262 46.3524 96.9198 46.3416 96.9144C46.2622 96.8703 46.1876 96.8202 46.1185 96.7648C46.1175 96.7617 46.1157 96.7589 46.1134 96.7565C46.111 96.754 46.1081 96.752 46.1047 96.7506C46.0119 96.6813 45.9368 96.5962 45.8842 96.5005C45.8316 96.4049 45.8026 96.3009 45.7991 96.1951C45.7744 95.3833 47.2584 90.5075 47.6741 86.745C47.988 83.9273 47.6769 80.547 47.2061 78.4984V78.496C47.2033 78.4889 47.2033 78.477 47.2005 78.4627C47.0574 77.8361 46.895 77.3328 46.7325 77.0171C46.7325 77.0171 46.7297 77.0147 46.7325 77.0147C46.7215 76.9957 46.7105 76.9767 46.6995 76.9578C46.0276 75.7448 46.6554 67.3723 47.2033 66.4869C47.2054 66.4826 47.2082 66.4786 47.2116 66.475C47.2253 66.4584 47.2391 66.4418 47.2529 66.4275C47.2529 66.4252 47.2556 66.4252 47.2584 66.4228C47.3089 66.3921 47.3623 66.3651 47.4181 66.3421C48.5689 65.8365 54.3646 64.2603 54.5931 64.6994C54.8381 65.1671 57.3023 66.1355 58.5881 66.2637C59.8766 66.3896 62.3656 65.573 62.6354 65.3071C63.2136 64.735 67.2389 67.0068 68.0732 68.469C68.9074 69.9313 65.441 79.2793 65.3529 80.2217C65.2676 81.1618 65.2923 93.7715 65.4162 94.7139Z" fill="#CC9300"/>
<g style="mix-blend-mode:multiply">
<path d="M51.1063 97.6647C49.1514 97.6268 47.282 97.4321 46.3734 96.9336C46.364 96.9265 46.3539 96.9201 46.3431 96.9147C46.2638 96.8706 46.1892 96.8205 46.1201 96.7651C46.119 96.762 46.1173 96.7592 46.1149 96.7567C46.1125 96.7543 46.1096 96.7523 46.1063 96.7508C46.0135 96.6816 45.9384 96.5964 45.8858 96.5008C45.8332 96.4052 45.8042 96.3012 45.8007 96.1954C45.7759 95.3835 47.2599 90.5077 47.6756 86.7452C47.9896 83.9275 47.6784 80.5472 47.2076 78.4985C46.7313 79.054 44.9802 81.3851 44.168 82.3631C45.1592 80.2884 46.0815 78.3704 46.7341 77.0173C46.7341 77.0173 46.7313 77.0149 46.7341 77.0149C47.3205 75.7948 47.6867 75.0352 47.6867 75.0352C48.2016 76.4072 49.4405 78.5674 49.3497 81.2641C49.2588 83.9631 47.9675 85.9025 48.5209 87.6425C49.0743 89.3825 48.0584 92.9195 48.5209 94.574C48.9807 96.2144 49.837 97.3633 51.1063 97.6647Z" fill="#E8E8E8"/>
</g>
<g style="mix-blend-mode:multiply">
<path d="M64.6621 89.5532C63.0378 90.264 54.0286 90.2784 54.0097 90.0512C54.3236 90.03 52.5131 76.7644 52.1992 76.7856C52.2151 76.9764 63.6542 76.0561 63.6389 76.1975L64.6621 89.5532Z" fill="#E8E8E8"/>
</g>
<path d="M63.1625 89.8666C63.1656 90.0895 52.3878 90.2127 52.3847 89.9898C52.6994 89.9862 52.5139 76.782 52.1992 76.7856C52.2019 76.9728 63.0332 76.8473 63.0306 76.6602L63.1625 89.8666Z" fill="#E4D9C4"/>
<g style="mix-blend-mode:multiply">
<path d="M63.1625 89.8666C63.1656 90.0895 52.3878 90.2127 52.3847 89.9898C52.6994 89.9862 52.5139 76.782 52.1992 76.7856C52.2019 76.9728 63.0332 76.8473 63.0306 76.6602L63.1625 89.8666Z" fill="#E8E8E8"/>
</g>
<path d="M63.288 90.1169C63.2907 90.3397 52.5127 90.4463 52.5101 90.2235C52.8248 90.2204 52.6643 77.016 52.3496 77.0191C53.017 77.0744 62.8664 77.1013 62.6034 76.9658L63.288 90.1169Z" fill="#F6F6F7"/>
<path d="M64.1288 89.8282C64.1473 90.0504 53.3989 90.7793 53.3804 90.557C53.6943 90.5357 52.5971 77.3677 52.2832 77.389C52.2988 77.5756 63.0471 76.8468 63.0316 76.6602L64.1288 89.8282Z" fill="#E4D9C4"/>
<path d="M40.4091 77.2419C39.8864 78.3262 39.1226 79.6601 38.5663 81.1485C38.0099 82.6369 37.9056 85.5749 38.149 86.0349C38.3924 86.4949 43.7693 83.076 43.7755 82.7937C43.7817 82.5114 44.5467 81.1313 44.7205 80.8804C44.8944 80.6294 40.8544 76.3179 40.4091 77.2419Z" fill="#E3C7B1"/>
<path d="M47.6855 75.0357C47.5699 76.8493 47.4074 78.2712 47.2587 78.4374C47.245 78.454 47.2257 78.473 47.2064 78.4967V78.4991C46.7301 79.0546 44.979 81.3857 44.1668 82.3637C44.0521 82.517 43.9212 82.6608 43.7759 82.7934C43.4978 82.9619 43.1536 82.0053 41.375 82.4492C39.9571 82.8052 37.7269 84.3316 37.6801 83.4675C37.6361 82.6011 41.0859 75.4986 42.7654 72.332C43.4317 71.0738 46.039 67.8431 47.2037 66.4876C47.2058 66.4834 47.2086 66.4794 47.2119 66.4757C47.2257 66.4591 47.2395 66.4425 47.2532 66.4283C47.2532 66.4259 47.256 66.4259 47.2587 66.4235V66.4212C47.3166 66.3523 47.3716 66.3286 47.4184 66.3428C47.9691 66.4876 47.914 71.5059 47.6855 75.0357Z" fill="#CC9300"/>
<path d="M38.1483 86.0351C38.2824 86.4143 39.6434 87.3734 40.8951 87.4988C42.1468 87.6243 52.2301 86.7147 52.3344 86.5265C52.4387 86.3383 53.0993 84.2681 52.6125 84.0172C52.1257 83.7662 48.4054 83.4526 47.2927 83.233C46.1801 83.0134 43.4681 82.4802 41.8339 82.9821C40.1997 83.4839 37.9744 85.5437 38.1483 86.0351Z" fill="#E3C7B1"/>
<path d="M83.1248 80.2727C83.5901 79.7856 84.7377 78.8003 84.8434 78.1312C84.9491 77.462 85.9226 76.7929 86.6644 76.3328C87.4061 75.8728 88.7042 75.5382 89.0751 75.2873C89.446 75.0364 89.0751 75.7712 88.8433 75.9684C88.6115 76.1656 87.7689 76.8556 87.4444 77.2738C87.1199 77.692 88.1943 77.5165 89.0287 77.1129C89.8632 76.7092 91.0956 75.0139 91.6713 75.0364C91.9657 75.0479 91.8031 77.1748 91.6721 77.9639C91.4742 79.1566 89.6481 80.315 88.7209 81.026C87.7937 81.737 85.159 81.941 84.5488 82.3876C83.9387 82.8343 82.7101 80.7067 83.1248 80.2727Z" fill="#E3C7B1"/>
<g style="mix-blend-mode:multiply">
<path d="M53.9434 86.1087C54.8407 86.421 55.9388 86.746 56.7202 86.7663C57.5017 86.7866 59.2902 86.0464 59.9303 85.3647C60.226 85.0499 59.3073 81.6169 59.1141 81.8535C58.97 82.0299 53.9434 86.1087 53.9434 86.1087Z" fill="#E8E8E8"/>
</g>
<path d="M52.4157 83.951C52.9197 84.096 54.1082 82.3923 55.3599 82.1832C56.6116 81.9741 58.4512 81.1011 59.0539 81.293C59.6566 81.4849 59.683 85.0443 59.6361 85.1425C59.5445 85.3344 58.1193 86.4699 57.0001 86.4618C55.881 86.4537 54.4902 86.0369 54.1193 86.078C53.7484 86.1191 52.4109 86.5397 52.1183 86.5866C51.8257 86.6334 51.9742 83.824 52.4157 83.951Z" fill="#E3C7B1"/>
<g style="mix-blend-mode:multiply">
<path d="M64.2853 147.656C64.0267 147.648 63.2189 147.617 63.1006 147.564C62.4365 147.27 61.0546 130.862 60.2031 124.169C60.7673 127.19 61.2925 128.569 62.0146 132.302C62.8947 136.843 63.4816 145.6 64.2853 147.656Z" fill="#E8E8E8"/>
</g>
<g style="mix-blend-mode:multiply">
<path d="M46.7925 108.735C46.1658 112.817 47.5449 118.972 46.7773 122.852C46.0097 126.732 46.8108 143.35 47.5125 146.184C47.7207 147.074 48.1237 147.923 48.6999 148.684C46.9845 148.917 45.9028 148.695 45.878 148.299C45.694 145.372 46.2367 116.856 46.2039 114.597C46.1789 112.767 45.8484 101.617 45.9821 96.8701L47.0921 97.0459C47.5058 100.94 47.4053 104.861 46.7925 108.735Z" fill="#E8E8E8"/>
</g>
<path d="M54.3524 64.6252C55.1876 63.4118 55.4185 62.8302 55.8939 63.0312C56.3694 63.2322 61.0823 63.9314 61.0712 63.4636C61.0601 62.9959 61.8768 64.9747 62.8923 65.2188C63.9079 65.4629 59.3521 66.9116 59.3521 66.9116C59.3521 66.9116 53.666 65.6225 54.3524 64.6252Z" fill="#A9CDD5"/>
</g>
<defs>
<filter id="filter0_d" x="3.62695" y="-1.31738" width="198.61" height="175.9" filterUnits="userSpaceOnUse" color-interpolation-filters="sRGB">
<feFlood flood-opacity="0" result="BackgroundImageFix"/>
<feColorMatrix in="SourceAlpha" type="matrix" values="0 0 0 0 0 0 0 0 0 0 0 0 0 0 0 0 0 0 127 0" result="hardAlpha"/>
<feOffset dx="8" dy="8"/>
<feGaussianBlur stdDeviation="7"/>
<feColorMatrix type="matrix" values="0 0 0 0 0 0 0 0 0 0 0 0 0 0 0 0 0 0 0.25 0"/>
<feBlend mode="normal" in2="BackgroundImageFix" result="effect1_dropShadow"/>
<feBlend mode="normal" in="SourceGraphic" in2="effect1_dropShadow" result="shape"/>
</filter>
<filter id="filter1_d" x="11.0996" y="77.1738" width="50.1391" height="65.0752" filterUnits="userSpaceOnUse" color-interpolation-filters="sRGB">
<feFlood flood-opacity="0" result="BackgroundImageFix"/>
<feColorMatrix in="SourceAlpha" type="matrix" values="0 0 0 0 0 0 0 0 0 0 0 0 0 0 0 0 0 0 127 0" result="hardAlpha"/>
<feOffset dx="8" dy="8"/>
<feGaussianBlur stdDeviation="7"/>
<feColorMatrix type="matrix" values="0 0 0 0 0 0 0 0 0 0 0 0 0 0 0 0 0 0 0.25 0"/>
<feBlend mode="normal" in2="BackgroundImageFix" result="effect1_dropShadow"/>
<feBlend mode="normal" in="SourceGraphic" in2="effect1_dropShadow" result="shape"/>
</filter>
<filter id="filter2_d" x="30.6289" y="15.8613" width="39.0789" height="39.8559" filterUnits="userSpaceOnUse" color-interpolation-filters="sRGB">
<feFlood flood-opacity="0" result="BackgroundImageFix"/>
<feColorMatrix in="SourceAlpha" type="matrix" values="0 0 0 0 0 0 0 0 0 0 0 0 0 0 0 0 0 0 127 0" result="hardAlpha"/>
<feOffset dx="8" dy="8"/>
<feGaussianBlur stdDeviation="7"/>
<feColorMatrix type="matrix" values="0 0 0 0 0 0 0 0 0 0 0 0 0 0 0 0 0 0 0.25 0"/>
<feBlend mode="normal" in2="BackgroundImageFix" result="effect1_dropShadow"/>
<feBlend mode="normal" in="SourceGraphic" in2="effect1_dropShadow" result="shape"/>
</filter>
<filter id="filter3_d" x="25.3086" y="118.766" width="32.1663" height="32.0881" filterUnits="userSpaceOnUse" color-interpolation-filters="sRGB">
<feFlood flood-opacity="0" result="BackgroundImageFix"/>
<feColorMatrix in="SourceAlpha" type="matrix" values="0 0 0 0 0 0 0 0 0 0 0 0 0 0 0 0 0 0 127 0" result="hardAlpha"/>
<feOffset dx="8" dy="8"/>
<feGaussianBlur stdDeviation="7"/>
<feColorMatrix type="matrix" values="0 0 0 0 0 0 0 0 0 0 0 0 0 0 0 0 0 0 0.25 0"/>
<feBlend mode="normal" in2="BackgroundImageFix" result="effect1_dropShadow"/>
<feBlend mode="normal" in="SourceGraphic" in2="effect1_dropShadow" result="shape"/>
</filter>
<filter id="filter4_d" x="43.3672" y="128.424" width="49.6413" height="49.2352" filterUnits="userSpaceOnUse" color-interpolation-filters="sRGB">
<feFlood flood-opacity="0" result="BackgroundImageFix"/>
<feColorMatrix in="SourceAlpha" type="matrix" values="0 0 0 0 0 0 0 0 0 0 0 0 0 0 0 0 0 0 127 0" result="hardAlpha"/>
<feOffset dx="8" dy="8"/>
<feGaussianBlur stdDeviation="7"/>
<feColorMatrix type="matrix" values="0 0 0 0 0 0 0 0 0 0 0 0 0 0 0 0 0 0 0.25 0"/>
<feBlend mode="normal" in2="BackgroundImageFix" result="effect1_dropShadow"/>
<feBlend mode="normal" in="SourceGraphic" in2="effect1_dropShadow" result="shape"/>
</filter>
<filter id="filter5_d" x="2.59766" y="63.9893" width="40.8362" height="40.5953" filterUnits="userSpaceOnUse" color-interpolation-filters="sRGB">
<feFlood flood-opacity="0" result="BackgroundImageFix"/>
<feColorMatrix in="SourceAlpha" type="matrix" values="0 0 0 0 0 0 0 0 0 0 0 0 0 0 0 0 0 0 127 0" result="hardAlpha"/>
<feOffset dx="8" dy="8"/>
<feGaussianBlur stdDeviation="7"/>
<feColorMatrix type="matrix" values="0 0 0 0 0 0 0 0 0 0 0 0 0 0 0 0 0 0 0.25 0"/>
<feBlend mode="normal" in2="BackgroundImageFix" result="effect1_dropShadow"/>
<feBlend mode="normal" in="SourceGraphic" in2="effect1_dropShadow" result="shape"/>
</filter>
<filter id="filter6_d" x="34.457" y="29.5703" width="31.5894" height="31.0742" filterUnits="userSpaceOnUse" color-interpolation-filters="sRGB">
<feFlood flood-opacity="0" result="BackgroundImageFix"/>
<feColorMatrix in="SourceAlpha" type="matrix" values="0 0 0 0 0 0 0 0 0 0 0 0 0 0 0 0 0 0 127 0" result="hardAlpha"/>
<feOffset dx="8" dy="8"/>
<feGaussianBlur stdDeviation="7"/>
<feColorMatrix type="matrix" values="0 0 0 0 0 0 0 0 0 0 0 0 0 0 0 0 0 0 0.25 0"/>
<feBlend mode="normal" in2="BackgroundImageFix" result="effect1_dropShadow"/>
<feBlend mode="normal" in="SourceGraphic" in2="effect1_dropShadow" result="shape"/>
</filter>
<filter id="filter7_d" x="162.359" y="83.3018" width="32.1663" height="32.0881" filterUnits="userSpaceOnUse" color-interpolation-filters="sRGB">
<feFlood flood-opacity="0" result="BackgroundImageFix"/>
<feColorMatrix in="SourceAlpha" type="matrix" values="0 0 0 0 0 0 0 0 0 0 0 0 0 0 0 0 0 0 127 0" result="hardAlpha"/>
<feOffset dx="8" dy="8"/>
<feGaussianBlur stdDeviation="7"/>
<feColorMatrix type="matrix" values="0 0 0 0 0 0 0 0 0 0 0 0 0 0 0 0 0 0 0.25 0"/>
<feBlend mode="normal" in2="BackgroundImageFix" result="effect1_dropShadow"/>
<feBlend mode="normal" in="SourceGraphic" in2="effect1_dropShadow" result="shape"/>
</filter>
<filter id="filter8_d" x="149.393" y="89.7939" width="48.0899" height="40.6062" filterUnits="userSpaceOnUse" color-interpolation-filters="sRGB">
<feFlood flood-opacity="0" result="BackgroundImageFix"/>
<feColorMatrix in="SourceAlpha" type="matrix" values="0 0 0 0 0 0 0 0 0 0 0 0 0 0 0 0 0 0 127 0" result="hardAlpha"/>
<feOffset dx="8" dy="8"/>
<feGaussianBlur stdDeviation="7"/>
<feColorMatrix type="matrix" values="0 0 0 0 0 0 0 0 0 0 0 0 0 0 0 0 0 0 0.25 0"/>
<feBlend mode="normal" in2="BackgroundImageFix" result="effect1_dropShadow"/>
<feBlend mode="normal" in="SourceGraphic" in2="effect1_dropShadow" result="shape"/>
</filter>
<filter id="filter9_d" x="33.4375" y="78.5742" width="32.4172" height="32.2633" filterUnits="userSpaceOnUse" color-interpolation-filters="sRGB">
<feFlood flood-opacity="0" result="BackgroundImageFix"/>
<feColorMatrix in="SourceAlpha" type="matrix" values="0 0 0 0 0 0 0 0 0 0 0 0 0 0 0 0 0 0 127 0" result="hardAlpha"/>
<feOffset dx="8" dy="8"/>
<feGaussianBlur stdDeviation="7"/>
<feColorMatrix type="matrix" values="0 0 0 0 0 0 0 0 0 0 0 0 0 0 0 0 0 0 0.25 0"/>
<feBlend mode="normal" in2="BackgroundImageFix" result="effect1_dropShadow"/>
<feBlend mode="normal" in="SourceGraphic" in2="effect1_dropShadow" result="shape"/>
</filter>
<linearGradient id="paint0_linear" x1="14.8232" y1="-24.8975" x2="198.996" y2="-14.195" gradientUnits="userSpaceOnUse">
<stop offset="0.0756841" stop-color="#B565D8"/>
<stop offset="0.945898" stop-color="#EE609C"/>
</linearGradient>
<linearGradient id="paint1_linear" x1="5.93038" y1="89.1944" x2="29.4118" y2="72.4157" gradientUnits="userSpaceOnUse">
<stop offset="0.0756841" stop-color="#B565D8"/>
<stop offset="0.945898" stop-color="#EE609C"/>
</linearGradient>
<linearGradient id="paint2_linear" x1="33.7398" y1="23.2039" x2="45.297" y2="17.9654" gradientUnits="userSpaceOnUse">
<stop offset="0.0756841" stop-color="#B565D8"/>
<stop offset="0.945898" stop-color="#EE609C"/>
</linearGradient>
<linearGradient id="paint3_linear" x1="30.0268" y1="127.434" x2="32.2464" y2="123.388" gradientUnits="userSpaceOnUse">
<stop offset="0.0756841" stop-color="#B565D8"/>
<stop offset="0.945898" stop-color="#EE609C"/>
</linearGradient>
<linearGradient id="paint4_linear" x1="42.7039" y1="148.282" x2="54.2334" y2="127.269" gradientUnits="userSpaceOnUse">
<stop offset="0.0756841" stop-color="#B565D8"/>
<stop offset="0.945898" stop-color="#EE609C"/>
</linearGradient>
<linearGradient id="paint5_linear" x1="4.64567" y1="78.209" x2="11.4842" y2="65.7455" gradientUnits="userSpaceOnUse">
<stop offset="0.0756841" stop-color="#B565D8"/>
<stop offset="0.945898" stop-color="#EE609C"/>
</linearGradient>
<linearGradient id="paint6_linear" x1="44.8472" y1="36.0205" x2="44.2202" y2="39.3941" gradientUnits="userSpaceOnUse">
<stop offset="0.0756841" stop-color="#B565D8"/>
<stop offset="0.945898" stop-color="#EE609C"/>
</linearGradient>
<linearGradient id="paint7_linear" x1="167.078" y1="91.9699" x2="169.297" y2="87.9246" gradientUnits="userSpaceOnUse">
<stop offset="0.0756841" stop-color="#B565D8"/>
<stop offset="0.945898" stop-color="#EE609C"/>
</linearGradient>
<linearGradient id="paint8_linear" x1="161.817" y1="87.9786" x2="179.386" y2="97.6463" gradientUnits="userSpaceOnUse">
<stop offset="0.0756841" stop-color="#B565D8"/>
<stop offset="0.945898" stop-color="#EE609C"/>
</linearGradient>
<linearGradient id="paint9_linear" x1="40.9985" y1="83.0762" x2="45.2395" y2="85.3572" gradientUnits="userSpaceOnUse">
<stop offset="0.0756841" stop-color="#B565D8"/>
<stop offset="0.945898" stop-color="#EE609C"/>
</linearGradient>
<linearGradient id="paint10_linear" x1="62.0592" y1="103.523" x2="66.7474" y2="110.314" gradientUnits="userSpaceOnUse">
<stop offset="0.0756841" stop-color="#B565D8"/>
<stop offset="0.945898" stop-color="#EE609C"/>
</linearGradient>
<linearGradient id="paint11_linear" x1="53.4696" y1="99.608" x2="58.1471" y2="106.408" gradientUnits="userSpaceOnUse">
<stop offset="0.0756841" stop-color="#B565D8"/>
<stop offset="0.945898" stop-color="#EE609C"/>
</linearGradient>
<linearGradient id="paint12_linear" x1="37.3398" y1="100.081" x2="41.9867" y2="106.935" gradientUnits="userSpaceOnUse">
<stop offset="0.0756841" stop-color="#B565D8"/>
<stop offset="0.945898" stop-color="#EE609C"/>
</linearGradient>
<linearGradient id="paint13_linear" x1="32.2259" y1="94.1444" x2="36.8883" y2="100.986" gradientUnits="userSpaceOnUse">
<stop offset="0.0756841" stop-color="#B565D8"/>
<stop offset="0.945898" stop-color="#EE609C"/>
</linearGradient>
<linearGradient id="paint14_linear" x1="57.9787" y1="101.442" x2="62.6621" y2="108.237" gradientUnits="userSpaceOnUse">
<stop offset="0.0756841" stop-color="#B565D8"/>
<stop offset="0.945898" stop-color="#EE609C"/>
</linearGradient>
<linearGradient id="paint15_linear" x1="48.4032" y1="98.0995" x2="53.0731" y2="104.906" gradientUnits="userSpaceOnUse">
<stop offset="0.0756841" stop-color="#B565D8"/>
<stop offset="0.945898" stop-color="#EE609C"/>
</linearGradient>
<linearGradient id="paint16_linear" x1="34.6904" y1="97.1664" x2="39.344" y2="104.015" gradientUnits="userSpaceOnUse">
<stop offset="0.0756841" stop-color="#B565D8"/>
<stop offset="0.945898" stop-color="#EE609C"/>
</linearGradient>
<linearGradient id="paint17_linear" x1="93.4374" y1="129.829" x2="98.1804" y2="136.575" gradientUnits="userSpaceOnUse">
<stop offset="0.0756841" stop-color="#B565D8"/>
<stop offset="0.945898" stop-color="#EE609C"/>
</linearGradient>
<linearGradient id="paint18_linear" x1="87.7465" y1="124.227" x2="92.4874" y2="131.004" gradientUnits="userSpaceOnUse">
<stop offset="0.0756841" stop-color="#B565D8"/>
<stop offset="0.945898" stop-color="#EE609C"/>
</linearGradient>
<linearGradient id="paint19_linear" x1="81.9818" y1="118.67" x2="86.7105" y2="125.458" gradientUnits="userSpaceOnUse">
<stop offset="0.0756841" stop-color="#B565D8"/>
<stop offset="0.945898" stop-color="#EE609C"/>
</linearGradient>
<linearGradient id="paint20_linear" x1="75.9308" y1="113.277" x2="80.6497" y2="120.073" gradientUnits="userSpaceOnUse">
<stop offset="0.0756841" stop-color="#B565D8"/>
<stop offset="0.945898" stop-color="#EE609C"/>
</linearGradient>
<linearGradient id="paint21_linear" x1="69.3859" y1="108.174" x2="74.0822" y2="114.958" gradientUnits="userSpaceOnUse">
<stop offset="0.0756841" stop-color="#B565D8"/>
<stop offset="0.945898" stop-color="#EE609C"/>
</linearGradient>
<linearGradient id="paint22_linear" x1="90.5887" y1="127.03" x2="95.3373" y2="133.801" gradientUnits="userSpaceOnUse">
<stop offset="0.0756841" stop-color="#B565D8"/>
<stop offset="0.945898" stop-color="#EE609C"/>
</linearGradient>
<linearGradient id="paint23_linear" x1="84.8863" y1="121.435" x2="89.6206" y2="128.219" gradientUnits="userSpaceOnUse">
<stop offset="0.0756841" stop-color="#B565D8"/>
<stop offset="0.945898" stop-color="#EE609C"/>
</linearGradient>
<linearGradient id="paint24_linear" x1="79.0042" y1="115.945" x2="83.7277" y2="122.737" gradientUnits="userSpaceOnUse">
<stop offset="0.0756841" stop-color="#B565D8"/>
<stop offset="0.945898" stop-color="#EE609C"/>
</linearGradient>
<linearGradient id="paint25_linear" x1="72.733" y1="110.682" x2="77.4477" y2="117.481" gradientUnits="userSpaceOnUse">
<stop offset="0.0756841" stop-color="#B565D8"/>
<stop offset="0.945898" stop-color="#EE609C"/>
</linearGradient>
<linearGradient id="paint26_linear" x1="65.8401" y1="105.781" x2="70.5325" y2="112.569" gradientUnits="userSpaceOnUse">
<stop offset="0.0756841" stop-color="#B565D8"/>
<stop offset="0.945898" stop-color="#EE609C"/>
</linearGradient>
<linearGradient id="paint27_linear" x1="119.653" y1="150.225" x2="124.596" y2="156.792" gradientUnits="userSpaceOnUse">
<stop offset="0.0756841" stop-color="#B565D8"/>
<stop offset="0.945898" stop-color="#EE609C"/>
</linearGradient>
<linearGradient id="paint28_linear" x1="112.042" y1="145.743" x2="116.897" y2="152.391" gradientUnits="userSpaceOnUse">
<stop offset="0.0756841" stop-color="#B565D8"/>
<stop offset="0.945898" stop-color="#EE609C"/>
</linearGradient>
<linearGradient id="paint29_linear" x1="105.362" y1="140.717" x2="110.164" y2="147.412" gradientUnits="userSpaceOnUse">
<stop offset="0.0756841" stop-color="#B565D8"/>
<stop offset="0.945898" stop-color="#EE609C"/>
</linearGradient>
<linearGradient id="paint30_linear" x1="99.2422" y1="135.364" x2="104.009" y2="142.09" gradientUnits="userSpaceOnUse">
<stop offset="0.0756841" stop-color="#B565D8"/>
<stop offset="0.945898" stop-color="#EE609C"/>
</linearGradient>
<linearGradient id="paint31_linear" x1="124" y1="152.152" x2="129.013" y2="158.651" gradientUnits="userSpaceOnUse">
<stop offset="0.0756841" stop-color="#B565D8"/>
<stop offset="0.945898" stop-color="#EE609C"/>
</linearGradient>
<linearGradient id="paint32_linear" x1="115.687" y1="148.077" x2="120.58" y2="154.691" gradientUnits="userSpaceOnUse">
<stop offset="0.0756841" stop-color="#B565D8"/>
<stop offset="0.945898" stop-color="#EE609C"/>
</linearGradient>
<linearGradient id="paint33_linear" x1="108.613" y1="143.282" x2="113.438" y2="149.956" gradientUnits="userSpaceOnUse">
<stop offset="0.0756841" stop-color="#B565D8"/>
<stop offset="0.945898" stop-color="#EE609C"/>
</linearGradient>
<linearGradient id="paint34_linear" x1="102.244" y1="138.075" x2="107.026" y2="144.787" gradientUnits="userSpaceOnUse">
<stop offset="0.0756841" stop-color="#B565D8"/>
<stop offset="0.945898" stop-color="#EE609C"/>
</linearGradient>
<linearGradient id="paint35_linear" x1="96.3111" y1="132.613" x2="101.08" y2="139.368" gradientUnits="userSpaceOnUse">
<stop offset="0.0756841" stop-color="#B565D8"/>
<stop offset="0.945898" stop-color="#EE609C"/>
</linearGradient>
<linearGradient id="paint36_linear" x1="128.851" y1="153.787" x2="133.982" y2="160.194" gradientUnits="userSpaceOnUse">
<stop offset="0.0756841" stop-color="#B565D8"/>
<stop offset="0.945898" stop-color="#EE609C"/>
</linearGradient>
<linearGradient id="paint37_linear" x1="141.392" y1="155.401" x2="147.044" y2="161.114" gradientUnits="userSpaceOnUse">
<stop offset="0.0756841" stop-color="#B565D8"/>
<stop offset="0.945898" stop-color="#EE609C"/>
</linearGradient>
<linearGradient id="paint38_linear" x1="134.441" y1="154.991" x2="139.725" y2="161.19" gradientUnits="userSpaceOnUse">
<stop offset="0.0756841" stop-color="#B565D8"/>
<stop offset="0.945898" stop-color="#EE609C"/>
</linearGradient>
<linearGradient id="paint39_linear" x1="31.7808" y1="27.5555" x2="37.8515" y2="32.2344" gradientUnits="userSpaceOnUse">
<stop offset="0.0756841" stop-color="#B565D8"/>
<stop offset="0.945898" stop-color="#EE609C"/>
</linearGradient>
<linearGradient id="paint40_linear" x1="25.1701" y1="35.8593" x2="30.5304" y2="41.9615" gradientUnits="userSpaceOnUse">
<stop offset="0.0756841" stop-color="#B565D8"/>
<stop offset="0.945898" stop-color="#EE609C"/>
</linearGradient>
<linearGradient id="paint41_linear" x1="24.2847" y1="80.9387" x2="29.0025" y2="87.7357" gradientUnits="userSpaceOnUse">
<stop offset="0.0756841" stop-color="#B565D8"/>
<stop offset="0.945898" stop-color="#EE609C"/>
</linearGradient>
<linearGradient id="paint42_linear" x1="21.5924" y1="73.5926" x2="26.3519" y2="80.3549" gradientUnits="userSpaceOnUse">
<stop offset="0.0756841" stop-color="#B565D8"/>
<stop offset="0.945898" stop-color="#EE609C"/>
</linearGradient>
<linearGradient id="paint43_linear" x1="19.8845" y1="65.6751" x2="24.6831" y2="72.3739" gradientUnits="userSpaceOnUse">
<stop offset="0.0756841" stop-color="#B565D8"/>
<stop offset="0.945898" stop-color="#EE609C"/>
</linearGradient>
<linearGradient id="paint44_linear" x1="19.3787" y1="57.0567" x2="24.254" y2="63.6869" gradientUnits="userSpaceOnUse">
<stop offset="0.0756841" stop-color="#B565D8"/>
<stop offset="0.945898" stop-color="#EE609C"/>
</linearGradient>
<linearGradient id="paint45_linear" x1="20.581" y1="47.4423" x2="25.5903" y2="53.9442" gradientUnits="userSpaceOnUse">
<stop offset="0.0756841" stop-color="#B565D8"/>
<stop offset="0.945898" stop-color="#EE609C"/>
</linearGradient>
<linearGradient id="paint46_linear" x1="22.8221" y1="77.3329" x2="27.5593" y2="84.1138" gradientUnits="userSpaceOnUse">
<stop offset="0.0756841" stop-color="#B565D8"/>
<stop offset="0.945898" stop-color="#EE609C"/>
</linearGradient>
<linearGradient id="paint47_linear" x1="20.6081" y1="69.7094" x2="25.3928" y2="76.4503" gradientUnits="userSpaceOnUse">
<stop offset="0.0756841" stop-color="#B565D8"/>
<stop offset="0.945898" stop-color="#EE609C"/>
</linearGradient>
<linearGradient id="paint48_linear" x1="19.4605" y1="61.466" x2="24.2932" y2="68.1347" gradientUnits="userSpaceOnUse">
<stop offset="0.0756841" stop-color="#B565D8"/>
<stop offset="0.945898" stop-color="#EE609C"/>
</linearGradient>
<linearGradient id="paint49_linear" x1="19.7078" y1="52.4083" x2="24.6388" y2="58.9866" gradientUnits="userSpaceOnUse">
<stop offset="0.0756841" stop-color="#B565D8"/>
<stop offset="0.945898" stop-color="#EE609C"/>
</linearGradient>
<linearGradient id="paint50_linear" x1="22.2104" y1="42.0392" x2="27.3411" y2="48.4144" gradientUnits="userSpaceOnUse">
<stop offset="0.0756841" stop-color="#B565D8"/>
<stop offset="0.945898" stop-color="#EE609C"/>
</linearGradient>
<linearGradient id="paint51_linear" x1="46.9532" y1="112.315" x2="52.3243" y2="113.38" gradientUnits="userSpaceOnUse">
<stop offset="0.0756841" stop-color="#B565D8"/>
<stop offset="0.945898" stop-color="#EE609C"/>
</linearGradient>
<linearGradient id="paint52_linear" x1="40.4404" y1="107.192" x2="46.3771" y2="109.264" gradientUnits="userSpaceOnUse">
<stop offset="0.0756841" stop-color="#B565D8"/>
<stop offset="0.945898" stop-color="#EE609C"/>
</linearGradient>
<linearGradient id="paint53_linear" x1="27.8644" y1="87.7679" x2="32.5502" y2="94.5907" gradientUnits="userSpaceOnUse">
<stop offset="0.0756841" stop-color="#B565D8"/>
<stop offset="0.945898" stop-color="#EE609C"/>
</linearGradient>
<linearGradient id="paint54_linear" x1="43.6021" y1="109.808" x2="49.3396" y2="111.445" gradientUnits="userSpaceOnUse">
<stop offset="0.0756841" stop-color="#B565D8"/>
<stop offset="0.945898" stop-color="#EE609C"/>
</linearGradient>
<linearGradient id="paint55_linear" x1="37.4642" y1="104.468" x2="43.5087" y2="106.852" gradientUnits="userSpaceOnUse">
<stop offset="0.0756841" stop-color="#B565D8"/>
<stop offset="0.945898" stop-color="#EE609C"/>
</linearGradient>
<linearGradient id="paint56_linear" x1="29.9509" y1="91.0117" x2="34.624" y2="97.8447" gradientUnits="userSpaceOnUse">
<stop offset="0.0756841" stop-color="#B565D8"/>
<stop offset="0.945898" stop-color="#EE609C"/>
</linearGradient>
<linearGradient id="paint57_linear" x1="25.966" y1="84.4181" x2="30.6665" y2="91.2289" gradientUnits="userSpaceOnUse">
<stop offset="0.0756841" stop-color="#B565D8"/>
<stop offset="0.945898" stop-color="#EE609C"/>
</linearGradient>
<linearGradient id="paint58_linear" x1="54.2613" y1="116.975" x2="57.7825" y2="116.672" gradientUnits="userSpaceOnUse">
<stop offset="0.0756841" stop-color="#B565D8"/>
<stop offset="0.945898" stop-color="#EE609C"/>
</linearGradient>
<linearGradient id="paint59_linear" x1="58.2315" y1="119.119" x2="59.9051" y2="118.576" gradientUnits="userSpaceOnUse">
<stop offset="0.0756841" stop-color="#B565D8"/>
<stop offset="0.945898" stop-color="#EE609C"/>
</linearGradient>
<linearGradient id="paint60_linear" x1="50.505" y1="114.704" x2="55.2057" y2="115.077" gradientUnits="userSpaceOnUse">
<stop offset="0.0756841" stop-color="#B565D8"/>
<stop offset="0.945898" stop-color="#EE609C"/>
</linearGradient>
<clipPath id="clip0">
<rect width="197.755" height="186" fill="white" transform="translate(0.669922)"/>
</clipPath>
</defs>
</svg>
