<svg width="199" height="205" viewBox="0 0 199 205" fill="none" xmlns="http://www.w3.org/2000/svg">
<g opacity="0.7">
<g opacity="0.7" filter="url(#filter0_d)">
<path d="M173.054 126.122C180.628 101.447 169.484 73.3135 149.36 57.158C129.236 41.0013 99.6089 23.461 74.033 26.8794C52.0354 29.8196 32.2975 51.7042 18.4572 69.0604C12.0985 77.0358 8.30741 90.1763 16.412 96.3689C26.1516 103.809 40.7586 92.3157 52.1506 96.8342C62.1987 100.82 63.7378 114.485 61.6623 125.098C59.5867 135.711 55.6437 147.144 60.3931 156.858C64.8632 165.998 76.0086 170.277 86.1619 169.671C97.4394 168.999 107.923 163.231 119.128 161.481C124.741 160.604 130.276 160.976 135.899 159.984C142.094 158.891 147.975 156.687 153.158 153.084C162.47 146.61 169.717 136.991 173.054 126.122Z" fill="url(#paint0_linear)"/>
</g>
<g filter="url(#filter1_d)">
<path d="M32.5135 99.3604C35.7834 99.9628 38.6824 102.32 39.9442 105.4C42.6277 111.953 37.9212 119.377 39.1611 126.344C39.5573 128.572 40.5504 130.9 39.7144 132.997C38.7322 135.459 35.5011 136.366 32.9634 135.587C30.4256 134.81 28.4678 132.805 26.7407 130.785C23.4339 126.92 20.4658 122.581 19.2961 117.634C17.3285 109.322 22.2582 97.4697 32.5135 99.3604Z" fill="url(#paint1_linear)"/>
</g>
<g filter="url(#filter2_d)">
<path d="M39.3429 48.1302C37.711 45.8493 37.8239 42.4331 39.7161 40.3401C41.6086 38.2478 45.1373 37.8178 47.3749 39.513C48.6451 40.4751 49.4603 42.1438 49.0703 43.6922C48.7418 44.9967 47.7131 45.8687 46.7702 46.7494C45.9429 47.5214 45.4881 48.3827 44.8023 49.2465C43.2445 51.2084 40.5436 49.8082 39.3429 48.1302Z" fill="url(#paint2_linear)"/>
</g>
<g filter="url(#filter3_d)">
<path d="M33.7334 140.92C34.2846 140.401 35.1193 140.18 35.8241 140.435C36.6851 140.746 37.2095 141.758 37.0222 142.663C36.8337 143.569 35.9897 144.283 35.0752 144.364C32.909 144.557 32.2535 142.315 33.7334 140.92Z" fill="url(#paint3_linear)"/>
</g>
<g filter="url(#filter4_d)">
<path d="M54.9524 152.961C57.8158 150.267 62.1515 149.116 65.8128 150.44C70.2848 152.059 73.0089 157.313 72.0358 162.015C71.0567 166.719 66.6728 170.429 61.9222 170.849C50.6704 171.85 47.2655 160.207 54.9524 152.961Z" fill="url(#paint4_linear)"/>
</g>
<g filter="url(#filter5_d)">
<path d="M12.9118 87.9295C14.6102 86.3314 17.1818 85.6487 19.3535 86.4345C22.006 87.3944 23.6217 90.5107 23.0445 93.2996C22.4638 96.0898 19.8636 98.2904 17.0459 98.5395C10.372 99.133 8.35244 92.2276 12.9118 87.9295Z" fill="url(#paint5_linear)"/>
</g>
<g filter="url(#filter6_d)">
<path d="M45.4573 53.3756C45.2529 53.7443 43.3565 55.095 42.9393 55.0793C42.4297 55.0601 42.0523 53.9351 41.9981 53.4231C41.9445 52.9106 42.271 52.3885 42.7425 52.1904C43.8591 51.7207 46.0057 52.3844 45.4573 53.3756Z" fill="url(#paint6_linear)"/>
</g>
<g filter="url(#filter7_d)">
<path d="M169.397 105.817C169.949 105.298 170.783 105.076 171.488 105.331C172.349 105.643 172.874 106.654 172.686 107.56C172.498 108.465 171.654 109.18 170.739 109.26C168.573 109.453 167.918 107.212 169.397 105.817Z" fill="url(#paint7_linear)"/>
</g>
<g filter="url(#filter8_d)">
<path d="M169.651 111.698C167.657 111.995 165.95 113.366 163.947 113.603C161.724 113.866 159.238 112.734 157.342 113.901C155.94 114.765 155.469 116.684 155.942 118.264C156.415 119.844 157.65 121.104 159.026 122.033C161.888 123.964 165.614 124.686 168.896 123.672C171.996 122.714 174.787 119.953 175.558 116.764C176.297 113.706 172.439 111.283 169.651 111.698Z" fill="url(#paint8_linear)"/>
</g>
<g filter="url(#filter9_d)">
<path d="M42.1745 100.878C43.1308 100.244 44.5964 100.634 45.1328 101.648C45.6698 102.662 45.1877 104.073 44.1542 104.569C43.12 105.065 41.7344 104.581 41.212 103.558C40.6897 102.536 41.092 101.151 42.0663 100.545" fill="url(#paint9_linear)"/>
</g>
<path d="M145.278 71.7299L133.923 78.3381L133.693 78.4716L100.968 97.515L100.739 97.6479L68.0132 116.692L67.7847 116.825L60.8398 120.866C60.9714 120.938 61.1054 121.004 61.2361 121.077L67.9764 117.154L68.2048 117.021L100.931 97.9773L101.159 97.8444L133.885 78.8009L134.114 78.6674L145.594 71.9872C145.489 71.9021 145.385 71.8155 145.278 71.7299Z" fill="url(#paint10_linear)"/>
<path d="M130.087 71.747L129.857 71.8805L97.1321 90.9239L96.9037 91.0568L64.1774 110.101L63.949 110.234L52.2812 117.023C52.4369 117.078 52.5901 117.138 52.7454 117.194L64.1397 110.564L64.3682 110.431L97.0944 91.3867L97.3228 91.2538L130.048 72.2103L130.278 72.0769L138.882 67.0698C138.763 66.9917 138.642 66.9162 138.522 66.8381L130.087 71.747Z" fill="url(#paint11_linear)"/>
<path d="M126.251 65.1559L126.022 65.2894L93.2968 84.3329L93.0684 84.4658L60.3421 103.51L60.1137 103.643L36.0488 117.646C36.1386 117.742 36.2274 117.837 36.3181 117.932L60.3059 103.973L60.5343 103.84L93.2605 84.7961L93.489 84.6631L126.214 65.6197L126.444 65.4862L131.387 62.6098C131.255 62.5377 131.123 62.4686 130.99 62.3985L126.251 65.1559Z" fill="url(#paint12_linear)"/>
<path d="M122.417 58.5656L122.188 58.6991L89.4622 77.7425L89.2338 77.8755L56.5075 96.9194L56.2791 97.0524L31.084 111.714C31.1609 111.816 31.2387 111.919 31.3156 112.021L56.4713 97.3826L56.6997 97.2497L89.426 78.2057L89.6544 78.0728L122.38 59.0293L122.609 58.8959L123.226 58.5371C123.084 58.4719 122.943 58.4066 122.802 58.3414L122.417 58.5656Z" fill="url(#paint13_linear)"/>
<path d="M132.006 75.0434L131.776 75.1769L99.0511 94.2203L98.8226 94.3532L66.0964 113.397L65.868 113.53L56.7754 118.821C56.9154 118.885 57.0518 118.956 57.1909 119.02L66.0596 113.86L66.288 113.727L99.0143 94.6826L99.2427 94.5497L131.968 75.5062L132.197 75.3727L142.341 69.4698C142.23 69.3875 142.119 69.3046 142.007 69.2238L132.006 75.0434Z" fill="url(#paint14_linear)"/>
<path d="M128.169 68.4518L127.939 68.5853L95.2138 87.6287L94.9854 87.7617L62.2592 106.806L62.0307 106.939L47.2227 115.556C47.3998 115.596 47.5743 115.647 47.751 115.689L62.2224 107.268L62.4508 107.135L95.1771 88.091L95.4055 87.9581L128.131 68.9146L128.36 68.7812L135.222 64.7879C135.097 64.7135 134.973 64.6382 134.847 64.5653L128.169 68.4518Z" fill="url(#paint15_linear)"/>
<path d="M124.334 61.8613L124.104 61.9948L91.3791 81.0382L91.1507 81.1712L58.4244 100.215L58.196 100.348L33.4688 114.737C33.5521 114.836 33.6336 114.936 33.7169 115.035L58.3882 100.678L58.6166 100.545L91.3428 81.5014L91.5713 81.3685L124.297 62.325L124.526 62.1916L127.376 60.5329C127.24 60.465 127.104 60.3965 126.968 60.3286L124.334 61.8613Z" fill="url(#paint16_linear)"/>
<path d="M168.189 102.511L153.098 111.293L152.869 111.426L120.143 130.47L119.915 130.603L92.1582 146.755C92.2544 146.846 92.3505 146.938 92.4453 147.029L120.106 130.932L120.335 130.799L153.06 111.756L153.29 111.622L168.337 102.866C168.288 102.748 168.239 102.63 168.189 102.511Z" fill="url(#paint17_linear)"/>
<path d="M149.264 104.702L149.035 104.835L116.31 123.879L116.081 124.012L86.4531 141.253C86.5484 141.345 86.6436 141.437 86.7389 141.529L116.273 124.342L116.502 124.209L149.227 105.166L149.457 105.032L165.097 95.9309C165.037 95.8182 164.978 95.7054 164.918 95.5926L149.264 104.702Z" fill="url(#paint18_linear)"/>
<path d="M145.428 98.1115L145.199 98.2449L112.473 117.288L112.245 117.421L80.6875 135.785C80.7855 135.875 80.8826 135.966 80.9806 136.057L112.437 117.752L112.666 117.619L145.391 98.5752L145.62 98.4417L161.215 89.3671C161.145 89.2602 161.076 89.1528 161.006 89.0465L145.428 98.1115Z" fill="url(#paint19_linear)"/>
<path d="M141.593 91.5207L141.364 91.6542L108.638 110.698L108.41 110.831L75.6835 129.875L75.4551 130.007L74.6523 130.475C74.7559 130.562 74.8594 130.649 74.9629 130.736L75.6473 130.338L75.8757 130.205L108.602 111.161L108.83 111.028L141.556 91.9844L141.785 91.851L156.695 83.1746C156.614 83.0742 156.536 82.9726 156.453 82.8732L141.593 91.5207Z" fill="url(#paint20_linear)"/>
<path d="M137.757 84.9299L137.527 85.0633L104.802 104.107L104.574 104.24L71.8474 123.284L71.619 123.417L68.1328 125.445C68.2459 125.526 68.3573 125.609 68.4703 125.69L71.8107 123.746L72.0391 123.613L104.765 104.569L104.994 104.436L137.719 85.3927L137.948 85.2592L151.508 77.3687C151.415 77.2752 151.32 77.1832 151.227 77.0911L137.757 84.9299Z" fill="url(#paint21_linear)"/>
<path d="M151.182 107.997L150.952 108.131L118.227 127.174L117.999 127.307L89.3008 144.007C89.396 144.099 89.4913 144.191 89.5865 144.283L118.191 127.637L118.419 127.504L151.145 108.461L151.374 108.327L166.799 99.3516C166.745 99.2357 166.69 99.1202 166.636 99.0043L151.182 107.997Z" fill="url(#paint22_linear)"/>
<path d="M147.345 101.407L147.116 101.54L114.39 120.583L114.162 120.716L83.5898 138.507C83.686 138.598 83.7826 138.688 83.8793 138.781L114.354 121.047L114.583 120.914L147.308 101.87L147.537 101.737L163.234 92.6024C163.169 92.4928 163.105 92.3827 163.04 92.2732L147.345 101.407Z" fill="url(#paint23_linear)"/>
<path d="M143.51 94.8155L143.28 94.949L110.555 113.992L110.327 114.125L77.7168 133.102C77.8176 133.19 77.9196 133.277 78.0209 133.367L110.519 114.456L110.747 114.323L143.472 95.2793L143.702 95.1458L159.035 86.2233C158.96 86.1197 158.886 86.0149 158.809 85.9123L143.51 94.8155Z" fill="url(#paint24_linear)"/>
<path d="M139.676 88.2248L139.447 88.3582L106.721 107.402L106.493 107.535L73.7668 126.579L73.5383 126.712L71.4668 127.917C71.5749 128.001 71.6861 128.083 71.7948 128.168L73.7305 127.042L73.959 126.909L106.685 107.865L106.914 107.732L139.639 88.6885L139.868 88.555L154.19 80.2209C154.103 80.1241 154.016 80.0274 153.928 79.9312L139.676 88.2248Z" fill="url(#paint25_linear)"/>
<path d="M135.839 81.6343L135.61 81.7678L102.885 100.811L102.656 100.944L69.9299 119.988L69.7015 120.121L64.6016 123.089C64.7234 123.165 64.8438 123.241 64.9648 123.318L69.8932 120.45L70.1216 120.318L102.848 101.274L103.076 101.141L135.802 82.0972L136.031 81.9637L148.646 74.6226C148.547 74.5327 148.448 74.4444 148.348 74.3551L135.839 81.6343Z" fill="url(#paint26_linear)"/>
<path d="M168.441 137.656L168.212 137.79L135.487 156.833L135.258 156.966L118.75 166.572C118.892 166.637 119.033 166.702 119.175 166.766L135.449 157.296L135.677 157.163L168.403 138.119L168.632 137.986L173.753 135.006C173.766 134.852 173.773 134.699 173.785 134.546L168.441 137.656Z" fill="url(#paint27_linear)"/>
<path d="M164.605 131.066L164.376 131.199L131.651 150.243L131.422 150.376L110.979 162.272C111.098 162.349 111.215 162.431 111.334 162.506L131.614 150.705L131.842 150.572L164.568 131.529L164.797 131.395L173.811 126.15C173.801 126.009 173.789 125.868 173.779 125.728L164.605 131.066Z" fill="url(#paint28_linear)"/>
<path d="M160.771 124.475L160.541 124.609L127.816 143.652L127.588 143.785L104.193 157.398C104.301 157.483 104.407 157.569 104.514 157.653L127.778 144.115L128.007 143.982L160.732 124.938L160.961 124.805L172.774 117.931C172.75 117.798 172.728 117.664 172.704 117.531L160.771 124.475Z" fill="url(#paint29_linear)"/>
<path d="M156.933 117.883L156.704 118.017L123.979 137.06L123.75 137.193L98.002 152.177C98.1018 152.266 98.2016 152.355 98.301 152.444L123.942 137.523L124.17 137.39L156.896 118.346L157.125 118.213L170.917 110.187C170.879 110.062 170.839 109.939 170.802 109.813L156.933 117.883Z" fill="url(#paint30_linear)"/>
<path d="M170.358 140.952L170.128 141.085L137.403 160.129L137.175 160.261L123.205 168.391C123.363 168.447 123.523 168.499 123.68 168.555L137.366 160.591L137.595 160.458L170.32 141.414L170.549 141.281L173.134 139.777C173.163 139.614 173.191 139.451 173.218 139.287L170.358 140.952Z" fill="url(#paint31_linear)"/>
<path d="M166.523 134.361L166.294 134.494L133.568 153.538L133.34 153.671L114.695 164.521C114.825 164.592 114.957 164.662 115.087 164.733L133.531 154.001L133.759 153.868L166.485 134.824L166.714 134.691L173.942 130.485C173.943 130.337 173.947 130.188 173.946 130.041L166.523 134.361Z" fill="url(#paint32_linear)"/>
<path d="M162.687 127.771L162.457 127.904L129.732 146.948L129.504 147.081L107.49 159.891C107.604 159.972 107.719 160.051 107.832 160.132L129.695 147.41L129.924 147.277L162.649 128.234L162.879 128.1L173.403 121.976C173.385 121.839 173.369 121.702 173.351 121.565L162.687 127.771Z" fill="url(#paint33_linear)"/>
<path d="M158.853 121.18L158.623 121.314L125.898 140.357L125.67 140.49L101.035 154.825C101.139 154.912 101.244 154.997 101.348 155.084L125.861 140.819L126.09 140.686L158.815 121.643L159.045 121.509L171.943 114.003C171.912 113.874 171.88 113.747 171.848 113.618L158.853 121.18Z" fill="url(#paint34_linear)"/>
<path d="M155.016 114.588L154.787 114.722L122.061 133.765L121.833 133.898L95.0488 149.484C95.1468 149.575 95.2439 149.666 95.3419 149.756L122.026 134.228L122.254 134.095L154.98 115.052L155.209 114.918L169.714 106.478C169.671 106.355 169.626 106.234 169.582 106.112L155.016 114.588Z" fill="url(#paint35_linear)"/>
<path d="M172.093 144.353L172.046 144.381L139.321 163.424L139.092 163.557L128.191 169.9C128.371 169.945 128.552 169.986 128.732 170.028L139.284 163.887L139.513 163.754L171.94 144.884C171.992 144.707 172.043 144.531 172.093 144.353Z" fill="url(#paint36_linear)"/>
<path d="M142.929 170.148L141.172 171.17C141.463 171.151 141.754 171.13 142.045 171.104L143.121 170.478L143.349 170.345L166.008 157.16C166.186 156.911 166.364 156.662 166.537 156.41L143.157 170.015L142.929 170.148Z" fill="url(#paint37_linear)"/>
<path d="M141.011 166.853L133.963 170.955C134.174 170.98 134.384 171.007 134.594 171.029L141.203 167.183L141.432 167.05L169.859 150.508C169.948 150.312 170.03 150.113 170.116 149.917L141.24 166.72L141.011 166.853Z" fill="url(#paint38_linear)"/>
<path d="M47.4357 36.0276L34.5872 43.5044C34.0984 43.9202 33.617 44.3465 33.1467 44.7835L49.1823 35.452C48.5957 35.6301 48.0133 35.8216 47.4357 36.0276Z" fill="url(#paint39_linear)"/>
<path d="M29.6223 51.2464L29.8507 51.1135L59.3981 33.9194C59.1435 33.9189 58.8885 33.9175 58.6348 33.9226L29.66 50.7836L29.4315 50.9166L26.5398 52.5993C26.3841 52.8361 26.2273 53.071 26.0764 53.3098L29.6223 51.2464Z" fill="url(#paint40_linear)"/>
<path d="M48.7979 84.2012L49.0264 84.0683L81.7526 65.0243L81.981 64.8914L105.771 51.0478C105.623 50.9863 105.476 50.9242 105.33 50.8622L81.7897 64.5606L81.5613 64.6935L48.8351 83.7375L48.6066 83.8704L23.5675 98.4412C23.6159 98.5603 23.6662 98.6784 23.7156 98.7971L48.7979 84.2012Z" fill="url(#paint41_linear)"/>
<path d="M44.9628 77.6101L45.1912 77.4772L77.9174 58.4332L78.1459 58.3003L97.0466 47.3016C96.9036 47.2375 96.7607 47.1733 96.6177 47.1091L77.9546 57.9695L77.7262 58.1024L44.9999 77.1464L44.7715 77.2793L21.1387 91.0317C21.1716 91.1599 21.2081 91.286 21.241 91.4143L44.9628 77.6101Z" fill="url(#paint42_linear)"/>
<path d="M41.1286 71.0196L41.357 70.8867L74.0833 51.8427L74.3117 51.7098L88.6776 43.35C88.5401 43.2826 88.4036 43.2147 88.2667 43.1482L74.1209 51.3799L73.8925 51.5128L41.1663 70.5568L40.9378 70.6897L19.7188 83.0374C19.7333 83.1764 19.7446 83.316 19.76 83.4544L41.1286 71.0196Z" fill="url(#paint43_linear)"/>
<path d="M37.2929 64.4289L37.5214 64.296L70.2476 45.252L70.4761 45.1191L80.3613 39.3667C80.2192 39.302 80.0772 39.2373 79.9357 39.1735L70.2844 44.7897L70.056 44.9226L37.3297 63.9666L37.1013 64.0996L19.5318 74.3236C19.5219 74.4755 19.5126 74.6283 19.5042 74.7805L37.2929 64.4289Z" fill="url(#paint44_linear)"/>
<path d="M33.4573 57.8369L33.6857 57.7039L66.4119 38.66L66.6404 38.527L71.2495 35.8449C71.0821 35.7937 70.9136 35.7468 70.745 35.6976L66.4487 38.1977L66.2203 38.3306L33.494 57.3746L33.2656 57.5075L21.1602 64.5519C21.1113 64.7252 21.0667 64.8998 21.0198 65.0745L33.4573 57.8369Z" fill="url(#paint45_linear)"/>
<path d="M46.8801 80.9054L47.1085 80.7725L79.8347 61.7285L80.0632 61.5956L101.377 49.1929C101.231 49.1303 101.084 49.0683 100.94 49.0051L79.8719 61.2648L79.6435 61.3977L46.9172 80.4417L46.6888 80.5746L22.2395 94.8021C22.2797 94.9261 22.3185 95.0497 22.3602 95.174L46.8801 80.9054Z" fill="url(#paint46_linear)"/>
<path d="M43.0448 74.3149L43.2732 74.182L75.9994 55.138L76.2279 55.005L92.8103 45.3555C92.671 45.2892 92.5326 45.2223 92.3942 45.1555L76.0366 54.6742L75.8082 54.8072L43.0819 73.8512L42.8535 73.9841L20.2941 87.1118C20.3187 87.2448 20.3428 87.377 20.368 87.5109L43.0448 74.3149Z" fill="url(#paint47_linear)"/>
<path d="M39.2102 67.7243L39.4386 67.5914L72.1648 48.5474L72.3933 48.4144L84.5583 41.3354C84.4199 41.2686 84.2815 41.2017 84.1437 41.1358L72.2025 48.0846L71.9741 48.2175L39.2478 67.2615L39.0194 67.3944L19.4453 78.7849C19.4488 78.9302 19.4509 79.0752 19.4553 79.22L39.2102 67.7243Z" fill="url(#paint48_linear)"/>
<path d="M35.3758 61.1332L35.6043 61.0003L68.3305 41.9563L68.5589 41.8233L75.979 37.5055C75.8278 37.4461 75.6779 37.3847 75.5278 37.3272L68.3673 41.494L68.1389 41.6269L35.4126 60.6709L35.1842 60.8038L20.0605 69.6046C20.0347 69.767 20.0041 69.9297 19.9788 70.093L35.3758 61.1332Z" fill="url(#paint49_linear)"/>
<path d="M31.5397 54.5421L31.7681 54.4092L64.4943 35.3652L64.7228 35.2323L65.9228 34.534C65.7279 34.4988 65.5326 34.465 65.3385 34.4331L64.5311 34.9029L64.3027 35.0359L31.5765 54.0798L31.348 54.2128L23.094 59.0159C23.0116 59.21 22.9293 59.4041 22.8499 59.5989L31.5397 54.5421Z" fill="url(#paint50_linear)"/>
<path d="M54.2446 125.145L54.0135 124.838L48.2852 128.172C48.4006 128.252 48.5173 128.33 48.6337 128.41L54.2446 125.145Z" fill="url(#paint51_linear)"/>
<path d="M49.6104 119.02L49.3784 118.714L41.7812 123.135C41.8829 123.223 41.9837 123.312 42.0857 123.398L49.6104 119.02Z" fill="url(#paint52_linear)"/>
<path d="M52.6341 90.7916L52.8625 90.6586L85.5888 71.6147L85.8172 71.4817L114.597 54.7344C114.45 54.6724 114.304 54.6098 114.158 54.5478L85.6259 71.1509L85.3975 71.2839L52.6713 90.3278L52.4428 90.4608L26.9028 105.323C26.9659 105.434 27.0309 105.543 27.0949 105.653L52.6341 90.7916Z" fill="url(#paint53_linear)"/>
<path d="M51.9291 122.082L51.6971 121.776L44.9375 125.71C45.0465 125.794 45.155 125.877 45.264 125.961L51.9291 122.082Z" fill="url(#paint54_linear)"/>
<path d="M39.1052 120.721L47.2913 115.957L47.0602 115.651L38.8145 120.449C38.9101 120.54 39.009 120.63 39.1052 120.721Z" fill="url(#paint55_linear)"/>
<path d="M54.5525 94.0875L54.7809 93.9545L87.5071 74.9105L87.7356 74.7776L118.955 56.6108C118.811 56.5471 118.666 56.484 118.521 56.4209L87.5443 74.4468L87.3159 74.5797L54.5897 93.6237L54.3612 93.7566L28.8945 108.576C28.9641 108.683 29.0318 108.791 29.1023 108.897L54.5525 94.0875Z" fill="url(#paint56_linear)"/>
<path d="M25.2938 102.291L50.7182 87.4962L50.9467 87.3633L83.6729 68.3193L83.9013 68.1864L110.193 52.8869C110.045 52.8254 109.898 52.7639 109.75 52.7024L83.7092 67.8561L83.4807 67.9891L50.7545 87.033L50.526 87.166L25.1272 101.946C25.1831 102.061 25.237 102.177 25.2938 102.291Z" fill="url(#paint57_linear)"/>
<path d="M58.8803 131.27L58.6483 130.964L55.6016 132.737C55.7308 132.809 55.859 132.882 55.9886 132.953L58.8803 131.27Z" fill="url(#paint58_linear)"/>
<path d="M61.1982 134.334L60.9656 134.027L59.584 134.831C59.7205 134.899 59.8561 134.967 59.9927 135.035L61.1982 134.334Z" fill="url(#paint59_linear)"/>
<path d="M51.8398 130.516C51.9617 130.592 52.0839 130.667 52.2067 130.743L56.5636 128.208L56.3315 127.902L51.8398 130.516Z" fill="url(#paint60_linear)"/>
</g>
<path d="M71.792 115.57C71.792 115.57 75.8647 116.41 77.2538 116.97C78.6429 117.53 79.2427 117.918 79.148 118.13C79.0533 118.342 73.3706 118.13 72.455 118.13C71.5395 118.13 69.9609 117.026 69.9609 117.026L71.792 115.57Z" fill="#F6CAAD"/>
<path d="M56.5609 80.3829C59.7592 79.4405 62.3842 83.6301 63.0788 89.1727C63.7733 94.7153 64.1243 99.978 64.7381 101.546C65.3519 103.113 72.5079 115.253 72.5079 115.253L69.435 117.894C69.435 117.894 61.2477 111.119 56.8277 102.777C52.4078 94.4354 51.811 81.7825 56.5609 80.3829Z" fill="#650202"/>
<path d="M42.3979 113.129C41.1443 113.129 34.6005 121.239 33.0389 123.019C31.4773 124.799 29.3209 127.464 28.8747 130.827C28.4285 134.19 28.9491 135.754 26.9413 137.299C24.9335 138.843 23.8925 141.942 24.7848 144.316C25.6772 146.69 29.1474 151.454 29.1474 151.454C29.1474 151.454 32.7415 151.503 34.8236 148.536C36.9057 145.569 35.0839 142.139 37.4634 139.963C39.843 137.787 42.2516 134.755 41.5823 129.217C40.913 123.678 41.0699 121.148 41.293 119.05C41.5161 116.953 42.3979 113.129 42.3979 113.129Z" fill="#72A797"/>
<path d="M28.9372 153.044L28.8125 153.026C28.827 152.945 30.2699 144.771 30.9314 139.144C31.2724 136.242 32.5998 134.118 33.8835 132.064C35.1502 130.037 36.3466 128.122 36.6199 125.554C37.1725 120.363 41.4842 113.611 41.5277 113.543L41.6374 113.599C41.594 113.666 37.2957 120.397 36.7457 125.565C36.4699 128.156 35.2672 130.08 33.9939 132.118C32.7164 134.162 31.3954 136.276 31.057 139.155C30.3952 144.785 28.9518 152.962 28.9372 153.044Z" fill="#1B1C17"/>
<path d="M69.519 67.786L70.2767 66.9462C70.2767 66.9462 74.8229 66.2464 75.0123 62.4953C75.2017 58.7442 69.2348 58.4643 66.8355 59.92C64.4361 61.3756 63.3942 59.0242 60.3319 60.0599C57.2695 61.0957 58.2794 64.2029 58.2794 64.2029C58.2794 64.2029 55.8804 64.4548 55.0911 66.2464C54.3019 68.0379 56.5434 70.8373 57.4905 71.5371C58.4376 72.2369 58.5955 73.6646 59.4479 74.0005C60.3003 74.3364 69.519 67.786 69.519 67.786Z" fill="#1B1C17"/>
<path d="M67.5138 163.379C67.5138 163.379 67.1619 166.466 67.5138 168.097H71.1331C71.1331 168.097 71.5856 166.846 72.4401 167.256C73.2947 167.665 74.3001 168.097 76.6627 168.097H82.896C82.896 168.097 83.712 168.215 83.2789 167.256C82.8457 166.296 77.3162 164.818 73.8979 163.379H67.5138Z" fill="#3B3C3A"/>
<path d="M67.8638 160.668L67.5137 163.379H73.7414L74.1464 160.864L67.8638 160.668Z" fill="#F6CAAD"/>
<path d="M75.3292 161.775H66.6157C66.6157 161.775 65.2265 142.416 64.7391 141.296C64.4284 140.583 61.1274 135.241 58.7697 131.453C57.4248 129.29 56.3867 127.635 56.3867 127.635L63.456 115.813L64.7214 113.698C64.7214 113.698 65.0611 114.37 65.6256 115.499C68.2776 120.811 75.8861 136.241 76.3394 139.393C76.8888 143.214 75.3292 161.775 75.3292 161.775Z" fill="#B4895C"/>
<path d="M43.2814 163.379C43.2814 163.379 42.9295 166.466 43.2814 168.097H46.9007C46.9007 168.097 47.3531 166.846 48.2077 167.256C49.0623 167.665 50.0676 168.097 52.4303 168.097H58.6636C58.6636 168.097 59.4796 168.215 59.0464 167.256C58.6133 166.296 53.0838 164.818 49.6655 163.379H43.2814Z" fill="#3B3C3A"/>
<path d="M43.7898 160.668L43.2832 163.379H49.6673L50.0724 160.864L43.7898 160.668Z" fill="#F6CAAD"/>
<path d="M127.354 163.579L126.6 158.652L121.801 158.988L122.243 164.195L123.506 166.95L127.736 166.714L127.354 163.579Z" fill="#F6CAAD"/>
<path d="M127.567 160.182H121.122L118.739 153.392L114.125 140.246L113.76 139.205L116.033 135.521L119.588 136.15L124.2 136.966L124.434 138.588L127.567 160.182Z" fill="#B4895C"/>
<path d="M124.435 138.589C123.323 138.803 122.14 139.082 121.907 139.337C121.446 139.841 118.739 153.393 118.739 153.393L114.125 140.246L116.244 136.538L119.588 136.15L124.2 136.967L124.435 138.589Z" fill="#96734D"/>
<path d="M127.271 80.8844C126.745 81.9854 127.411 84.1956 129.506 84.4254C131.688 84.6647 136.532 88.1252 136.532 88.1252L142.657 98.2027L150.223 106.544C150.223 106.544 154.812 108.336 158.843 104.753C162.354 101.632 164.314 96.2432 156.422 91.9323C154.407 90.8321 150.532 89.6059 148.908 87.808C145.601 84.1478 144.282 80.4032 140.112 78.4956C137.542 77.3199 129.464 76.2965 127.271 80.8844Z" fill="#1B1C17"/>
<path d="M143.983 97.2143L137.732 99.1548L136.342 94.9199L135.648 92.8104L137.714 89.2519H137.716L138.553 87.8086L143.983 97.2143Z" fill="#F6CAAD"/>
<path d="M134.893 104.165C134.893 104.165 130.515 108.451 129.505 108.6C128.494 108.749 117.213 103.823 116.371 103.524C115.529 103.225 108.478 101.546 107.721 101.546C106.963 101.546 107.026 102.162 107.721 102.386C108.415 102.61 110.499 102.89 110.373 103.561C110.246 104.233 110.436 106.099 111.193 106.211C111.951 106.323 115.045 106.585 115.803 106.865C116.56 107.145 126.411 113.583 130.01 113.695C133.609 113.807 136.64 110.952 136.64 110.952L134.893 104.165Z" fill="#F6CAAD"/>
<path d="M136.007 102.254L132.281 106.256L134.144 107.721C134.144 107.721 136.512 104.121 136.638 103.897" fill="#A40000"/>
<path d="M109.583 163.579L110.901 158.652H105.552L104.079 163.579L102.605 167.461L106.753 166.341L109.583 163.579Z" fill="#F6CAAD"/>
<path opacity="0.68" d="M172.682 139.953H163.59V164.236H172.682V139.953Z" fill="#E2E8E6"/>
<path opacity="0.68" d="M172.682 136.874H163.59V138.274H172.682V136.874Z" fill="#E2E8E6"/>
<path opacity="0.68" d="M159.045 120.074H136.502V164.236H159.045V120.074Z" fill="#E2E8E6"/>
<path d="M151.924 131.655C150.157 135.329 142.29 136.017 120.778 138.157C120.499 138.183 120.234 138.278 120.014 138.431C119.793 138.585 119.626 138.791 119.531 139.025L111.152 160.183H104.248C104.248 160.183 107.952 137.341 109.299 134.59C110.456 132.227 129.489 126.208 134.846 124.553C135.728 124.281 136.239 124.128 136.239 124.128L152.332 129.428C152.356 130.277 152.233 131.012 151.924 131.655Z" fill="#CC9F66"/>
<path d="M107.297 160.211L107.053 160.154C107.07 160.094 108.845 154.043 110.694 148.009C114.448 135.764 114.841 135.521 114.988 135.43C115.8 134.929 139.365 128.682 140.368 128.416L140.44 128.631C131.959 130.878 115.756 135.229 115.133 135.614C114.533 136.091 110.118 150.585 107.297 160.211Z" fill="#96734D"/>
<path d="M151.923 131.655C141.65 130.835 136.265 126.021 134.846 124.553C135.727 124.281 136.239 124.128 136.239 124.128L152.331 129.428C152.355 130.277 152.232 131.012 151.923 131.655Z" fill="#B4895C"/>
<path d="M109.583 163.579C109.583 163.579 110.657 165.514 110.373 168.102H106.079C106.079 168.102 105.732 166.994 104.879 167.218C104.027 167.442 103.948 168.102 100.996 168.102H97.1445C97.1445 168.102 96.0711 167.862 96.3236 167.246C96.5762 166.63 103.037 164.368 103.68 163.579C104.5 162.571 106.71 163.103 105.921 164.195C104.85 165.676 106.679 165.594 107.247 164.755C107.815 163.915 109.583 163.579 109.583 163.579Z" fill="#3B3C3A"/>
<path d="M127.353 163.579C127.353 163.579 128.426 165.514 128.142 168.102H123.849C123.849 168.102 123.501 166.994 122.649 167.218C121.796 167.442 121.717 168.102 118.766 168.102H114.914C114.914 168.102 113.841 167.862 114.093 167.246C114.346 166.63 119.979 164.28 121.449 163.579C123.079 162.801 124.105 163.467 123.691 164.195C122.797 165.766 124.448 165.594 125.017 164.755C125.585 163.915 127.353 163.579 127.353 163.579Z" fill="#3B3C3A"/>
<path d="M152.993 129.896C152.993 129.896 151.414 130.267 145.542 129.036C139.67 127.804 135.13 124.466 135.13 124.466C135.982 123.552 136.072 121.618 135.85 119.553C135.621 117.422 135.06 115.153 134.664 113.731C134.42 112.852 134.239 112.296 134.239 112.296C130.64 109.833 137.397 98.0754 137.397 98.0754L141.69 95.78C141.69 95.78 144.721 94.7162 147.878 97.3476C151.035 99.9789 149.52 111.456 149.583 114.143C149.646 116.831 152.993 129.896 152.993 129.896Z" fill="url(#paint61_linear)"/>
<path d="M146.307 102.079C146.307 102.079 145.416 107.201 142.385 112.295C139.775 116.684 136.662 118.996 135.85 119.552C135.621 117.422 135.061 115.153 134.664 113.731L135.376 112.61L146.307 102.079Z" fill="#9F0606"/>
<path d="M135.312 107.257C135.312 107.257 132.786 111.12 132.155 111.344C131.524 111.568 116.433 115.767 115.359 115.991C114.286 116.215 110.519 115.468 109.466 115.58C108.414 115.692 106.141 117.334 105.888 117.782C105.636 118.23 109.719 117.334 110.098 117.372C110.476 117.409 113.97 118.118 115.57 118.267C117.169 118.417 132.898 116.62 135.2 115.839C137.501 115.058 140.869 109.944 140.869 109.944L135.312 107.257Z" fill="#F6CAAD"/>
<path d="M134.459 107.816C135.241 108.074 135.949 108.482 136.533 109.011C137.459 109.869 141.5 111.773 141.5 111.773C141.5 111.773 144.994 106.074 145.71 104.165C146.425 102.255 147.215 99.714 143.979 98.9504C140.743 98.1867 134.459 107.816 134.459 107.816Z" fill="#FF4F4F"/>
<path d="M138.969 88.5293C138.969 88.5293 139.563 91.2045 138.426 95.0862C137.29 98.9679 141.803 100.102 144.314 100.722C147.487 101.506 146.529 105.124 150.223 106.544L151.433 102.85L146.551 92.1356L138.969 88.5293Z" fill="#1B1C17"/>
<path d="M122.312 118.13H70.2578V120.136H122.312V118.13Z" fill="#1B1C17"/>
<path d="M115.06 121.249H77.5078V121.951H115.06V121.249Z" fill="#1B1C17"/>
<path d="M77.5079 119.944L72.2051 168.155H72.9626L81.7285 119.944H77.5079Z" fill="#1B1C17"/>
<path d="M115.06 119.944L120.363 168.155H119.606L110.84 119.944H115.06Z" fill="#1B1C17"/>
<path d="M64.7194 113.699C64.6248 114.377 64.4741 115.049 64.2686 115.708C63.2154 119.105 61.0572 121.249 61.0572 121.249L58.7677 131.453L51.9648 161.775H43.125C43.125 161.775 46.0295 130.547 45.9032 123.381C45.8464 120.141 46.4349 117.151 47.0966 114.849C47.1294 114.739 47.161 114.631 47.1926 114.523C47.9566 111.963 48.7812 110.332 48.8065 110.281L48.8077 110.28C48.8077 110.28 48.8974 110.275 49.0641 110.265C50.827 110.165 61.1658 109.686 64.0122 112.06C64.5413 112.501 64.8116 113.041 64.7194 113.699Z" fill="#CC9F66"/>
<path d="M53.7979 115.237L46.6094 161.761L46.8596 161.791L54.0481 115.267L53.7979 115.237Z" fill="#96734D"/>
<path d="M64.7204 113.699C64.6258 114.377 64.4751 115.049 64.2696 115.708C64.0056 115.743 63.7341 115.78 63.455 115.814C60.6137 116.166 57.1649 116.066 54.7441 115.571C52.5796 115.129 49.5981 114.933 47.0977 114.849C47.1305 114.739 47.1621 114.63 47.1936 114.523C47.9576 111.963 48.7823 110.332 48.8075 110.281L48.8088 110.28C48.8088 110.28 48.8984 110.275 49.0651 110.265C53.6378 110.81 60.9635 111.684 64.0132 112.06C64.5423 112.501 64.8126 113.04 64.7204 113.699Z" fill="#96734D"/>
<path d="M67.6811 92.7663C67.6041 95.2913 67.4272 98.7803 67.2302 102.258C66.8615 108.773 66.4195 115.244 66.4195 115.244C66.4195 115.244 57.269 115.394 53.9314 114.498C50.5937 113.602 45.3984 113.698 45.3984 113.698C45.3984 113.698 45.9882 111.661 47.8395 105.34C49.6921 99.0189 48.6818 95.2387 49.86 88.9682C51.0395 82.6978 56.8574 77.4541 56.8574 77.4541L63.2725 80.2501C63.2725 80.2501 67.5396 85.534 67.7088 89.714C67.7354 90.3645 67.7215 91.4305 67.6811 92.7663Z" fill="#FF4F4F"/>
<path d="M67.6821 92.7667C67.605 95.2917 67.4282 98.7807 67.2312 102.259C60.0217 99.0831 57.4746 87.8086 57.4746 87.8086L67.6821 92.7667Z" fill="#8E0808"/>
<path d="M61.0592 80.8311C61.0592 80.8311 64.2163 81.9508 68.3205 86.0378C72.4247 90.1248 72.6141 90.7406 73.4349 90.7406C74.2558 90.7406 81.3908 83.0145 81.3908 83.0145L85.3687 85.198C85.3687 85.198 80.5886 97.7872 72.5089 99.0721C64.4291 100.357 56.3867 86.0378 56.3867 86.0378L61.0592 80.8311Z" fill="#FF4F4F"/>
<path d="M65.3115 75.3448L64.3126 77.75L63.2746 80.2503L56.8594 77.4544L60.3019 71.4258L60.9775 71.9543L65.3115 75.3448Z" fill="#F6CAAD"/>
<path d="M65.3111 75.3447L64.3122 77.7498C60.8672 76.6234 60.8672 72.4883 60.8672 72.4883L60.9771 71.9541L65.3111 75.3447Z" fill="#F0B48D"/>
<path d="M70.2765 66.9466C70.2765 66.9466 70.0303 76.0287 65.3094 76.0443C62.3839 76.054 60.3002 71.4251 60.3002 71.4251C60.3002 71.4251 58.2481 71.1455 58.2797 69.4099C58.3112 67.6744 60.5843 68.7661 60.5843 68.7661C60.5843 68.7661 61.4683 69.8019 62.226 68.5981C62.9837 67.3944 62.8776 65.9668 62.8776 65.9668C62.8776 65.9668 66.2986 67.8983 70.2765 66.9466Z" fill="#F6CAAD"/>
<path d="M81.5371 83.4068C81.5371 83.4068 81.8739 80.9994 82.8631 80.0849C83.8523 79.1705 85.515 76.9124 85.7044 77.099C85.8939 77.2856 86.1675 77.3229 85.1362 79.6184C85.1362 79.6184 86.5463 78.424 87.2409 77.8268C87.9354 77.2296 88.8194 75.8673 89.4087 75.6247C89.9981 75.3821 90.1243 77.7522 89.535 79.0585C88.9457 80.3649 84.9016 84.3098 84.7453 84.8567C84.5889 85.4036 81.5371 83.4068 81.5371 83.4068Z" fill="#F6CAAD"/>
<path d="M99.2969 62.8281H126.277V73.4949H121.826V80.022L116.829 73.4949H99.2969V62.8281Z" fill="url(#paint62_linear)"/>
<path d="M121.952 80.3868L116.761 73.6074H99.1699V62.7168H126.403V73.6074H121.952V80.3868ZM99.4225 73.3835H116.895L121.699 79.6583V73.3835H126.15V62.9407H99.4225V73.3835Z" fill="#1B1C17"/>
<path opacity="0.59" d="M122.196 65.0186H103.477V65.6683H122.196V65.0186Z" fill="#74AEAF"/>
<path opacity="0.59" d="M122.196 67.7354H103.477V68.3851H122.196V67.7354Z" fill="#74AEAF"/>
<path opacity="0.59" d="M122.196 70.3193H103.477V70.9691H122.196V70.3193Z" fill="#74AEAF"/>
<path opacity="0.59" d="M108.856 56.7959H80.0215V67.1316H85.3719V73.2409L91.3791 67.1316H108.856V56.7959Z" fill="#74AEAF"/>
<path d="M0.543758 122.699C0.283776 122.67 2.84895 129.217 4.11309 131.459C5.37723 133.701 5.56313 137.128 7.79397 139.963C10.0248 142.798 13.0364 145.371 16.0109 146.03C18.9853 146.69 20.0264 148.536 22.9265 149.92C25.8266 151.305 29.2472 151.898 29.2472 151.898C29.2472 151.898 27.2394 142.536 25.0829 140.36C22.9265 138.184 22.0713 136.425 19.3943 134.151C17.1803 132.271 14.8955 131.788 12.5159 129.876C10.1363 127.964 7.53371 123.5 0.543758 122.699Z" fill="#74AEAF"/>
<path d="M29.6531 152.778C29.618 152.705 26.0842 145.502 20.5385 143.262C16.2172 141.517 14.6082 138.82 12.7451 135.696C12.1544 134.706 11.5437 133.682 10.8066 132.609C7.72428 128.119 0.803899 122.823 0.734375 122.77L0.816636 122.686C0.886343 122.739 7.82186 128.045 10.9145 132.551C11.6535 133.627 12.2652 134.652 12.8567 135.644C14.7853 138.877 16.3087 141.431 20.5908 143.161C26.1813 145.418 29.7339 152.661 29.7691 152.733L29.6531 152.778Z" fill="#1B1C17"/>
<path d="M34.1751 168.102H25.9898L23.9883 150.926H36.1766L34.1751 168.102Z" fill="white"/>
<path opacity="0.68" d="M34.1751 168.102H25.9898L23.9883 150.926H36.1766L34.1751 168.102Z" fill="#E2E8E6"/>
<path d="M102.209 117.304H80.2782C79.884 117.304 79.4668 117.021 79.3463 116.671L74.5934 102.887C74.4729 102.537 74.6947 102.254 75.0888 102.254H97.0193C97.4134 102.254 97.8306 102.537 97.9511 102.887L102.704 116.671C102.825 117.021 102.603 117.304 102.209 117.304Z" fill="#4F8D88"/>
<path d="M101.892 116.613H80.1169L75.4043 102.945H97.1799L101.892 116.613Z" fill="url(#paint63_linear)"/>
<path opacity="0.26" d="M94.3419 115.562H99.9085L96.178 104.743H90.6113L94.3419 115.562Z" fill="#FF4F4F"/>
<path d="M82.5399 109.027C81.362 109.389 79.7533 108.746 78.9466 107.591C78.1399 106.436 78.4409 105.206 79.6187 104.844C79.7927 104.791 79.9739 104.759 80.1575 104.748C80.8564 104.705 81.6306 104.941 82.2782 105.375C82.6494 105.624 82.966 105.93 83.2121 106.28C83.5571 106.774 83.6995 107.282 83.6572 107.73C83.6401 107.93 83.5806 108.125 83.4819 108.305C83.3868 108.475 83.2546 108.626 83.0928 108.75C82.9311 108.874 82.7431 108.968 82.5399 109.027Z" fill="#FF4F4F"/>
<path d="M83.2128 106.28L80.9657 106.971L80.1582 104.748C81.2492 104.68 82.5237 105.293 83.2128 106.28Z" fill="#DAE5E1"/>
<path d="M90.1395 106.935C90.2366 107.204 90.2713 107.487 90.2418 107.769C90.1465 108.565 89.4556 109.127 88.423 109.127C87.0576 109.127 85.613 108.145 85.1957 106.935C84.7783 105.725 85.5461 104.743 86.9115 104.743C87.7657 104.743 88.6518 105.127 89.2969 105.712C89.6837 106.054 89.9725 106.474 90.1395 106.935Z" fill="#FF4F4F"/>
<path d="M90.1402 106.935C90.2372 107.204 90.272 107.487 90.2424 107.769L87.6679 106.935L86.9121 104.743C87.7663 104.743 88.6524 105.127 89.2975 105.712C89.6843 106.054 89.9732 106.474 90.1402 106.935Z" fill="#DAE5E1"/>
<path opacity="0.59" d="M93.1138 115.562H81.5816L79.9551 110.845H91.4873L93.1138 115.562Z" fill="#FF4F4F"/>
<g opacity="0.59">
<path opacity="0.59" d="M91.6821 114.797H82.4846L82.4199 114.609H91.6175L91.6821 114.797Z" fill="#74AEAF"/>
<path opacity="0.59" d="M91.3384 113.797H82.1408L82.0762 113.609H91.2737L91.3384 113.797Z" fill="#74AEAF"/>
<path opacity="0.59" d="M90.9946 112.798H81.7971L81.7324 112.61H90.9299L90.9946 112.798Z" fill="#74AEAF"/>
<path opacity="0.59" d="M90.6489 111.798H81.4514L81.3867 111.61H90.5842L90.6489 111.798Z" fill="#74AEAF"/>
</g>
<g opacity="0.51">
<path opacity="0.51" d="M96.8015 108.814H92.8419L92.7773 108.627H96.737L96.8015 108.814Z" fill="#74AEAF"/>
</g>
<g opacity="0.51">
<path opacity="0.51" d="M96.458 107.814H92.4982L92.4336 107.627H96.3934L96.458 107.814Z" fill="#74AEAF"/>
</g>
<g opacity="0.51">
<path opacity="0.51" d="M96.1142 106.815H92.1545L92.0898 106.628H96.0496L96.1142 106.815Z" fill="#74AEAF"/>
</g>
<g opacity="0.51">
<path opacity="0.51" d="M95.7685 105.815H91.8087L91.7441 105.628H95.7038L95.7685 105.815Z" fill="#74AEAF"/>
</g>
<g opacity="0.51">
<path opacity="0.51" d="M98.1767 112.798H94.217L94.1523 112.61H98.1121L98.1767 112.798Z" fill="#74AEAF"/>
</g>
<g opacity="0.51">
<path opacity="0.51" d="M97.831 111.798H93.8713L93.8066 111.61H97.7663L97.831 111.798Z" fill="#74AEAF"/>
</g>
<g opacity="0.51">
<path opacity="0.51" d="M97.4853 110.798H93.5256L93.4609 110.61H97.4207L97.4853 110.798Z" fill="#74AEAF"/>
</g>
<g opacity="0.51">
<path opacity="0.51" d="M98.8328 114.703H94.8732L94.8086 114.516H98.7682L98.8328 114.703Z" fill="#74AEAF"/>
</g>
<g opacity="0.51">
<path opacity="0.51" d="M98.4892 113.703H94.5295L94.4648 113.516H98.4245L98.4892 113.703Z" fill="#74AEAF"/>
</g>
<g opacity="0.51">
<path opacity="0.51" d="M97.1415 109.799H93.1818L93.1172 109.611H97.0769L97.1415 109.799Z" fill="#74AEAF"/>
</g>
<path d="M112.039 118.062H79.8919C79.7693 118.062 79.6517 118.019 79.5651 117.942C79.4784 117.865 79.4297 117.761 79.4297 117.652C79.4297 117.543 79.4784 117.439 79.5651 117.362C79.6517 117.285 79.7693 117.242 79.8919 117.242H112.039C112.099 117.242 112.16 117.253 112.216 117.273C112.272 117.294 112.323 117.324 112.366 117.362C112.408 117.4 112.443 117.445 112.466 117.495C112.489 117.545 112.501 117.598 112.501 117.652C112.501 117.761 112.452 117.865 112.366 117.942C112.279 118.019 112.161 118.062 112.039 118.062Z" fill="#4F8D88"/>
<path d="M148.543 134.589V134.253C154.172 134.253 158.751 130.193 158.751 125.202H159.13C159.13 130.378 154.38 134.589 148.543 134.589Z" fill="#070C0A"/>
<path d="M152.33 137.587C152.33 138.477 151.93 139.331 151.22 139.961C150.51 140.591 149.547 140.945 148.543 140.945H128.485C127.591 140.945 126.726 140.664 126.043 140.153C125.359 139.642 124.902 138.933 124.751 138.151C124.715 137.965 124.697 137.776 124.697 137.587C124.698 136.696 125.097 135.843 125.808 135.213C126.518 134.583 127.481 134.229 128.485 134.229H148.543C149.547 134.23 150.51 134.584 151.22 135.213C151.93 135.843 152.329 136.697 152.33 137.587Z" fill="#6FACA7"/>
<path d="M162.296 104.165H162.296C163.3 104.165 164.264 104.519 164.974 105.149C165.684 105.779 166.083 106.633 166.083 107.524V125.308C166.083 126.198 165.684 127.052 164.974 127.682C164.264 128.312 163.3 128.666 162.296 128.666C161.291 128.666 160.328 128.312 159.617 127.682C158.907 127.052 158.508 126.198 158.508 125.308V107.524C158.508 107.082 158.606 106.646 158.796 106.238C158.986 105.831 159.265 105.461 159.617 105.149C159.969 104.837 160.386 104.589 160.846 104.421C161.306 104.252 161.798 104.165 162.296 104.165Z" fill="#6FACA7"/>
<path d="M147.462 140.946H146.055V164.456H147.462V140.946Z" fill="#1B1C17"/>
<path d="M147.46 164.455H132.67V165.703H147.46V164.455Z" fill="#1B1C17"/>
<path d="M148.824 140.946H144.691V146.896H148.824V140.946Z" fill="#1B1C17"/>
<path d="M133.589 167.764C134.096 167.315 134.096 166.586 133.589 166.136C133.082 165.686 132.259 165.686 131.752 166.136C131.245 166.586 131.245 167.315 131.752 167.764C132.259 168.214 133.082 168.214 133.589 167.764Z" fill="#1B1C17"/>
<path d="M148.38 167.764C148.887 167.315 148.887 166.586 148.38 166.136C147.873 165.686 147.05 165.686 146.543 166.136C146.036 166.586 146.036 167.315 146.543 167.764C147.05 168.214 147.873 168.214 148.38 167.764Z" fill="#1B1C17"/>
<path d="M152.331 137.587C152.33 138.478 151.931 139.332 151.221 139.961C150.511 140.591 149.548 140.945 148.543 140.946H128.486C127.591 140.945 126.726 140.665 126.043 140.153C125.36 139.642 124.903 138.933 124.752 138.152C125.739 138.497 139.996 143.31 151.528 135.522C152.05 136.111 152.333 136.839 152.331 137.587Z" fill="#4F8D88"/>
<path d="M136.342 94.9192L135.648 92.8096L137.714 89.2512H137.716C138.025 89.1157 138.207 89.0361 138.207 89.0361C138.207 89.0361 138.584 93.2195 136.342 94.9192Z" fill="#F0B48D"/>
<path d="M129.505 84.4258C129.505 84.4258 129.068 88.3377 131.615 91.691C134.162 95.0442 137.102 92.7747 138.205 89.0373C138.205 89.0373 140.047 88.1425 140.11 86.5128C140.173 84.8832 137.753 84.8156 137.375 86.0592C137.375 86.0592 136.588 86.5504 136.341 85.9197C136.093 85.289 136.419 84.3511 134.36 84.622C132.302 84.8928 129.505 84.4258 129.505 84.4258Z" fill="#F6CAAD"/>
<path d="M2.54718 144.05C1.9794 144.396 6.67242 145.925 9.28228 146.522C11.8921 147.119 11.8921 148.762 16.0174 149.956C20.1426 151.15 20.0584 149.956 22.5841 150.926C25.1097 151.897 28.8088 150.926 28.8088 150.926C28.8088 150.926 23.426 144.955 21.2371 144.432C19.0482 143.91 17.0276 144.564 12.4814 144.05C7.93526 143.536 3.05232 143.742 2.54718 144.05Z" fill="#4F8D88"/>
<path d="M28.7723 150.972C24.3978 148.16 21.2627 147.535 18.2309 146.929C16.5069 146.585 14.8785 146.26 13.1084 145.547C8.32066 143.617 2.82612 144.417 2.77128 144.426L2.75 144.315C2.80537 144.307 8.33692 143.5 13.1606 145.445C14.9189 146.153 16.5411 146.477 18.2586 146.82C21.3029 147.428 24.4509 148.056 28.8464 150.881L28.7723 150.972Z" fill="#1B1C17"/>
<path opacity="0.59" d="M31.041 150.926C31.041 150.926 33.4825 145.505 38.5338 144.856C43.5851 144.207 47.3282 146.872 52.7811 147.256C58.234 147.641 61.3683 152.12 62.411 154.658C62.411 154.658 59.9382 154.285 58.7072 155.031C57.4762 155.778 56.3818 156.151 51.3305 155.629C46.2792 155.106 43.6892 155.32 40.5543 153.389C35.7608 150.436 31.041 150.926 31.041 150.926Z" fill="#74AEAF"/>
<path d="M61.9254 154.32C61.8729 154.263 56.6187 148.637 52.0087 148.966C47.3242 149.301 45.1227 148.693 43.1803 148.156C41.6911 147.745 40.4051 147.39 38.3034 147.603C33.5924 148.079 31.1155 150.931 31.0911 150.959L30.9902 150.892C31.015 150.863 33.5223 147.974 38.2891 147.491C40.4172 147.276 41.715 147.634 43.2179 148.049C45.1493 148.583 47.3385 149.188 51.9985 148.854C56.6759 148.516 61.9702 154.192 62.0232 154.249L61.9254 154.32Z" fill="#1B1C17"/>
<path d="M61.059 121.249L64.7389 141.297L58.7695 131.453L61.059 121.249Z" fill="#96734D"/>
<path d="M57.6644 76.0439L63.2746 80.2496L56.8594 77.4536L57.6644 76.0439Z" fill="#BDC7C3"/>
<path d="M154.55 89.8948C149.973 88.4837 148.286 86.5 146.332 84.2031C145.603 83.345 144.848 82.4575 143.889 81.5352C140.44 78.2178 136.986 78.476 136.951 78.4793L136.926 78.2564C136.961 78.2533 140.535 77.9789 144.075 81.3835C145.042 82.3138 145.801 83.2058 146.534 84.0683C148.463 86.3361 150.128 88.2945 154.633 89.6833L154.55 89.8948Z" fill="#1B1C17"/>
<path d="M54.3946 66.2872L54.168 66.1883C54.1819 66.1633 55.5906 63.6919 58.5544 64.1492L58.5112 64.3699C55.7322 63.9413 54.4076 66.2637 54.3946 66.2872Z" fill="#1B1C17"/>
<path d="M172.809 129.916H172.557V132.629H172.809V129.916Z" fill="#1B1C17"/>
<path d="M174.212 131.16H171.152V131.384H174.212V131.16Z" fill="#1B1C17"/>
<defs>
<filter id="filter0_d" x="5.79883" y="20.4482" width="191.641" height="171.279" filterUnits="userSpaceOnUse" color-interpolation-filters="sRGB">
<feFlood flood-opacity="0" result="BackgroundImageFix"/>
<feColorMatrix in="SourceAlpha" type="matrix" values="0 0 0 0 0 0 0 0 0 0 0 0 0 0 0 0 0 0 127 0" result="hardAlpha"/>
<feOffset dx="8" dy="8"/>
<feGaussianBlur stdDeviation="7"/>
<feColorMatrix type="matrix" values="0 0 0 0 0 0 0 0 0 0 0 0 0 0 0 0 0 0 0.25 0"/>
<feBlend mode="normal" in2="BackgroundImageFix" result="effect1_dropShadow"/>
<feBlend mode="normal" in="SourceGraphic" in2="effect1_dropShadow" result="shape"/>
</filter>
<filter id="filter1_d" x="5.47266" y="89.0176" width="70.3536" height="71.9152" filterUnits="userSpaceOnUse" color-interpolation-filters="sRGB">
<feFlood flood-opacity="0" result="BackgroundImageFix"/>
<feColorMatrix in="SourceAlpha" type="matrix" values="0 0 0 0 0 0 0 0 0 0 0 0 0 0 0 0 0 0 127 0" result="hardAlpha"/>
<feOffset dx="8" dy="8"/>
<feGaussianBlur stdDeviation="7"/>
<feColorMatrix type="matrix" values="0 0 0 0 0 0 0 0 0 0 0 0 0 0 0 0 0 0 0.25 0"/>
<feBlend mode="normal" in2="BackgroundImageFix" result="effect1_dropShadow"/>
<feBlend mode="normal" in="SourceGraphic" in2="effect1_dropShadow" result="shape"/>
</filter>
<filter id="filter2_d" x="30.0273" y="30.5215" width="43.2962" height="42.9591" filterUnits="userSpaceOnUse" color-interpolation-filters="sRGB">
<feFlood flood-opacity="0" result="BackgroundImageFix"/>
<feColorMatrix in="SourceAlpha" type="matrix" values="0 0 0 0 0 0 0 0 0 0 0 0 0 0 0 0 0 0 127 0" result="hardAlpha"/>
<feOffset dx="8" dy="8"/>
<feGaussianBlur stdDeviation="7"/>
<feColorMatrix type="matrix" values="0 0 0 0 0 0 0 0 0 0 0 0 0 0 0 0 0 0 0.25 0"/>
<feBlend mode="normal" in2="BackgroundImageFix" result="effect1_dropShadow"/>
<feBlend mode="normal" in="SourceGraphic" in2="effect1_dropShadow" result="shape"/>
</filter>
<filter id="filter3_d" x="26.3242" y="133.623" width="33.3979" height="33.5214" filterUnits="userSpaceOnUse" color-interpolation-filters="sRGB">
<feFlood flood-opacity="0" result="BackgroundImageFix"/>
<feColorMatrix in="SourceAlpha" type="matrix" values="0 0 0 0 0 0 0 0 0 0 0 0 0 0 0 0 0 0 127 0" result="hardAlpha"/>
<feOffset dx="8" dy="8"/>
<feGaussianBlur stdDeviation="7"/>
<feColorMatrix type="matrix" values="0 0 0 0 0 0 0 0 0 0 0 0 0 0 0 0 0 0 0.25 0"/>
<feBlend mode="normal" in2="BackgroundImageFix" result="effect1_dropShadow"/>
<feBlend mode="normal" in="SourceGraphic" in2="effect1_dropShadow" result="shape"/>
</filter>
<filter id="filter4_d" x="41.6328" y="140.222" width="56.0389" height="56.6805" filterUnits="userSpaceOnUse" color-interpolation-filters="sRGB">
<feFlood flood-opacity="0" result="BackgroundImageFix"/>
<feColorMatrix in="SourceAlpha" type="matrix" values="0 0 0 0 0 0 0 0 0 0 0 0 0 0 0 0 0 0 127 0" result="hardAlpha"/>
<feOffset dx="8" dy="8"/>
<feGaussianBlur stdDeviation="7"/>
<feColorMatrix type="matrix" values="0 0 0 0 0 0 0 0 0 0 0 0 0 0 0 0 0 0 0.25 0"/>
<feBlend mode="normal" in2="BackgroundImageFix" result="effect1_dropShadow"/>
<feBlend mode="normal" in="SourceGraphic" in2="effect1_dropShadow" result="shape"/>
</filter>
<filter id="filter5_d" x="2.57031" y="77.9316" width="44.6308" height="45.0114" filterUnits="userSpaceOnUse" color-interpolation-filters="sRGB">
<feFlood flood-opacity="0" result="BackgroundImageFix"/>
<feColorMatrix in="SourceAlpha" type="matrix" values="0 0 0 0 0 0 0 0 0 0 0 0 0 0 0 0 0 0 127 0" result="hardAlpha"/>
<feOffset dx="8" dy="8"/>
<feGaussianBlur stdDeviation="7"/>
<feColorMatrix type="matrix" values="0 0 0 0 0 0 0 0 0 0 0 0 0 0 0 0 0 0 0.25 0"/>
<feBlend mode="normal" in2="BackgroundImageFix" result="effect1_dropShadow"/>
<feBlend mode="normal" in="SourceGraphic" in2="effect1_dropShadow" result="shape"/>
</filter>
<filter id="filter6_d" x="35.7578" y="45.8076" width="31.9003" height="31.5926" filterUnits="userSpaceOnUse" color-interpolation-filters="sRGB">
<feFlood flood-opacity="0" result="BackgroundImageFix"/>
<feColorMatrix in="SourceAlpha" type="matrix" values="0 0 0 0 0 0 0 0 0 0 0 0 0 0 0 0 0 0 127 0" result="hardAlpha"/>
<feOffset dx="8" dy="8"/>
<feGaussianBlur stdDeviation="7"/>
<feColorMatrix type="matrix" values="0 0 0 0 0 0 0 0 0 0 0 0 0 0 0 0 0 0 0.25 0"/>
<feBlend mode="normal" in2="BackgroundImageFix" result="effect1_dropShadow"/>
<feBlend mode="normal" in="SourceGraphic" in2="effect1_dropShadow" result="shape"/>
</filter>
<filter id="filter7_d" x="161.988" y="98.5195" width="33.3979" height="33.5214" filterUnits="userSpaceOnUse" color-interpolation-filters="sRGB">
<feFlood flood-opacity="0" result="BackgroundImageFix"/>
<feColorMatrix in="SourceAlpha" type="matrix" values="0 0 0 0 0 0 0 0 0 0 0 0 0 0 0 0 0 0 127 0" result="hardAlpha"/>
<feOffset dx="8" dy="8"/>
<feGaussianBlur stdDeviation="7"/>
<feColorMatrix type="matrix" values="0 0 0 0 0 0 0 0 0 0 0 0 0 0 0 0 0 0 0.25 0"/>
<feBlend mode="normal" in2="BackgroundImageFix" result="effect1_dropShadow"/>
<feBlend mode="normal" in="SourceGraphic" in2="effect1_dropShadow" result="shape"/>
</filter>
<filter id="filter8_d" x="148" y="100.367" width="50.9533" height="49.2873" filterUnits="userSpaceOnUse" color-interpolation-filters="sRGB">
<feFlood flood-opacity="0" result="BackgroundImageFix"/>
<feColorMatrix in="SourceAlpha" type="matrix" values="0 0 0 0 0 0 0 0 0 0 0 0 0 0 0 0 0 0 127 0" result="hardAlpha"/>
<feOffset dx="8" dy="8"/>
<feGaussianBlur stdDeviation="7"/>
<feColorMatrix type="matrix" values="0 0 0 0 0 0 0 0 0 0 0 0 0 0 0 0 0 0 0.25 0"/>
<feBlend mode="normal" in2="BackgroundImageFix" result="effect1_dropShadow"/>
<feBlend mode="normal" in="SourceGraphic" in2="effect1_dropShadow" result="shape"/>
</filter>
<filter id="filter9_d" x="34.2422" y="93.7686" width="33.7878" height="33.7001" filterUnits="userSpaceOnUse" color-interpolation-filters="sRGB">
<feFlood flood-opacity="0" result="BackgroundImageFix"/>
<feColorMatrix in="SourceAlpha" type="matrix" values="0 0 0 0 0 0 0 0 0 0 0 0 0 0 0 0 0 0 127 0" result="hardAlpha"/>
<feOffset dx="8" dy="8"/>
<feGaussianBlur stdDeviation="7"/>
<feColorMatrix type="matrix" values="0 0 0 0 0 0 0 0 0 0 0 0 0 0 0 0 0 0 0.25 0"/>
<feBlend mode="normal" in2="BackgroundImageFix" result="effect1_dropShadow"/>
<feBlend mode="normal" in="SourceGraphic" in2="effect1_dropShadow" result="shape"/>
</filter>
<linearGradient id="paint0_linear" x1="16.7828" y1="-2.20773" x2="193.444" y2="7.95648" gradientUnits="userSpaceOnUse">
<stop offset="0.0756841" stop-color="#B565D8"/>
<stop offset="0.945898" stop-color="#EE609C"/>
</linearGradient>
<linearGradient id="paint1_linear" x1="7.81354" y1="105.119" x2="31.0571" y2="88.5099" gradientUnits="userSpaceOnUse">
<stop offset="0.0756841" stop-color="#B565D8"/>
<stop offset="0.945898" stop-color="#EE609C"/>
</linearGradient>
<linearGradient id="paint2_linear" x1="35.3425" y1="39.7965" x2="46.7826" y2="34.6111" gradientUnits="userSpaceOnUse">
<stop offset="0.0756841" stop-color="#B565D8"/>
<stop offset="0.945898" stop-color="#EE609C"/>
</linearGradient>
<linearGradient id="paint3_linear" x1="31.6663" y1="142.97" x2="33.8634" y2="138.965" gradientUnits="userSpaceOnUse">
<stop offset="0.0756841" stop-color="#B565D8"/>
<stop offset="0.945898" stop-color="#EE609C"/>
</linearGradient>
<linearGradient id="paint4_linear" x1="44.2155" y1="163.607" x2="55.6282" y2="142.807" gradientUnits="userSpaceOnUse">
<stop offset="0.0756841" stop-color="#B565D8"/>
<stop offset="0.945898" stop-color="#EE609C"/>
</linearGradient>
<linearGradient id="paint5_linear" x1="6.54337" y1="94.244" x2="13.3126" y2="81.9067" gradientUnits="userSpaceOnUse">
<stop offset="0.0756841" stop-color="#B565D8"/>
<stop offset="0.945898" stop-color="#EE609C"/>
</linearGradient>
<linearGradient id="paint6_linear" x1="46.3383" y1="52.4824" x2="45.7176" y2="55.8218" gradientUnits="userSpaceOnUse">
<stop offset="0.0756841" stop-color="#B565D8"/>
<stop offset="0.945898" stop-color="#EE609C"/>
</linearGradient>
<linearGradient id="paint7_linear" x1="167.33" y1="107.866" x2="169.528" y2="103.862" gradientUnits="userSpaceOnUse">
<stop offset="0.0756841" stop-color="#B565D8"/>
<stop offset="0.945898" stop-color="#EE609C"/>
</linearGradient>
<linearGradient id="paint8_linear" x1="162.123" y1="103.916" x2="179.514" y2="113.486" gradientUnits="userSpaceOnUse">
<stop offset="0.0756841" stop-color="#B565D8"/>
<stop offset="0.945898" stop-color="#EE609C"/>
</linearGradient>
<linearGradient id="paint9_linear" x1="42.5268" y1="99.062" x2="46.7248" y2="101.32" gradientUnits="userSpaceOnUse">
<stop offset="0.0756841" stop-color="#B565D8"/>
<stop offset="0.945898" stop-color="#EE609C"/>
</linearGradient>
<linearGradient id="paint10_linear" x1="63.377" y1="119.302" x2="68.0177" y2="126.024" gradientUnits="userSpaceOnUse">
<stop offset="0.0756841" stop-color="#B565D8"/>
<stop offset="0.945898" stop-color="#EE609C"/>
</linearGradient>
<linearGradient id="paint11_linear" x1="54.8747" y1="115.426" x2="59.5048" y2="122.157" gradientUnits="userSpaceOnUse">
<stop offset="0.0756841" stop-color="#B565D8"/>
<stop offset="0.945898" stop-color="#EE609C"/>
</linearGradient>
<linearGradient id="paint12_linear" x1="38.9082" y1="115.894" x2="43.508" y2="122.678" gradientUnits="userSpaceOnUse">
<stop offset="0.0756841" stop-color="#B565D8"/>
<stop offset="0.945898" stop-color="#EE609C"/>
</linearGradient>
<linearGradient id="paint13_linear" x1="33.846" y1="110.018" x2="38.4613" y2="116.79" gradientUnits="userSpaceOnUse">
<stop offset="0.0756841" stop-color="#B565D8"/>
<stop offset="0.945898" stop-color="#EE609C"/>
</linearGradient>
<linearGradient id="paint14_linear" x1="59.3373" y1="117.242" x2="63.9732" y2="123.969" gradientUnits="userSpaceOnUse">
<stop offset="0.0756841" stop-color="#B565D8"/>
<stop offset="0.945898" stop-color="#EE609C"/>
</linearGradient>
<linearGradient id="paint15_linear" x1="49.8587" y1="113.934" x2="54.4812" y2="120.671" gradientUnits="userSpaceOnUse">
<stop offset="0.0756841" stop-color="#B565D8"/>
<stop offset="0.945898" stop-color="#EE609C"/>
</linearGradient>
<linearGradient id="paint16_linear" x1="36.2846" y1="113.01" x2="40.8911" y2="119.789" gradientUnits="userSpaceOnUse">
<stop offset="0.0756841" stop-color="#B565D8"/>
<stop offset="0.945898" stop-color="#EE609C"/>
</linearGradient>
<linearGradient id="paint17_linear" x1="94.4355" y1="145.341" x2="99.1306" y2="152.019" gradientUnits="userSpaceOnUse">
<stop offset="0.0756841" stop-color="#B565D8"/>
<stop offset="0.945898" stop-color="#EE609C"/>
</linearGradient>
<linearGradient id="paint18_linear" x1="88.8045" y1="139.796" x2="93.4974" y2="146.505" gradientUnits="userSpaceOnUse">
<stop offset="0.0756841" stop-color="#B565D8"/>
<stop offset="0.945898" stop-color="#EE609C"/>
</linearGradient>
<linearGradient id="paint19_linear" x1="83.0958" y1="134.295" x2="87.7766" y2="141.015" gradientUnits="userSpaceOnUse">
<stop offset="0.0756841" stop-color="#B565D8"/>
<stop offset="0.945898" stop-color="#EE609C"/>
</linearGradient>
<linearGradient id="paint20_linear" x1="77.1068" y1="128.958" x2="81.7779" y2="135.685" gradientUnits="userSpaceOnUse">
<stop offset="0.0756841" stop-color="#B565D8"/>
<stop offset="0.945898" stop-color="#EE609C"/>
</linearGradient>
<linearGradient id="paint21_linear" x1="70.628" y1="123.905" x2="75.2767" y2="130.621" gradientUnits="userSpaceOnUse">
<stop offset="0.0756841" stop-color="#B565D8"/>
<stop offset="0.945898" stop-color="#EE609C"/>
</linearGradient>
<linearGradient id="paint22_linear" x1="91.6177" y1="142.57" x2="96.3182" y2="149.273" gradientUnits="userSpaceOnUse">
<stop offset="0.0756841" stop-color="#B565D8"/>
<stop offset="0.945898" stop-color="#EE609C"/>
</linearGradient>
<linearGradient id="paint23_linear" x1="85.9713" y1="137.033" x2="90.6576" y2="143.747" gradientUnits="userSpaceOnUse">
<stop offset="0.0756841" stop-color="#B565D8"/>
<stop offset="0.945898" stop-color="#EE609C"/>
</linearGradient>
<linearGradient id="paint24_linear" x1="80.1492" y1="131.598" x2="84.8248" y2="138.321" gradientUnits="userSpaceOnUse">
<stop offset="0.0756841" stop-color="#B565D8"/>
<stop offset="0.945898" stop-color="#EE609C"/>
</linearGradient>
<linearGradient id="paint25_linear" x1="73.942" y1="126.388" x2="78.609" y2="133.119" gradientUnits="userSpaceOnUse">
<stop offset="0.0756841" stop-color="#B565D8"/>
<stop offset="0.945898" stop-color="#EE609C"/>
</linearGradient>
<linearGradient id="paint26_linear" x1="67.1171" y1="121.537" x2="71.7619" y2="128.256" gradientUnits="userSpaceOnUse">
<stop offset="0.0756841" stop-color="#B565D8"/>
<stop offset="0.945898" stop-color="#EE609C"/>
</linearGradient>
<linearGradient id="paint27_linear" x1="120.388" y1="165.531" x2="125.281" y2="172.031" gradientUnits="userSpaceOnUse">
<stop offset="0.0756841" stop-color="#B565D8"/>
<stop offset="0.945898" stop-color="#EE609C"/>
</linearGradient>
<linearGradient id="paint28_linear" x1="112.853" y1="161.094" x2="117.659" y2="167.675" gradientUnits="userSpaceOnUse">
<stop offset="0.0756841" stop-color="#B565D8"/>
<stop offset="0.945898" stop-color="#EE609C"/>
</linearGradient>
<linearGradient id="paint29_linear" x1="106.242" y1="156.118" x2="110.995" y2="162.746" gradientUnits="userSpaceOnUse">
<stop offset="0.0756841" stop-color="#B565D8"/>
<stop offset="0.945898" stop-color="#EE609C"/>
</linearGradient>
<linearGradient id="paint30_linear" x1="100.181" y1="150.821" x2="104.9" y2="157.478" gradientUnits="userSpaceOnUse">
<stop offset="0.0756841" stop-color="#B565D8"/>
<stop offset="0.945898" stop-color="#EE609C"/>
</linearGradient>
<linearGradient id="paint31_linear" x1="124.69" y1="167.438" x2="129.652" y2="173.871" gradientUnits="userSpaceOnUse">
<stop offset="0.0756841" stop-color="#B565D8"/>
<stop offset="0.945898" stop-color="#EE609C"/>
</linearGradient>
<linearGradient id="paint32_linear" x1="116.462" y1="163.405" x2="121.305" y2="169.952" gradientUnits="userSpaceOnUse">
<stop offset="0.0756841" stop-color="#B565D8"/>
<stop offset="0.945898" stop-color="#EE609C"/>
</linearGradient>
<linearGradient id="paint33_linear" x1="109.458" y1="158.657" x2="114.235" y2="165.265" gradientUnits="userSpaceOnUse">
<stop offset="0.0756841" stop-color="#B565D8"/>
<stop offset="0.945898" stop-color="#EE609C"/>
</linearGradient>
<linearGradient id="paint34_linear" x1="103.154" y1="153.504" x2="107.888" y2="160.149" gradientUnits="userSpaceOnUse">
<stop offset="0.0756841" stop-color="#B565D8"/>
<stop offset="0.945898" stop-color="#EE609C"/>
</linearGradient>
<linearGradient id="paint35_linear" x1="97.2804" y1="148.097" x2="102.001" y2="154.783" gradientUnits="userSpaceOnUse">
<stop offset="0.0756841" stop-color="#B565D8"/>
<stop offset="0.945898" stop-color="#EE609C"/>
</linearGradient>
<linearGradient id="paint36_linear" x1="129.49" y1="169.056" x2="134.57" y2="175.399" gradientUnits="userSpaceOnUse">
<stop offset="0.0756841" stop-color="#B565D8"/>
<stop offset="0.945898" stop-color="#EE609C"/>
</linearGradient>
<linearGradient id="paint37_linear" x1="141.906" y1="170.654" x2="147.5" y2="176.31" gradientUnits="userSpaceOnUse">
<stop offset="0.0756841" stop-color="#B565D8"/>
<stop offset="0.945898" stop-color="#EE609C"/>
</linearGradient>
<linearGradient id="paint38_linear" x1="135.026" y1="170.248" x2="140.256" y2="176.384" gradientUnits="userSpaceOnUse">
<stop offset="0.0756841" stop-color="#B565D8"/>
<stop offset="0.945898" stop-color="#EE609C"/>
</linearGradient>
<linearGradient id="paint39_linear" x1="33.4051" y1="44.104" x2="39.4143" y2="48.7355" gradientUnits="userSpaceOnUse">
<stop offset="0.0756841" stop-color="#B565D8"/>
<stop offset="0.945898" stop-color="#EE609C"/>
</linearGradient>
<linearGradient id="paint40_linear" x1="26.8613" y1="52.324" x2="32.1673" y2="58.3644" gradientUnits="userSpaceOnUse">
<stop offset="0.0756841" stop-color="#B565D8"/>
<stop offset="0.945898" stop-color="#EE609C"/>
</linearGradient>
<linearGradient id="paint41_linear" x1="25.9841" y1="96.9464" x2="30.6541" y2="103.675" gradientUnits="userSpaceOnUse">
<stop offset="0.0756841" stop-color="#B565D8"/>
<stop offset="0.945898" stop-color="#EE609C"/>
</linearGradient>
<linearGradient id="paint42_linear" x1="23.3192" y1="89.6744" x2="28.0304" y2="96.3682" gradientUnits="userSpaceOnUse">
<stop offset="0.0756841" stop-color="#B565D8"/>
<stop offset="0.945898" stop-color="#EE609C"/>
</linearGradient>
<linearGradient id="paint43_linear" x1="21.629" y1="81.8377" x2="26.379" y2="88.4686" gradientUnits="userSpaceOnUse">
<stop offset="0.0756841" stop-color="#B565D8"/>
<stop offset="0.945898" stop-color="#EE609C"/>
</linearGradient>
<linearGradient id="paint44_linear" x1="21.1277" y1="73.3067" x2="25.9536" y2="79.8697" gradientUnits="userSpaceOnUse">
<stop offset="0.0756841" stop-color="#B565D8"/>
<stop offset="0.945898" stop-color="#EE609C"/>
</linearGradient>
<linearGradient id="paint45_linear" x1="22.3196" y1="63.789" x2="27.2782" y2="70.2251" gradientUnits="userSpaceOnUse">
<stop offset="0.0756841" stop-color="#B565D8"/>
<stop offset="0.945898" stop-color="#EE609C"/>
</linearGradient>
<linearGradient id="paint46_linear" x1="24.5361" y1="93.3773" x2="29.2254" y2="100.089" gradientUnits="userSpaceOnUse">
<stop offset="0.0756841" stop-color="#B565D8"/>
<stop offset="0.945898" stop-color="#EE609C"/>
</linearGradient>
<linearGradient id="paint47_linear" x1="22.3437" y1="85.8307" x2="27.0799" y2="92.5033" gradientUnits="userSpaceOnUse">
<stop offset="0.0756841" stop-color="#B565D8"/>
<stop offset="0.945898" stop-color="#EE609C"/>
</linearGradient>
<linearGradient id="paint48_linear" x1="21.2082" y1="77.6709" x2="25.9919" y2="84.272" gradientUnits="userSpaceOnUse">
<stop offset="0.0756841" stop-color="#B565D8"/>
<stop offset="0.945898" stop-color="#EE609C"/>
</linearGradient>
<linearGradient id="paint49_linear" x1="21.4544" y1="68.7053" x2="26.3354" y2="75.2169" gradientUnits="userSpaceOnUse">
<stop offset="0.0756841" stop-color="#B565D8"/>
<stop offset="0.945898" stop-color="#EE609C"/>
</linearGradient>
<linearGradient id="paint50_linear" x1="23.9317" y1="58.4403" x2="29.0104" y2="64.7509" gradientUnits="userSpaceOnUse">
<stop offset="0.0756841" stop-color="#B565D8"/>
<stop offset="0.945898" stop-color="#EE609C"/>
</linearGradient>
<linearGradient id="paint51_linear" x1="48.4225" y1="128.004" x2="53.7392" y2="129.059" gradientUnits="userSpaceOnUse">
<stop offset="0.0756841" stop-color="#B565D8"/>
<stop offset="0.945898" stop-color="#EE609C"/>
</linearGradient>
<linearGradient id="paint52_linear" x1="41.9755" y1="122.934" x2="47.8521" y2="124.985" gradientUnits="userSpaceOnUse">
<stop offset="0.0756841" stop-color="#B565D8"/>
<stop offset="0.945898" stop-color="#EE609C"/>
</linearGradient>
<linearGradient id="paint53_linear" x1="29.5289" y1="103.706" x2="34.1673" y2="110.46" gradientUnits="userSpaceOnUse">
<stop offset="0.0756841" stop-color="#B565D8"/>
<stop offset="0.945898" stop-color="#EE609C"/>
</linearGradient>
<linearGradient id="paint54_linear" x1="45.1063" y1="125.524" x2="50.7856" y2="127.145" gradientUnits="userSpaceOnUse">
<stop offset="0.0756841" stop-color="#B565D8"/>
<stop offset="0.945898" stop-color="#EE609C"/>
</linearGradient>
<linearGradient id="paint55_linear" x1="39.0285" y1="120.237" x2="45.0117" y2="122.597" gradientUnits="userSpaceOnUse">
<stop offset="0.0756841" stop-color="#B565D8"/>
<stop offset="0.945898" stop-color="#EE609C"/>
</linearGradient>
<linearGradient id="paint56_linear" x1="31.5932" y1="106.917" x2="36.219" y2="113.681" gradientUnits="userSpaceOnUse">
<stop offset="0.0756841" stop-color="#B565D8"/>
<stop offset="0.945898" stop-color="#EE609C"/>
</linearGradient>
<linearGradient id="paint57_linear" x1="27.6489" y1="100.39" x2="32.3018" y2="107.132" gradientUnits="userSpaceOnUse">
<stop offset="0.0756841" stop-color="#B565D8"/>
<stop offset="0.945898" stop-color="#EE609C"/>
</linearGradient>
<linearGradient id="paint58_linear" x1="55.6573" y1="132.617" x2="59.1427" y2="132.317" gradientUnits="userSpaceOnUse">
<stop offset="0.0756841" stop-color="#B565D8"/>
<stop offset="0.945898" stop-color="#EE609C"/>
</linearGradient>
<linearGradient id="paint59_linear" x1="59.5889" y1="134.74" x2="61.2455" y2="134.203" gradientUnits="userSpaceOnUse">
<stop offset="0.0756841" stop-color="#B565D8"/>
<stop offset="0.945898" stop-color="#EE609C"/>
</linearGradient>
<linearGradient id="paint60_linear" x1="51.9395" y1="130.369" x2="56.5927" y2="130.738" gradientUnits="userSpaceOnUse">
<stop offset="0.0756841" stop-color="#B565D8"/>
<stop offset="0.945898" stop-color="#EE609C"/>
</linearGradient>
<linearGradient id="paint61_linear" x1="115.113" y1="96.8479" x2="158.805" y2="136.925" gradientUnits="userSpaceOnUse">
<stop stop-color="#FF4F4F"/>
<stop offset="1" stop-color="#750000"/>
</linearGradient>
<linearGradient id="paint62_linear" x1="134.79" y1="76.8473" x2="96.4943" y2="58.0468" gradientUnits="userSpaceOnUse">
<stop stop-color="#FF4F4F"/>
<stop offset="1" stop-color="#C81B1B"/>
</linearGradient>
<linearGradient id="paint63_linear" x1="79430.2" y1="18153.2" x2="89023" y2="14845.9" gradientUnits="userSpaceOnUse">
<stop stop-color="white"/>
<stop offset="1" stop-color="#FE707C"/>
</linearGradient>
</defs>
</svg>
