<svg width="22" height="22" viewBox="0 0 22 22" fill="none" xmlns="http://www.w3.org/2000/svg">
<g opacity="0.5">
<path d="M20.7595 10.5437C19.8481 6.42345 18.4765 4.22431 16.442 3.6236C16.0143 3.49816 15.5707 3.43548 15.125 3.43755C14.5359 3.43755 14.0228 3.58106 13.4801 3.73317C12.8262 3.91665 12.0832 4.12505 11 4.12505C9.91674 4.12505 9.17338 3.91708 8.51811 3.7336C7.97499 3.58107 7.46237 3.43755 6.87499 3.43755C6.41411 3.43595 5.95526 3.49842 5.51159 3.62317C3.48776 4.2213 2.11706 6.41958 1.19237 10.5411C0.198073 14.9764 0.687487 17.7767 2.56479 18.4263C2.82212 18.517 3.09288 18.5638 3.36573 18.5647C4.65178 18.5647 5.68303 17.4935 6.38772 16.6165C7.18393 15.6239 8.11592 15.1203 11 15.1203C13.576 15.1203 14.642 15.4697 15.5628 16.6165C16.1416 17.3375 16.6886 17.842 17.2343 18.1595C17.9601 18.5815 18.6854 18.6751 19.3896 18.4332C20.4991 18.0547 21.135 17.0539 21.2803 15.4581C21.3907 14.2343 21.2205 12.6268 20.7595 10.5437ZM8.93749 10.3125H7.56249V11.6875C7.56249 11.8699 7.49005 12.0448 7.36112 12.1737C7.23219 12.3026 7.05732 12.375 6.87499 12.375C6.69265 12.375 6.51778 12.3026 6.38885 12.1737C6.25992 12.0448 6.18749 11.8699 6.18749 11.6875V10.3125H4.81249C4.63015 10.3125 4.45528 10.2401 4.32635 10.1112C4.19742 9.98225 4.12499 9.80739 4.12499 9.62505C4.12499 9.44271 4.19742 9.26784 4.32635 9.13891C4.45528 9.00998 4.63015 8.93755 4.81249 8.93755H6.18749V7.56255C6.18749 7.38021 6.25992 7.20534 6.38885 7.07641C6.51778 6.94748 6.69265 6.87505 6.87499 6.87505C7.05732 6.87505 7.23219 6.94748 7.36112 7.07641C7.49005 7.20534 7.56249 7.38021 7.56249 7.56255V8.93755H8.93749C9.11982 8.93755 9.29469 9.00998 9.42362 9.13891C9.55255 9.26784 9.62499 9.44271 9.62499 9.62505C9.62499 9.80739 9.55255 9.98225 9.42362 10.1112C9.29469 10.2401 9.11982 10.3125 8.93749 10.3125ZM12.5469 10.4844C12.3769 10.4844 12.2107 10.434 12.0694 10.3396C11.9281 10.2452 11.8179 10.1109 11.7529 9.95392C11.6879 9.79689 11.6708 9.6241 11.704 9.45739C11.7372 9.29069 11.819 9.13757 11.9392 9.01738C12.0594 8.89719 12.2125 8.81535 12.3792 8.78219C12.5459 8.74903 12.7187 8.76605 12.8757 8.83109C13.0328 8.89613 13.167 9.00628 13.2614 9.14761C13.3558 9.28893 13.4062 9.45508 13.4062 9.62505C13.4062 9.85297 13.3157 10.0716 13.1545 10.2327C12.9934 10.3939 12.7748 10.4844 12.5469 10.4844ZM14.4375 12.375C14.2674 12.375 14.1012 12.3246 13.9598 12.2301C13.8185 12.1355 13.7083 12.0012 13.6433 11.844C13.5783 11.6869 13.5615 11.514 13.5948 11.3472C13.6281 11.1805 13.7102 11.0273 13.8306 10.9072C13.951 10.7871 14.1043 10.7055 14.2712 10.6726C14.438 10.6396 14.6109 10.657 14.7678 10.7223C14.9248 10.7877 15.0589 10.8982 15.1531 11.0398C15.2472 11.1814 15.2973 11.3478 15.2969 11.5178C15.2963 11.7454 15.2055 11.9634 15.0444 12.1241C14.8833 12.2848 14.665 12.375 14.4375 12.375ZM14.4375 8.5938C14.2675 8.5938 14.1014 8.5434 13.96 8.44897C13.8187 8.35454 13.7086 8.22032 13.6435 8.06329C13.5785 7.90626 13.5615 7.73347 13.5946 7.56677C13.6278 7.40007 13.7096 7.24694 13.8298 7.12675C13.95 7.00657 14.1031 6.92472 14.2698 6.89156C14.4365 6.8584 14.6093 6.87542 14.7664 6.94047C14.9234 7.00551 15.0576 7.11566 15.152 7.25698C15.2465 7.3983 15.2969 7.56446 15.2969 7.73442C15.2969 7.96235 15.2063 8.18093 15.0452 8.34209C14.884 8.50326 14.6654 8.5938 14.4375 8.5938ZM16.3281 10.4844C16.1581 10.4844 15.992 10.434 15.8507 10.3396C15.7093 10.2452 15.5992 10.1109 15.5342 9.95392C15.4691 9.79689 15.4521 9.6241 15.4852 9.45739C15.5184 9.29069 15.6003 9.13757 15.7204 9.01738C15.8406 8.89719 15.9938 8.81535 16.1605 8.78219C16.3272 8.74903 16.4999 8.76605 16.657 8.83109C16.814 8.89613 16.9482 9.00628 17.0427 9.14761C17.1371 9.28893 17.1875 9.45508 17.1875 9.62505C17.1875 9.85297 17.0969 10.0716 16.9358 10.2327C16.7746 10.3939 16.556 10.4844 16.3281 10.4844Z" fill="white"/>
</g>
</svg>
