<svg width="107" height="305" viewBox="0 0 107 305" fill="none" xmlns="http://www.w3.org/2000/svg">
<path d="M93.0948 57.0126L101.632 52.9967C102.21 52.7244 102.188 51.7544 101.582 50.829L69.836 2.19917C69.2329 1.27371 68.2741 0.74289 67.696 1.01525L59.1584 5.03114C58.5804 5.3035 58.6026 6.27342 59.2085 7.19889L90.9548 55.8287C91.5607 56.7541 92.5167 57.285 93.0948 57.0126Z" fill="url(#paint0_linear)"/>
<path d="M60.0034 6.89887L69.0079 2.66064L76.1504 13.5994L67.1431 17.8377L60.0034 6.89887Z" fill="url(#paint1_linear)"/>
<path d="M68.1939 19.4438L77.1984 15.2056L84.3408 26.1444L75.3335 30.3798L68.1939 19.4438Z" fill="url(#paint2_linear)"/>
<path d="M76.3531 31.9417L85.3575 27.7063L92.5 38.6423L83.4927 42.8805L76.3531 31.9417Z" fill="url(#paint3_linear)"/>
<path d="M84.5406 44.487L93.5478 40.2488L100.688 51.1876L91.683 55.423L84.5406 44.487Z" fill="url(#paint4_linear)"/>
<path d="M92.594 57.0515L103.936 58.669C104.703 58.7774 105.053 58.0909 104.72 57.1321L87.2191 6.78202C86.8856 5.82321 85.9935 4.95889 85.2292 4.84772L73.8875 3.23025C73.1204 3.12186 72.7702 3.80832 73.1037 4.76713L90.6041 55.1172C90.9376 56.076 91.8298 56.9404 92.594 57.0515Z" fill="url(#paint5_linear)"/>
<path d="M74.1317 4.96997L86.0932 6.6736L90.0312 17.9987L78.067 16.2951L74.1317 4.96997Z" fill="url(#paint6_linear)"/>
<path d="M78.6453 17.957L90.6096 19.6607L94.5449 30.9857L82.5834 29.2821L78.6453 17.957Z" fill="url(#paint7_linear)"/>
<path d="M83.1452 30.897L95.1067 32.6034L99.042 43.9285L87.0805 42.2248L83.1452 30.897Z" fill="url(#paint8_linear)"/>
<path d="M87.658 43.8867L99.6195 45.5903L103.558 56.9154L91.5933 55.2118L87.658 43.8867Z" fill="url(#paint9_linear)"/>
<path d="M92.072 56.9041L104.439 64.0466C105.276 64.5302 105.951 64.2439 105.951 63.4074V19.5216C105.951 18.6851 105.273 17.6179 104.439 17.1343L92.072 9.99465C91.2355 9.51107 90.5602 9.79733 90.5602 10.6339V54.5196C90.5574 55.3534 91.2355 56.4233 92.072 56.9041Z" fill="url(#paint10_linear)"/>
<path d="M91.6576 11.3176L104.7 18.8492V28.7208L91.6576 21.1892V11.3176Z" fill="url(#paint11_linear)"/>
<path d="M91.6576 22.6399L104.7 30.1686V40.0402L91.6576 32.5087V22.6399Z" fill="url(#paint12_linear)"/>
<path d="M91.6576 33.9177L104.7 41.4493V51.3208L91.6576 43.7893V33.9177Z" fill="url(#paint13_linear)"/>
<path d="M91.6576 45.24L104.7 52.7715V62.6403L91.6576 55.1116V45.24Z" fill="url(#paint14_linear)"/>
<path d="M92.6944 57.2433L101.232 53.2274C101.81 52.9551 101.788 51.9851 101.182 51.0597L69.4356 2.42988C68.8325 1.50442 67.8737 0.973602 67.2956 1.24596L58.758 5.26185C58.18 5.53421 58.2022 6.50414 58.8081 7.4296L90.5544 56.0594C91.1603 56.9849 92.1163 57.5157 92.6944 57.2433Z" fill="url(#paint15_linear)"/>
<path d="M59.6031 7.12934L68.6103 2.89111L75.75 13.8299L66.7455 18.0681L59.6031 7.12934Z" fill="#F518A5"/>
<path d="M67.7935 19.6745L76.798 15.4363L83.9404 26.3751L74.9332 30.6105L67.7935 19.6745Z" fill="#D8089D"/>
<path d="M75.9527 32.1725L84.9599 27.937L92.0996 38.873L83.0923 43.1112L75.9527 32.1725Z" fill="#E02DD2"/>
<path d="M84.1431 44.7177L93.1476 40.4795L100.29 51.4183L91.2828 55.6537L84.1431 44.7177Z" fill="#B514BE"/>
<path d="M92.1966 57.2795L103.538 58.8969C104.305 59.0053 104.656 58.3189 104.322 57.3601L86.8217 7.00995C86.4882 6.05114 85.596 5.18682 84.8318 5.07566L73.49 3.46096C72.723 3.35258 72.3728 4.03903 72.7063 4.99784L90.2039 55.3479C90.5374 56.3068 91.4295 57.1711 92.1966 57.2795Z" fill="url(#paint16_linear)"/>
<path d="M73.7322 5.20068L85.6965 6.90431L89.6318 18.2294L77.6703 16.5258L73.7322 5.20068Z" fill="#48CAFF"/>
<path d="M78.2477 18.1877L90.2092 19.8914L94.1445 31.2165L82.183 29.5128L78.2477 18.1877Z" fill="#3A80F8"/>
<path d="M82.7449 31.1274L94.7065 32.8338L98.6445 44.1589L86.6802 42.4525L82.7449 31.1274Z" fill="#2E54FF"/>
<path d="M87.2576 44.1174L99.2219 45.8211L103.157 57.1462L91.1957 55.4425L87.2576 44.1174Z" fill="#093CAF"/>
<path d="M91.6716 57.135L104.039 64.2746C104.875 64.7582 105.551 64.4719 105.551 63.6354V19.7496C105.551 18.9131 104.873 17.8459 104.039 17.3623L91.6716 10.2227C90.8351 9.7391 90.1598 10.0254 90.1598 10.8619V54.7477C90.1598 55.5842 90.8351 56.6542 91.6716 57.135Z" fill="url(#paint17_linear)"/>
<path d="M91.2573 11.5483L104.303 19.0799V28.9515L91.2573 21.4199V11.5483Z" fill="#4F7FFE"/>
<path d="M91.2573 22.8679L104.303 30.3995V40.271L91.2573 32.7395V22.8679Z" fill="#4A48F0"/>
<path d="M91.2573 34.1484L104.303 41.68V51.5516L91.2573 44.02V34.1484Z" fill="#422FC3"/>
<path d="M91.2573 45.4707L104.303 52.9995V62.871L91.2573 55.3423V45.4707Z" fill="#281E76"/>
<path d="M90.6819 53.447H93.3555V56.9738H90.6819V53.447Z" fill="#3CA3BA"/>
<path d="M90.549 53.9362C90.0932 54.3947 90.3322 55.373 91.0826 56.1178C91.833 56.8626 92.8112 57.0961 93.2698 56.6347C93.7256 56.1762 93.4866 55.1979 92.7362 54.4531C91.983 53.7083 91.0048 53.4748 90.549 53.9362Z" fill="#3CA3BA"/>
<path d="M90.557 53.9446C90.104 54.4004 90.3403 55.3731 91.0879 56.1151C91.8354 56.8571 92.8082 57.0878 93.2612 56.6292C93.7142 56.1735 93.4779 55.2008 92.7303 54.4587C91.9827 53.7167 91.01 53.486 90.557 53.9446Z" fill="#3DA4BA"/>
<path d="M90.5654 53.9528C90.1152 54.4058 90.3514 55.373 91.0907 56.1094C91.8327 56.8459 92.7999 57.0766 93.2501 56.6208C93.7003 56.1678 93.4641 55.2007 92.7248 54.4642C91.9828 53.7277 91.0157 53.497 90.5654 53.9528Z" fill="#3EA4BB"/>
<path d="M90.5744 53.9583C90.127 54.4086 90.3605 55.3702 91.0969 56.1011C91.8334 56.832 92.795 57.0599 93.2424 56.6097C93.6899 56.1594 93.4564 55.1978 92.72 54.4669C91.9835 53.736 91.0219 53.5081 90.5744 53.9583Z" fill="#3FA5BB"/>
<path d="M90.5823 53.9667C90.1376 54.4142 90.3711 55.3674 91.102 56.0956C91.8357 56.8237 92.789 57.0488 93.2364 56.6014C93.6811 56.1539 93.4476 55.2007 92.7167 54.4726C91.983 53.7444 91.027 53.5193 90.5823 53.9667Z" fill="#40A5BC"/>
<path d="M90.5903 53.9752C90.1484 54.4199 90.3791 55.3676 91.1073 56.093C91.8354 56.8155 92.7859 57.0406 93.2278 56.596C93.6696 56.1513 93.439 55.2036 92.7108 54.4783C91.9799 53.7557 91.0322 53.5306 90.5903 53.9752Z" fill="#41A6BC"/>
<path d="M90.5993 53.9834C90.1602 54.4253 90.3881 55.3674 91.1135 56.0872C91.8361 56.807 92.781 57.0294 93.2201 56.5875C93.6592 56.1456 93.4313 55.2034 92.7059 54.4836C91.9806 53.7638 91.0384 53.5415 90.5993 53.9834Z" fill="#42A6BD"/>
<path d="M90.607 53.9917C90.1707 54.4308 90.3986 55.3674 91.1184 56.0817C91.8382 56.7959 92.7748 57.0182 93.2111 56.5764C93.6474 56.1372 93.4196 55.2007 92.6997 54.4864C91.9799 53.775 91.0434 53.5526 90.607 53.9917Z" fill="#43A7BD"/>
<path d="M91.1202 56.0767C90.4058 55.3671 90.1791 54.4371 90.614 53.9993C91.0488 53.5615 91.9804 53.7818 92.6948 54.4914C93.4092 55.2009 93.6358 56.131 93.201 56.5688C92.7662 57.0066 91.8345 56.7863 91.1202 56.0767Z" fill="#44A7BD"/>
<path d="M90.6217 54.0084C90.1909 54.4419 90.416 55.3674 91.1247 56.0705C91.8334 56.7764 92.7589 56.996 93.1924 56.5596C93.6232 56.1261 93.3981 55.2006 92.6894 54.4975C91.9807 53.7944 91.0552 53.5748 90.6217 54.0084Z" fill="#45A8BE"/>
<path d="M90.6297 54.0168C90.2017 54.4476 90.4241 55.3675 91.13 56.0678C91.8359 56.7682 92.7558 56.9849 93.1838 56.5542C93.6118 56.1234 93.3894 55.2035 92.6835 54.5031C91.9776 53.8028 91.0605 53.586 90.6297 54.0168Z" fill="#46A9BE"/>
<path d="M90.6384 54.0253C90.2132 54.4533 90.4355 55.3648 91.1359 56.0624C91.8362 56.7572 92.7506 56.974 93.1758 56.546C93.601 56.118 93.3786 55.2064 92.6783 54.5088C91.978 53.814 91.0664 53.5973 90.6384 54.0253Z" fill="#47A9BF"/>
<path d="M90.6464 54.0334C90.224 54.4586 90.4435 55.3646 91.1411 56.0567C91.8359 56.7487 92.7447 56.9627 93.1671 56.5375C93.5896 56.1122 93.37 55.2062 92.6724 54.5142C91.9776 53.8222 91.0716 53.6082 90.6464 54.0334Z" fill="#48AABF"/>
<path d="M90.6551 54.0419C90.2354 54.4643 90.455 55.3648 91.147 56.0512C91.839 56.7377 92.7395 56.9517 93.1591 56.5293C93.5788 56.1068 93.3592 55.2064 92.6672 54.5199C91.978 53.8335 91.0775 53.6195 90.6551 54.0419Z" fill="#49AABF"/>
<path d="M90.663 54.0501C90.2461 54.4697 90.4629 55.3646 91.1494 56.0455C91.8358 56.7264 92.7307 56.9404 93.1504 56.5207C93.5672 56.1011 93.3505 55.2062 92.664 54.5253C91.9776 53.8416 91.0827 53.6304 90.663 54.0501Z" fill="#4AABC0"/>
<path d="M90.6717 54.0584C90.2576 54.4753 90.4744 55.3646 91.1553 56.0427C91.8389 56.7209 92.7283 56.9321 93.1424 56.5124C93.5565 56.0955 93.3397 55.2062 92.6588 54.5281C91.9779 53.8528 91.0886 53.6415 90.6717 54.0584Z" fill="#4BABC0"/>
<path d="M90.6797 54.0668C90.2684 54.4809 90.4824 55.3647 91.1605 56.0372C91.8386 56.7098 92.7224 56.921 93.1337 56.5041C93.545 56.09 93.331 55.2063 92.6529 54.5337C91.9776 53.8612 91.0938 53.6527 90.6797 54.0668Z" fill="#4CACC1"/>
<path d="M90.6884 54.0751C90.2799 54.4864 90.4939 55.3618 91.1664 56.0316C91.839 56.7014 92.7172 56.907 93.1257 56.4957C93.5343 56.0844 93.3203 55.209 92.6477 54.5392C91.9752 53.8722 91.0997 53.6637 90.6884 54.0751Z" fill="#4DACC1"/>
<path d="M90.6964 54.0835C90.2907 54.492 90.5019 55.3619 91.1717 56.0261C91.8414 56.6903 92.7113 56.896 93.1171 56.4874C93.5228 56.0789 93.3116 55.209 92.6418 54.5448C91.9748 53.8806 91.105 53.6749 90.6964 54.0835Z" fill="#4EADC2"/>
<path d="M90.7043 54.0919C90.3013 54.4976 90.5125 55.3619 91.1767 56.0206C91.841 56.6793 92.7053 56.8849 93.111 56.4792C93.514 56.0734 93.3028 55.2091 92.6386 54.5504C91.9744 53.889 91.11 53.6861 90.7043 54.0919Z" fill="#4FAEC2"/>
<path d="M90.713 54.1001C90.3128 54.5031 90.5213 55.3618 91.1799 56.0177C91.8386 56.6736 92.7001 56.8765 93.1003 56.4735C93.5005 56.0705 93.2921 55.2118 92.6334 54.5559C91.9748 53.9 91.116 53.6971 90.713 54.1001Z" fill="#50AEC2"/>
<path d="M90.7217 54.1085C90.3243 54.5087 90.5327 55.3619 91.1858 56.0122C91.8417 56.6626 92.6949 56.8654 93.0923 56.4652C93.4898 56.065 93.2813 55.2118 92.6282 54.5615C91.9751 53.9084 91.1219 53.7083 90.7217 54.1085Z" fill="#51AFC3"/>
<path d="M90.7297 54.1169C90.3351 54.5143 90.5408 55.3619 91.1911 56.0067C91.8414 56.6515 92.689 56.8543 93.0837 56.4541C93.4783 56.0567 93.2727 55.2091 92.6223 54.5643C91.9748 53.9195 91.1272 53.7194 90.7297 54.1169Z" fill="#52AFC3"/>
<path d="M90.7384 54.1253C90.3465 54.5199 90.5522 55.362 91.197 56.0012C91.8417 56.6432 92.6838 56.8433 93.0757 56.4459C93.4675 56.0512 93.2619 55.2091 92.6171 54.5699C91.9724 53.9279 91.1331 53.7306 90.7384 54.1253Z" fill="#53B0C4"/>
<path d="M90.7466 54.1337C90.3575 54.5255 90.5604 55.3593 91.2024 55.9985C91.8444 56.6349 92.6781 56.8323 93.07 56.4404C93.4591 56.0485 93.2562 55.2148 92.6142 54.5756C91.9722 53.9364 91.1357 53.739 90.7466 54.1337Z" fill="#54B0C4"/>
<path d="M91.2069 55.9893C90.5698 55.3565 90.3673 54.5275 90.7545 54.1376C91.1418 53.7478 91.9721 53.9447 92.6092 54.5774C93.2462 55.2102 93.4488 56.0392 93.0616 56.4291C92.6743 56.8189 91.844 56.622 91.2069 55.9893Z" fill="#55B1C4"/>
<path d="M90.763 54.1502C90.3795 54.5365 90.5796 55.3591 91.2105 55.9872C91.8414 56.6153 92.6668 56.8098 93.0503 56.4235C93.4338 56.0372 93.2337 55.2146 92.6028 54.5865C91.972 53.9584 91.1466 53.7611 90.763 54.1502Z" fill="#56B2C5"/>
<path d="M90.7717 54.1586C90.391 54.5421 90.5911 55.3592 91.2164 55.9817C91.8445 56.6042 92.6615 56.7988 93.0423 56.4152C93.423 56.0317 93.2229 55.2146 92.5976 54.5921C91.9723 53.9668 91.1525 53.7723 90.7717 54.1586Z" fill="#57B2C5"/>
<path d="M90.7797 54.1668C90.4018 54.5475 90.5991 55.3591 91.2216 55.976C91.8442 56.5958 92.6557 56.7875 93.0336 56.4068C93.4116 56.0261 93.2143 55.2145 92.5918 54.5976C91.972 53.9778 91.1577 53.7833 90.7797 54.1668Z" fill="#58B3C6"/>
<path d="M91.2279 55.9687C90.6093 55.3543 90.4121 54.5499 90.7875 54.172C91.1628 53.7942 91.9685 53.9859 92.587 54.6002C93.2056 55.2146 93.4028 56.019 93.0274 56.3969C92.6521 56.7748 91.8464 56.583 91.2279 55.9687Z" fill="#59B3C6"/>
<path d="M90.7966 54.1807C90.4242 54.5559 90.6187 55.3535 91.2329 55.9649C91.8471 56.5735 92.6475 56.7653 93.0199 56.3873C93.3923 56.0122 93.1978 55.2145 92.5836 54.6031C91.9694 53.9973 91.169 53.8055 90.7966 54.1807Z" fill="#5AB4C7"/>
<path d="M90.8046 54.1891C90.435 54.5615 90.6268 55.3536 91.2382 55.9594C91.8468 56.5653 92.6417 56.7515 93.0113 56.3791C93.3809 56.0067 93.1892 55.2146 92.5777 54.6087C91.9691 54.0057 91.1743 53.8167 90.8046 54.1891Z" fill="#5BB4C7"/>
<path d="M90.813 54.1975C90.4462 54.5671 90.638 55.3536 91.241 55.9539C91.8469 56.5542 92.6334 56.7404 93.0002 56.3708C93.3671 56.0012 93.1753 55.2147 92.5723 54.6144C91.9692 54.0141 91.1799 53.8279 90.813 54.1975Z" fill="#5CB5C7"/>
<path d="M90.8211 54.2057C90.457 54.5726 90.646 55.3535 91.2463 55.9483C91.8466 56.543 92.6275 56.7292 92.9916 56.3624C93.3557 55.9955 93.1667 55.2146 92.5664 54.6198C91.9689 54.0251 91.1851 53.8389 90.8211 54.2057Z" fill="#5DB5C8"/>
<path d="M90.8299 54.2141C90.4686 54.5782 90.6576 55.3536 91.2523 55.9456C91.8471 56.5375 92.6225 56.7209 92.9865 56.3569C93.3478 55.9928 93.1588 55.2174 92.5641 54.6255C91.9694 54.0335 91.1912 53.8501 90.8299 54.2141Z" fill="#5EB6C8"/>
<path d="M91.2578 55.938C90.6676 55.3517 90.4802 54.5834 90.8393 54.2218C91.1984 53.8603 91.968 54.0424 92.5582 54.6287C93.1485 55.2149 93.3358 55.9833 92.9767 56.3448C92.6176 56.7064 91.848 56.5242 91.2578 55.938Z" fill="#5FB7C9"/>
<path d="M90.8466 54.2308C90.4909 54.5893 90.6771 55.3536 91.2635 55.9344C91.8499 56.5152 92.6142 56.6987 92.9699 56.3402C93.3256 55.9816 93.1394 55.2174 92.553 54.6365C91.9666 54.0529 91.2023 53.8723 90.8466 54.2308Z" fill="#60B7C9"/>
<path d="M90.8546 54.2391C90.5017 54.5949 90.6851 55.3508 91.2687 55.9289C91.8496 56.5069 92.6083 56.6848 92.9613 56.3291C93.3142 55.9733 93.1308 55.2174 92.5472 54.6393C91.9663 54.064 91.2076 53.8834 90.8546 54.2391Z" fill="#61B8C9"/>
<path d="M90.8631 54.2475C90.5129 54.6005 90.6963 55.3509 91.2716 55.9234C91.8497 56.4959 92.6 56.6737 92.9502 56.3208C93.3004 55.9678 93.117 55.2175 92.5417 54.645C91.9664 54.0724 91.2132 53.8946 90.8631 54.2475Z" fill="#62B8CA"/>
<path d="M90.871 54.2558C90.5236 54.6059 90.7042 55.3508 91.2767 55.9205C91.8492 56.4902 92.5941 56.6653 92.9442 56.3151C93.2944 55.9649 93.111 55.2201 92.5385 54.6504C91.966 54.0835 91.2184 53.9056 90.871 54.2558Z" fill="#63B9CA"/>
<path d="M90.8799 54.2642C90.5353 54.6116 90.7159 55.3508 91.2829 55.915C91.8498 56.4792 92.5919 56.6543 92.9365 56.3069C93.2811 55.9595 93.1005 55.2202 92.5335 54.656C91.9666 54.0919 91.2245 53.9168 90.8799 54.2642Z" fill="#64B9CB"/>
<path d="M90.888 54.2724C90.5461 54.617 90.724 55.3507 91.2882 55.9093C91.8523 56.4679 92.586 56.643 92.9279 56.2984C93.2697 55.9538 93.0918 55.2201 92.5277 54.6615C91.9635 54.1029 91.2298 53.9278 90.888 54.2724Z" fill="#65BACB"/>
<path d="M90.8966 54.2808C90.5576 54.6226 90.7354 55.3508 91.294 55.9038C91.8527 56.4597 92.5808 56.632 92.9199 56.2901C93.2589 55.9483 93.081 55.2202 92.5224 54.6671C91.9638 54.1113 91.2357 53.939 90.8966 54.2808Z" fill="#66BACC"/>
<path d="M90.9047 54.289C90.5684 54.6281 90.7435 55.3507 91.2993 55.901C91.8551 56.4512 92.5749 56.6235 92.9112 56.2845C93.2475 55.9454 93.0724 55.2228 92.5166 54.6726C91.9635 54.1223 91.2409 53.95 90.9047 54.289Z" fill="#67BBCC"/>
<path d="M90.9132 54.2976C90.5797 54.6338 90.7548 55.3481 91.3023 55.8956C91.8526 56.4403 92.5668 56.6098 92.9031 56.2736C93.2366 55.9373 93.0615 55.223 92.514 54.6755C91.9637 54.1308 91.2467 53.9613 90.9132 54.2976Z" fill="#68BCCC"/>
<path d="M90.9213 54.3057C90.5905 54.6392 90.7628 55.3479 91.3076 55.8899C91.8523 56.4318 92.5637 56.5985 92.8945 56.265C93.2252 55.9315 93.0529 55.2229 92.5082 54.6809C91.9634 54.139 91.252 53.9722 90.9213 54.3057Z" fill="#69BCCD"/>
<path d="M90.9299 54.3142C90.602 54.6449 90.7743 55.3481 91.3135 55.8844C91.8526 56.4208 92.5585 56.5876 92.8865 56.2568C93.2144 55.9261 93.0421 55.223 92.5029 54.6866C91.9638 54.1502 91.2579 53.9835 90.9299 54.3142Z" fill="#6ABDCD"/>
<path d="M90.938 54.3226C90.6128 54.6506 90.7823 55.3481 91.3187 55.8789C91.8551 56.4098 92.5527 56.5765 92.8778 56.2486C93.203 55.9206 93.0334 55.2231 92.4971 54.6922C91.9607 54.1586 91.2631 53.9947 90.938 54.3226Z" fill="#6BBDCE"/>
<path d="M90.9468 54.3309C90.6244 54.656 90.7939 55.348 91.3248 55.8761C91.8556 56.4041 92.5476 56.5681 92.8727 56.2429C93.1951 55.9178 93.0256 55.2257 92.4948 54.6977C91.9612 54.1697 91.2692 54.0057 90.9468 54.3309Z" fill="#6CBECE"/>
<path d="M90.9548 54.3393C90.6352 54.6616 90.802 55.3481 91.33 55.8706C91.8553 56.3931 92.5445 56.557 92.8641 56.2346C93.1837 55.9123 93.017 55.2258 92.4889 54.7033C91.9609 54.1781 91.2744 54.0169 90.9548 54.3393Z" fill="#6DBECE"/>
<path d="M90.9632 54.3475C90.6464 54.6671 90.8132 55.3452 91.3329 55.8649C91.8553 56.3846 92.5362 56.5458 92.8531 56.2262C93.1699 55.9066 93.0031 55.2285 92.4834 54.7088C91.961 54.1891 91.2801 54.0279 90.9632 54.3475Z" fill="#6EBFCF"/>
<path d="M90.9713 54.3558C90.6572 54.6726 90.8212 55.3452 91.3381 55.8593C91.855 56.3734 92.5304 56.5319 92.8444 56.215C93.1585 55.8982 92.9945 55.2256 92.4776 54.7115C91.9607 54.1974 91.2853 54.0389 90.9713 54.3558Z" fill="#6FBFCF"/>
<path d="M90.9793 54.3642C90.668 54.6783 90.8292 55.3453 91.3434 55.8539C91.8575 56.3625 92.5245 56.5209 92.8358 56.2068C93.147 55.8928 92.9859 55.2258 92.4717 54.7172C91.9603 54.2086 91.2906 54.0502 90.9793 54.3642Z" fill="#70C0D0"/>
<path d="M90.9881 54.3727C90.6796 54.6839 90.8408 55.3454 91.3494 55.8512C91.858 56.357 92.5194 56.5126 92.8307 56.2013C93.1392 55.8901 92.978 55.2286 92.4694 54.7228C91.9581 54.217 91.2966 54.0614 90.9881 54.3727Z" fill="#71C1D0"/>
<path d="M90.9962 54.3809C90.6904 54.6894 90.8489 55.3453 91.3547 55.8455C91.8577 56.3458 92.5164 56.5014 92.8221 56.1929C93.1278 55.8844 92.9694 55.2285 92.4635 54.7283C91.9577 54.228 91.3019 54.0724 90.9962 54.3809Z" fill="#72C1D1"/>
<path d="M91.0046 54.3893C90.7016 54.695 90.8601 55.3453 91.3575 55.84C91.8578 56.3347 92.5081 56.4903 92.811 56.1846C93.114 55.8789 92.9555 55.2286 92.4581 54.7339C91.9578 54.2364 91.3075 54.0836 91.0046 54.3893Z" fill="#73C2D1"/>
<path d="M91.0136 54.3975C90.7134 54.7005 90.8691 55.3452 91.3638 55.8344C91.8584 56.3263 92.5032 56.4791 92.8034 56.1762C93.1035 55.8733 92.9479 55.2285 92.4532 54.7394C91.9585 54.2475 91.3137 54.0946 91.0136 54.3975Z" fill="#74C2D1"/>
<path d="M91.0213 54.4031C90.7239 54.7032 90.8795 55.3396 91.3687 55.826C91.8578 56.3124 92.497 56.4652 92.7944 56.1651C93.0918 55.8649 92.9361 55.2285 92.447 54.7421C91.9579 54.2558 91.3186 54.1057 91.0213 54.4031Z" fill="#75C3D2"/>
<path d="M91.3725 55.8213C90.8868 55.3389 90.7325 54.7068 91.0278 54.4095C91.3231 54.1122 91.9562 54.2623 92.4419 54.7447C92.9276 55.2271 93.0819 55.8592 92.7866 56.1565C92.4913 56.4538 91.8582 56.3037 91.3725 55.8213Z" fill="#76C3D2"/>
<path d="M91.0381 54.4198C90.7463 54.7144 90.8992 55.3397 91.38 55.8177C91.8608 56.2958 92.4889 56.4431 92.7807 56.1485C93.0725 55.8539 92.9196 55.2286 92.4388 54.7505C91.9553 54.2753 91.3299 54.128 91.0381 54.4198Z" fill="#77C4D3"/>
<path d="M91.0462 54.4282C90.7571 54.7201 90.9072 55.3398 91.3852 55.8123C91.8605 56.2847 92.483 56.432 92.772 56.1402C93.0611 55.8484 92.911 55.2286 92.433 54.7562C91.955 54.2837 91.3352 54.1364 91.0462 54.4282Z" fill="#78C4D3"/>
<path d="M91.0546 54.4365C90.7683 54.7255 90.9184 55.3397 91.3881 55.8066C91.8605 56.2763 92.4747 56.4208 92.761 56.1318C93.0472 55.8427 92.8972 55.2285 92.4275 54.7616C91.955 54.2947 91.3408 54.1474 91.0546 54.4365Z" fill="#79C5D3"/>
<path d="M91.0636 54.4449C90.7801 54.7311 90.9274 55.3398 91.3943 55.8039C91.8612 56.268 92.4698 56.4125 92.7533 56.1263C93.0368 55.84 92.8895 55.2314 92.4226 54.7673C91.9557 54.3031 91.3471 54.1586 91.0636 54.4449Z" fill="#7AC6D4"/>
<path d="M91.0714 54.4531C90.7907 54.7366 90.938 55.3369 91.3994 55.7982C91.8607 56.2596 92.4638 56.4013 92.7473 56.1178C93.028 55.8344 92.8807 55.2341 92.4193 54.7727C91.9552 54.3142 91.3521 54.1696 91.0714 54.4531Z" fill="#7BC6D4"/>
<path d="M91.0795 54.4615C90.8016 54.7422 90.9461 55.337 91.4046 55.7927C91.8632 56.2485 92.4607 56.3903 92.7386 56.1096C93.0165 55.8289 92.872 55.2341 92.4135 54.7783C91.9549 54.3226 91.3574 54.1808 91.0795 54.4615Z" fill="#7CC7D5"/>
<path d="M91.4084 55.7888C90.9554 55.3388 90.8118 54.749 91.0876 54.4713C91.3634 54.1936 91.9542 54.3332 92.4073 54.7832C92.8603 55.2331 93.0039 55.823 92.7281 56.1007C92.4523 56.3784 91.8615 56.2388 91.4084 55.7888Z" fill="#7DC7D5"/>
<path d="M91.4144 55.7824C90.9657 55.3367 90.823 54.753 91.0956 54.4786C91.3681 54.2041 91.9528 54.3429 92.4015 54.7886C92.8501 55.2342 92.9929 55.8179 92.7203 56.0924C92.4478 56.3668 91.8631 56.228 91.4144 55.7824Z" fill="#7EC8D6"/>
<path d="M91.1046 54.4865C90.835 54.7589 90.9768 55.3369 91.4186 55.7788C91.8633 56.2207 92.4414 56.3569 92.7109 56.0845C92.9805 55.8122 92.8388 55.2341 92.3969 54.7922C91.9522 54.3531 91.3742 54.2142 91.1046 54.4865Z" fill="#7FC8D6"/>
<path d="M91.1128 54.4949C90.846 54.7645 90.9849 55.337 91.424 55.7733C91.8631 56.2097 92.4357 56.3458 92.7052 56.0763C92.972 55.8067 92.8331 55.2342 92.394 54.7978C91.9521 54.3615 91.3796 54.2253 91.1128 54.4949Z" fill="#80C9D6"/>
<path d="M91.1215 54.5032C90.8574 54.77 90.9964 55.3369 91.4299 55.7677C91.8663 56.1984 92.4332 56.3346 92.6972 56.0678C92.9613 55.801 92.8223 55.2341 92.3887 54.8033C91.9524 54.3725 91.3855 54.2364 91.1215 54.5032Z" fill="#81CAD7"/>
<path d="M91.1295 54.5116C90.8682 54.7756 91.0044 55.3342 91.4352 55.7622C91.866 56.1902 92.4273 56.3236 92.6886 56.0596C92.9498 55.7955 92.8137 55.2369 92.3829 54.8089C91.9521 54.3809 91.3907 54.2475 91.1295 54.5116Z" fill="#82CAD7"/>
<path d="M91.4394 55.7573C91.0136 55.3344 90.8779 54.7806 91.1364 54.5203C91.395 54.26 91.9497 54.3919 92.3755 54.8148C92.8013 55.2377 92.9369 55.7916 92.6784 56.0518C92.4199 56.3121 91.8652 56.1802 91.4394 55.7573Z" fill="#83CBD8"/>
<path d="M91.1433 54.5282C90.8876 54.7867 91.021 55.3342 91.4434 55.7538C91.8658 56.1735 92.4133 56.3013 92.669 56.0456C92.9247 55.7872 92.7913 55.2397 92.3689 54.82C91.9492 54.4004 91.4017 54.2697 91.1433 54.5282Z" fill="#84CBD8"/>
<path d="M91.1522 54.5365C90.8992 54.7922 91.0299 55.3341 91.4467 55.7482C91.8636 56.1623 92.4056 56.2901 92.6612 56.0345C92.9141 55.7788 92.7835 55.2368 92.3666 54.8227C91.9498 54.4086 91.4078 54.2808 91.1522 54.5365Z" fill="#85CCD8"/>
<path d="M91.1608 54.545C90.9107 54.7979 91.0413 55.3342 91.4526 55.7428C91.864 56.1513 92.4031 56.2792 92.6532 56.0263C92.9034 55.7734 92.7727 55.237 92.3614 54.8284C91.9501 54.4199 91.4137 54.2921 91.1608 54.545Z" fill="#86CCD9"/>
<path d="M91.1689 54.5531C90.9215 54.8032 91.0494 55.3341 91.4579 55.737C91.8664 56.1428 92.3972 56.2679 92.6446 56.0177C92.8919 55.7676 92.7641 55.2368 92.3556 54.8338C91.9498 54.4281 91.419 54.303 91.1689 54.5531Z" fill="#87CDD9"/>
<path d="M91.1775 54.5616C90.933 54.8089 91.0608 55.3314 91.4638 55.7316C91.8668 56.1318 92.392 56.2569 92.6366 56.0095C92.8812 55.7622 92.7533 55.2397 92.3503 54.8395C91.9501 54.4393 91.4249 54.3143 91.1775 54.5616Z" fill="#88CDDA"/>
<path d="M91.1856 54.5698C90.9438 54.8143 91.0688 55.3313 91.469 55.7287C91.8665 56.1233 92.3862 56.2484 92.628 56.0038C92.8697 55.7592 92.7447 55.2423 92.3445 54.8449C91.9471 54.4475 91.4301 54.3252 91.1856 54.5698Z" fill="#89CEDA"/>
<path d="M91.1934 54.5782C90.9544 54.82 91.0795 55.3314 91.4741 55.7233C91.8688 56.1151 92.3801 56.2374 92.6219 55.9956C92.8609 55.7538 92.7359 55.2425 92.3412 54.8506C91.9466 54.4587 91.4352 54.3365 91.1934 54.5782Z" fill="#8ACFDB"/>
<path d="M91.2022 54.5866C90.9659 54.8257 91.0882 55.3315 91.4773 55.7178C91.8664 56.1041 92.375 56.2236 92.6112 55.9873C92.8474 55.7483 92.7251 55.2425 92.3361 54.8562C91.947 54.4671 91.4384 54.3476 91.2022 54.5866Z" fill="#8BCFDB"/>
<path d="M91.2108 54.595C90.9774 54.8312 91.0997 55.3315 91.4832 55.7122C91.8667 56.093 92.3697 56.2125 92.6032 55.9762C92.8366 55.74 92.7144 55.2398 92.3308 54.859C91.9473 54.4783 91.4443 54.3588 91.2108 54.595Z" fill="#8CD0DB"/>
<path d="M91.2189 54.6032C90.9882 54.8366 91.1077 55.3313 91.4885 55.7093C91.8692 56.0872 92.3639 56.204 92.5946 55.9705C92.8252 55.7371 92.7057 55.2424 92.325 54.8644C91.947 54.4864 91.4495 54.3697 91.2189 54.6032Z" fill="#8DD0DC"/>
<path d="M91.2276 54.6116C90.9997 54.8423 91.1192 55.3314 91.4943 55.7039C91.8695 56.0763 92.3587 56.193 92.5866 55.9623C92.8144 55.7316 92.6949 55.2425 92.3198 54.8701C91.9474 54.4977 91.4554 54.381 91.2276 54.6116Z" fill="#8FD1DC"/>
<path d="M91.2357 54.6198C91.0106 54.8477 91.1273 55.3285 91.4997 55.6981C91.8694 56.0677 92.353 56.1817 92.5808 55.9538C92.806 55.7259 92.6892 55.2451 92.3168 54.8755C91.9444 54.5059 91.4608 54.3919 91.2357 54.6198Z" fill="#90D1DD"/>
<path d="M91.2434 54.6283C91.0211 54.8534 91.1378 55.3286 91.5047 55.6927C91.8715 56.0568 92.3495 56.1707 92.5719 55.9456C92.7942 55.7205 92.6775 55.2453 92.3106 54.8812C91.9438 54.5171 91.4658 54.4032 91.2434 54.6283Z" fill="#91D2DD"/>
<path d="M91.2522 54.6338C91.0326 54.8561 91.1466 55.3258 91.5079 55.6843C91.8691 56.0429 92.3416 56.1568 92.5612 55.9345C92.7807 55.7121 92.6668 55.2424 92.3055 54.8839C91.9442 54.5254 91.4717 54.4143 91.2522 54.6338Z" fill="#92D2DD"/>
<path d="M91.2609 54.6422C91.0441 54.8618 91.158 55.3259 91.5138 55.6816C91.8723 56.0374 92.3364 56.1457 92.5532 55.929C92.7699 55.7094 92.656 55.2453 92.3003 54.8896C91.9445 54.5338 91.4776 54.4254 91.2609 54.6422Z" fill="#93D3DE"/>
<path d="M91.2689 54.6505C91.0549 54.8672 91.1661 55.3258 91.519 55.676C91.872 56.0261 92.3305 56.1345 92.5445 55.9205C92.7585 55.7038 92.6473 55.2452 92.2944 54.895C91.9442 54.5448 91.4829 54.4365 91.2689 54.6505Z" fill="#94D4DE"/>
<path d="M91.2767 54.6587C91.0655 54.8727 91.1767 55.3257 91.5241 55.6703C91.8715 56.015 92.3245 56.1234 92.5385 55.9094C92.7497 55.6954 92.6385 55.2424 92.2911 54.8977C91.9437 54.5531 91.4879 54.4475 91.2767 54.6587Z" fill="#95D4DF"/>
<path d="M91.2857 54.6672C91.0773 54.8784 91.1857 55.3231 91.5303 55.6649C91.8749 56.0068 92.3224 56.1124 92.5308 55.9012C92.7392 55.6899 92.6309 55.2453 92.2862 54.9034C91.9416 54.5644 91.4942 54.4588 91.2857 54.6672Z" fill="#96D5DF"/>
<path d="M91.2934 54.6754C91.0878 54.8838 91.1962 55.3229 91.5352 55.6592C91.8743 55.9955 92.3162 56.1011 92.5218 55.8926C92.7275 55.6842 92.6191 55.2451 92.28 54.9088C91.941 54.5725 91.4991 54.4697 91.2934 54.6754Z" fill="#97D5E0"/>
<path d="M91.3022 54.6839C91.0993 54.8895 91.2049 55.3231 91.5384 55.6566C91.8719 55.9873 92.3082 56.0929 92.5111 55.8872C92.714 55.6816 92.6084 55.248 92.2749 54.9145C91.9414 54.5838 91.5051 54.481 91.3022 54.6839Z" fill="#98D6E0"/>
<path d="M91.3109 54.6923C91.1108 54.8951 91.2164 55.3231 91.5443 55.6511C91.875 55.979 92.303 56.0791 92.5031 55.879C92.7032 55.6761 92.5976 55.2481 92.2697 54.9201C91.9417 54.5922 91.511 54.4922 91.3109 54.6923Z" fill="#99D6E0"/>
<path d="M91.319 54.7005C91.1217 54.9006 91.2246 55.323 91.5497 55.6454C91.8749 55.9678 92.2973 56.0678 92.4974 55.8705C92.6947 55.6704 92.5919 55.248 92.2667 54.9256C91.9416 54.6032 91.5164 54.5032 91.319 54.7005Z" fill="#9AD7E1"/>
<path d="M91.3267 54.7089C91.1322 54.9062 91.235 55.3231 91.5546 55.6399C91.8742 55.9595 92.2939 56.0568 92.4884 55.8622C92.683 55.6649 92.5802 55.2481 92.2605 54.9312C91.9409 54.6116 91.5213 54.5144 91.3267 54.7089Z" fill="#9BD7E1"/>
<path d="M91.3358 54.7173C91.144 54.9118 91.244 55.3231 91.5609 55.6344C91.8777 55.9484 92.289 56.0457 92.4808 55.8512C92.6725 55.6566 92.5725 55.2453 92.2557 54.934C91.9388 54.6228 91.5275 54.5227 91.3358 54.7173Z" fill="#9CD8E2"/>
<path d="M91.3438 54.7254C91.1548 54.9172 91.2521 55.3202 91.5661 55.6314C91.8774 55.9399 92.2831 56.0372 92.4721 55.8454C92.6611 55.6537 92.5638 55.2507 92.2498 54.9394C91.9385 54.6309 91.5328 54.5337 91.3438 54.7254Z" fill="#9DD9E2"/>
<path d="M91.3522 54.7338C91.166 54.9228 91.2633 55.3202 91.569 55.6259C91.8747 55.9317 92.2749 56.0261 92.4611 55.8372C92.6473 55.6482 92.55 55.2508 92.2443 54.945C91.9386 54.6393 91.5384 54.5448 91.3522 54.7338Z" fill="#9ED9E2"/>
<path d="M91.3604 54.7423C91.177 54.9285 91.2714 55.3204 91.5744 55.6205C91.8773 55.9207 92.2719 56.0152 92.4554 55.829C92.6388 55.6428 92.5443 55.2509 92.2414 54.9507C91.9384 54.6506 91.5438 54.5561 91.3604 54.7423Z" fill="#9FDAE3"/>
<path d="M91.3691 54.7505C91.1884 54.9339 91.2829 55.3202 91.5803 55.6148C91.8776 55.9094 92.2667 56.0011 92.4474 55.8204C92.628 55.637 92.5335 55.2507 92.2362 54.9561C91.9388 54.6588 91.5497 54.567 91.3691 54.7505Z" fill="#A0DAE3"/>
<path d="M91.3771 54.7589C91.1992 54.9396 91.2909 55.3203 91.5855 55.6122C91.8773 55.904 92.2609 55.9929 92.4387 55.815C92.6166 55.6344 92.5249 55.2536 92.2303 54.9618C91.9357 54.67 91.5549 54.5783 91.3771 54.7589Z" fill="#A1DBE4"/>
<path d="M91.3858 54.7671C91.2107 54.945 91.3024 55.3202 91.5914 55.6064C91.8805 55.8927 92.2556 55.9816 92.4307 55.8065C92.6058 55.6287 92.5141 55.2535 92.2251 54.9672C91.936 54.6782 91.5608 54.5892 91.3858 54.7671Z" fill="#A2DBE4"/>
<path d="M91.594 55.6015C91.3098 55.3192 91.2196 54.9491 91.3927 54.7749C91.5658 54.6006 91.9365 54.6882 92.2207 54.9705C92.5049 55.2528 92.5951 55.6229 92.422 55.7972C92.2489 55.9714 91.8782 55.8838 91.594 55.6015Z" fill="#A3DCE5"/>
<path d="M91.6 55.5919C91.3201 55.3139 91.2309 54.95 91.4007 54.779C91.5705 54.608 91.935 54.6948 92.2149 54.9727C92.4948 55.2507 92.584 55.6147 92.4142 55.7857C92.2444 55.9566 91.8798 55.8699 91.6 55.5919Z" fill="#A4DDE5"/>
<path d="M91.4104 54.7921C91.2436 54.9616 91.3298 55.3174 91.6049 55.5897C91.8801 55.8621 92.2386 55.9482 92.4053 55.7787C92.5721 55.6092 92.4859 55.2534 92.2108 54.9811C91.9356 54.7087 91.5771 54.6226 91.4104 54.7921Z" fill="#A5DDE5"/>
<path d="M91.4191 54.8005C91.2551 54.9673 91.3412 55.3174 91.6108 55.587C91.8804 55.8566 92.2334 55.94 92.3973 55.7732C92.5613 55.6065 92.4751 55.2563 92.2056 54.9867C91.936 54.7171 91.583 54.6338 91.4191 54.8005Z" fill="#A6DEE6"/>
<path d="M91.4271 54.809C91.2659 54.9702 91.3493 55.3176 91.6161 55.5816C91.8829 55.8456 92.2275 55.9262 92.3887 55.765C92.5499 55.601 92.4665 55.2564 92.1997 54.9924C91.9357 54.7284 91.5883 54.645 91.4271 54.809Z" fill="#A7DEE6"/>
<path d="M91.4358 54.8171C91.2774 54.9756 91.3607 55.3174 91.622 55.5759C91.8832 55.8343 92.2223 55.9149 92.3807 55.7565C92.5391 55.5981 92.4557 55.2563 92.1945 54.9978C91.9332 54.7366 91.5942 54.656 91.4358 54.8171Z" fill="#A8DFE7"/>
<path d="M91.4437 54.8256C91.2881 54.9813 91.3687 55.3175 91.6243 55.5704C91.88 55.8261 92.2163 55.9039 92.3719 55.7483C92.5276 55.5927 92.447 55.2564 92.1913 55.0035C91.9328 54.7478 91.5993 54.6672 91.4437 54.8256Z" fill="#A9DFE7"/>
<path d="M91.4524 54.834C91.2995 54.9869 91.3801 55.3148 91.6302 55.565C91.8831 55.8151 92.2111 55.8929 92.3639 55.74C92.5168 55.5872 92.4362 55.2592 92.1861 55.0091C91.9332 54.7562 91.6052 54.6784 91.4524 54.834Z" fill="#AAE0E7"/>
<path d="M91.4604 54.8421C91.3103 54.9922 91.3881 55.3146 91.6355 55.5619C91.8828 55.8065 92.2052 55.8843 92.3553 55.7315C92.5054 55.5814 92.4275 55.259 92.1802 55.0117C91.9329 54.7671 91.6105 54.6893 91.4604 54.8421Z" fill="#ABE0E8"/>
<path d="M91.4691 54.8479C91.3218 54.9952 91.3996 55.312 91.6414 55.5538C91.8832 55.7956 92.2 55.8707 92.3473 55.7206C92.4946 55.5733 92.4168 55.2565 92.175 55.0147C91.9332 54.7757 91.6164 54.7006 91.4691 54.8479Z" fill="#ACE1E8"/>
<path d="M91.4771 54.8561C91.3326 55.0006 91.4076 55.3119 91.6466 55.5481C91.8856 55.7843 92.1941 55.8594 92.3387 55.7121C92.4832 55.5676 92.4081 55.2563 92.1691 55.0201C91.9329 54.7838 91.6216 54.7116 91.4771 54.8561Z" fill="#ADE2E9"/>
<path d="M91.4859 54.8646C91.3442 55.0063 91.4192 55.312 91.6527 55.5427C91.8861 55.7733 92.1918 55.8456 92.3336 55.7039C92.4753 55.5621 92.4003 55.2564 92.1668 55.0258C91.9306 54.7951 91.6277 54.7228 91.4859 54.8646Z" fill="#AEE2E9"/>
<path d="M91.4937 54.8727C91.3547 55.0117 91.427 55.3118 91.6549 55.5369C91.8828 55.7648 92.1829 55.8343 92.3219 55.6954C92.4609 55.5564 92.3886 55.2562 92.1607 55.0311C91.93 54.8032 91.6327 54.7338 91.4937 54.8727Z" fill="#AFE3EA"/>
<path d="M91.5024 54.8812C91.3662 55.0174 91.4385 55.3092 91.6608 55.5343C91.8859 55.7566 92.1777 55.8261 92.3139 55.6899C92.4501 55.5538 92.3778 55.2619 92.1555 55.0368C91.9304 54.8145 91.6386 54.745 91.5024 54.8812Z" fill="#B0E3EA"/>
<path d="M91.5104 54.8896C91.377 55.023 91.4465 55.3093 91.666 55.5288C91.8856 55.7484 92.1719 55.8151 92.3053 55.6817C92.4387 55.5483 92.3692 55.262 92.1496 55.0425C91.9301 54.8229 91.6438 54.7562 91.5104 54.8896Z" fill="#B1E4EA"/>
<path d="M91.5191 54.8977C91.3885 55.0283 91.4579 55.309 91.6719 55.523C91.8859 55.737 92.1666 55.8037 92.2973 55.6703C92.4279 55.5397 92.3584 55.259 92.1444 55.045C91.9304 54.8338 91.6497 54.7671 91.5191 54.8977Z" fill="#B2E4EB"/>
<path d="M91.5273 54.9061C91.3994 55.034 91.4661 55.3091 91.6773 55.5175C91.8886 55.726 92.1637 55.7927 92.2915 55.6621C92.4194 55.5342 92.3527 55.2591 92.1415 55.0506C91.9302 54.8422 91.6551 54.7783 91.5273 54.9061Z" fill="#B3E5EB"/>
<path d="M91.5353 54.9144C91.4102 55.0394 91.4742 55.309 91.6826 55.5146C91.8883 55.7203 92.1578 55.7842 92.2829 55.6564C92.408 55.5313 92.344 55.2617 92.1356 55.0561C91.9272 54.8532 91.6604 54.7893 91.5353 54.9144Z" fill="#B4E5EC"/>
<path d="M91.5437 54.9228C91.4214 55.045 91.4854 55.3091 91.6855 55.5092C91.8883 55.7093 92.1496 55.7704 92.2719 55.6481C92.3941 55.5258 92.3302 55.2618 92.1301 55.0617C91.93 54.8616 91.666 54.8005 91.5437 54.9228Z" fill="#B5E6EC"/>
<path d="M91.5517 54.9312C91.4322 55.0507 91.4934 55.3092 91.6907 55.5037C91.888 55.6983 92.1437 55.7594 92.2632 55.6399C92.3827 55.5204 92.3216 55.262 92.1243 55.0674C91.9269 54.8729 91.6712 54.8117 91.5517 54.9312Z" fill="#B6E7EC"/>
<path d="M91.5604 54.9394C91.4437 55.0561 91.5048 55.3062 91.6966 55.498C91.8884 55.6898 92.1385 55.7481 92.2552 55.6314C92.3719 55.5147 92.3108 55.2646 92.119 55.0728C91.9273 54.881 91.6771 54.8227 91.5604 54.9394Z" fill="#B7E7ED"/>
<path d="M91.5686 54.9479C91.4547 55.0618 91.513 55.3064 91.702 55.4926C91.891 55.6788 92.1356 55.7372 92.2495 55.6232C92.3634 55.5093 92.3051 55.2647 92.1161 55.0785C91.9271 54.8923 91.6825 54.8339 91.5686 54.9479Z" fill="#B8E8ED"/>
<path d="M91.5773 54.9562C91.4661 55.0673 91.5245 55.3063 91.7079 55.4898C91.8913 55.6704 92.1303 55.7288 92.2415 55.6148C92.3527 55.5037 92.2943 55.2646 92.1109 55.0812C91.9275 54.9006 91.6884 54.845 91.5773 54.9562Z" fill="#B9E8EE"/>
<path d="M91.5853 54.9646C91.4769 55.073 91.5325 55.3065 91.7132 55.4843C91.891 55.6622 92.1245 55.7178 92.2329 55.6066C92.3412 55.4982 92.2857 55.2648 92.105 55.0869C91.9244 54.9118 91.6937 54.8563 91.5853 54.9646Z" fill="#BAE9EE"/>
<path d="M91.5937 54.9728C91.4881 55.0784 91.5437 55.3063 91.716 55.4786C91.8911 55.6509 92.1162 55.7065 92.2218 55.5981C92.3274 55.4925 92.2718 55.2646 92.0995 55.0923C91.9244 54.92 91.6993 54.8672 91.5937 54.9728Z" fill="#BBE9EF"/>
<path d="M91.6019 54.9812C91.4991 55.084 91.5519 55.3064 91.7214 55.4731C91.8909 55.6426 92.1105 55.6927 92.2161 55.5898C92.3189 55.487 92.2661 55.2647 92.0966 55.0979C91.9243 54.9284 91.7047 54.8784 91.6019 54.9812Z" fill="#BCEAEF"/>
<path d="M91.6106 54.9894C91.5105 55.0895 91.5633 55.3063 91.7273 55.4675C91.8913 55.6314 92.1081 55.6815 92.2081 55.5814C92.3082 55.4814 92.2553 55.2646 92.0914 55.1034C91.9246 54.9394 91.7106 54.8894 91.6106 54.9894Z" fill="#BDEAEF"/>
<path d="M91.6186 54.9978C91.5213 55.0951 91.5714 55.3036 91.7326 55.4647C91.8937 55.6232 92.1022 55.6732 92.1995 55.5759C92.2967 55.4786 92.2467 55.2702 92.0855 55.109C91.9243 54.9478 91.7159 54.9006 91.6186 54.9978Z" fill="#BEEBF0"/>
<path d="M91.6273 55.0061C91.5328 55.1006 91.5828 55.3035 91.7385 55.4591C91.8941 55.6147 92.097 55.662 92.1915 55.5675C92.286 55.473 92.2359 55.2701 92.0803 55.1145C91.9247 54.9588 91.7218 54.9116 91.6273 55.0061Z" fill="#BFECF0"/>
<path d="M91.6324 55.0145C91.5407 55.1062 91.5879 55.3035 91.7408 55.4536C91.8909 55.6037 92.0882 55.6509 92.1799 55.5592C92.2716 55.4675 92.2244 55.2702 92.0715 55.1201C91.9214 54.9673 91.7269 54.92 91.6324 55.0145Z" fill="#C0ECF1"/>
<path d="M91.641 55.0228C91.552 55.1118 91.5993 55.3035 91.7438 55.4481C91.8911 55.5926 92.0801 55.6398 92.1718 55.5481C92.2607 55.4592 92.2135 55.2674 92.069 55.1229C91.9217 54.9784 91.7327 54.9311 91.641 55.0228Z" fill="#C1EDF1"/>
<path d="M91.65 55.0311C91.5638 55.1172 91.6083 55.3034 91.75 55.4424C91.8917 55.5841 92.078 55.6286 92.1641 55.5397C92.2503 55.4535 92.2058 55.2673 92.0641 55.1284C91.9223 54.9894 91.7389 54.9422 91.65 55.0311Z" fill="#C2EDF1"/>
<path d="M91.6577 55.0395C91.5743 55.1229 91.6188 55.3035 91.7549 55.4397C91.8911 55.5759 92.0718 55.6176 92.1551 55.5342C92.2385 55.4508 92.194 55.2702 92.0579 55.134C91.9217 54.9978 91.741 54.9533 91.6577 55.0395Z" fill="#C3EEF2"/>
<path d="M91.6667 55.0479C91.5861 55.1285 91.6278 55.3008 91.7612 55.4342C91.8946 55.5648 92.0669 55.6065 92.1475 55.5259C92.2281 55.4453 92.1864 55.273 92.053 55.1396C91.9224 55.0062 91.7473 54.9645 91.6667 55.0479Z" fill="#C4EEF2"/>
<path d="M91.6744 55.0561C91.5966 55.1339 91.6382 55.3007 91.7661 55.4285C91.8939 55.5564 92.0607 55.5953 92.1385 55.5175C92.2163 55.4397 92.1746 55.2729 92.0468 55.1451C91.9217 55.0172 91.7522 54.9755 91.6744 55.0561Z" fill="#C5EFF3"/>
<path d="M91.6826 55.0645C91.6075 55.1396 91.6464 55.3008 91.7715 55.4231C91.8938 55.5453 92.055 55.5842 92.1328 55.5092C92.2078 55.4342 92.1689 55.273 92.0439 55.1507C91.9188 55.0256 91.7576 54.9867 91.6826 55.0645Z" fill="#C6EFF3"/>
<path d="M91.691 55.073C91.6187 55.1453 91.6576 55.3009 91.7743 55.4204C91.8938 55.5399 92.0495 55.576 92.1217 55.5038C92.194 55.4315 92.1551 55.2759 92.0384 55.1564C91.9189 55.0369 91.7632 54.998 91.691 55.073Z" fill="#C7F0F4"/>
<path d="M91.7 55.0784C91.6305 55.1479 91.6666 55.298 91.7806 55.4119C91.8945 55.5259 92.0446 55.562 92.1141 55.4897C92.1836 55.4203 92.1474 55.2702 92.0335 55.1562C91.9195 55.0451 91.7695 55.0089 91.7 55.0784Z" fill="#C8F1F4"/>
<path d="M91.7077 55.0868C91.641 55.1535 91.6771 55.298 91.7855 55.4064C91.8967 55.5148 92.0384 55.5482 92.1051 55.4815C92.1718 55.4148 92.1357 55.2703 92.0273 55.1619C91.9189 55.0535 91.7744 55.0201 91.7077 55.0868Z" fill="#C9F1F4"/>
<path d="M91.7167 55.0951C91.6528 55.159 91.6861 55.2979 91.7917 55.4008C91.8973 55.5036 92.0335 55.537 92.0974 55.473C92.1614 55.4091 92.128 55.2701 92.0224 55.1673C91.9196 55.0645 91.7806 55.0311 91.7167 55.0951Z" fill="#CAF2F5"/>
<path d="M91.7246 55.1035C91.6635 55.1646 91.694 55.2952 91.7969 55.3953C91.8969 55.4953 92.0275 55.5259 92.0915 55.4648C92.1554 55.4036 92.122 55.273 92.0192 55.1729C91.9191 55.0729 91.7857 55.0423 91.7246 55.1035Z" fill="#CBF2F5"/>
<path d="M91.7326 55.1117C91.6742 55.1701 91.7048 55.2951 91.802 55.3924C91.8993 55.4869 92.0244 55.5175 92.0827 55.4591C92.1411 55.4007 92.1105 55.2757 92.0133 55.1784C91.916 55.0839 91.7909 55.0533 91.7326 55.1117Z" fill="#CCF3F6"/>
<path d="M91.7413 55.1201C91.6857 55.1757 91.7135 55.2952 91.8052 55.3869C91.8969 55.4786 92.0164 55.5064 92.072 55.4508C92.1276 55.3952 92.0998 55.2757 92.0081 55.184C91.9164 55.0923 91.7969 55.0645 91.7413 55.1201Z" fill="#CDF3F6"/>
<path d="M91.75 55.1286C91.6972 55.1814 91.725 55.2953 91.8111 55.3815C91.8973 55.4677 92.0112 55.4954 92.064 55.4426C92.1168 55.3898 92.089 55.2759 92.0029 55.1897C91.9167 55.1036 91.8028 55.0758 91.75 55.1286Z" fill="#CEF4F6"/>
<path d="M91.758 55.1369C91.708 55.1869 91.733 55.2953 91.8164 55.3759C91.8998 55.4565 92.0054 55.4843 92.0554 55.4315C92.1054 55.3814 92.0804 55.273 91.997 55.1925C91.9164 55.1119 91.808 55.0868 91.758 55.1369Z" fill="#CFF5F7"/>
<path d="M91.7659 55.1451C91.7186 55.1924 91.7436 55.2952 91.8215 55.3702C91.8993 55.448 92.0021 55.4703 92.0493 55.423C92.0966 55.3758 92.0716 55.2729 91.9938 55.1979C91.9159 55.1229 91.8131 55.0979 91.7659 55.1451Z" fill="#D0F5F7"/>
<path d="M91.7749 55.1535C91.7304 55.198 91.7526 55.2925 91.8277 55.3675C91.8999 55.4398 91.9972 55.462 92.0417 55.4175C92.0861 55.3731 92.0639 55.2786 91.9889 55.2035C91.9166 55.1313 91.8193 55.109 91.7749 55.1535Z" fill="#D1F6F8"/>
<path d="M91.7826 55.1619C91.7409 55.2036 91.7631 55.2925 91.8326 55.362C91.9021 55.4315 91.991 55.451 92.0327 55.4093C92.0744 55.3676 92.0522 55.2786 91.9827 55.2092C91.9132 55.1397 91.8243 55.1202 91.7826 55.1619Z" fill="#D2F6F8"/>
<path d="M91.7913 55.1701C91.7524 55.2091 91.7719 55.2924 91.8358 55.3564C91.8997 55.4203 91.9831 55.4397 92.022 55.4008C92.0609 55.3619 92.0414 55.2785 91.9775 55.2146C91.9136 55.1507 91.8302 55.1312 91.7913 55.1701Z" fill="#D3F7F9"/>
<path d="M91.8 55.1784C91.7639 55.2145 91.7833 55.2923 91.8417 55.3507C91.9 55.4091 91.9779 55.4285 92.014 55.3924C92.0501 55.3563 92.0307 55.2784 91.9723 55.2201C91.9139 55.1617 91.8361 55.1423 91.8 55.1784Z" fill="#D4F7F9"/>
<path d="M91.8082 55.1868C91.7748 55.2201 91.7915 55.2924 91.8471 55.3452C91.9027 55.4008 91.9749 55.4175 92.0083 55.3841C92.0416 55.3508 92.025 55.2785 91.9694 55.2257C91.9138 55.1701 91.8415 55.1534 91.8082 55.1868Z" fill="#D5F8F9"/>
<path d="M91.8159 55.1952C91.7853 55.2258 91.802 55.2925 91.852 55.3425C91.902 55.3925 91.9687 55.4092 91.9993 55.3786C92.0299 55.3481 92.0132 55.2814 91.9632 55.2313C91.9131 55.1785 91.8465 55.1646 91.8159 55.1952Z" fill="#D6F8FA"/>
<path d="M91.8249 55.2035C91.7971 55.2313 91.811 55.2925 91.8582 55.3369C91.9027 55.3814 91.9638 55.3953 91.9916 55.3675C92.0194 55.3397 92.0055 55.2786 91.9583 55.2341C91.9138 55.1897 91.8527 55.1758 91.8249 55.2035Z" fill="#D7F9FA"/>
<path d="M91.8326 55.2117C91.8076 55.2367 91.8215 55.2895 91.8632 55.3312C91.9048 55.3729 91.9576 55.384 91.9827 55.359C92.0077 55.334 91.9938 55.2812 91.9521 55.2395C91.9104 55.1978 91.8576 55.1867 91.8326 55.2117Z" fill="#D8FAFB"/>
<path d="M91.8413 55.2202C91.8191 55.2424 91.8302 55.2897 91.8663 55.3258C91.9025 55.3619 91.9497 55.373 91.972 55.3508C91.9942 55.3286 91.9831 55.2813 91.9469 55.2452C91.9108 55.2091 91.8636 55.198 91.8413 55.2202Z" fill="#D9FAFB"/>
<path d="M91.8502 55.2286C91.8307 55.2481 91.8418 55.2897 91.8724 55.3231C91.9057 55.3537 91.9474 55.3648 91.9669 55.3453C91.9863 55.3259 91.9752 55.2842 91.9447 55.2508C91.9113 55.2175 91.8696 55.2091 91.8502 55.2286Z" fill="#DAFBFB"/>
<path d="M91.8582 55.2368C91.8415 55.2535 91.8499 55.2896 91.8776 55.3174C91.9054 55.3452 91.9416 55.3536 91.9582 55.3369C91.9749 55.3202 91.9666 55.2841 91.9388 55.2563C91.911 55.2285 91.8749 55.2202 91.8582 55.2368Z" fill="#DBFBFC"/>
<path d="M91.8659 55.2452C91.852 55.2591 91.8603 55.2897 91.8826 55.3119C91.9048 55.3342 91.9354 55.3425 91.9493 55.3286C91.9632 55.3147 91.9548 55.2842 91.9326 55.2619C91.9104 55.2369 91.8798 55.2313 91.8659 55.2452Z" fill="#DCFCFC"/>
<path d="M91.8749 55.2536C91.8638 55.2647 91.8693 55.2897 91.8888 55.3064C91.9082 55.3259 91.9305 55.3314 91.9416 55.3203C91.9527 55.3092 91.9472 55.2842 91.9277 55.2675C91.9083 55.2508 91.886 55.2425 91.8749 55.2536Z" fill="#DDFCFD"/>
<path d="M91.8826 55.262C91.8742 55.2704 91.8798 55.287 91.8937 55.3009C91.9076 55.3148 91.9243 55.3176 91.9326 55.3093C91.9409 55.3009 91.9354 55.2842 91.9215 55.2704C91.9076 55.2565 91.8909 55.2537 91.8826 55.262Z" fill="#DEFDFD"/>
<path d="M91.8915 55.2702C91.8859 55.2758 91.8887 55.2869 91.897 55.298C91.9054 55.3063 91.9193 55.3091 91.9248 55.3036C91.9304 55.298 91.9276 55.2869 91.9193 55.2758C91.9082 55.2674 91.8971 55.2647 91.8915 55.2702Z" fill="#DFFDFE"/>
<path d="M91.8997 55.2785C91.8968 55.2813 91.8997 55.287 91.9025 55.2927C91.9082 55.2984 91.9139 55.2984 91.9168 55.2956C91.9196 55.2927 91.9168 55.287 91.9139 55.2813C91.9082 55.2756 91.9025 55.2756 91.8997 55.2785Z" fill="#E0FEFE"/>
<path d="M91.1497 54.8255C91.1497 54.4559 91.4498 54.328 91.8195 54.542C92.1891 54.756 92.4893 55.2285 92.4893 55.5981C92.4893 55.9677 92.1891 56.0956 91.8195 55.8816C91.4498 55.6676 91.1497 55.1951 91.1497 54.8255Z" fill="url(#paint18_linear)"/>
<path d="M9.99243 286.23C9.99243 286.23 8.86963 289.957 8.53613 291.341C8.33048 292.191 8.75569 294.487 9.11421 296.132C9.35321 297.232 10.1981 298.1 11.2931 298.364C13.2607 298.836 15.334 298.461 17.0098 297.33L32.3119 286.994C33.1234 286.446 33.3902 285.374 32.9289 284.509L32.5175 283.734C31.8644 282.511 30.4721 281.889 29.127 282.228C25.6669 283.103 19.2331 284.568 16.9542 283.979C13.7749 283.164 9.99243 286.23 9.99243 286.23Z" fill="url(#paint19_linear)"/>
<path d="M9.51691 275.146C9.51691 275.146 9.56137 286.091 9.98103 287.628C10.4007 289.162 15.3782 289.106 16.7122 285.813C17.8433 283.023 18.4658 273.924 18.4658 273.924L9.51691 275.146Z" fill="url(#paint20_linear)"/>
<path d="M29.4238 292.355C29.4238 292.355 27.8786 295.929 27.3895 297.263C27.0893 298.083 27.245 300.415 27.4117 302.09C27.5229 303.213 28.2594 304.172 29.3182 304.558C31.2164 305.256 33.3202 305.122 35.1183 304.191L51.5098 295.69C52.3797 295.24 52.766 294.206 52.4103 293.294L52.0907 292.477C51.5849 291.185 50.2731 290.41 48.8974 290.59C45.3596 291.063 38.8007 291.774 36.6052 290.926C33.537 289.745 29.4238 292.355 29.4238 292.355Z" fill="url(#paint21_linear)"/>
<path d="M28.4036 282.486C28.4036 282.486 28.4481 293.43 28.8678 294.967C29.2874 296.501 34.2649 296.446 35.6017 293.152C36.7328 290.362 37.3525 281.263 37.3525 281.263L28.4036 282.486Z" fill="url(#paint22_linear)"/>
<path d="M3.99449 165.603C3.99449 165.603 9.20265 208.558 7.40453 219.905C3.99449 241.416 8.20769 275.146 8.20769 275.146C12.0541 277.542 16.0866 277.525 19.2549 275.146C19.2549 275.146 24.2379 203.441 33.1562 188.228V164.094L21.2837 151.129L8.49674 148.878C4.60035 150.59 3.2719 161.409 3.99449 165.603Z" fill="url(#paint23_linear)"/>
<path d="M54.8867 160.62C54.8867 160.62 52.844 189.921 48.5891 219.383C44.5844 247.11 38.3813 274.832 37.4947 282.975C37.3613 284.193 36.7054 285.274 35.6883 285.955C34.3376 286.858 32.1587 287.717 29.1378 287.1C27.9928 286.866 27.1507 285.88 27.0312 284.715C26.1057 275.672 25.6221 234.434 25.6527 226.989C25.6833 218.579 18.4658 169.013 18.4658 169.013L20.8197 148.878L54.8867 160.62Z" fill="url(#paint24_linear)"/>
<path d="M36.6749 78.665C36.6749 78.665 46.2352 83.2896 50.1177 91.4075C53.9974 99.5254 54.8867 160.617 54.8867 160.617C54.8867 160.617 42.3555 167.665 35.138 163.974C27.9233 160.286 36.6749 78.665 36.6749 78.665Z" fill="url(#paint25_linear)"/>
<path d="M36.6749 78.6651C36.6749 78.6651 45.6266 82.7255 50.1177 97.4689C54.2559 111.054 45.6072 177.25 45.5154 171.85C45.5154 171.85 46.1574 182.703 39.6709 185.135C33.1871 187.567 13.6634 185.082 3.80576 177.787C3.80576 177.787 -0.774315 178.17 0.115017 153.672C1.00435 129.174 4.28376 84.5653 10.3646 79.296C16.4426 74.0239 22.9125 71.8062 36.6749 78.6651Z" fill="url(#paint26_linear)"/>
<path d="M39.6709 65.0638L38.2702 78.6705C38.1618 79.7266 37.3447 80.577 36.2998 80.7521C31.5196 81.5581 27.89 79.8989 25.7195 78.4037C24.2577 77.3977 23.6184 75.5634 24.0492 73.8431L26.556 63.8159L39.6709 65.0638Z" fill="url(#paint27_linear)"/>
<path d="M41.2962 39.8207C41.2962 39.8207 49.4641 55.1033 49.3474 59.9474C49.2307 64.7887 39.7648 70.3193 36.7161 69.9691C33.6673 69.6189 22.8925 63.5214 21.1166 59.7834C19.338 56.0482 30.5686 35.2768 41.2962 39.8207Z" fill="url(#paint28_linear)"/>
<path d="M16.6199 41.9772C15.2887 44.1589 16.1086 48.9807 13.0932 52.1656C10.9699 54.4056 14.3605 57.7573 20.1495 63.7186C25.9357 69.6827 30.4935 68.4432 33.4033 67.4538C36.3131 66.4644 35.4738 58.4215 35.685 54.0332C35.8962 49.6422 36.8467 46.5156 41.2795 43.7892C45.7122 41.0629 47.4825 34.6458 42.5468 34.0761C37.6082 33.5063 36.4381 36.0215 33.0142 36.3633C29.5875 36.7024 21.7336 33.5953 16.6199 41.9772Z" fill="url(#paint29_linear)"/>
<path d="M70.8113 92.9333C85.0406 87.9503 89.8541 70.9835 89.8541 70.9835C89.8541 70.9835 89.1232 65.2973 88.4284 62.9462C87.4835 59.7501 85.9994 56.1094 92.4776 58.5717C98.9559 61.0313 106.148 51.4626 106.148 51.4626C109.328 58.9052 100.393 64.9305 98.2416 67.1343C96.0906 69.3382 96.0433 75.6942 96.0433 75.6942C91.5883 93.5142 83.5009 103.35 74.5465 108.486C69.3522 101.185 70.1804 96.046 70.8113 92.9333Z" fill="url(#paint30_linear)"/>
<path d="M39.0903 86.1467C52.8527 94.84 63.1829 95.607 70.8145 92.9335C70.1808 96.0461 69.3554 101.185 74.5469 108.483C55.3568 119.488 32.1702 108.897 32.1702 108.897C25.6253 91.3743 39.0903 86.1467 39.0903 86.1467Z" fill="url(#paint31_linear)"/>
<defs>
<linearGradient id="paint0_linear" x1="84.5543" y1="75.2287" x2="90.7865" y2="62.3107" gradientUnits="userSpaceOnUse">
<stop stop-color="#C1FFFF"/>
<stop offset="1" stop-color="#56ABFF"/>
</linearGradient>
<linearGradient id="paint1_linear" x1="61.5248" y1="17.8091" x2="71.9078" y2="5.8287" gradientUnits="userSpaceOnUse">
<stop stop-color="#C1FFFF"/>
<stop offset="1" stop-color="#56ABFF"/>
</linearGradient>
<linearGradient id="paint2_linear" x1="72.4101" y1="27.2427" x2="82.7931" y2="15.2623" gradientUnits="userSpaceOnUse">
<stop stop-color="#C1FFFF"/>
<stop offset="1" stop-color="#56ABFF"/>
</linearGradient>
<linearGradient id="paint3_linear" x1="83.2556" y1="36.6426" x2="93.6387" y2="24.6621" gradientUnits="userSpaceOnUse">
<stop stop-color="#C1FFFF"/>
<stop offset="1" stop-color="#56ABFF"/>
</linearGradient>
<linearGradient id="paint4_linear" x1="94.1408" y1="46.0764" x2="104.524" y2="34.096" gradientUnits="userSpaceOnUse">
<stop stop-color="#C1FFFF"/>
<stop offset="1" stop-color="#56ABFF"/>
</linearGradient>
<linearGradient id="paint5_linear" x1="71.5531" y1="76.2746" x2="79.8056" y2="67.0119" gradientUnits="userSpaceOnUse">
<stop stop-color="#C1FFFF"/>
<stop offset="1" stop-color="#56ABFF"/>
</linearGradient>
<linearGradient id="paint6_linear" x1="70.133" y1="25.2703" x2="80.516" y2="13.2899" gradientUnits="userSpaceOnUse">
<stop stop-color="#C1FFFF"/>
<stop offset="1" stop-color="#56ABFF"/>
</linearGradient>
<linearGradient id="paint7_linear" x1="79.1391" y1="33.0756" x2="89.5223" y2="21.095" gradientUnits="userSpaceOnUse">
<stop stop-color="#C1FFFF"/>
<stop offset="1" stop-color="#56ABFF"/>
</linearGradient>
<linearGradient id="paint8_linear" x1="88.1131" y1="40.8527" x2="98.4962" y2="28.8723" gradientUnits="userSpaceOnUse">
<stop stop-color="#C1FFFF"/>
<stop offset="1" stop-color="#56ABFF"/>
</linearGradient>
<linearGradient id="paint9_linear" x1="97.1185" y1="48.6578" x2="107.502" y2="36.6773" gradientUnits="userSpaceOnUse">
<stop stop-color="#C1FFFF"/>
<stop offset="1" stop-color="#56ABFF"/>
</linearGradient>
<linearGradient id="paint10_linear" x1="67.5786" y1="54.7029" x2="77.3979" y2="47.9032" gradientUnits="userSpaceOnUse">
<stop stop-color="#C1FFFF"/>
<stop offset="1" stop-color="#56ABFF"/>
</linearGradient>
<linearGradient id="paint11_linear" x1="83.5503" y1="36.8983" x2="93.9334" y2="24.9179" gradientUnits="userSpaceOnUse">
<stop stop-color="#C1FFFF"/>
<stop offset="1" stop-color="#56ABFF"/>
</linearGradient>
<linearGradient id="paint12_linear" x1="89.1532" y1="41.7541" x2="99.5362" y2="29.7737" gradientUnits="userSpaceOnUse">
<stop stop-color="#C1FFFF"/>
<stop offset="1" stop-color="#56ABFF"/>
</linearGradient>
<linearGradient id="paint13_linear" x1="94.7358" y1="46.5925" x2="105.119" y2="34.612" gradientUnits="userSpaceOnUse">
<stop stop-color="#C1FFFF"/>
<stop offset="1" stop-color="#56ABFF"/>
</linearGradient>
<linearGradient id="paint14_linear" x1="100.339" y1="51.4482" x2="110.722" y2="39.4677" gradientUnits="userSpaceOnUse">
<stop stop-color="#C1FFFF"/>
<stop offset="1" stop-color="#56ABFF"/>
</linearGradient>
<linearGradient id="paint15_linear" x1="67.6468" y1="10.3288" x2="84.2902" y2="45.7062" gradientUnits="userSpaceOnUse">
<stop stop-color="#B8E7FF"/>
<stop offset="0.368" stop-color="#B5E5FF"/>
<stop offset="0.6008" stop-color="#ADE0FF"/>
<stop offset="0.7959" stop-color="#9ED6FF"/>
<stop offset="0.9694" stop-color="#89C8FF"/>
<stop offset="1" stop-color="#85C5FF"/>
</linearGradient>
<linearGradient id="paint16_linear" x1="83.1975" y1="15.8864" x2="75.899" y2="67.099" gradientUnits="userSpaceOnUse">
<stop stop-color="#B8E7FF"/>
<stop offset="1" stop-color="#85C5FF"/>
</linearGradient>
<linearGradient id="paint17_linear" x1="98.8012" y1="12.2467" x2="96.6713" y2="68.5549" gradientUnits="userSpaceOnUse">
<stop stop-color="#B8E7FF"/>
<stop offset="0.368" stop-color="#B5E5FF"/>
<stop offset="0.6008" stop-color="#ADE0FF"/>
<stop offset="0.7959" stop-color="#9ED6FF"/>
<stop offset="0.9694" stop-color="#89C8FF"/>
<stop offset="1" stop-color="#85C5FF"/>
</linearGradient>
<linearGradient id="paint18_linear" x1="91.3251" y1="55.5173" x2="92.9522" y2="54.5114" gradientUnits="userSpaceOnUse">
<stop stop-color="#3CA3BA"/>
<stop offset="1" stop-color="#0F0F4F"/>
</linearGradient>
<linearGradient id="paint19_linear" x1="21.0294" y1="271.434" x2="20.7672" y2="292.945" gradientUnits="userSpaceOnUse">
<stop stop-color="#2D1B84"/>
<stop offset="1" stop-color="#190F4A"/>
</linearGradient>
<linearGradient id="paint20_linear" x1="9.51622" y1="281.261" x2="18.4649" y2="281.261" gradientUnits="userSpaceOnUse">
<stop stop-color="#FBD860"/>
<stop offset="1" stop-color="#F79D53"/>
</linearGradient>
<linearGradient id="paint21_linear" x1="42.0936" y1="278.931" x2="39.3527" y2="300.267" gradientUnits="userSpaceOnUse">
<stop stop-color="#2D1B84"/>
<stop offset="1" stop-color="#190F4A"/>
</linearGradient>
<linearGradient id="paint22_linear" x1="28.4037" y1="288.599" x2="37.3519" y2="288.599" gradientUnits="userSpaceOnUse">
<stop stop-color="#FBD860"/>
<stop offset="1" stop-color="#F79D53"/>
</linearGradient>
<linearGradient id="paint23_linear" x1="-28.0996" y1="293.394" x2="42.7924" y2="154.204" gradientUnits="userSpaceOnUse">
<stop stop-color="#B514BE"/>
<stop offset="1" stop-color="#651879"/>
</linearGradient>
<linearGradient id="paint24_linear" x1="-29.4203" y1="327.865" x2="44.7318" y2="186.557" gradientUnits="userSpaceOnUse">
<stop stop-color="#B514BE"/>
<stop offset="1" stop-color="#651879"/>
</linearGradient>
<linearGradient id="paint25_linear" x1="-21.5987" y1="77.7894" x2="25.961" y2="113.541" gradientUnits="userSpaceOnUse">
<stop stop-color="#FDEF67"/>
<stop offset="0.538" stop-color="#F8AE52"/>
<stop offset="1" stop-color="#F67554"/>
</linearGradient>
<linearGradient id="paint26_linear" x1="36.7891" y1="142.967" x2="-38.3221" y2="75.072" gradientUnits="userSpaceOnUse">
<stop offset="0.00362319" stop-color="#48CAFF"/>
<stop offset="1" stop-color="#C3F3FF"/>
</linearGradient>
<linearGradient id="paint27_linear" x1="16.0772" y1="94.5151" x2="64.8704" y2="25.7845" gradientUnits="userSpaceOnUse">
<stop stop-color="#FBD860"/>
<stop offset="1" stop-color="#F79D53"/>
</linearGradient>
<linearGradient id="paint28_linear" x1="37.2108" y1="98.1174" x2="32.7195" y2="13.9484" gradientUnits="userSpaceOnUse">
<stop stop-color="#FBD860"/>
<stop offset="1" stop-color="#F79D53"/>
</linearGradient>
<linearGradient id="paint29_linear" x1="16.8837" y1="60.6648" x2="46.4602" y2="37.2007" gradientUnits="userSpaceOnUse">
<stop offset="0.00540541" stop-color="#860048"/>
<stop offset="1" stop-color="#370041"/>
</linearGradient>
<linearGradient id="paint30_linear" x1="106.826" y1="79.9746" x2="70.3428" y2="79.9746" gradientUnits="userSpaceOnUse">
<stop stop-color="#FBD860"/>
<stop offset="1" stop-color="#F79D53"/>
</linearGradient>
<linearGradient id="paint31_linear" x1="96.2614" y1="141.388" x2="21.1498" y2="73.4921" gradientUnits="userSpaceOnUse">
<stop offset="0.00362319" stop-color="#48CAFF"/>
<stop offset="1" stop-color="#C3F3FF"/>
</linearGradient>
</defs>
</svg>
