<svg width="119" height="300" viewBox="0 0 119 300" fill="none" xmlns="http://www.w3.org/2000/svg">
<path d="M110.627 97.0123C110.627 97.0123 97.7252 126.783 89.7876 122.813C81.85 118.843 75.8947 86.0956 75.8947 86.0956C75.8947 86.0956 100.704 80.1431 110.627 97.0123Z" fill="url(#paint0_linear)"/>
<path d="M65.7078 281.76C65.7078 281.76 64.6286 287.866 64.1004 293.91C63.893 296.273 65.7134 298.323 68.0848 298.422C76.1331 298.757 93.3487 299.411 99.5284 299.132C100.457 299.09 101.065 298.141 100.721 297.275C100.434 296.551 99.8777 295.966 99.1706 295.642L70.7316 282.573L65.7078 281.76Z" fill="url(#paint1_linear)"/>
<path d="M64.8246 278.174L65.6908 285.478C65.6908 285.478 70.672 287.798 74.0742 285.186L72.0124 277.046L64.8246 278.174Z" fill="url(#paint2_linear)"/>
<path d="M65.4775 140.872C65.1026 142.78 63.4697 236.044 73.4378 277.839C73.5997 278.52 73.2561 279.225 72.6057 279.489C71.0778 280.113 68.0789 281.019 64.4864 281.139C63.3731 281.176 62.3763 280.454 62.0639 279.386C59.2155 269.688 45.5583 221.106 43.7776 174.693C41.7869 122.833 43.7776 172.926 43.7776 172.926L44.9448 140.869L65.4775 140.872Z" fill="url(#paint3_linear)"/>
<path d="M32.9948 284.947C32.9948 284.947 31.2767 288.028 29.6153 296.219C29.3143 297.698 30.348 299.113 31.8503 299.26C34.5085 299.522 38.598 299.857 41.8781 299.834C43.389 299.823 44.5675 298.508 44.3858 297.008C44.0223 294.018 42.892 289.113 39.3989 285.291L32.9948 284.947Z" fill="url(#paint4_linear)"/>
<path d="M31.4868 275.553L33.5117 286.597C33.5117 286.597 35.5138 288.085 39.4727 287.006L38.5071 275.124L31.4868 275.553Z" fill="url(#paint5_linear)"/>
<path d="M26.0165 143.735C17.863 192.942 27.7857 265.354 31.1312 279.529C31.3356 280.398 32.0371 281.062 32.9146 281.207C34.4084 281.454 36.8678 281.656 39.2931 280.951C40.128 280.71 40.7159 279.955 40.75 279.086C41.1987 267.626 40.3922 197.284 47.9889 169.484C48.3752 168.076 49.2357 166.846 50.4256 166L65.1705 155.518L66.3008 138.572L26.0165 143.735Z" fill="url(#paint6_linear)"/>
<path d="M78.8701 52.3545C49.0992 49.3783 26.5757 56.9126 26.5757 56.9126C19.2913 99.4121 25.3035 148.432 25.3035 148.432C44.2202 153.393 65.5594 145.399 65.5594 145.399C68.7032 127.635 83.3714 77.6441 83.3714 77.6441C95.3104 76.1616 86.3703 53.1071 78.8701 52.3545Z" fill="url(#paint7_linear)"/>
<path d="M35.9482 80.572L26.5765 56.9126C26.5765 56.9126 3.75203 72.4214 0.000484467 92.0822C4.31149 92.4003 12.161 93.5221 19.8402 97.3986C21.53 88.1148 35.9482 80.572 35.9482 80.572Z" fill="url(#paint8_linear)"/>
<path d="M57.8778 102.837C57.8778 102.837 32.2532 117.318 23.6056 104.953C21.8107 102.385 21.3819 99.8323 21.8249 97.4013C14.143 93.522 6.29625 92.4002 1.98524 92.085C0.85495 98.0119 1.45133 104.317 4.93592 110.689C20.0812 138.396 61.2715 109.159 61.2715 109.159L57.8778 102.837Z" fill="url(#paint9_linear)"/>
<path d="M54.7993 121.157L68.7831 72.3189C68.9422 71.7651 69.4136 71.359 69.9872 71.2937C72.5205 70.9984 79.8645 70.1691 88.3417 69.4506C98.554 68.5873 110.411 67.8858 117.496 68.4822C118.505 68.5674 119.112 69.6324 118.664 70.5383C114.634 78.6917 98.0599 111.851 89.7588 122.716C89.4833 123.077 89.0573 123.287 88.6058 123.281L56.1568 122.98C55.2168 122.972 54.5409 122.066 54.7993 121.157Z" fill="url(#paint10_linear)"/>
<path d="M89.7933 65.2163L99.9318 63.5266C100.471 63.4357 100.914 63.9526 100.741 64.4723L99.7387 67.5138C99.6507 67.7779 99.4206 67.9711 99.1451 68.008L89.3872 69.3115C88.8817 69.3797 88.467 68.9196 88.5835 68.4254L89.2054 65.7701C89.2707 65.4804 89.5036 65.2646 89.7933 65.2163Z" fill="url(#paint11_linear)"/>
<path d="M82.2015 73.7985L83.0364 69.4478C83.1216 69.0104 83.4794 68.681 83.9224 68.6356L104.401 66.5567C105.091 66.4857 105.642 67.119 105.48 67.7921L104.18 73.2135C104.075 73.648 103.697 73.9604 103.251 73.9831L83.238 74.9913C82.5877 75.0254 82.0793 74.4404 82.2015 73.7985Z" fill="url(#paint12_linear)"/>
<path d="M58.1791 109.357C58.1791 109.357 56.2309 101.346 57.0176 98.506C57.8042 95.6632 59.3264 92.0111 64.4014 92.8205C69.4763 93.6327 75.4629 95.7712 75.4629 95.7712C75.4629 95.7712 75.1619 99.4744 71.3024 98.2788L73.6936 100.13C73.6936 100.13 73.3528 103.095 70.0926 101.511L72.3163 103.964C72.3163 103.964 70.9162 106.398 68.5193 104.836C66.1252 103.274 64.9779 110.323 58.1791 109.357Z" fill="url(#paint13_linear)"/>
<path d="M110.178 97.438C110.178 97.438 116.085 91.6872 116.928 88.8614C117.772 86.0357 118.422 82.1308 113.691 80.123C108.959 78.1152 102.751 76.7463 102.751 76.7463C102.751 76.7463 101.042 80.0435 104.944 81.0801L101.934 81.3783C101.934 81.3783 100.65 84.0705 104.251 84.4596L101.062 85.357C101.062 85.357 100.954 88.1628 103.814 88.1146C106.676 88.0634 103.904 94.6464 110.178 97.438Z" fill="url(#paint14_linear)"/>
<path d="M56.1995 32.509L48.4238 54.9927C48.296 55.3647 48.4493 55.7765 48.793 55.9696C50.9115 57.1425 58.5481 60.5277 67.7494 54.6945C68.7093 54.0868 69.3597 53.0956 69.5073 51.971L72.0264 32.5119H56.1995V32.509Z" fill="url(#paint15_linear)"/>
<path d="M73.1171 11.6868C73.1171 11.6868 81.6539 27.7579 80.5605 34.25C79.4671 40.742 68.8856 40.2763 59.6445 35.0025L53.1893 17.6506L73.1171 11.6868Z" fill="url(#paint16_linear)"/>
<path d="M60.0534 26.4799C60.4283 26.3123 60.5675 25.8551 60.3431 25.5114C59.6587 24.4664 58.3779 22.3336 57.9689 20.4677C57.9689 20.4677 56.4354 19.4851 61.8767 18.1816C67.318 16.8781 75.4316 14.8589 77.1384 10.227C78.8026 5.7115 74.432 -5.64536 67.4628 3.40264C67.1987 3.74627 66.679 3.75479 66.412 3.41116C65.2704 1.92304 62.2657 -1.16396 58.0939 0.707549C54.1918 2.45978 53.7516 5.31959 53.8056 6.75943C53.8226 7.18258 53.4421 7.51201 53.0246 7.43249C51.0509 7.05478 46.3167 6.73387 44.1044 11.5901C42.284 15.5916 43.4683 17.8579 44.5446 18.9654C44.8939 19.3233 44.7406 19.9168 44.2635 20.0616C42.9656 20.4592 41.2929 21.5583 41.4604 24.597C41.6933 28.7972 46.3877 28.428 47.7253 28.2349C47.944 28.2037 48.1655 28.2775 48.3132 28.4422C49.4605 29.7117 54.6263 35.099 60.2153 35.7465C60.6981 35.8033 61.0758 35.3234 60.9168 34.8633L58.4971 27.8288C58.3836 27.5022 58.5426 27.1444 58.8578 27.0052L60.0534 26.4799Z" fill="url(#paint17_linear)"/>
<path d="M61.0244 27.4795C61.0244 27.4795 54.9469 23.3077 54.501 26.8207C54.058 30.3336 59.9736 31.907 62.9072 30.5978L61.0244 27.4795Z" fill="url(#paint18_linear)"/>
<defs>
<linearGradient id="paint0_linear" x1="75.8938" y1="104.128" x2="110.627" y2="104.128" gradientUnits="userSpaceOnUse">
<stop stop-color="#F9B776"/>
<stop offset="1" stop-color="#F47960"/>
</linearGradient>
<linearGradient id="paint1_linear" x1="81.8393" y1="228.66" x2="82.582" y2="310.346" gradientUnits="userSpaceOnUse">
<stop stop-color="#CB236D"/>
<stop offset="1" stop-color="#4C246D"/>
</linearGradient>
<linearGradient id="paint2_linear" x1="64.8257" y1="281.736" x2="74.076" y2="281.736" gradientUnits="userSpaceOnUse">
<stop stop-color="#F9B776"/>
<stop offset="1" stop-color="#F47960"/>
</linearGradient>
<linearGradient id="paint3_linear" x1="54.3735" y1="316.933" x2="60.6869" y2="147.527" gradientUnits="userSpaceOnUse">
<stop stop-color="#2B3582"/>
<stop offset="1" stop-color="#150E42"/>
</linearGradient>
<linearGradient id="paint4_linear" x1="36.3672" y1="229.074" x2="37.1099" y2="310.76" gradientUnits="userSpaceOnUse">
<stop stop-color="#CB236D"/>
<stop offset="1" stop-color="#4C246D"/>
</linearGradient>
<linearGradient id="paint5_linear" x1="31.4879" y1="281.262" x2="39.4745" y2="281.262" gradientUnits="userSpaceOnUse">
<stop stop-color="#F9B776"/>
<stop offset="1" stop-color="#F47960"/>
</linearGradient>
<linearGradient id="paint6_linear" x1="38.7592" y1="316.352" x2="45.0726" y2="146.945" gradientUnits="userSpaceOnUse">
<stop stop-color="#2B3582"/>
<stop offset="1" stop-color="#150E42"/>
</linearGradient>
<linearGradient id="paint7_linear" x1="59.3181" y1="66.2965" x2="11.2622" y2="192.721" gradientUnits="userSpaceOnUse">
<stop stop-color="#8D55D1"/>
<stop offset="0.9964" stop-color="#1C2873"/>
</linearGradient>
<linearGradient id="paint8_linear" x1="29.614" y1="55.0051" x2="-18.4419" y2="181.429" gradientUnits="userSpaceOnUse">
<stop stop-color="#8D55D1"/>
<stop offset="0.9964" stop-color="#1C2873"/>
</linearGradient>
<linearGradient id="paint9_linear" x1="1.46471" y1="107.348" x2="61.27" y2="107.348" gradientUnits="userSpaceOnUse">
<stop stop-color="#F9B776"/>
<stop offset="1" stop-color="#F47960"/>
</linearGradient>
<linearGradient id="paint10_linear" x1="66.5499" y1="48.2673" x2="92.7325" y2="109.696" gradientUnits="userSpaceOnUse">
<stop stop-color="#2B3582"/>
<stop offset="1" stop-color="#150E42"/>
</linearGradient>
<linearGradient id="paint11_linear" x1="99.9527" y1="43.2298" x2="92.9491" y2="73.9848" gradientUnits="userSpaceOnUse">
<stop stop-color="#2B3582"/>
<stop offset="1" stop-color="#150E42"/>
</linearGradient>
<linearGradient id="paint12_linear" x1="96.2867" y1="56.1307" x2="92.9372" y2="76.2278" gradientUnits="userSpaceOnUse">
<stop stop-color="#2B3582"/>
<stop offset="1" stop-color="#150E42"/>
</linearGradient>
<linearGradient id="paint13_linear" x1="56.83" y1="101.077" x2="75.4619" y2="101.077" gradientUnits="userSpaceOnUse">
<stop stop-color="#F9B776"/>
<stop offset="1" stop-color="#F47960"/>
</linearGradient>
<linearGradient id="paint14_linear" x1="115.719" y1="91.1401" x2="99.9329" y2="81.2424" gradientUnits="userSpaceOnUse">
<stop stop-color="#F9B776"/>
<stop offset="1" stop-color="#F47960"/>
</linearGradient>
<linearGradient id="paint15_linear" x1="48.3793" y1="45.2602" x2="72.0245" y2="45.2602" gradientUnits="userSpaceOnUse">
<stop stop-color="#F9B776"/>
<stop offset="1" stop-color="#F47960"/>
</linearGradient>
<linearGradient id="paint16_linear" x1="77.6484" y1="30.2175" x2="51.6506" y2="14.3609" gradientUnits="userSpaceOnUse">
<stop stop-color="#F9B776"/>
<stop offset="1" stop-color="#F47960"/>
</linearGradient>
<linearGradient id="paint17_linear" x1="37.8889" y1="-2.35374" x2="71.4751" y2="24.1736" gradientUnits="userSpaceOnUse">
<stop stop-color="#2B3582"/>
<stop offset="1" stop-color="#150E42"/>
</linearGradient>
<linearGradient id="paint18_linear" x1="70.8194" y1="36.131" x2="47.4289" y2="21.8645" gradientUnits="userSpaceOnUse">
<stop stop-color="#F9B776"/>
<stop offset="1" stop-color="#F47960"/>
</linearGradient>
</defs>
</svg>
