<svg width="101" height="275" viewBox="0 0 101 275" fill="none" xmlns="http://www.w3.org/2000/svg">
<path d="M33.819 238.337C33.819 238.337 31.8842 240.108 31.2392 242.367C30.5942 244.623 29.9493 246.879 32.5291 247.363C35.109 247.848 37.5256 249.943 39.1367 252.199C40.7478 254.455 44.5675 255.148 48.6452 255.261C51.9516 255.353 52.0306 253.005 51.7068 251.876C51.3857 250.746 47.8397 247.845 45.2598 245.752C42.68 243.657 39.2973 238.339 39.2973 238.339H33.819V238.337Z" fill="url(#paint0_linear)"/>
<path d="M10.2341 256.448L8.52561 260.615C7.95436 262.011 7.80957 263.54 8.10968 265.017C8.59406 267.412 9.41276 271.016 10.2341 272.564C11.5214 274.981 16.6784 275.434 18.6107 274.644C20.5456 273.854 19.7137 269.068 18.6107 264.022C18.1026 261.697 16.1941 256.446 16.1941 256.446H10.2341V256.448Z" fill="url(#paint1_linear)"/>
<path d="M10.2713 257.441L9.49994 247.995H16.8262L15.7969 257.97C15.7995 257.97 12.5852 260.126 10.2713 257.441Z" fill="url(#paint2_linear)"/>
<path d="M33.7919 240.103L32.8915 228.149L41.2471 228.92L39.3201 240.103C39.3201 240.103 38.2908 241.517 33.7919 240.103Z" fill="url(#paint3_linear)"/>
<path d="M52.001 120.354C52.001 120.354 51.3771 198.947 41.5158 232.403C41.5158 232.403 38.7359 234.454 32.1204 231.237C32.1204 231.237 27.6636 165.256 25.6076 157.717C23.5516 150.177 24.4756 127.627 24.4756 127.627L52.001 120.354Z" fill="url(#paint4_linear)"/>
<path d="M39.1466 73.4743C42.4425 76.0462 59.5985 87.3922 60.7278 87.8424C66.0612 89.9695 83.1829 96.5165 88.369 95.0765C94.5395 93.3627 85.6259 105.701 85.6259 106.731C85.6259 107.523 67.1458 102.416 58.6587 100.028C55.6918 99.1937 38.0831 92.3071 38.3885 89.2403C38.6254 86.8921 37.2749 72.0132 39.1466 73.4743Z" fill="url(#paint5_linear)"/>
<path d="M7.1092 131.236C7.1092 131.236 5.12956 202.445 4.61622 208.871C4.10289 215.297 8.73344 248.893 8.73344 248.893C8.73344 248.893 12.8401 251.852 17.468 249.23C17.468 249.23 26.4791 196.999 28.1428 186.226C29.8065 175.452 38.1357 127.896 38.1357 127.896L7.1092 131.236Z" fill="url(#paint6_linear)"/>
<path d="M13.9564 48.7183C13.9564 48.7183 38.5149 38.8702 42.0635 40.1496C51.5799 43.5824 52.346 64.8292 55.7735 87.4502C59.201 110.071 56.4843 122.757 46.8625 127.896C37.2408 133.032 20.4692 134.409 18.7554 144.691C17.0417 154.974 2.30233 150.175 1.27565 144.691C0.246353 139.205 -4.38157 56.2578 13.9564 48.7183Z" fill="url(#paint7_linear)"/>
<path d="M24.2708 32.2651L21.3566 46.0067L15.8021 48.0732C15.8021 48.0732 19.3428 54.9125 28.8171 54.8993C38.2914 54.8861 41.2188 48.347 37.5254 41.1577L32.2341 40.0336L32.5289 32.2651H24.2708Z" fill="url(#paint8_linear)"/>
<path d="M20.7274 99.778C18.6162 100.652 15.6257 102.555 15.0413 106.441C14.5674 109.581 17.1473 112.375 20.3247 112.369C26.798 112.361 38.244 112.54 41.1108 113.841C45.1675 115.681 49.4479 121.341 52.0041 120.354C54.5602 119.364 55.3684 117.247 55.3684 117.247C55.3684 117.247 57.8298 116.155 60.9993 117.869C64.1688 119.582 63.6292 116.526 61.7706 115.212C59.9121 113.899 52.0488 110.795 48.5134 109.792C45.5676 108.955 29.749 102.11 24.5367 99.8412C23.3204 99.3121 21.9516 99.27 20.7274 99.778Z" fill="url(#paint9_linear)"/>
<path d="M80.8112 114.439C81.2745 114.104 81.6536 113.667 81.9247 113.164L100.539 78.455L99.1675 77.0835L67.475 100.357C66.7932 100.858 66.2456 101.524 65.8849 102.29L51.8985 129.489C51.3983 130.463 51.4905 131.637 52.1433 132.521L52.8304 133.453C53.4675 133.779 54.2335 133.719 54.8101 133.3L80.8112 114.439Z" fill="url(#paint10_linear)"/>
<path d="M84.602 108.17C84.602 108.17 87.5793 106.73 90.5462 103.987C93.513 101.244 95.5268 95.1949 95.053 93.1916C94.5818 91.1856 89.9117 87.7318 89.0535 92.3465C88.198 96.9613 87.2792 103.177 84.602 108.17Z" fill="url(#paint11_linear)"/>
<path d="M21.3566 97.817C20.9775 97.817 20.6458 97.5379 20.5931 97.1509C18.7688 83.8253 12.9326 64.0447 12.8747 63.8473C12.7536 63.4393 12.9853 63.0102 13.3959 62.8891C13.8092 62.7653 14.233 63.0023 14.3541 63.4103C14.4147 63.6104 20.2799 83.5015 22.1226 96.943C22.1805 97.3642 21.8857 97.7538 21.4619 97.8117C21.425 97.8143 21.3908 97.817 21.3566 97.817Z" fill="url(#paint12_linear)"/>
<path d="M13.6112 112.556C13.4954 112.556 13.3769 112.53 13.269 112.475C8.63581 110.158 4.308 94.4078 3.83152 92.6177C3.72096 92.207 3.96578 91.7832 4.37908 91.6726C4.79502 91.5647 5.21357 91.8069 5.32414 92.2176C6.57457 96.8902 10.5628 109.392 13.9613 111.093C14.3431 111.282 14.4984 111.745 14.3062 112.127C14.1667 112.401 13.8955 112.556 13.6112 112.556Z" fill="url(#paint13_linear)"/>
<path d="M2.64477 88.1347C2.64477 88.1347 -3.63899 56.2368 11.6084 50.1899L2.64477 88.1347Z" fill="url(#paint14_linear)"/>
<path d="M40.2574 17.8259C40.2574 17.8259 42.6556 31.8781 40.2574 38.0487C37.8592 44.2192 33.7446 41.4762 29.6326 40.1046C25.5207 38.7331 18.3208 28.2795 18.3208 28.2795C18.3208 28.2795 26.3762 2.5732 40.2574 17.8259Z" fill="url(#paint15_linear)"/>
<path d="M41.1944 11.358C40.9233 12.0214 41.1839 12.7795 41.8051 13.1375L42.0263 13.7088C42.5185 14.9776 42.279 16.4176 41.3997 17.4574L40.7232 18.2551C40.7232 18.2551 34.6553 18.2551 32.8784 20.8955C30.9988 23.6886 28.8743 26.4843 25.739 27.711C23.4856 28.5903 23.0065 31.1385 23.662 34.6239C24.4017 38.5648 21.5744 36.5088 20.89 35.2241C20.2055 33.9395 15.9198 26.6554 14.3772 25.3707C13.6901 24.7968 12.6792 24.6073 11.771 24.5704C10.7839 24.531 10.1336 23.5359 10.4996 22.6171L11.2077 20.8297L7.74332 19.1422C5.39777 17.9997 5.61364 14.588 8.08554 13.7509L10.6338 12.8874C11.2709 12.6716 11.671 12.0424 11.5973 11.3738L11.3235 8.91238C11.0471 6.41415 13.5901 4.5635 15.8804 5.59281L16.3042 5.78235C17.2519 6.20881 18.3233 5.51647 18.3233 4.47663C18.3233 3.38941 19.4869 2.6997 20.4425 3.22093L21.1032 3.58422C21.9667 4.05543 23.0355 3.53683 23.2013 2.56808L23.4172 1.30448C23.6646 -0.14339 25.6706 -0.325031 26.1734 1.05439L26.3445 1.52034C26.7473 2.62862 28.2425 2.79974 28.8875 1.81255L29.2218 1.29922C29.9852 0.13039 31.8017 0.635828 31.8491 2.03368L31.8596 2.32589C31.8991 3.44469 33.1521 4.08966 34.084 3.46576L35.1318 2.76814C36.2085 2.04947 37.6089 3.0156 37.322 4.27656L37.2114 4.76357C36.9508 5.91134 38.1091 6.86693 39.1858 6.39045L40.8706 5.64283C42.0473 5.12159 43.2635 6.29832 42.7765 7.49083L41.1944 11.358Z" fill="url(#paint16_linear)"/>
<defs>
<linearGradient id="paint0_linear" x1="30.6637" y1="246.798" x2="51.8336" y2="246.798" gradientUnits="userSpaceOnUse">
<stop stop-color="#2D1B84"/>
<stop offset="1" stop-color="#190F4A"/>
</linearGradient>
<linearGradient id="paint1_linear" x1="7.9582" y1="265.725" x2="19.7719" y2="265.725" gradientUnits="userSpaceOnUse">
<stop stop-color="#2D1B84"/>
<stop offset="1" stop-color="#190F4A"/>
</linearGradient>
<linearGradient id="paint2_linear" x1="9.50071" y1="253.393" x2="16.8271" y2="253.393" gradientUnits="userSpaceOnUse">
<stop offset="0.3134" stop-color="#E8874E"/>
<stop offset="1" stop-color="#B10043"/>
</linearGradient>
<linearGradient id="paint3_linear" x1="32.8931" y1="234.441" x2="41.2478" y2="234.441" gradientUnits="userSpaceOnUse">
<stop offset="0.3134" stop-color="#E8874E"/>
<stop offset="1" stop-color="#B10043"/>
</linearGradient>
<linearGradient id="paint4_linear" x1="64.4231" y1="168.007" x2="12.7526" y2="187.801" gradientUnits="userSpaceOnUse">
<stop stop-color="#49DCCC"/>
<stop offset="0.9964" stop-color="#3CA3BA"/>
</linearGradient>
<linearGradient id="paint5_linear" x1="77.3259" y1="47.1196" x2="49.5627" y2="129.895" gradientUnits="userSpaceOnUse">
<stop offset="0.3134" stop-color="#E8874E"/>
<stop offset="1" stop-color="#B10043"/>
</linearGradient>
<linearGradient id="paint6_linear" x1="36.7579" y1="189.686" x2="-16.969" y2="186.859" gradientUnits="userSpaceOnUse">
<stop stop-color="#49DCCC"/>
<stop offset="0.9964" stop-color="#3CA3BA"/>
</linearGradient>
<linearGradient id="paint7_linear" x1="65.9256" y1="65.236" x2="-19.4208" y2="121.791" gradientUnits="userSpaceOnUse">
<stop stop-color="#FDEF67"/>
<stop offset="0.538" stop-color="#F8AE52"/>
<stop offset="1" stop-color="#F67554"/>
</linearGradient>
<linearGradient id="paint8_linear" x1="22.7453" y1="73.8143" x2="29.2576" y2="37.825" gradientUnits="userSpaceOnUse">
<stop offset="0.3134" stop-color="#E8874E"/>
<stop offset="1" stop-color="#B10043"/>
</linearGradient>
<linearGradient id="paint9_linear" x1="56.9916" y1="82.404" x2="35.3978" y2="117.708" gradientUnits="userSpaceOnUse">
<stop offset="0.3134" stop-color="#E8874E"/>
<stop offset="1" stop-color="#B10043"/>
</linearGradient>
<linearGradient id="paint10_linear" x1="100.537" y1="105.37" x2="51.5783" y2="105.37" gradientUnits="userSpaceOnUse">
<stop stop-color="#2D1B84"/>
<stop offset="1" stop-color="#190F4A"/>
</linearGradient>
<linearGradient id="paint11_linear" x1="95.1216" y1="99.1129" x2="84.6019" y2="99.1129" gradientUnits="userSpaceOnUse">
<stop offset="0.3134" stop-color="#E8874E"/>
<stop offset="1" stop-color="#B10043"/>
</linearGradient>
<linearGradient id="paint12_linear" x1="13.919" y1="70.7584" x2="36.0268" y2="130.141" gradientUnits="userSpaceOnUse">
<stop stop-color="#FDEF67"/>
<stop offset="0.538" stop-color="#F8AE52"/>
<stop offset="1" stop-color="#F67554"/>
</linearGradient>
<linearGradient id="paint13_linear" x1="-0.770546" y1="76.227" x2="21.3372" y2="135.609" gradientUnits="userSpaceOnUse">
<stop stop-color="#FDEF67"/>
<stop offset="0.538" stop-color="#F8AE52"/>
<stop offset="1" stop-color="#F67554"/>
</linearGradient>
<linearGradient id="paint14_linear" x1="49.7198" y1="40.7796" x2="-35.6265" y2="97.3345" gradientUnits="userSpaceOnUse">
<stop stop-color="#FDEF67"/>
<stop offset="0.538" stop-color="#F8AE52"/>
<stop offset="1" stop-color="#F67554"/>
</linearGradient>
<linearGradient id="paint15_linear" x1="47.9394" y1="44.6533" x2="28.0595" y2="22.0314" gradientUnits="userSpaceOnUse">
<stop offset="0.3134" stop-color="#E8874E"/>
<stop offset="1" stop-color="#B10043"/>
</linearGradient>
<linearGradient id="paint16_linear" x1="6.10089" y1="18.5131" x2="42.8826" y2="18.5131" gradientUnits="userSpaceOnUse">
<stop offset="0.00540541" stop-color="#860048"/>
<stop offset="1" stop-color="#370041"/>
</linearGradient>
</defs>
</svg>
