<svg width="428" height="428" viewBox="0 0 428 428" fill="none" xmlns="http://www.w3.org/2000/svg">
<path d="M225.61 14.042C225.61 21.3867 219.657 27.3404 212.312 27.3404C204.967 27.3404 199.014 21.3867 199.014 14.042C199.014 6.69731 204.967 0.743652 212.312 0.743652C219.657 0.743652 225.61 6.69731 225.61 14.042Z" fill="url(#paint0_radial)"/>
<path opacity="0.7" d="M218 65.5C218 68.5377 215.538 71 212.5 71C209.462 71 207 68.5377 207 65.5C207 62.4623 209.462 60 212.5 60C215.538 60 218 62.4623 218 65.5Z" fill="url(#paint1_radial)"/>
<path d="M215 111.874C215 113.255 213.881 114.374 212.5 114.374C211.119 114.374 210 113.255 210 111.874C210 110.493 211.119 109.374 212.5 109.374C213.881 109.374 215 110.493 215 111.874Z" fill="url(#paint2_radial)"/>
<g filter="url(#filter0_d)">
<circle cx="214.012" cy="214.331" r="75.2843" fill="url(#paint3_linear)"/>
</g>
<path d="M237.931 214.079L201.673 235.012V193.146L237.931 214.079Z" fill="white"/>
<path d="M414.004 224.156C406.659 224.156 400.706 218.202 400.706 210.858C400.706 203.513 406.659 197.559 414.004 197.559C421.349 197.559 427.302 203.513 427.302 210.858C427.302 218.202 421.349 224.156 414.004 224.156Z" fill="url(#paint4_radial)"/>
<path opacity="0.7" d="M362.546 216.546C359.508 216.546 357.046 214.083 357.046 211.046C357.046 208.008 359.508 205.546 362.546 205.546C365.584 205.546 368.046 208.008 368.046 211.046C368.046 214.083 365.584 216.546 362.546 216.546Z" fill="url(#paint5_radial)"/>
<path d="M316.172 213.546C314.791 213.546 313.672 212.426 313.672 211.046C313.672 209.665 314.791 208.546 316.172 208.546C317.553 208.546 318.672 209.665 318.672 211.046C318.672 212.426 317.553 213.546 316.172 213.546Z" fill="url(#paint6_radial)"/>
<path d="M404.735 275.511C397.638 273.617 393.422 266.33 395.316 259.233C397.21 252.137 404.498 247.92 411.594 249.814C418.69 251.709 422.907 258.996 421.013 266.093C419.119 273.189 411.831 277.406 404.735 275.511Z" fill="url(#paint7_radial)"/>
<path opacity="0.7" d="M356.98 254.888C354.045 254.104 352.301 251.09 353.085 248.155C353.868 245.221 356.882 243.477 359.817 244.26C362.752 245.043 364.496 248.057 363.712 250.992C362.929 253.927 359.915 255.671 356.98 254.888Z" fill="url(#paint8_radial)"/>
<path d="M312.948 240.03C311.614 239.674 310.822 238.304 311.178 236.969C311.534 235.635 312.904 234.843 314.238 235.199C315.572 235.555 316.365 236.925 316.009 238.259C315.652 239.593 314.282 240.386 312.948 240.03Z" fill="url(#paint9_radial)"/>
<path d="M382.478 322.652C376.114 318.986 373.926 310.856 377.591 304.491C381.257 298.126 389.388 295.939 395.752 299.604C402.117 303.27 404.305 311.4 400.639 317.765C396.973 324.129 388.843 326.317 382.478 322.652Z" fill="url(#paint10_radial)"/>
<path opacity="0.7" d="M341.685 290.375C339.053 288.859 338.148 285.497 339.664 282.864C341.18 280.232 344.543 279.327 347.175 280.843C349.808 282.359 350.713 285.722 349.196 288.354C347.68 290.986 344.318 291.891 341.685 290.375Z" fill="url(#paint11_radial)"/>
<path d="M302.997 264.631C301.801 263.942 301.39 262.414 302.079 261.217C302.768 260.021 304.296 259.61 305.493 260.299C306.689 260.988 307.101 262.516 306.411 263.713C305.722 264.909 304.194 265.321 302.997 264.631Z" fill="url(#paint12_radial)"/>
<path d="M348.553 362.664C343.36 357.47 343.36 349.051 348.553 343.857C353.747 338.664 362.166 338.664 367.36 343.857C372.553 349.051 372.553 357.47 367.36 362.664C362.166 367.857 353.747 367.857 348.553 362.664Z" fill="url(#paint13_radial)"/>
<path opacity="0.7" d="M317.548 320.896C315.4 318.748 315.4 315.266 317.548 313.118C319.696 310.97 323.178 310.97 325.326 313.118C327.474 315.266 327.474 318.748 325.326 320.896C323.178 323.044 319.696 323.044 317.548 320.896Z" fill="url(#paint14_radial)"/>
<path d="M286.878 285.984C285.902 285.007 285.902 283.424 286.878 282.448C287.855 281.472 289.438 281.472 290.414 282.448C291.39 283.424 291.39 285.007 290.414 285.984C289.438 286.96 287.855 286.96 286.878 285.984Z" fill="url(#paint15_radial)"/>
<path d="M305.729 392.401C302.04 386.05 304.198 377.911 310.549 374.222C316.9 370.533 325.039 372.691 328.728 379.042C332.417 385.393 330.259 393.532 323.908 397.221C317.557 400.91 309.418 398.752 305.729 392.401Z" fill="url(#paint16_radial)"/>
<path opacity="0.7" d="M286.465 344.082C284.939 341.455 285.832 338.089 288.458 336.564C291.085 335.038 294.451 335.93 295.977 338.557C297.503 341.184 296.61 344.55 293.983 346.075C291.357 347.601 287.991 346.709 286.465 344.082Z" fill="url(#paint17_radial)"/>
<path d="M265.766 302.475C265.073 301.281 265.479 299.751 266.673 299.058C267.867 298.364 269.397 298.77 270.09 299.964C270.784 301.158 270.378 302.688 269.184 303.381C267.99 304.075 266.46 303.669 265.766 302.475Z" fill="url(#paint18_radial)"/>
<path d="M256.534 410.072C254.613 402.983 258.803 395.679 265.892 393.758C272.981 391.837 280.284 396.026 282.205 403.115C284.126 410.204 279.937 417.508 272.848 419.429C265.759 421.35 258.456 417.161 256.534 410.072Z" fill="url(#paint19_radial)"/>
<path opacity="0.7" d="M250.421 358.415C249.626 355.483 251.359 352.462 254.291 351.668C257.223 350.873 260.243 352.606 261.038 355.538C261.833 358.47 260.1 361.49 257.168 362.285C254.236 363.079 251.215 361.347 250.421 358.415Z" fill="url(#paint20_radial)"/>
<path d="M241.186 312.871C240.825 311.538 241.613 310.165 242.945 309.804C244.278 309.443 245.651 310.23 246.012 311.563C246.373 312.896 245.586 314.269 244.253 314.63C242.92 314.991 241.547 314.203 241.186 312.871Z" fill="url(#paint21_radial)"/>
<path d="M203.547 414.283C203.575 406.939 209.552 401.008 216.896 401.036C224.241 401.065 230.171 407.041 230.143 414.386C230.115 421.731 224.138 427.661 216.794 427.633C209.449 427.605 203.518 421.628 203.547 414.283Z" fill="url(#paint22_radial)"/>
<path opacity="0.7" d="M211.356 362.855C211.368 359.818 213.84 357.365 216.877 357.376C219.915 357.388 222.368 359.86 222.356 362.898C222.344 365.935 219.873 368.388 216.835 368.376C213.797 368.365 211.345 365.893 211.356 362.855Z" fill="url(#paint23_radial)"/>
<path d="M214.535 316.493C214.54 315.113 215.664 313.998 217.045 314.003C218.425 314.008 219.54 315.132 219.535 316.513C219.53 317.893 218.406 319.008 217.025 319.003C215.645 318.998 214.53 317.874 214.535 316.493Z" fill="url(#paint24_radial)"/>
<path d="M152.194 404.804C154.115 397.715 161.419 393.526 168.508 395.447C175.597 397.368 179.786 404.672 177.865 411.761C175.944 418.85 168.64 423.039 161.551 421.118C154.462 419.197 150.273 411.893 152.194 404.804Z" fill="url(#paint25_radial)"/>
<path opacity="0.7" d="M172.999 357.128C173.794 354.196 176.814 352.464 179.746 353.258C182.678 354.053 184.411 357.074 183.616 360.006C182.822 362.937 179.801 364.67 176.869 363.876C173.937 363.081 172.205 360.06 172.999 357.128Z" fill="url(#paint26_radial)"/>
<path d="M188.024 313.154C188.385 311.821 189.758 311.034 191.091 311.395C192.424 311.756 193.211 313.129 192.85 314.462C192.489 315.794 191.116 316.582 189.783 316.221C188.451 315.859 187.663 314.486 188.024 313.154Z" fill="url(#paint27_radial)"/>
<path d="M105.081 382.317C108.77 375.966 116.909 373.808 123.26 377.497C129.611 381.186 131.769 389.325 128.08 395.676C124.391 402.027 116.252 404.184 109.901 400.495C103.55 396.806 101.392 388.668 105.081 382.317Z" fill="url(#paint28_radial)"/>
<path opacity="0.7" d="M137.507 341.643C139.033 339.016 142.399 338.124 145.026 339.65C147.653 341.175 148.545 344.541 147.019 347.168C145.494 349.795 142.128 350.687 139.501 349.161C136.874 347.636 135.982 344.27 137.507 341.643Z" fill="url(#paint29_radial)"/>
<path d="M163.394 303.05C164.088 301.856 165.618 301.45 166.811 302.144C168.005 302.837 168.411 304.367 167.718 305.561C167.024 306.755 165.494 307.161 164.3 306.467C163.106 305.774 162.701 304.244 163.394 303.05Z" fill="url(#paint30_radial)"/>
<path d="M65.3105 348.305C70.5228 343.131 78.9425 343.161 84.1171 348.374C89.2917 353.586 89.2611 362.006 84.0488 367.18C78.8365 372.355 70.4168 372.324 65.2422 367.112C60.0676 361.9 60.0982 353.48 65.3105 348.305Z" fill="url(#paint31_radial)"/>
<path opacity="0.7" d="M107.19 317.452C109.346 315.312 112.828 315.325 114.969 317.48C117.109 319.636 117.096 323.118 114.94 325.259C112.785 327.399 109.302 327.386 107.162 325.23C105.022 323.075 105.035 319.592 107.19 317.452Z" fill="url(#paint32_radial)"/>
<path d="M142.214 286.909C143.194 285.937 144.777 285.942 145.75 286.922C146.723 287.902 146.717 289.485 145.737 290.458C144.757 291.431 143.174 291.425 142.202 290.445C141.229 289.465 141.235 287.882 142.214 286.909Z" fill="url(#paint33_radial)"/>
<path d="M35.7929 305.464C42.1575 301.798 50.288 303.986 53.9536 310.351C57.6192 316.716 55.4313 324.846 49.0667 328.512C42.7021 332.177 34.5716 329.989 30.906 323.625C27.2404 317.26 29.4283 309.13 35.7929 305.464Z" fill="url(#paint34_radial)"/>
<path opacity="0.7" d="M84.1824 286.377C86.8147 284.861 90.1774 285.766 91.6934 288.398C93.2095 291.031 92.3046 294.393 89.6723 295.909C87.04 297.425 83.6773 296.521 82.1613 293.888C80.6453 291.256 81.5501 287.893 84.1824 286.377Z" fill="url(#paint35_radial)"/>
<path d="M125.865 265.833C127.062 265.144 128.59 265.555 129.279 266.751C129.969 267.948 129.557 269.476 128.361 270.166C127.164 270.855 125.636 270.443 124.947 269.247C124.258 268.05 124.669 266.522 125.865 265.833Z" fill="url(#paint36_radial)"/>
<path d="M18.3614 256.502C25.4576 254.608 32.7453 258.825 34.6395 265.921C36.5337 273.017 32.3168 280.305 25.2206 282.199C18.1243 284.093 10.8366 279.877 8.94248 272.78C7.04831 265.684 11.2651 258.396 18.3614 256.502Z" fill="url(#paint37_radial)"/>
<path opacity="0.7" d="M70.0415 250.584C72.9764 249.801 75.9905 251.545 76.7739 254.48C77.5573 257.415 75.8133 260.429 72.8784 261.212C69.9435 261.996 66.9294 260.252 66.146 257.317C65.3626 254.382 67.1066 251.368 70.0415 250.584Z" fill="url(#paint38_radial)"/>
<path d="M115.62 241.523C116.954 241.167 118.324 241.96 118.68 243.294C119.036 244.628 118.244 245.998 116.91 246.354C115.576 246.71 114.205 245.917 113.849 244.583C113.493 243.249 114.286 241.879 115.62 241.523Z" fill="url(#paint39_radial)"/>
<path d="M14.2474 203.081C21.5919 203.138 27.4994 209.138 27.4427 216.482C27.386 223.827 21.3866 229.734 14.0421 229.677C6.69762 229.621 0.790105 223.621 0.846808 216.277C0.903511 208.932 6.90296 203.025 14.2474 203.081Z" fill="url(#paint40_radial)"/>
<path opacity="0.7" d="M65.6453 211.089C68.6829 211.112 71.1261 213.594 71.1027 216.631C71.0792 219.669 68.5979 222.112 65.5604 222.088C62.5228 222.065 60.0796 219.584 60.103 216.546C60.1265 213.509 62.6077 211.065 65.6453 211.089Z" fill="url(#paint41_radial)"/>
<path d="M111.995 214.447C113.375 214.457 114.486 215.585 114.475 216.966C114.465 218.347 113.337 219.457 111.956 219.447C110.575 219.436 109.465 218.308 109.475 216.927C109.486 215.547 110.614 214.436 111.995 214.447Z" fill="url(#paint42_radial)"/>
<path d="M23.8888 151.904C30.9704 153.852 35.1319 161.172 33.1839 168.254C31.236 175.335 23.9165 179.497 16.8348 177.549C9.75314 175.601 5.59172 168.281 7.53966 161.2C9.48761 154.118 16.8071 149.957 23.8888 151.904Z" fill="url(#paint43_radial)"/>
<path opacity="0.7" d="M71.4861 172.89C74.4149 173.696 76.136 176.723 75.3304 179.652C74.5248 182.58 71.4975 184.302 68.5687 183.496C65.6398 182.69 63.9187 179.663 64.7243 176.734C65.53 173.805 68.5572 172.084 71.4861 172.89Z" fill="url(#paint44_radial)"/>
<path d="M115.404 188.082C116.735 188.448 117.517 189.824 117.151 191.155C116.785 192.486 115.409 193.269 114.077 192.903C112.746 192.536 111.964 191.16 112.33 189.829C112.696 188.498 114.072 187.715 115.404 188.082Z" fill="url(#paint45_radial)"/>
<path d="M46.3026 105.246C52.6401 108.958 54.7679 117.105 51.0556 123.442C47.3432 129.78 39.1968 131.907 32.8593 128.195C26.5219 124.483 24.394 116.336 28.1064 109.999C31.8188 103.661 39.9652 101.534 46.3026 105.246Z" fill="url(#paint46_radial)"/>
<path opacity="0.7" d="M86.8574 137.822C89.4785 139.357 90.3585 142.726 88.8231 145.348C87.2878 147.969 83.9185 148.849 81.2975 147.313C78.6764 145.778 77.7963 142.409 79.3317 139.788C80.8671 137.167 84.2364 136.286 86.8574 137.822Z" fill="url(#paint47_radial)"/>
<path d="M125.354 163.85C126.546 164.548 126.946 166.079 126.248 167.271C125.55 168.462 124.018 168.862 122.827 168.164C121.636 167.466 121.236 165.935 121.934 164.744C122.631 163.552 124.163 163.152 125.354 163.85Z" fill="url(#paint48_radial)"/>
<path d="M80.6546 65.2142C85.8102 70.4453 85.749 78.8648 80.518 84.0204C75.2869 89.1761 66.8673 89.1149 61.7117 83.8838C56.5561 78.6527 56.6173 70.2332 61.8484 65.0776C67.0795 59.922 75.499 59.9831 80.6546 65.2142Z" fill="url(#paint49_radial)"/>
<path opacity="0.7" d="M111.355 107.206C113.488 109.37 113.462 112.852 111.299 114.984C109.135 117.116 105.653 117.091 103.521 114.927C101.389 112.764 101.414 109.282 103.577 107.15C105.741 105.017 109.223 105.043 111.355 107.206Z" fill="url(#paint50_radial)"/>
<path d="M141.77 142.341C142.739 143.324 142.728 144.907 141.744 145.876C140.761 146.845 139.178 146.834 138.209 145.85C137.24 144.867 137.251 143.284 138.235 142.315C139.218 141.346 140.801 141.357 141.77 142.341Z" fill="url(#paint51_radial)"/>
<path d="M123.255 36.0196C126.897 42.3977 124.68 50.5201 118.301 54.1622C111.923 57.8043 103.801 55.5865 100.159 49.2084C96.5168 42.8304 98.7345 34.708 105.113 31.0659C111.491 27.4238 119.613 29.6415 123.255 36.0196Z" fill="url(#paint52_radial)"/>
<path opacity="0.7" d="M142.163 84.479C143.67 87.1169 142.753 90.4762 140.115 91.9825C137.477 93.4888 134.117 92.5716 132.611 89.9337C131.105 87.2959 132.022 83.9366 134.66 82.4302C137.298 80.9239 140.657 81.8412 142.163 84.479Z" fill="url(#paint53_radial)"/>
<path d="M162.554 126.237C163.239 127.436 162.822 128.963 161.623 129.648C160.424 130.332 158.897 129.916 158.212 128.717C157.528 127.517 157.945 125.991 159.144 125.306C160.343 124.621 161.87 125.038 162.554 126.237Z" fill="url(#paint54_radial)"/>
<path d="M173.309 18.4096C175.149 25.5201 170.877 32.7755 163.767 34.6158C156.656 36.456 149.401 32.1839 147.56 25.0735C145.72 17.9631 149.992 10.7076 157.103 8.8674C164.213 7.02717 171.469 11.2992 173.309 18.4096Z" fill="url(#paint55_radial)"/>
<path opacity="0.7" d="M178.834 70.1331C179.595 73.0738 177.828 76.0746 174.887 76.8357C171.947 77.5968 168.946 75.8299 168.185 72.8891C167.424 69.9484 169.19 66.9476 172.131 66.1865C175.072 65.4254 178.073 67.1923 178.834 70.1331Z" fill="url(#paint56_radial)"/>
<path d="M187.549 115.779C187.895 117.116 187.092 118.48 185.755 118.826C184.418 119.172 183.054 118.369 182.708 117.032C182.362 115.695 183.166 114.331 184.502 113.985C185.839 113.639 187.203 114.443 187.549 115.779Z" fill="url(#paint57_radial)"/>
<path d="M277.194 24.4146C275.219 31.4888 267.884 35.6225 260.81 33.6477C253.736 31.6729 249.602 24.3377 251.577 17.2635C253.552 10.1893 260.887 6.0556 267.961 8.03039C275.035 10.0052 279.169 17.3404 277.194 24.4146Z" fill="url(#paint58_radial)"/>
<path opacity="0.7" d="M256.028 71.9314C255.212 74.8572 252.178 76.5669 249.252 75.7501C246.326 74.9334 244.617 71.8997 245.433 68.9739C246.25 66.0481 249.284 64.3384 252.21 65.1552C255.135 65.9719 256.845 69.0056 256.028 71.9314Z" fill="url(#paint59_radial)"/>
<path d="M240.67 115.791C240.299 117.121 238.92 117.898 237.59 117.527C236.26 117.156 235.483 115.777 235.854 114.447C236.225 113.117 237.604 112.34 238.934 112.711C240.264 113.082 241.041 114.461 240.67 115.791Z" fill="url(#paint60_radial)"/>
<path d="M323.698 46.9289C319.962 53.2526 311.808 55.3504 305.485 51.6148C299.161 47.8791 297.063 39.7249 300.799 33.4012C304.534 27.0775 312.689 24.9796 319.012 28.7153C325.336 32.4509 327.434 40.6051 323.698 46.9289Z" fill="url(#paint61_radial)"/>
<path opacity="0.7" d="M290.972 87.3629C289.427 89.9783 286.055 90.8459 283.439 89.3009C280.824 87.7559 279.956 84.3834 281.501 81.768C283.046 79.1526 286.419 78.285 289.034 79.83C291.65 81.375 292.517 84.7475 290.972 87.3629Z" fill="url(#paint62_radial)"/>
<path d="M264.803 125.764C264.101 126.953 262.568 127.348 261.379 126.645C260.19 125.943 259.796 124.41 260.498 123.221C261.2 122.033 262.733 121.638 263.922 122.34C265.111 123.043 265.505 124.576 264.803 125.764Z" fill="url(#paint63_radial)"/>
<path d="M363.738 81.4952C358.489 86.6318 350.069 86.54 344.933 81.2902C339.796 76.0405 339.888 67.6212 345.138 62.4846C350.388 57.3481 358.807 57.4398 363.943 62.6896C369.08 67.9394 368.988 76.3586 363.738 81.4952Z" fill="url(#paint64_radial)"/>
<path opacity="0.7" d="M321.636 112.043C319.464 114.168 315.982 114.13 313.858 111.958C311.734 109.787 311.772 106.305 313.943 104.181C316.114 102.056 319.596 102.094 321.72 104.265C323.845 106.437 323.807 109.919 321.636 112.043Z" fill="url(#paint65_radial)"/>
<path d="M286.391 142.331C285.404 143.296 283.821 143.279 282.855 142.292C281.89 141.305 281.907 139.722 282.894 138.757C283.881 137.791 285.463 137.808 286.429 138.795C287.395 139.782 287.377 141.365 286.391 142.331Z" fill="url(#paint66_radial)"/>
<path d="M392.861 124.335C386.47 127.954 378.356 125.706 374.737 119.315C371.119 112.923 373.366 104.809 379.758 101.19C386.149 97.5718 394.263 99.8195 397.882 106.211C401.5 112.602 399.253 120.717 392.861 124.335Z" fill="url(#paint67_radial)"/>
<path opacity="0.7" d="M344.333 143.065C341.689 144.561 338.333 143.632 336.837 140.988C335.34 138.345 336.27 134.989 338.913 133.492C341.556 131.996 344.912 132.925 346.409 135.569C347.906 138.212 346.976 141.568 344.333 143.065Z" fill="url(#paint68_radial)"/>
<path d="M302.5 163.301C301.298 163.982 299.773 163.559 299.093 162.358C298.412 161.156 298.835 159.631 300.036 158.95C301.238 158.27 302.763 158.693 303.444 159.894C304.124 161.096 303.701 162.621 302.5 163.301Z" fill="url(#paint69_radial)"/>
<path d="M410.23 174.364C403.113 176.178 395.874 171.878 394.06 164.761C392.247 157.643 396.547 150.404 403.664 148.591C410.781 146.778 418.021 151.077 419.834 158.195C421.647 165.312 417.347 172.551 410.23 174.364Z" fill="url(#paint70_radial)"/>
<path opacity="0.7" d="M358.486 179.693C355.543 180.443 352.549 178.665 351.799 175.721C351.049 172.778 352.827 169.784 355.771 169.034C358.714 168.284 361.708 170.062 362.458 173.006C363.208 175.949 361.43 178.943 358.486 179.693Z" fill="url(#paint71_radial)"/>
<path d="M312.807 188.235C311.469 188.575 310.108 187.767 309.767 186.429C309.426 185.091 310.234 183.73 311.572 183.389C312.911 183.048 314.271 183.857 314.612 185.195C314.953 186.533 314.145 187.894 312.807 188.235Z" fill="url(#paint72_radial)"/>
<defs>
<filter id="filter0_d" x="128.728" y="130.047" width="182.569" height="182.569" filterUnits="userSpaceOnUse" color-interpolation-filters="sRGB">
<feFlood flood-opacity="0" result="BackgroundImageFix"/>
<feColorMatrix in="SourceAlpha" type="matrix" values="0 0 0 0 0 0 0 0 0 0 0 0 0 0 0 0 0 0 127 0"/>
<feOffset dx="6" dy="7"/>
<feGaussianBlur stdDeviation="8"/>
<feColorMatrix type="matrix" values="0 0 0 0 0 0 0 0 0 0 0 0 0 0 0 0 0 0 0.25 0"/>
<feBlend mode="normal" in2="BackgroundImageFix" result="effect1_dropShadow"/>
<feBlend mode="normal" in="SourceGraphic" in2="effect1_dropShadow" result="shape"/>
</filter>
<radialGradient id="paint0_radial" cx="0" cy="0" r="1" gradientUnits="userSpaceOnUse" gradientTransform="translate(205.241 6.80368) scale(19.7735)">
<stop stop-color="white"/>
<stop offset="0.0544" stop-color="#FAE7FE"/>
<stop offset="0.4974" stop-color="#E7CEF6"/>
<stop offset="0.8253" stop-color="#948B9D"/>
<stop offset="1" stop-color="#6D617B"/>
</radialGradient>
<radialGradient id="paint1_radial" cx="0" cy="0" r="1" gradientUnits="userSpaceOnUse" gradientTransform="translate(209.575 62.5063) scale(8.17804)">
<stop stop-color="white"/>
<stop offset="0.0544" stop-color="#FAE7FE"/>
<stop offset="0.4974" stop-color="#E7CEF6"/>
<stop offset="0.8253" stop-color="#948B9D"/>
<stop offset="1" stop-color="#6D617B"/>
</radialGradient>
<radialGradient id="paint2_radial" cx="0" cy="0" r="1" gradientUnits="userSpaceOnUse" gradientTransform="translate(211.171 110.513) scale(3.71729)">
<stop stop-color="white"/>
<stop offset="0.0544" stop-color="#FAE7FE"/>
<stop offset="0.4974" stop-color="#E7CEF6"/>
<stop offset="0.8253" stop-color="#948B9D"/>
<stop offset="1" stop-color="#6D617B"/>
</radialGradient>
<linearGradient id="paint3_linear" x1="143.313" y1="108.933" x2="305.987" y2="117.128" gradientUnits="userSpaceOnUse">
<stop offset="0.0756841" stop-color="#B565D8"/>
<stop offset="0.945898" stop-color="#EE609C"/>
</linearGradient>
<radialGradient id="paint4_radial" cx="0" cy="0" r="1" gradientUnits="userSpaceOnUse" gradientTransform="translate(421.242 203.786) rotate(90) scale(19.7735)">
<stop stop-color="white"/>
<stop offset="0.0544" stop-color="#FAE7FE"/>
<stop offset="0.4974" stop-color="#E7CEF6"/>
<stop offset="0.8253" stop-color="#948B9D"/>
<stop offset="1" stop-color="#6D617B"/>
</radialGradient>
<radialGradient id="paint5_radial" cx="0" cy="0" r="1" gradientUnits="userSpaceOnUse" gradientTransform="translate(365.54 208.121) rotate(90) scale(8.17804)">
<stop stop-color="white"/>
<stop offset="0.0544" stop-color="#FAE7FE"/>
<stop offset="0.4974" stop-color="#E7CEF6"/>
<stop offset="0.8253" stop-color="#948B9D"/>
<stop offset="1" stop-color="#6D617B"/>
</radialGradient>
<radialGradient id="paint6_radial" cx="0" cy="0" r="1" gradientUnits="userSpaceOnUse" gradientTransform="translate(317.533 209.716) rotate(90) scale(3.71729)">
<stop stop-color="white"/>
<stop offset="0.0544" stop-color="#FAE7FE"/>
<stop offset="0.4974" stop-color="#E7CEF6"/>
<stop offset="0.8253" stop-color="#948B9D"/>
<stop offset="1" stop-color="#6D617B"/>
</radialGradient>
<radialGradient id="paint7_radial" cx="0" cy="0" r="1" gradientUnits="userSpaceOnUse" gradientTransform="translate(416.981 257.698) rotate(104.945) scale(19.7735)">
<stop stop-color="white"/>
<stop offset="0.0544" stop-color="#FAE7FE"/>
<stop offset="0.4974" stop-color="#E7CEF6"/>
<stop offset="0.8253" stop-color="#948B9D"/>
<stop offset="1" stop-color="#6D617B"/>
</radialGradient>
<radialGradient id="paint8_radial" cx="0" cy="0" r="1" gradientUnits="userSpaceOnUse" gradientTransform="translate(362.045 247.52) rotate(104.945) scale(8.17804)">
<stop stop-color="white"/>
<stop offset="0.0544" stop-color="#FAE7FE"/>
<stop offset="0.4974" stop-color="#E7CEF6"/>
<stop offset="0.8253" stop-color="#948B9D"/>
<stop offset="1" stop-color="#6D617B"/>
</radialGradient>
<radialGradient id="paint9_radial" cx="0" cy="0" r="1" gradientUnits="userSpaceOnUse" gradientTransform="translate(315.251 236.681) rotate(104.945) scale(3.71729)">
<stop stop-color="white"/>
<stop offset="0.0544" stop-color="#FAE7FE"/>
<stop offset="0.4974" stop-color="#E7CEF6"/>
<stop offset="0.8253" stop-color="#948B9D"/>
<stop offset="1" stop-color="#6D617B"/>
</radialGradient>
<radialGradient id="paint10_radial" cx="0" cy="0" r="1" gradientUnits="userSpaceOnUse" gradientTransform="translate(398.917 308.613) rotate(119.939) scale(19.7735)">
<stop stop-color="white"/>
<stop offset="0.0544" stop-color="#FAE7FE"/>
<stop offset="0.4974" stop-color="#E7CEF6"/>
<stop offset="0.8253" stop-color="#948B9D"/>
<stop offset="1" stop-color="#6D617B"/>
</radialGradient>
<radialGradient id="paint11_radial" cx="0" cy="0" r="1" gradientUnits="userSpaceOnUse" gradientTransform="translate(348.484 284.569) rotate(119.939) scale(8.17804)">
<stop stop-color="white"/>
<stop offset="0.0544" stop-color="#FAE7FE"/>
<stop offset="0.4974" stop-color="#E7CEF6"/>
<stop offset="0.8253" stop-color="#948B9D"/>
<stop offset="1" stop-color="#6D617B"/>
</radialGradient>
<radialGradient id="paint12_radial" cx="0" cy="0" r="1" gradientUnits="userSpaceOnUse" gradientTransform="translate(306.088 261.992) rotate(119.939) scale(3.71729)">
<stop stop-color="white"/>
<stop offset="0.0544" stop-color="#FAE7FE"/>
<stop offset="0.4974" stop-color="#E7CEF6"/>
<stop offset="0.8253" stop-color="#948B9D"/>
<stop offset="1" stop-color="#6D617B"/>
</radialGradient>
<radialGradient id="paint13_radial" cx="0" cy="0" r="1" gradientUnits="userSpaceOnUse" gradientTransform="translate(368.075 353.379) rotate(135) scale(19.7735)">
<stop stop-color="white"/>
<stop offset="0.0544" stop-color="#FAE7FE"/>
<stop offset="0.4974" stop-color="#E7CEF6"/>
<stop offset="0.8253" stop-color="#948B9D"/>
<stop offset="1" stop-color="#6D617B"/>
</radialGradient>
<radialGradient id="paint14_radial" cx="0" cy="0" r="1" gradientUnits="userSpaceOnUse" gradientTransform="translate(325.621 317.056) rotate(135) scale(8.17804)">
<stop stop-color="white"/>
<stop offset="0.0544" stop-color="#FAE7FE"/>
<stop offset="0.4974" stop-color="#E7CEF6"/>
<stop offset="0.8253" stop-color="#948B9D"/>
<stop offset="1" stop-color="#6D617B"/>
</radialGradient>
<radialGradient id="paint15_radial" cx="0" cy="0" r="1" gradientUnits="userSpaceOnUse" gradientTransform="translate(290.548 284.238) rotate(135) scale(3.71729)">
<stop stop-color="white"/>
<stop offset="0.0544" stop-color="#FAE7FE"/>
<stop offset="0.4974" stop-color="#E7CEF6"/>
<stop offset="0.8253" stop-color="#948B9D"/>
<stop offset="1" stop-color="#6D617B"/>
</radialGradient>
<radialGradient id="paint16_radial" cx="0" cy="0" r="1" gradientUnits="userSpaceOnUse" gradientTransform="translate(326.979 388.429) rotate(149.85) scale(19.7735)">
<stop stop-color="white"/>
<stop offset="0.0544" stop-color="#FAE7FE"/>
<stop offset="0.4974" stop-color="#E7CEF6"/>
<stop offset="0.8253" stop-color="#948B9D"/>
<stop offset="1" stop-color="#6D617B"/>
</radialGradient>
<radialGradient id="paint17_radial" cx="0" cy="0" r="1" gradientUnits="userSpaceOnUse" gradientTransform="translate(295.253 342.439) rotate(149.85) scale(8.17804)">
<stop stop-color="white"/>
<stop offset="0.0544" stop-color="#FAE7FE"/>
<stop offset="0.4974" stop-color="#E7CEF6"/>
<stop offset="0.8253" stop-color="#948B9D"/>
<stop offset="1" stop-color="#6D617B"/>
</radialGradient>
<radialGradient id="paint18_radial" cx="0" cy="0" r="1" gradientUnits="userSpaceOnUse" gradientTransform="translate(269.761 301.728) rotate(149.85) scale(3.71729)">
<stop stop-color="white"/>
<stop offset="0.0544" stop-color="#FAE7FE"/>
<stop offset="0.4974" stop-color="#E7CEF6"/>
<stop offset="0.8253" stop-color="#948B9D"/>
<stop offset="1" stop-color="#6D617B"/>
</radialGradient>
<radialGradient id="paint19_radial" cx="0" cy="0" r="1" gradientUnits="userSpaceOnUse" gradientTransform="translate(278.088 411.73) rotate(164.837) scale(19.7735)">
<stop stop-color="white"/>
<stop offset="0.0544" stop-color="#FAE7FE"/>
<stop offset="0.4974" stop-color="#E7CEF6"/>
<stop offset="0.8253" stop-color="#948B9D"/>
<stop offset="1" stop-color="#6D617B"/>
</radialGradient>
<radialGradient id="paint20_radial" cx="0" cy="0" r="1" gradientUnits="userSpaceOnUse" gradientTransform="translate(259.335 359.101) rotate(164.837) scale(8.17804)">
<stop stop-color="white"/>
<stop offset="0.0544" stop-color="#FAE7FE"/>
<stop offset="0.4974" stop-color="#E7CEF6"/>
<stop offset="0.8253" stop-color="#948B9D"/>
<stop offset="1" stop-color="#6D617B"/>
</radialGradient>
<radialGradient id="paint21_radial" cx="0" cy="0" r="1" gradientUnits="userSpaceOnUse" gradientTransform="translate(245.238 313.183) rotate(164.837) scale(3.71729)">
<stop stop-color="white"/>
<stop offset="0.0544" stop-color="#FAE7FE"/>
<stop offset="0.4974" stop-color="#E7CEF6"/>
<stop offset="0.8253" stop-color="#948B9D"/>
<stop offset="1" stop-color="#6D617B"/>
</radialGradient>
<radialGradient id="paint22_radial" cx="0" cy="0" r="1" gradientUnits="userSpaceOnUse" gradientTransform="translate(223.888 421.6) rotate(-179.779) scale(19.7735)">
<stop stop-color="white"/>
<stop offset="0.0544" stop-color="#FAE7FE"/>
<stop offset="0.4974" stop-color="#E7CEF6"/>
<stop offset="0.8253" stop-color="#948B9D"/>
<stop offset="1" stop-color="#6D617B"/>
</radialGradient>
<radialGradient id="paint23_radial" cx="0" cy="0" r="1" gradientUnits="userSpaceOnUse" gradientTransform="translate(219.769 365.881) rotate(-179.779) scale(8.17804)">
<stop stop-color="white"/>
<stop offset="0.0544" stop-color="#FAE7FE"/>
<stop offset="0.4974" stop-color="#E7CEF6"/>
<stop offset="0.8253" stop-color="#948B9D"/>
<stop offset="1" stop-color="#6D617B"/>
</radialGradient>
<radialGradient id="paint24_radial" cx="0" cy="0" r="1" gradientUnits="userSpaceOnUse" gradientTransform="translate(218.359 317.869) rotate(-179.779) scale(3.71729)">
<stop stop-color="white"/>
<stop offset="0.0544" stop-color="#FAE7FE"/>
<stop offset="0.4974" stop-color="#E7CEF6"/>
<stop offset="0.8253" stop-color="#948B9D"/>
<stop offset="1" stop-color="#6D617B"/>
</radialGradient>
<radialGradient id="paint25_radial" cx="0" cy="0" r="1" gradientUnits="userSpaceOnUse" gradientTransform="translate(169.961 417.119) rotate(-164.837) scale(19.7735)">
<stop stop-color="white"/>
<stop offset="0.0544" stop-color="#FAE7FE"/>
<stop offset="0.4974" stop-color="#E7CEF6"/>
<stop offset="0.8253" stop-color="#948B9D"/>
<stop offset="1" stop-color="#6D617B"/>
</radialGradient>
<radialGradient id="paint26_radial" cx="0" cy="0" r="1" gradientUnits="userSpaceOnUse" gradientTransform="translate(180.348 362.221) rotate(-164.837) scale(8.17804)">
<stop stop-color="white"/>
<stop offset="0.0544" stop-color="#FAE7FE"/>
<stop offset="0.4974" stop-color="#E7CEF6"/>
<stop offset="0.8253" stop-color="#948B9D"/>
<stop offset="1" stop-color="#6D617B"/>
</radialGradient>
<radialGradient id="paint27_radial" cx="0" cy="0" r="1" gradientUnits="userSpaceOnUse" gradientTransform="translate(191.364 315.469) rotate(-164.837) scale(3.71729)">
<stop stop-color="white"/>
<stop offset="0.0544" stop-color="#FAE7FE"/>
<stop offset="0.4974" stop-color="#E7CEF6"/>
<stop offset="0.8253" stop-color="#948B9D"/>
<stop offset="1" stop-color="#6D617B"/>
</radialGradient>
<radialGradient id="paint28_radial" cx="0" cy="0" r="1" gradientUnits="userSpaceOnUse" gradientTransform="translate(119.059 398.807) rotate(-149.85) scale(19.7735)">
<stop stop-color="white"/>
<stop offset="0.0544" stop-color="#FAE7FE"/>
<stop offset="0.4974" stop-color="#E7CEF6"/>
<stop offset="0.8253" stop-color="#948B9D"/>
<stop offset="1" stop-color="#6D617B"/>
</radialGradient>
<radialGradient id="paint29_radial" cx="0" cy="0" r="1" gradientUnits="userSpaceOnUse" gradientTransform="translate(143.289 348.463) rotate(-149.85) scale(8.17804)">
<stop stop-color="white"/>
<stop offset="0.0544" stop-color="#FAE7FE"/>
<stop offset="0.4974" stop-color="#E7CEF6"/>
<stop offset="0.8253" stop-color="#948B9D"/>
<stop offset="1" stop-color="#6D617B"/>
</radialGradient>
<radialGradient id="paint30_radial" cx="0" cy="0" r="1" gradientUnits="userSpaceOnUse" gradientTransform="translate(166.022 306.15) rotate(-149.85) scale(3.71729)">
<stop stop-color="white"/>
<stop offset="0.0544" stop-color="#FAE7FE"/>
<stop offset="0.4974" stop-color="#E7CEF6"/>
<stop offset="0.8253" stop-color="#948B9D"/>
<stop offset="1" stop-color="#6D617B"/>
</radialGradient>
<radialGradient id="paint31_radial" cx="0" cy="0" r="1" gradientUnits="userSpaceOnUse" gradientTransform="translate(74.5248 367.861) rotate(-134.792) scale(19.7735)">
<stop stop-color="white"/>
<stop offset="0.0544" stop-color="#FAE7FE"/>
<stop offset="0.4974" stop-color="#E7CEF6"/>
<stop offset="0.8253" stop-color="#948B9D"/>
<stop offset="1" stop-color="#6D617B"/>
</radialGradient>
<radialGradient id="paint32_radial" cx="0" cy="0" r="1" gradientUnits="userSpaceOnUse" gradientTransform="translate(111.001 325.54) rotate(-134.792) scale(8.17804)">
<stop stop-color="white"/>
<stop offset="0.0544" stop-color="#FAE7FE"/>
<stop offset="0.4974" stop-color="#E7CEF6"/>
<stop offset="0.8253" stop-color="#948B9D"/>
<stop offset="1" stop-color="#6D617B"/>
</radialGradient>
<radialGradient id="paint33_radial" cx="0" cy="0" r="1" gradientUnits="userSpaceOnUse" gradientTransform="translate(143.947 290.586) rotate(-134.792) scale(3.71729)">
<stop stop-color="white"/>
<stop offset="0.0544" stop-color="#FAE7FE"/>
<stop offset="0.4974" stop-color="#E7CEF6"/>
<stop offset="0.8253" stop-color="#948B9D"/>
<stop offset="1" stop-color="#6D617B"/>
</radialGradient>
<radialGradient id="paint34_radial" cx="0" cy="0" r="1" gradientUnits="userSpaceOnUse" gradientTransform="translate(39.6865 326.728) rotate(-119.939) scale(19.7735)">
<stop stop-color="white"/>
<stop offset="0.0544" stop-color="#FAE7FE"/>
<stop offset="0.4974" stop-color="#E7CEF6"/>
<stop offset="0.8253" stop-color="#948B9D"/>
<stop offset="1" stop-color="#6D617B"/>
</radialGradient>
<radialGradient id="paint35_radial" cx="0" cy="0" r="1" gradientUnits="userSpaceOnUse" gradientTransform="translate(85.7928 295.172) rotate(-119.939) scale(8.17804)">
<stop stop-color="white"/>
<stop offset="0.0544" stop-color="#FAE7FE"/>
<stop offset="0.4974" stop-color="#E7CEF6"/>
<stop offset="0.8253" stop-color="#948B9D"/>
<stop offset="1" stop-color="#6D617B"/>
</radialGradient>
<radialGradient id="paint36_radial" cx="0" cy="0" r="1" gradientUnits="userSpaceOnUse" gradientTransform="translate(126.597 269.83) rotate(-119.939) scale(3.71729)">
<stop stop-color="white"/>
<stop offset="0.0544" stop-color="#FAE7FE"/>
<stop offset="0.4974" stop-color="#E7CEF6"/>
<stop offset="0.8253" stop-color="#948B9D"/>
<stop offset="1" stop-color="#6D617B"/>
</radialGradient>
<radialGradient id="paint37_radial" cx="0" cy="0" r="1" gradientUnits="userSpaceOnUse" gradientTransform="translate(16.6212 278.049) rotate(-104.945) scale(19.7735)">
<stop stop-color="white"/>
<stop offset="0.0544" stop-color="#FAE7FE"/>
<stop offset="0.4974" stop-color="#E7CEF6"/>
<stop offset="0.8253" stop-color="#948B9D"/>
<stop offset="1" stop-color="#6D617B"/>
</radialGradient>
<radialGradient id="paint38_radial" cx="0" cy="0" r="1" gradientUnits="userSpaceOnUse" gradientTransform="translate(69.3218 259.496) rotate(-104.945) scale(8.17804)">
<stop stop-color="white"/>
<stop offset="0.0544" stop-color="#FAE7FE"/>
<stop offset="0.4974" stop-color="#E7CEF6"/>
<stop offset="0.8253" stop-color="#948B9D"/>
<stop offset="1" stop-color="#6D617B"/>
</radialGradient>
<radialGradient id="paint39_radial" cx="0" cy="0" r="1" gradientUnits="userSpaceOnUse" gradientTransform="translate(115.293 245.574) rotate(-104.945) scale(3.71729)">
<stop stop-color="white"/>
<stop offset="0.0544" stop-color="#FAE7FE"/>
<stop offset="0.4974" stop-color="#E7CEF6"/>
<stop offset="0.8253" stop-color="#948B9D"/>
<stop offset="1" stop-color="#6D617B"/>
</radialGradient>
<radialGradient id="paint40_radial" cx="0" cy="0" r="1" gradientUnits="userSpaceOnUse" gradientTransform="translate(6.85206 223.395) rotate(-89.5577) scale(19.7735)">
<stop stop-color="white"/>
<stop offset="0.0544" stop-color="#FAE7FE"/>
<stop offset="0.4974" stop-color="#E7CEF6"/>
<stop offset="0.8253" stop-color="#948B9D"/>
<stop offset="1" stop-color="#6D617B"/>
</radialGradient>
<radialGradient id="paint41_radial" cx="0" cy="0" r="1" gradientUnits="userSpaceOnUse" gradientTransform="translate(62.5867 219.49) rotate(-89.5577) scale(8.17804)">
<stop stop-color="white"/>
<stop offset="0.0544" stop-color="#FAE7FE"/>
<stop offset="0.4974" stop-color="#E7CEF6"/>
<stop offset="0.8253" stop-color="#948B9D"/>
<stop offset="1" stop-color="#6D617B"/>
</radialGradient>
<radialGradient id="paint42_radial" cx="0" cy="0" r="1" gradientUnits="userSpaceOnUse" gradientTransform="translate(110.604 218.265) rotate(-89.5577) scale(3.71729)">
<stop stop-color="white"/>
<stop offset="0.0544" stop-color="#FAE7FE"/>
<stop offset="0.4974" stop-color="#E7CEF6"/>
<stop offset="0.8253" stop-color="#948B9D"/>
<stop offset="1" stop-color="#6D617B"/>
</radialGradient>
<radialGradient id="paint43_radial" cx="0" cy="0" r="1" gradientUnits="userSpaceOnUse" gradientTransform="translate(11.5072 169.625) rotate(-74.6201) scale(19.7735)">
<stop stop-color="white"/>
<stop offset="0.0544" stop-color="#FAE7FE"/>
<stop offset="0.4974" stop-color="#E7CEF6"/>
<stop offset="0.8253" stop-color="#948B9D"/>
<stop offset="1" stop-color="#6D617B"/>
</radialGradient>
<radialGradient id="paint44_radial" cx="0" cy="0" r="1" gradientUnits="userSpaceOnUse" gradientTransform="translate(66.3653 180.219) rotate(-74.6201) scale(8.17804)">
<stop stop-color="white"/>
<stop offset="0.0544" stop-color="#FAE7FE"/>
<stop offset="0.4974" stop-color="#E7CEF6"/>
<stop offset="0.8253" stop-color="#948B9D"/>
<stop offset="1" stop-color="#6D617B"/>
</radialGradient>
<radialGradient id="paint45_radial" cx="0" cy="0" r="1" gradientUnits="userSpaceOnUse" gradientTransform="translate(113.076 191.413) rotate(-74.6201) scale(3.71729)">
<stop stop-color="white"/>
<stop offset="0.0544" stop-color="#FAE7FE"/>
<stop offset="0.4974" stop-color="#E7CEF6"/>
<stop offset="0.8253" stop-color="#948B9D"/>
<stop offset="1" stop-color="#6D617B"/>
</radialGradient>
<radialGradient id="paint46_radial" cx="0" cy="0" r="1" gradientUnits="userSpaceOnUse" gradientTransform="translate(29.7612 119.163) rotate(-59.6388) scale(19.7735)">
<stop stop-color="white"/>
<stop offset="0.0544" stop-color="#FAE7FE"/>
<stop offset="0.4974" stop-color="#E7CEF6"/>
<stop offset="0.8253" stop-color="#948B9D"/>
<stop offset="1" stop-color="#6D617B"/>
</radialGradient>
<radialGradient id="paint47_radial" cx="0" cy="0" r="1" gradientUnits="userSpaceOnUse" gradientTransform="translate(80.0161 143.578) rotate(-59.6388) scale(8.17804)">
<stop stop-color="white"/>
<stop offset="0.0544" stop-color="#FAE7FE"/>
<stop offset="0.4974" stop-color="#E7CEF6"/>
<stop offset="0.8253" stop-color="#948B9D"/>
<stop offset="1" stop-color="#6D617B"/>
</radialGradient>
<radialGradient id="paint48_radial" cx="0" cy="0" r="1" gradientUnits="userSpaceOnUse" gradientTransform="translate(122.245 166.466) rotate(-59.6388) scale(3.71729)">
<stop stop-color="white"/>
<stop offset="0.0544" stop-color="#FAE7FE"/>
<stop offset="0.4974" stop-color="#E7CEF6"/>
<stop offset="0.8253" stop-color="#948B9D"/>
<stop offset="1" stop-color="#6D617B"/>
</radialGradient>
<radialGradient id="paint49_radial" cx="0" cy="0" r="1" gradientUnits="userSpaceOnUse" gradientTransform="translate(61.0659 74.3573) rotate(-44.5837) scale(19.7735)">
<stop stop-color="white"/>
<stop offset="0.0544" stop-color="#FAE7FE"/>
<stop offset="0.4974" stop-color="#E7CEF6"/>
<stop offset="0.8253" stop-color="#948B9D"/>
<stop offset="1" stop-color="#6D617B"/>
</radialGradient>
<radialGradient id="paint50_radial" cx="0" cy="0" r="1" gradientUnits="userSpaceOnUse" gradientTransform="translate(103.254 110.988) rotate(-44.5837) scale(8.17804)">
<stop stop-color="white"/>
<stop offset="0.0544" stop-color="#FAE7FE"/>
<stop offset="0.4974" stop-color="#E7CEF6"/>
<stop offset="0.8253" stop-color="#948B9D"/>
<stop offset="1" stop-color="#6D617B"/>
</radialGradient>
<radialGradient id="paint51_radial" cx="0" cy="0" r="1" gradientUnits="userSpaceOnUse" gradientTransform="translate(138.088 144.059) rotate(-44.5837) scale(3.71729)">
<stop stop-color="white"/>
<stop offset="0.0544" stop-color="#FAE7FE"/>
<stop offset="0.4974" stop-color="#E7CEF6"/>
<stop offset="0.8253" stop-color="#948B9D"/>
<stop offset="1" stop-color="#6D617B"/>
</radialGradient>
<radialGradient id="paint52_radial" cx="0" cy="0" r="1" gradientUnits="userSpaceOnUse" gradientTransform="translate(101.977 39.8348) rotate(-29.7279) scale(19.7735)">
<stop stop-color="white"/>
<stop offset="0.0544" stop-color="#FAE7FE"/>
<stop offset="0.4974" stop-color="#E7CEF6"/>
<stop offset="0.8253" stop-color="#948B9D"/>
<stop offset="1" stop-color="#6D617B"/>
</radialGradient>
<radialGradient id="paint53_radial" cx="0" cy="0" r="1" gradientUnits="userSpaceOnUse" gradientTransform="translate(133.363 86.057) rotate(-29.7279) scale(8.17804)">
<stop stop-color="white"/>
<stop offset="0.0544" stop-color="#FAE7FE"/>
<stop offset="0.4974" stop-color="#E7CEF6"/>
<stop offset="0.8253" stop-color="#948B9D"/>
<stop offset="1" stop-color="#6D617B"/>
</radialGradient>
<radialGradient id="paint54_radial" cx="0" cy="0" r="1" gradientUnits="userSpaceOnUse" gradientTransform="translate(158.554 126.954) rotate(-29.7279) scale(3.71729)">
<stop stop-color="white"/>
<stop offset="0.0544" stop-color="#FAE7FE"/>
<stop offset="0.4974" stop-color="#E7CEF6"/>
<stop offset="0.8253" stop-color="#948B9D"/>
<stop offset="1" stop-color="#6D617B"/>
</radialGradient>
<radialGradient id="paint55_radial" cx="0" cy="0" r="1" gradientUnits="userSpaceOnUse" gradientTransform="translate(151.775 16.5059) rotate(-14.5102) scale(19.7735)">
<stop stop-color="white"/>
<stop offset="0.0544" stop-color="#FAE7FE"/>
<stop offset="0.4974" stop-color="#E7CEF6"/>
<stop offset="0.8253" stop-color="#948B9D"/>
<stop offset="1" stop-color="#6D617B"/>
</radialGradient>
<radialGradient id="paint56_radial" cx="0" cy="0" r="1" gradientUnits="userSpaceOnUse" gradientTransform="translate(169.928 69.3457) rotate(-14.5102) scale(8.17804)">
<stop stop-color="white"/>
<stop offset="0.0544" stop-color="#FAE7FE"/>
<stop offset="0.4974" stop-color="#E7CEF6"/>
<stop offset="0.8253" stop-color="#948B9D"/>
<stop offset="1" stop-color="#6D617B"/>
</radialGradient>
<radialGradient id="paint57_radial" cx="0" cy="0" r="1" gradientUnits="userSpaceOnUse" gradientTransform="translate(183.501 115.421) rotate(-14.5102) scale(3.71729)">
<stop stop-color="white"/>
<stop offset="0.0544" stop-color="#FAE7FE"/>
<stop offset="0.4974" stop-color="#E7CEF6"/>
<stop offset="0.8253" stop-color="#948B9D"/>
<stop offset="1" stop-color="#6D617B"/>
</radialGradient>
<radialGradient id="paint58_radial" cx="0" cy="0" r="1" gradientUnits="userSpaceOnUse" gradientTransform="translate(259.521 11.966) rotate(15.5971) scale(19.7735)">
<stop stop-color="white"/>
<stop offset="0.0544" stop-color="#FAE7FE"/>
<stop offset="0.4974" stop-color="#E7CEF6"/>
<stop offset="0.8253" stop-color="#948B9D"/>
<stop offset="1" stop-color="#6D617B"/>
</radialGradient>
<radialGradient id="paint59_radial" cx="0" cy="0" r="1" gradientUnits="userSpaceOnUse" gradientTransform="translate(248.719 66.7829) rotate(15.5971) scale(8.17804)">
<stop stop-color="white"/>
<stop offset="0.0544" stop-color="#FAE7FE"/>
<stop offset="0.4974" stop-color="#E7CEF6"/>
<stop offset="0.8253" stop-color="#948B9D"/>
<stop offset="1" stop-color="#6D617B"/>
</radialGradient>
<radialGradient id="paint60_radial" cx="0" cy="0" r="1" gradientUnits="userSpaceOnUse" gradientTransform="translate(237.348 113.451) rotate(15.5971) scale(3.71729)">
<stop stop-color="white"/>
<stop offset="0.0544" stop-color="#FAE7FE"/>
<stop offset="0.4974" stop-color="#E7CEF6"/>
<stop offset="0.8253" stop-color="#948B9D"/>
<stop offset="1" stop-color="#6D617B"/>
</radialGradient>
<radialGradient id="paint61_radial" cx="0" cy="0" r="1" gradientUnits="userSpaceOnUse" gradientTransform="translate(309.842 30.3363) rotate(30.5721) scale(19.7735)">
<stop stop-color="white"/>
<stop offset="0.0544" stop-color="#FAE7FE"/>
<stop offset="0.4974" stop-color="#E7CEF6"/>
<stop offset="0.8253" stop-color="#948B9D"/>
<stop offset="1" stop-color="#6D617B"/>
</radialGradient>
<radialGradient id="paint62_radial" cx="0" cy="0" r="1" gradientUnits="userSpaceOnUse" gradientTransform="translate(285.241 80.5004) rotate(30.5721) scale(8.17804)">
<stop stop-color="white"/>
<stop offset="0.0544" stop-color="#FAE7FE"/>
<stop offset="0.4974" stop-color="#E7CEF6"/>
<stop offset="0.8253" stop-color="#948B9D"/>
<stop offset="1" stop-color="#6D617B"/>
</radialGradient>
<radialGradient id="paint63_radial" cx="0" cy="0" r="1" gradientUnits="userSpaceOnUse" gradientTransform="translate(262.198 122.645) rotate(30.5721) scale(3.71729)">
<stop stop-color="white"/>
<stop offset="0.0544" stop-color="#FAE7FE"/>
<stop offset="0.4974" stop-color="#E7CEF6"/>
<stop offset="0.8253" stop-color="#948B9D"/>
<stop offset="1" stop-color="#6D617B"/>
</radialGradient>
<radialGradient id="paint64_radial" cx="0" cy="0" r="1" gradientUnits="userSpaceOnUse" gradientTransform="translate(354.667 61.8734) rotate(45.6245) scale(19.7735)">
<stop stop-color="white"/>
<stop offset="0.0544" stop-color="#FAE7FE"/>
<stop offset="0.4974" stop-color="#E7CEF6"/>
<stop offset="0.8253" stop-color="#948B9D"/>
<stop offset="1" stop-color="#6D617B"/>
</radialGradient>
<radialGradient id="paint65_radial" cx="0" cy="0" r="1" gradientUnits="userSpaceOnUse" gradientTransform="translate(317.884 103.928) rotate(45.6245) scale(8.17804)">
<stop stop-color="white"/>
<stop offset="0.0544" stop-color="#FAE7FE"/>
<stop offset="0.4974" stop-color="#E7CEF6"/>
<stop offset="0.8253" stop-color="#948B9D"/>
<stop offset="1" stop-color="#6D617B"/>
</radialGradient>
<radialGradient id="paint66_radial" cx="0" cy="0" r="1" gradientUnits="userSpaceOnUse" gradientTransform="translate(284.685 138.642) rotate(45.6245) scale(3.71729)">
<stop stop-color="white"/>
<stop offset="0.0544" stop-color="#FAE7FE"/>
<stop offset="0.4974" stop-color="#E7CEF6"/>
<stop offset="0.8253" stop-color="#948B9D"/>
<stop offset="1" stop-color="#6D617B"/>
</radialGradient>
<radialGradient id="paint67_radial" cx="0" cy="0" r="1" gradientUnits="userSpaceOnUse" gradientTransform="translate(389.125 103.043) rotate(60.4833) scale(19.7735)">
<stop stop-color="white"/>
<stop offset="0.0544" stop-color="#FAE7FE"/>
<stop offset="0.4974" stop-color="#E7CEF6"/>
<stop offset="0.8253" stop-color="#948B9D"/>
<stop offset="1" stop-color="#6D617B"/>
</radialGradient>
<radialGradient id="paint68_radial" cx="0" cy="0" r="1" gradientUnits="userSpaceOnUse" gradientTransform="translate(342.787 134.259) rotate(60.4833) scale(8.17804)">
<stop stop-color="white"/>
<stop offset="0.0544" stop-color="#FAE7FE"/>
<stop offset="0.4974" stop-color="#E7CEF6"/>
<stop offset="0.8253" stop-color="#948B9D"/>
<stop offset="1" stop-color="#6D617B"/>
</radialGradient>
<radialGradient id="paint69_radial" cx="0" cy="0" r="1" gradientUnits="userSpaceOnUse" gradientTransform="translate(301.797 159.299) rotate(60.4833) scale(3.71729)">
<stop stop-color="white"/>
<stop offset="0.0544" stop-color="#FAE7FE"/>
<stop offset="0.4974" stop-color="#E7CEF6"/>
<stop offset="0.8253" stop-color="#948B9D"/>
<stop offset="1" stop-color="#6D617B"/>
</radialGradient>
<radialGradient id="paint70_radial" cx="0" cy="0" r="1" gradientUnits="userSpaceOnUse" gradientTransform="translate(412.216 152.838) rotate(75.7074) scale(19.7735)">
<stop stop-color="white"/>
<stop offset="0.0544" stop-color="#FAE7FE"/>
<stop offset="0.4974" stop-color="#E7CEF6"/>
<stop offset="0.8253" stop-color="#948B9D"/>
<stop offset="1" stop-color="#6D617B"/>
</radialGradient>
<radialGradient id="paint71_radial" cx="0" cy="0" r="1" gradientUnits="userSpaceOnUse" gradientTransform="translate(359.308 170.79) rotate(75.7074) scale(8.17804)">
<stop stop-color="white"/>
<stop offset="0.0544" stop-color="#FAE7FE"/>
<stop offset="0.4974" stop-color="#E7CEF6"/>
<stop offset="0.8253" stop-color="#948B9D"/>
<stop offset="1" stop-color="#6D617B"/>
</radialGradient>
<radialGradient id="paint72_radial" cx="0" cy="0" r="1" gradientUnits="userSpaceOnUse" gradientTransform="translate(313.18 184.188) rotate(75.7074) scale(3.71729)">
<stop stop-color="white"/>
<stop offset="0.0544" stop-color="#FAE7FE"/>
<stop offset="0.4974" stop-color="#E7CEF6"/>
<stop offset="0.8253" stop-color="#948B9D"/>
<stop offset="1" stop-color="#6D617B"/>
</radialGradient>
</defs>
</svg>
