<svg width="720" height="775" viewBox="0 0 720 775" fill="none" xmlns="http://www.w3.org/2000/svg">
<g opacity="0.7" filter="url(#filter0_d)">
<path d="M636.958 470.788C665.655 377.301 623.436 270.709 547.19 209.499C470.944 148.285 366.909 128.862 270.007 141.814C186.663 152.954 103.665 188.836 51.2269 254.595C27.1355 284.812 12.7718 334.598 43.4783 358.06C80.3793 386.249 135.722 342.704 178.884 359.823C216.954 374.923 222.785 426.698 214.921 466.908C207.058 507.118 192.118 550.437 210.113 587.241C227.049 621.87 269.277 638.081 307.745 635.787C350.473 633.24 390.195 611.385 432.648 604.754C453.914 601.432 474.884 602.841 496.186 599.085C519.658 594.943 541.943 586.594 561.58 572.943C596.86 548.413 624.317 511.968 636.958 470.788Z" fill="url(#paint0_linear)"/>
</g>
<path d="M542.95 271.77L499.925 296.806L499.056 297.312L375.067 369.464L374.202 369.967L250.209 442.121L249.344 442.624L223.031 457.936C223.53 458.209 224.038 458.458 224.533 458.733L250.07 443.872L250.935 443.368L374.928 371.215L375.793 370.711L499.782 298.56L500.651 298.054L544.145 272.744C543.748 272.422 543.352 272.094 542.95 271.77Z" fill="url(#paint1_linear)"/>
<path d="M485.395 271.836L484.526 272.341L360.537 344.493L359.672 344.996L235.679 417.15L234.814 417.653L190.607 443.378C191.197 443.584 191.778 443.814 192.366 444.025L235.537 418.903L236.402 418.4L360.395 346.246L361.26 345.742L485.249 273.591L486.118 273.085L518.718 254.115C518.267 253.819 517.807 253.533 517.356 253.237L485.395 271.836Z" fill="url(#paint2_linear)"/>
<path d="M470.865 246.864L469.996 247.37L346.007 319.521L345.142 320.025L221.149 392.178L220.284 392.682L129.107 445.739C129.447 446.1 129.784 446.462 130.128 446.821L221.012 393.933L221.877 393.43L345.87 321.276L346.735 320.773L470.724 248.621L471.593 248.116L490.321 237.217C489.823 236.944 489.322 236.683 488.818 236.417L470.865 246.864Z" fill="url(#paint3_linear)"/>
<path d="M456.333 221.894L455.464 222.399L331.475 294.551L330.61 295.054L206.617 367.208L205.752 367.711L110.293 423.26C110.584 423.649 110.879 424.036 111.171 424.425L206.48 368.963L207.345 368.459L331.338 296.306L332.203 295.802L456.192 223.651L457.061 223.145L459.397 221.786C458.862 221.538 458.328 221.291 457.793 221.044L456.333 221.894Z" fill="url(#paint4_linear)"/>
<path d="M492.662 284.324L491.793 284.83L367.804 356.981L366.938 357.485L242.946 429.638L242.081 430.142L207.631 450.189C208.162 450.429 208.678 450.701 209.205 450.943L242.807 431.39L243.672 430.886L367.665 358.733L368.53 358.229L492.519 286.078L493.388 285.572L531.821 263.207C531.398 262.895 530.978 262.581 530.553 262.275L492.662 284.324Z" fill="url(#paint5_linear)"/>
<path d="M478.129 259.35L477.26 259.855L353.271 332.007L352.406 332.51L228.413 404.664L227.548 405.167L171.443 437.816C172.115 437.97 172.775 438.162 173.445 438.321L228.274 406.415L229.14 405.912L353.132 333.758L353.997 333.255L477.986 261.103L478.855 260.597L504.855 245.468C504.38 245.186 503.911 244.901 503.434 244.624L478.129 259.35Z" fill="url(#paint6_linear)"/>
<path d="M463.599 234.379L462.73 234.885L338.741 307.036L337.876 307.54L213.884 379.693L213.018 380.197L119.332 434.714C119.648 435.089 119.957 435.468 120.272 435.842L213.746 381.448L214.612 380.944L338.604 308.791L339.47 308.287L463.459 236.136L464.328 235.63L475.127 229.346C474.61 229.088 474.096 228.829 473.579 228.572L463.599 234.379Z" fill="url(#paint7_linear)"/>
<path d="M629.761 388.391L572.582 421.664L571.713 422.17L447.724 494.321L446.859 494.825L341.695 556.021C342.06 556.368 342.424 556.714 342.783 557.059L447.585 496.073L448.45 495.569L572.439 423.418L573.308 422.912L630.32 389.736C630.135 389.29 629.948 388.84 629.761 388.391Z" fill="url(#paint8_linear)"/>
<path d="M558.052 396.693L557.183 397.199L433.194 469.35L432.328 469.854L320.074 535.177C320.435 535.525 320.796 535.873 321.157 536.222L433.057 471.105L433.922 470.602L557.911 398.45L558.78 397.945L618.037 363.462C617.812 363.034 617.587 362.607 617.361 362.18L558.052 396.693Z" fill="url(#paint9_linear)"/>
<path d="M543.52 371.722L542.651 372.228L418.662 444.38L417.797 444.883L298.232 514.46C298.604 514.802 298.972 515.146 299.343 515.489L418.525 446.135L419.39 445.631L543.379 373.479L544.248 372.974L603.332 338.592C603.068 338.187 602.808 337.78 602.541 337.377L543.52 371.722Z" fill="url(#paint10_linear)"/>
<path d="M528.99 346.751L528.121 347.257L404.132 419.409L403.266 419.912L279.274 492.066L278.409 492.569L275.367 494.339C275.759 494.669 276.152 494.999 276.544 495.33L279.137 493.821L280.002 493.317L403.995 421.164L404.86 420.66L528.849 348.508L529.718 348.003L586.208 315.13C585.903 314.749 585.605 314.365 585.293 313.988L528.99 346.751Z" fill="url(#paint11_linear)"/>
<path d="M514.46 321.781L513.591 322.286L389.602 394.438L388.736 394.941L264.744 467.095L263.878 467.598L250.67 475.285C251.098 475.589 251.52 475.906 251.949 476.211L264.604 468.846L265.47 468.343L389.462 396.189L390.328 395.686L514.317 323.534L515.186 323.028L566.56 293.133C566.209 292.779 565.848 292.43 565.496 292.082L514.46 321.781Z" fill="url(#paint12_linear)"/>
<path d="M565.316 409.179L564.447 409.684L440.458 481.836L439.593 482.34L330.863 545.611C331.224 545.96 331.585 546.308 331.946 546.656L440.321 483.591L441.187 483.087L565.176 410.936L566.045 410.43L624.485 376.423C624.28 375.983 624.072 375.546 623.868 375.107L565.316 409.179Z" fill="url(#paint13_linear)"/>
<path d="M550.787 384.208L549.918 384.713L425.929 456.865L425.063 457.368L309.232 524.772C309.597 525.119 309.963 525.46 310.329 525.809L425.792 458.62L426.657 458.116L550.646 385.965L551.515 385.459L610.988 350.851C610.742 350.436 610.499 350.018 610.253 349.603L550.787 384.208Z" fill="url(#paint14_linear)"/>
<path d="M536.255 359.237L535.386 359.743L411.397 431.894L410.531 432.398L286.98 504.294C287.362 504.63 287.749 504.959 288.133 505.299L411.26 433.649L412.125 433.145L536.114 360.994L536.983 360.488L595.076 326.683C594.791 326.29 594.514 325.893 594.222 325.505L536.255 359.237Z" fill="url(#paint15_linear)"/>
<path d="M521.725 334.266L520.856 334.772L396.867 406.923L396.001 407.427L272.009 479.58L271.144 480.084L263.295 484.651C263.704 484.971 264.126 485.28 264.538 485.603L271.872 481.335L272.737 480.832L396.73 408.678L397.595 408.174L521.584 336.023L522.453 335.517L576.715 303.941C576.386 303.575 576.056 303.208 575.723 302.844L521.725 334.266Z" fill="url(#paint16_linear)"/>
<path d="M507.193 309.295L506.324 309.801L382.335 381.952L381.47 382.456L257.477 454.609L256.612 455.113L237.289 466.357C237.751 466.647 238.207 466.935 238.665 467.227L257.338 456.361L258.203 455.857L382.196 383.704L383.061 383.2L507.05 311.049L507.919 310.543L555.716 282.729C555.341 282.389 554.965 282.054 554.587 281.716L507.193 309.295Z" fill="url(#paint17_linear)"/>
<path d="M630.708 521.551L629.839 522.057L505.85 594.208L504.985 594.712L442.439 631.108C442.978 631.353 443.512 631.601 444.048 631.842L505.707 595.962L506.573 595.458L630.562 523.307L631.431 522.801L650.833 511.51C650.881 510.929 650.911 510.348 650.955 509.769L630.708 521.551Z" fill="url(#paint18_linear)"/>
<path d="M616.178 496.58L615.31 497.086L491.321 569.237L490.455 569.741L412.998 614.814C413.451 615.105 413.892 615.415 414.346 615.7L491.181 570.989L492.047 570.485L616.036 498.334L616.905 497.828L651.055 477.955C651.02 477.422 650.973 476.886 650.934 476.355L616.178 496.58Z" fill="url(#paint19_linear)"/>
<path d="M601.648 471.609L600.779 472.115L476.79 544.266L475.925 544.77L387.289 596.349C387.695 596.671 388.098 596.995 388.505 597.311L476.647 546.02L477.513 545.516L601.502 473.365L602.371 472.859L647.126 446.815C647.033 446.311 646.952 445.804 646.859 445.3L601.648 471.609Z" fill="url(#paint20_linear)"/>
<path d="M587.114 446.635L586.245 447.141L462.256 519.292L461.391 519.796L363.836 576.564C364.214 576.903 364.593 577.241 364.969 577.576L462.117 521.043L462.982 520.54L586.971 448.388L587.84 447.883L640.093 417.476C639.952 417 639.801 416.534 639.659 416.058L587.114 446.635Z" fill="url(#paint21_linear)"/>
<path d="M637.975 534.037L637.106 534.542L513.117 606.694L512.252 607.198L459.324 637.997C459.924 638.211 460.527 638.409 461.124 638.62L512.978 608.445L513.843 607.942L637.832 535.79L638.701 535.285L648.493 529.587C648.603 528.969 648.708 528.349 648.813 527.73L637.975 534.037Z" fill="url(#paint22_linear)"/>
<path d="M623.444 509.066L622.575 509.571L498.586 581.723L497.721 582.226L427.08 623.333C427.573 623.605 428.071 623.869 428.564 624.14L498.444 583.476L499.309 582.973L623.298 510.821L624.167 510.316L651.554 494.379C651.558 493.818 651.571 493.257 651.568 492.7L623.444 509.066Z" fill="url(#paint23_linear)"/>
<path d="M608.913 484.095L608.044 484.601L484.055 556.752L483.189 557.256L399.785 605.79C400.216 606.098 400.651 606.398 401.081 606.706L483.916 558.503L484.781 558L608.77 485.848L609.639 485.343L649.515 462.138C649.446 461.62 649.386 461.101 649.317 460.583L608.913 484.095Z" fill="url(#paint24_linear)"/>
<path d="M594.383 459.124L593.514 459.63L469.525 531.781L468.659 532.285L375.324 586.598C375.716 586.928 376.117 587.249 376.509 587.579L469.385 533.532L470.251 533.029L594.24 460.877L595.109 460.372L643.98 431.933C643.862 431.443 643.74 430.96 643.619 430.472L594.383 459.124Z" fill="url(#paint25_linear)"/>
<path d="M579.851 434.153L578.982 434.659L454.993 506.81L454.127 507.314L352.648 566.366C353.02 566.708 353.388 567.053 353.759 567.395L454.859 508.563L455.725 508.059L579.713 435.908L580.582 435.402L635.537 403.424C635.374 402.96 635.204 402.5 635.038 402.039L579.851 434.153Z" fill="url(#paint26_linear)"/>
<path d="M644.549 546.925L644.372 547.028L520.383 619.179L519.517 619.683L478.217 643.716C478.896 643.884 479.582 644.039 480.266 644.199L520.246 620.934L521.111 620.43L643.97 548.936C644.166 548.264 644.359 547.598 644.549 546.925Z" fill="url(#paint27_linear)"/>
<path d="M534.049 644.654L527.393 648.527C528.496 648.457 529.598 648.375 530.7 648.278L534.777 645.905L535.643 645.401L621.49 595.445C622.166 594.503 622.841 593.561 623.494 592.604L534.914 644.15L534.049 644.654Z" fill="url(#paint28_linear)"/>
<path d="M526.783 632.172L500.078 647.712C500.877 647.806 501.673 647.91 502.469 647.991L527.51 633.42L528.375 632.916L636.079 570.241C636.416 569.501 636.727 568.747 637.053 568.004L527.649 631.668L526.783 632.172Z" fill="url(#paint29_linear)"/>
<path d="M172.25 136.502L123.57 164.829C121.719 166.405 119.895 168.02 118.113 169.676L178.868 134.321C176.646 134.995 174.439 135.721 172.25 136.502Z" fill="url(#paint30_linear)"/>
<path d="M104.756 194.162L105.622 193.658L217.57 128.513C216.606 128.511 215.64 128.506 214.678 128.525L104.899 192.408L104.034 192.912L93.0775 199.287C92.4875 200.184 91.8934 201.074 91.3218 201.979L104.756 194.162Z" fill="url(#paint31_linear)"/>
<path d="M177.412 319.02L178.277 318.516L302.27 246.363L303.135 245.859L393.269 193.408C392.71 193.175 392.154 192.94 391.599 192.705L302.41 244.605L301.545 245.109L177.553 317.263L176.687 317.766L81.8192 372.972C82.0028 373.423 82.1934 373.87 82.3805 374.32L177.412 319.02Z" fill="url(#paint32_linear)"/>
<path d="M162.882 294.049L163.747 293.545L287.74 221.391L288.605 220.888L360.216 179.216C359.674 178.973 359.133 178.73 358.591 178.487L287.881 219.634L287.015 220.138L163.023 292.292L162.157 292.795L72.618 344.9C72.7425 345.386 72.881 345.863 73.0055 346.349L162.882 294.049Z" fill="url(#paint33_linear)"/>
<path d="M148.351 269.078L149.216 268.574L273.209 196.421L274.074 195.917L328.504 164.244C327.983 163.988 327.465 163.731 326.947 163.479L273.352 194.667L272.486 195.171L148.494 267.324L147.628 267.828L67.2341 314.611C67.2891 315.137 67.3317 315.666 67.3902 316.19L148.351 269.078Z" fill="url(#paint34_linear)"/>
<path d="M133.819 244.107L134.685 243.603L258.677 171.45L259.543 170.946L296.995 149.152C296.457 148.906 295.919 148.661 295.383 148.419L258.816 169.698L257.951 170.202L133.959 242.355L133.093 242.859L66.5261 281.595C66.4887 282.171 66.4533 282.75 66.4215 283.327L133.819 244.107Z" fill="url(#paint35_linear)"/>
<path d="M119.286 219.132L120.152 218.629L244.144 146.475L245.01 145.972L262.473 135.81C261.839 135.616 261.2 135.438 260.561 135.252L244.284 144.724L243.418 145.227L119.426 217.381L118.56 217.885L72.6958 244.574C72.5104 245.231 72.3415 245.892 72.1636 246.554L119.286 219.132Z" fill="url(#paint36_linear)"/>
<path d="M170.146 306.534L171.012 306.03L295.004 233.877L295.87 233.373L376.622 186.382C376.07 186.145 375.514 185.91 374.966 185.671L295.145 232.12L294.279 232.624L170.287 304.777L169.422 305.281L76.7887 359.185C76.9411 359.655 77.0879 360.123 77.2457 360.595L170.146 306.534Z" fill="url(#paint37_linear)"/>
<path d="M155.616 281.563L156.482 281.059L280.474 208.906L281.34 208.402L344.167 171.842C343.639 171.591 343.115 171.337 342.59 171.084L280.615 207.149L279.749 207.652L155.757 279.806L154.892 280.309L69.4191 330.047C69.5123 330.552 69.6036 331.052 69.6989 331.56L155.616 281.563Z" fill="url(#paint38_linear)"/>
<path d="M141.084 256.592L141.95 256.089L265.942 183.935L266.808 183.432L312.898 156.611C312.374 156.358 311.85 156.104 311.328 155.854L266.085 182.182L265.22 182.685L141.227 254.839L140.362 255.343L66.1999 298.499C66.2133 299.049 66.2211 299.598 66.2379 300.147L141.084 256.592Z" fill="url(#paint39_linear)"/>
<path d="M126.554 231.621L127.42 231.118L251.412 158.964L252.278 158.461L280.391 142.101C279.818 141.876 279.25 141.644 278.681 141.426L251.552 157.213L250.686 157.716L126.694 229.87L125.828 230.373L68.528 263.718C68.4301 264.333 68.3142 264.949 68.2183 265.568L126.554 231.621Z" fill="url(#paint40_linear)"/>
<path d="M112.023 206.65L112.888 206.147L236.881 133.993L237.746 133.49L242.293 130.844C241.555 130.711 240.815 130.583 240.079 130.462L237.02 132.242L236.155 132.746L112.162 204.899L111.297 205.403L80.0241 223.601C79.7121 224.336 79.4002 225.071 79.0992 225.809L112.023 206.65Z" fill="url(#paint41_linear)"/>
<path d="M198.05 474.149L197.174 472.988L175.471 485.618C175.908 485.922 176.35 486.218 176.791 486.52L198.05 474.149Z" fill="url(#paint42_linear)"/>
<path d="M180.491 450.94L179.612 449.781L150.828 466.531C151.213 466.865 151.595 467.201 151.982 467.53L180.491 450.94Z" fill="url(#paint43_linear)"/>
<path d="M191.943 343.99L192.809 343.487L316.801 271.333L317.666 270.83L426.706 207.378C426.15 207.143 425.598 206.906 425.042 206.671L316.942 269.576L316.076 270.08L192.084 342.233L191.218 342.737L94.4527 399.047C94.692 399.466 94.9382 399.881 95.1809 400.298L191.943 343.99Z" fill="url(#paint44_linear)"/>
<path d="M189.271 462.543L188.392 461.384L162.781 476.288C163.194 476.606 163.605 476.92 164.018 477.238L189.271 462.543Z" fill="url(#paint45_linear)"/>
<path d="M140.691 457.387L171.707 439.338L170.831 438.177L139.59 456.357C139.952 456.7 140.327 457.041 140.691 457.387Z" fill="url(#paint46_linear)"/>
<path d="M199.21 356.479L200.076 355.976L324.068 283.822L324.934 283.319L443.215 214.488C442.67 214.247 442.122 214.008 441.573 213.769L324.209 282.065L323.344 282.569L199.351 354.722L198.486 355.226L101.998 411.374C102.262 411.779 102.518 412.188 102.785 412.591L199.21 356.479Z" fill="url(#paint47_linear)"/>
<path d="M88.3551 387.561L184.683 331.507L185.548 331.003L309.541 258.849L310.406 258.346L410.019 200.38C409.46 200.147 408.901 199.913 408.342 199.68L309.678 257.095L308.813 257.598L184.82 329.752L183.955 330.255L87.7243 386.253C87.9357 386.689 88.1402 387.128 88.3551 387.561Z" fill="url(#paint48_linear)"/>
<path d="M215.612 497.356L214.733 496.197L203.189 502.915C203.679 503.188 204.165 503.464 204.656 503.732L215.612 497.356Z" fill="url(#paint49_linear)"/>
<path d="M224.389 508.961L223.508 507.799L218.273 510.845C218.791 511.103 219.305 511.362 219.822 511.619L224.389 508.961Z" fill="url(#paint50_linear)"/>
<path d="M188.934 494.497C189.395 494.787 189.858 495.071 190.324 495.358L206.831 485.753L205.952 484.594L188.934 494.497Z" fill="url(#paint51_linear)"/>
<g filter="url(#filter1_d)">
<path d="M144.719 367.083C157.108 369.365 168.092 378.296 172.872 389.967C183.039 414.793 165.208 442.922 169.906 469.317C171.406 477.759 175.169 486.579 172.002 494.526C168.28 503.851 156.038 507.29 146.424 504.339C136.808 501.392 129.391 493.797 122.847 486.144C110.319 471.499 99.0731 455.061 94.6413 436.318C87.1865 404.823 105.864 359.919 144.719 367.083Z" fill="url(#paint52_linear)"/>
</g>
<g filter="url(#filter2_d)">
<path d="M170.593 172.983C164.41 164.341 164.838 151.398 172.007 143.468C179.177 135.541 192.547 133.912 201.025 140.334C205.837 143.98 208.926 150.302 207.448 156.168C206.203 161.111 202.306 164.415 198.733 167.751C195.599 170.676 193.876 173.94 191.277 177.212C185.375 184.645 175.142 179.34 170.593 172.983Z" fill="url(#paint53_linear)"/>
</g>
<g filter="url(#filter3_d)">
<path d="M149.339 524.544C151.427 522.579 154.59 521.739 157.26 522.705C160.522 523.886 162.509 527.718 161.799 531.148C161.085 534.579 157.888 537.285 154.423 537.591C146.216 538.321 143.732 529.829 149.339 524.544Z" fill="url(#paint54_linear)"/>
</g>
<g filter="url(#filter4_d)">
<path d="M229.732 570.162C240.581 559.954 257.008 555.593 270.88 560.613C287.823 566.744 298.144 586.651 294.457 604.465C290.748 622.288 274.138 636.345 256.139 637.936C213.509 641.727 200.608 597.617 229.732 570.162Z" fill="url(#paint55_linear)"/>
</g>
<g filter="url(#filter5_d)">
<path d="M80.449 287.773C86.8838 281.718 96.6271 279.132 104.855 282.109C114.905 285.746 121.026 297.553 118.84 308.119C116.639 318.691 106.788 327.029 96.1119 327.972C70.8263 330.221 63.1745 304.058 80.449 287.773Z" fill="url(#paint56_linear)"/>
</g>
<g filter="url(#filter6_d)">
<path d="M193.756 192.857C192.982 194.254 185.797 199.372 184.216 199.312C182.285 199.239 180.856 194.977 180.65 193.037C180.447 191.096 181.684 189.117 183.471 188.367C187.701 186.587 195.834 189.102 193.756 192.857Z" fill="url(#paint57_linear)"/>
</g>
<g filter="url(#filter7_d)">
<path d="M663.339 391.544C665.427 389.579 668.59 388.739 671.26 389.706C674.522 390.886 676.509 394.718 675.799 398.148C675.085 401.579 671.888 404.285 668.423 404.592C660.216 405.321 657.732 396.83 663.339 391.544Z" fill="url(#paint58_linear)"/>
</g>
<g filter="url(#filter8_d)">
<path d="M664.298 413.827C656.745 414.952 650.276 420.147 642.689 421.042C634.266 422.038 624.845 417.752 617.661 422.174C612.353 425.444 610.566 432.717 612.359 438.703C614.152 444.69 618.832 449.462 624.042 452.981C634.886 460.298 649.004 463.034 661.439 459.193C673.183 455.563 683.76 445.102 686.679 433.019C689.481 421.433 674.863 412.252 664.298 413.827Z" fill="url(#paint59_linear)"/>
</g>
<g filter="url(#filter9_d)">
<path d="M181.319 372.83C184.942 370.431 190.495 371.909 192.527 375.749C194.562 379.591 192.735 384.936 188.82 386.817C184.901 388.697 179.651 386.86 177.672 382.987C175.693 379.115 177.218 373.865 180.909 371.571" fill="url(#paint60_linear)"/>
</g>
<path d="M453.157 164.951H181.088V541.006H453.157V164.951Z" fill="#AEBECE"/>
<path d="M444.352 156.698H172.283V532.753H444.352V156.698Z" fill="#DDE5F0"/>
<path d="M288.099 239.501C288.099 264.673 267.742 285.03 242.571 285.03C217.4 285.03 197.043 264.673 197.043 239.501C197.043 214.33 217.4 193.973 242.571 193.973C267.605 193.973 288.099 214.33 288.099 239.501Z" fill="#99C7EB"/>
<path d="M419.733 212.405H297.178V216.531H419.733V212.405Z" fill="#1259A1"/>
<path d="M344.494 251.055H297.178V255.182H344.494V251.055Z" fill="#1259A1"/>
<path d="M419.732 251.055H348.482V255.182H419.732V251.055Z" fill="#1259A1"/>
<path d="M368.427 262.473H297.178V266.599H368.427V262.473Z" fill="#1259A1"/>
<path d="M322.624 238.814H297.178V242.941H322.624V238.814Z" fill="#B9CADB"/>
<path d="M354.948 238.814H329.502V242.941H354.948V238.814Z" fill="#1259A1"/>
<path d="M387.407 238.814H361.961V242.941H387.407V238.814Z" fill="#1259A1"/>
<path d="M419.731 238.814H394.285V242.941H419.731V238.814Z" fill="#B9CADB"/>
<path d="M337.204 225.335H297.178V229.462H337.204V225.335Z" fill="#1259A1"/>
<path d="M384.52 225.335H344.494V229.462H384.52V225.335Z" fill="#1259A1"/>
<path d="M419.732 225.335H391.26V229.462H419.732V225.335Z" fill="#1259A1"/>
<path d="M379.983 298.921H236.658V303.048H379.983V298.921Z" fill="#1463A1"/>
<path d="M283.01 337.572H197.043V341.698H283.01V337.572Z" fill="#B9CADB"/>
<path d="M419.732 337.572H290.162V341.698H419.732V337.572Z" fill="#1259A1"/>
<path d="M326.613 349.126H197.043V353.252H326.613V349.126Z" fill="#B9CADB"/>
<path d="M243.259 325.331H197.043V329.457H243.259V325.331Z" fill="#B9CADB"/>
<path d="M301.991 325.331H255.775V329.457H301.991V325.331Z" fill="#B9CADB"/>
<path d="M360.862 325.331H314.646V329.457H360.862V325.331Z" fill="#1259A1"/>
<path d="M419.734 325.331H373.518V329.457H419.734V325.331Z" fill="#1259A1"/>
<path d="M269.806 311.852H197.043V315.978H269.806V311.852Z" fill="#B9CADB"/>
<path d="M355.774 311.852H283.012V315.978H355.774V311.852Z" fill="#1259A1"/>
<path d="M419.732 311.852H367.877V315.978H419.732V311.852Z" fill="#1259A1"/>
<path d="M419.732 372.097H197.043V376.224H419.732V372.097Z" fill="#3E7FBF"/>
<path d="M283.01 410.61H197.043V414.736H283.01V410.61Z" fill="#3E7FBF"/>
<path d="M419.732 410.61H290.162V414.736H419.732V410.61Z" fill="#3E7FBF"/>
<path d="M326.613 422.165H197.043V426.291H326.613V422.165Z" fill="#3E7FBF"/>
<path d="M243.259 398.506H197.043V402.632H243.259V398.506Z" fill="#3E7FBF"/>
<path d="M301.991 398.506H255.775V402.632H301.991V398.506Z" fill="#3E7FBF"/>
<path d="M360.862 398.506H314.646V402.632H360.862V398.506Z" fill="#3E7FBF"/>
<path d="M419.734 398.506H373.518V402.632H419.734V398.506Z" fill="#B9CADB"/>
<path d="M269.806 384.889H197.043V389.015H269.806V384.889Z" fill="#3E7FBF"/>
<path d="M355.774 384.889H283.012V389.015H355.774V384.889Z" fill="#3E7FBF"/>
<path d="M419.732 384.889H367.877V389.015H419.732V384.889Z" fill="#B9CADB"/>
<path d="M419.732 442.796H197.043V446.923H419.732V442.796Z" fill="#3E7FBF"/>
<path d="M283.01 481.447H197.043V485.573H283.01V481.447Z" fill="#3E7FBF"/>
<path d="M419.732 481.447H290.162V485.573H419.732V481.447Z" fill="#3E7FBF"/>
<path d="M326.613 492.864H197.043V496.991H326.613V492.864Z" fill="#3E7FBF"/>
<path d="M243.259 469.206H197.043V473.332H243.259V469.206Z" fill="#3E7FBF"/>
<path d="M301.991 469.206H255.775V473.332H301.991V469.206Z" fill="#3E7FBF"/>
<path d="M360.862 469.206H314.646V473.332H360.862V469.206Z" fill="#3E7FBF"/>
<path d="M419.734 469.206H373.518V473.332H419.734V469.206Z" fill="#B9CADB"/>
<path d="M269.806 455.727H197.043V459.853H269.806V455.727Z" fill="#3E7FBF"/>
<path d="M355.774 455.727H283.012V459.853H355.774V455.727Z" fill="#3E7FBF"/>
<path d="M419.732 455.727H367.877V459.853H419.732V455.727Z" fill="#B9CADB"/>
<path d="M406.252 191.497H310.656V196.586H406.252V191.497Z" fill="#1463A1"/>
<path d="M230.056 208.966C230.056 208.966 229.781 221.483 231.569 228.223L235.696 209.517L230.056 208.966Z" fill="#D27E64"/>
<path d="M269.396 294.383L269.947 271.826C261.694 256.008 250.277 269.212 250.277 269.212L254.266 294.383H269.396Z" fill="#E8AF8C"/>
<path d="M252.613 294.383H271.869C273.245 267.424 264.442 255.595 264.442 255.595C260.59 252.844 253.988 256.007 253.988 256.007C248.486 258.758 248.211 265.773 248.624 271C248.761 271.138 250.137 281.316 252.613 294.383Z" fill="#0D0F13"/>
<path d="M254.263 240.19H239.82V254.22H254.263V240.19Z" fill="#E8AF8C"/>
<path d="M239.82 243.904V240.19H254.263V248.305C249.036 248.718 241.884 248.443 239.82 243.904Z" fill="#E29D7A"/>
<path d="M237.209 259.859L234.32 251.744L239.822 250.093H254.127L264.581 255.733L262.518 259.859H237.209Z" fill="#E8AF8C"/>
<path d="M268.705 294.384C268.43 277.19 268.293 265.499 268.293 265.499C268.293 259.997 264.579 255.595 264.579 255.595L254.125 249.956L248.623 251.469L239.683 249.406L230.467 252.844C230.467 252.844 221.114 254.357 219.188 267.562C219.188 267.562 217.262 277.19 216.162 294.246H268.705V294.384Z" fill="white"/>
<path d="M248.622 251.605L244.908 253.531L247.247 257.107H249.86L252.198 253.806L248.622 251.605Z" fill="#AD524C"/>
<path d="M251.374 294.383L249.861 257.107H247.247L245.459 294.383H251.374Z" fill="#D3625D"/>
<path d="M271.455 294.383L270.905 285.168L271.455 269.762C271.18 261.372 264.578 255.595 264.578 255.595L256.738 251.193C256.738 251.193 255.775 258.896 249.998 272.788L250.823 294.383H271.455Z" fill="#111519"/>
<path d="M260.04 253.256C260.453 255.457 260.866 257.795 261.141 259.996C261.278 261.097 261.416 262.197 261.553 263.435C261.691 264.535 261.828 265.636 261.966 266.874L262.103 267.836L261.141 268.111C259.215 268.662 257.289 269.349 255.364 269.762L256.051 267.561C256.739 268.387 257.564 269.349 258.252 270.175L260.453 272.788L261.003 273.476L260.59 274.164C259.903 275.539 259.215 276.777 258.665 278.152C257.977 279.528 257.289 280.766 256.602 282.004C255.226 284.617 253.713 287.093 252.062 289.569C252.888 286.68 253.851 283.929 254.951 281.178C255.501 279.803 256.051 278.428 256.602 277.052C257.152 275.677 257.702 274.301 258.39 272.926L258.527 274.301L256.326 271.688C255.501 270.862 254.813 269.9 254.126 269.074L252.75 267.424L254.813 266.874C256.739 266.323 258.665 265.911 260.59 265.498L259.765 266.736C259.765 265.636 259.765 264.398 259.765 263.297C259.765 262.197 259.765 260.959 259.903 259.859C259.628 257.795 259.765 255.457 260.04 253.256Z" fill="#0C0E11"/>
<path d="M248.623 251.606L254.4 257.659L260.039 252.569L254.125 246.655L248.623 251.606Z" fill="#BCC8E0"/>
<path d="M244.082 294.383L243.669 274.714C237.892 260.959 235.416 251.193 235.416 251.193L224.825 254.77C224.825 254.77 217.397 257.933 217.397 267.699L215.609 281.041L215.884 294.383H244.082Z" fill="#111519"/>
<path d="M231.703 252.707C231.978 255.045 232.116 257.246 232.116 259.584C232.116 260.684 232.253 261.922 232.116 263.023C232.116 264.123 232.116 265.361 232.116 266.461L231.29 265.223C233.216 265.636 235.142 266.186 237.067 266.599L239.131 267.149L237.755 268.8C237.067 269.625 236.242 270.588 235.554 271.413L233.354 274.026L233.491 272.376C234.316 273.614 235.142 274.989 235.967 276.227C236.792 277.465 237.48 278.841 238.305 280.078C239.818 282.692 241.331 285.305 242.707 288.194C240.644 285.993 238.718 283.655 236.792 281.179C235.829 279.941 234.867 278.841 234.041 277.603C233.216 276.365 232.253 275.127 231.29 273.889L230.74 273.064L231.428 272.238L233.629 269.625C234.316 268.8 235.142 267.837 235.829 267.011L236.517 269.212C234.591 268.662 232.666 268.112 230.74 267.562L229.777 267.287L229.915 266.324C230.052 265.223 230.19 264.123 230.328 262.885C230.465 261.785 230.603 260.684 230.74 259.446C230.878 257.246 231.29 254.907 231.703 252.707Z" fill="#0C0E11"/>
<path d="M225.377 294.384L228.266 282.142C224.965 264.674 210.247 273.889 210.247 273.889L208.459 294.384H225.377Z" fill="#E8AF8C"/>
<path d="M226.066 294.385L228.954 280.905C229.917 263.299 224.69 254.771 224.69 254.771C211.21 257.659 208.459 281.868 208.459 281.868C208.459 281.868 207.772 287.507 207.084 294.385H226.066Z" fill="#0D0F13"/>
<path d="M248.761 251.608L240.509 258.485L231.293 251.608L239.821 245.831L248.761 251.608Z" fill="#BCC8E0"/>
<path d="M242.019 245.555C243.944 245.004 247.108 243.904 247.108 243.904C254.398 240.328 256.874 240.19 257.974 235.926C257.974 235.789 260.588 214.606 260.588 214.606C260.175 203.878 248.758 203.052 246.97 203.052C245.32 202.915 234.316 201.402 232.528 211.993C232.528 211.993 229.502 224.372 233.766 238.815C235.967 244.179 238.58 245.279 238.58 245.279C238.58 245.279 239.955 246.242 242.019 245.555Z" fill="#E8AF8C"/>
<path d="M259.214 225.747C257.701 226.16 257.701 229.461 257.701 229.461H255.638C256.188 223.546 256.188 217.907 256.188 217.907C256.188 217.907 256.325 214.743 253.85 212.955L260.314 206.766C260.314 206.766 265.128 206.903 264.716 215.981C264.716 215.981 264.441 230.286 257.976 235.926L259.214 225.747Z" fill="#D27E64"/>
<path d="M260.314 206.766C258.938 208.967 256.187 212.818 254.399 213.231C238.444 216.807 232.529 211.58 232.529 211.58C231.429 210.892 230.328 209.654 229.641 208.004C229.641 208.004 231.429 207.866 232.804 208.141C232.804 208.141 229.778 206.491 230.741 201.264C230.741 201.264 235.418 203.465 237.481 202.227C237.481 202.227 236.243 200.301 236.518 197.825C236.518 197.825 241.607 200.714 248.897 200.851C248.897 200.714 259.488 200.851 260.314 206.766Z" fill="#D27E64"/>
<path d="M257.012 230.7C257.287 231.112 257.7 231.25 258.525 231.25C260.176 231.25 261.414 229.737 261.964 228.361C263.202 225.335 261.826 224.51 261.826 224.51C258.525 222.447 257.15 226.848 257.15 226.848C256.737 227.949 256.187 229.737 257.012 230.7Z" fill="#E8AF8C"/>
<path d="M143.106 535.497L136.229 535.516L136.259 546.794L143.137 546.776L143.106 535.497Z" fill="#E8AF8C"/>
<path d="M142.985 544.445L146.836 547.471L162.929 554.899C162.929 554.899 164.993 555.862 162.654 556.962H149.037L143.123 556.137L134.457 553.936L136.108 544.583L142.985 544.445Z" fill="#D7D7D7"/>
<path d="M118.227 535.091H111.35V546.37H118.227V535.091Z" fill="#E8AF8C"/>
<path d="M118.226 544.169L129.642 550.634L138.033 554.485C138.033 554.485 140.096 555.448 137.758 556.549H124.141L118.226 555.586L109.561 553.385L111.211 544.032L118.226 544.169Z" fill="#D1D1D1"/>
<path d="M147.661 547.884L148.349 473.333L150.137 428.08L150.275 406.21H121.527L127.717 428.355L131.568 471.132L132.394 483.237L133.632 548.709C133.769 548.847 144.36 550.222 147.661 547.884Z" fill="#14151F"/>
<path d="M129.367 435.232L127.166 477.597L124.965 505.107L124.415 547.609C119.326 549.81 108.184 548.572 108.184 548.572L108.735 475.947L107.084 406.21L129.367 406.347V435.232Z" fill="#181B2B"/>
<path d="M156.602 337.572L155.915 367.282C155.915 367.282 156.465 370.859 152.063 373.885C152.063 373.885 146.424 380.074 142.022 363.706L137.346 334.959C137.346 334.959 148.487 322.167 156.602 337.572Z" fill="#E8AF8C"/>
<path d="M147.659 376.224L161.964 383.789L181.221 390.667L183.284 386.816L167.466 375.124C160.176 370.31 155.912 367.284 155.912 367.284L142.02 363.708L143.67 370.585C143.67 370.585 143.67 374.024 147.659 376.224Z" fill="#E8AF8C"/>
<path d="M183.147 386.678L189.062 386.816L194.701 388.329L192.088 389.567L198.553 392.455C198.553 392.455 196.352 395.619 194.564 396.444C194.564 396.444 187.686 396.994 185.623 394.931L181.084 390.667L183.147 386.678Z" fill="#E8AF8C"/>
<path d="M142.983 373.473C142.983 373.473 164.028 387.091 178.196 391.767C178.196 391.767 184.248 390.529 183.285 384.752L158.114 365.771C161.277 335.098 151.374 321.755 151.374 321.755C147.66 319.005 141.195 322.168 141.195 322.168C135.831 324.782 135.556 331.659 135.968 336.748C135.968 336.748 138.444 354.904 142.983 373.473Z" fill="#BBCADC"/>
<path d="M140.235 305.8H126.205V319.555H140.235V305.8Z" fill="#E8AF8C"/>
<path d="M126.205 309.376V305.8H140.235V313.778C135.146 314.053 129.919 312.54 126.205 309.376Z" fill="#E29D7A"/>
<path d="M123.729 324.919L120.703 316.941L126.205 315.428H140.235L150.276 320.792L148.213 324.919H123.729Z" fill="#E8AF8C"/>
<path d="M154.814 361.369C154.814 361.369 150.55 407.722 150.275 406.209C127.167 412.124 106.947 406.072 106.947 406.072L103.096 331.934C103.096 321.343 112.311 319.417 112.311 319.417L126.066 314.74C127.304 321.205 136.657 320.105 136.657 320.105C142.572 320.105 140.096 315.29 140.096 315.29L150.275 320.792C150.275 320.792 153.713 323.406 153.851 330.421L154.814 361.369Z" fill="#D8E0EE"/>
<path d="M116.299 416.25C116.299 416.25 115.199 425.053 107.496 426.153V440.733H120.976V416.25H116.299Z" fill="#181B2B"/>
<path d="M134.869 317.217L131.018 319.005L133.493 322.581H136.107L138.308 319.28L134.869 317.217Z" fill="#D38D55"/>
<path d="M136.106 322.582L138.719 391.355L134.318 397.682L129.916 390.943L133.492 322.582H136.106Z" fill="#D9A157"/>
<path d="M134.869 317.217L140.509 322.994L146.01 318.042L140.233 312.265L134.869 317.217Z" fill="#BCC8E0"/>
<path d="M134.869 317.216L126.754 323.819L117.676 317.216L126.066 311.577L134.869 317.216Z" fill="#BCC8E0"/>
<path d="M149.313 277.327C149.313 277.327 149.588 289.156 147.937 295.484L144.086 277.74L149.313 277.327Z" fill="#1D232B"/>
<path d="M138.031 311.852C136.243 311.439 133.217 310.201 133.217 310.201C126.339 306.763 124.001 306.625 123.038 302.774C123.038 302.636 120.562 282.692 120.562 282.692C120.975 272.513 131.704 271.826 133.354 271.826C135.005 271.688 145.321 270.175 146.972 280.216C146.972 280.216 149.86 291.908 145.734 305.525C143.67 310.614 141.195 311.714 141.195 311.714C141.195 311.714 139.819 312.402 138.031 311.852Z" fill="#E8AF8C"/>
<path d="M121.803 293.145C123.316 293.557 123.316 296.584 123.316 296.584H125.242C125.655 293.97 127.443 288.056 127.443 288.056C127.443 288.056 127.443 285.03 126.893 281.178L120.84 275.264C120.84 275.264 116.301 275.401 116.714 283.929C116.714 283.929 116.989 297.409 123.041 302.773L121.803 293.145Z" fill="#1D232B"/>
<path d="M120.84 275.264C122.078 277.328 124.691 280.904 126.342 281.317C141.472 284.755 146.974 279.666 146.974 279.666C148.074 278.978 149.037 277.74 149.725 276.365C149.725 276.365 148.074 276.227 146.699 276.502C146.699 276.502 149.587 274.989 148.762 270.038C148.762 270.038 144.36 272.101 142.435 271C142.435 271 143.535 269.212 143.398 266.874C143.398 266.874 138.583 269.487 131.706 269.763C131.569 269.625 121.528 269.763 120.84 275.264Z" fill="#1D232B"/>
<path d="M123.865 297.822C123.59 298.097 123.177 298.372 122.49 298.372C120.977 298.372 119.739 296.859 119.189 295.621C117.951 292.87 119.326 292.045 119.326 292.045C122.352 290.12 123.728 294.246 123.728 294.246C124.14 295.209 124.553 296.997 123.865 297.822Z" fill="#E8AF8C"/>
<path d="M212.311 314.384L199.705 341.287L215.772 348.816L228.378 321.913L212.311 314.384Z" fill="#90AEC2"/>
<path d="M212.38 314.384L199.773 341.287L207.745 345.022L220.351 318.12L212.38 314.384Z" fill="#BCD6E9"/>
<path d="M296.488 155.735C250.272 134.14 195.39 153.947 173.795 200.162C152.2 246.378 172.007 301.26 218.223 322.855C264.439 344.45 319.32 324.643 340.915 278.427C362.51 232.349 342.704 177.467 296.488 155.735ZM226.063 306.212C189.201 288.881 173.245 245.003 190.576 208.003C207.907 171.14 251.785 155.184 288.785 172.515C325.648 189.846 341.603 233.724 324.272 270.724C306.941 307.587 262.926 323.543 226.063 306.212Z" fill="#B45B1B"/>
<path opacity="0.3" d="M324.137 270.723C306.806 307.586 262.929 323.541 225.928 306.21C189.066 288.879 173.11 245.001 190.441 208.001C207.772 171.138 251.65 155.183 288.65 172.514C325.65 189.845 341.468 233.723 324.137 270.723Z" fill="#1F61A6"/>
<path opacity="0.3" d="M282.458 308.825C244.083 322.717 201.718 302.91 187.963 264.534C174.071 226.158 193.878 183.794 232.254 170.039L282.458 308.825Z" fill="#83ABD4"/>
<path d="M230.605 296.445C199.106 281.727 185.489 244.177 200.344 212.678" stroke="white" stroke-width="2" stroke-miterlimit="10"/>
<path d="M319.048 251.879C318.085 256.693 316.572 261.37 314.371 266.046" stroke="white" stroke-width="2" stroke-miterlimit="10"/>
<path d="M284.111 182.281C307.082 193.009 320.561 215.98 320.424 239.776" stroke="white" stroke-width="2" stroke-miterlimit="10"/>
<path d="M171.181 464.254C167.055 472.919 159.077 471.819 150.274 467.692C141.609 463.566 135.419 458.202 139.545 449.399L188.375 345.275C192.501 336.61 200.479 337.985 209.144 341.974C217.81 346.1 224 351.327 220.011 359.993L171.181 464.254Z" fill="#945B18"/>
<path d="M209.557 342.388C209.42 342.25 209.282 342.25 209.144 342.112C200.479 337.986 192.501 336.611 188.375 345.414L139.545 449.537C135.419 458.203 141.609 463.704 150.274 467.831C150.412 467.968 150.549 467.968 150.824 468.106L209.557 342.388Z" fill="#C07925"/>
<path d="M122.081 348.302L129.096 379.25C129.096 379.25 129.921 382.826 125.795 386.265C125.795 386.265 120.705 392.867 114.928 377.049L105.438 349.402C105.438 349.402 112.59 333.721 122.081 348.302Z" fill="#E8AF8C"/>
<path d="M122.491 388.053L136.246 396.718L154.953 405.246L157.291 401.533L142.573 388.466C135.696 383.101 131.707 379.8 131.707 379.8L118.09 375.124L119.19 382.001C118.915 382.001 118.778 385.577 122.491 388.053Z" fill="#E8AF8C"/>
<path d="M156.878 401.533L162.793 402.084L168.295 404.009L165.682 404.972L171.871 408.411C171.871 408.411 169.395 411.299 167.607 412.125C167.607 412.125 160.73 412.125 158.804 409.924L154.678 405.247L156.878 401.533Z" fill="#E8AF8C"/>
<path d="M116.716 384.201C116.716 384.201 100.898 344.313 103.236 329.595C103.236 329.595 104.061 324.093 109.976 323.68C109.976 323.68 117.266 324.506 119.742 331.246L130.333 377.737C130.333 377.737 149.727 393.555 157.017 399.882C157.017 399.882 157.567 405.521 152.203 408.135L116.716 384.201Z" fill="#D8E0EE"/>
<path d="M580.112 535.504C580.112 542.382 574.473 548.021 567.595 548.021H412.579C405.702 548.021 400.062 542.382 400.062 535.504V225.472C400.062 218.595 405.702 212.956 412.579 212.956H567.595C574.473 212.956 580.112 218.595 580.112 225.472V535.504Z" fill="#B3B3B3"/>
<path d="M578.737 233.037H401.301V527.801H578.737V233.037Z" fill="#B45B1B"/>
<path d="M506.524 222.447C506.524 223.547 505.699 224.372 504.598 224.372H470.762C469.661 224.372 468.836 223.547 468.836 222.447C468.836 221.346 469.661 220.521 470.762 220.521H504.736C505.699 220.659 506.524 221.484 506.524 222.447Z" fill="#0A1B34"/>
<path d="M511.201 222.446C511.201 223.547 510.376 224.372 509.275 224.372C508.175 224.372 507.35 223.547 507.35 222.446C507.35 221.346 508.175 220.521 509.275 220.521C510.376 220.658 511.201 221.483 511.201 222.446Z" fill="#0A1B34"/>
<path opacity="0.4" d="M580.112 535.504C580.112 542.382 574.473 548.021 567.595 548.021H412.579C405.702 548.021 400.062 542.382 400.062 535.504V225.472C400.062 218.595 405.702 212.956 412.579 212.956H444.765L580.112 535.504Z" fill="white"/>
<path d="M580.112 535.504C580.112 542.382 574.473 548.021 567.595 548.021H412.579C405.702 548.021 400.062 542.382 400.062 535.504V225.472C400.062 218.595 405.702 212.956 412.579 212.956H567.595C574.473 212.956 580.112 218.595 580.112 225.472V535.504Z" stroke="#303C58" stroke-miterlimit="10"/>
<path d="M550.127 308.827H436.375V461.917H550.127V308.827Z" fill="#757F88"/>
<path d="M543.937 303.462H430.186V456.552H543.937V303.462Z" fill="#DDE5F0"/>
<path d="M518.217 345.414C518.217 363.983 503.086 379.113 484.518 379.113C465.949 379.113 450.818 363.983 450.818 345.414C450.818 326.845 465.949 311.715 484.518 311.715C503.086 311.715 518.217 326.845 518.217 345.414Z" fill="#EB9999"/>
<path d="M478.601 319.555C484.24 322.306 485.065 331.797 485.065 337.299C485.065 340.6 484.515 343.764 484.24 346.927C484.103 349.816 483.14 353.254 481.214 355.593C479.976 357.106 471.311 363.57 471.723 361.507C472.411 357.106 473.511 349.541 473.649 347.477C474.062 342.663 474.474 340.187 473.924 335.236C473.924 335.236 471.311 322.444 478.601 319.555Z" fill="#362A21"/>
<path d="M466.634 386.128H474.749C476.4 371.41 475.987 365.908 475.987 365.908C475.987 365.908 476.537 359.581 471.861 359.306C471.861 359.306 467.047 359.306 467.184 365.358C466.772 373.061 466.359 379.113 466.634 386.128Z" fill="#EBB08C"/>
<path d="M474.609 386.128C474.334 384.89 473.784 383.652 471.996 382.827C471.996 382.827 469.932 382.414 467.869 386.128H474.609Z" fill="#E8AF8C"/>
<path d="M487.266 358.893C487.266 358.893 486.991 372.51 496.482 369.484C496.482 369.484 502.672 362.332 495.382 357.242L487.266 358.893Z" fill="#E8AF8C"/>
<path d="M488.228 345.827H480.938V356.693H488.228V345.827Z" fill="#E8AF8C"/>
<path d="M480.938 350.366V345.827H488.228V351.329C485.614 351.329 484.514 351.329 480.938 350.366Z" fill="#E29D7A"/>
<path d="M491.392 358.069H474.611V368.522H491.392V358.069Z" fill="#E8AF8C"/>
<path d="M470.76 360.407C472.548 357.656 475.161 356.968 475.161 356.968L481.764 354.492H487.953L494.556 356.968C494.556 356.968 497.306 357.656 498.957 360.407H470.76Z" fill="#E8AF8C"/>
<path d="M490.706 344.177C490.431 344.865 490.018 345.415 489.468 345.828C486.992 348.028 483.691 349.541 480.39 349.404C471.862 345.277 475.301 328.497 475.301 328.497C476.951 320.519 483.828 320.794 483.828 320.794C489.055 320.794 493.732 323.407 494.282 328.909C494.557 330.972 494.007 333.311 493.869 335.374C493.732 336.887 493.457 338.4 492.907 339.913C492.356 341.426 491.394 342.801 490.706 344.177Z" fill="#E8AF8C"/>
<path d="M491.805 339.5C491.805 339.5 492.63 336.749 490.017 334.548L489.329 328.358C489.329 328.358 485.34 324.232 476.4 326.708C476.4 326.708 474.749 330.147 474.749 336.749C474.749 336.749 471.998 325.607 476.813 320.931C476.813 320.931 479.701 316.667 488.504 318.042C488.504 318.042 500.883 320.656 495.794 336.749C495.794 336.749 494.556 342.113 490.43 345.139L491.805 339.5Z" fill="#362A21"/>
<path d="M491.804 337.849C491.804 337.849 492.905 335.235 494.968 336.473C494.968 336.473 496.206 337.161 495.243 339.224C495.243 339.224 494.28 341.7 491.529 340.737L491.804 337.849Z" fill="#E8AF8C"/>
<path d="M471.448 377.6L473.787 384.202L473.099 386.128H493.731L493.593 385.853L498.408 370.86C500.608 365.083 500.333 361.507 500.333 361.507C500.471 359.169 495.382 357.38 495.382 357.38L489.604 355.18C489.604 355.18 488.642 362.057 481.489 361.232C481.489 361.232 477.913 361.232 478.601 355.73L471.723 358.068C471.723 358.068 465.809 360.269 470.485 367.146C470.485 367.146 468.697 372.236 471.448 377.6Z" fill="#464661"/>
<path d="M498.822 386.128H506.387L503.086 364.533C503.086 364.533 502.949 359.306 497.859 358.619C497.859 358.619 494.146 359.169 495.383 369.347L498.822 386.128Z" fill="#E8AF8C"/>
<path d="M502.259 386.128L501.296 385.028L500.471 386.128H502.259Z" fill="#E8AF8C"/>
<path d="M493.043 319.693C493.593 319.968 494.006 320.381 494.418 320.794C498.82 325.058 498.682 331.66 498.682 337.299C498.682 340.601 498.132 343.764 497.857 346.928C497.719 349.816 496.069 353.668 494.831 355.593C493.73 357.244 484.927 363.571 485.34 361.508C486.028 357.106 487.128 349.541 487.266 347.478C487.678 342.664 488.091 340.188 487.541 335.236C487.266 332.76 486.578 330.284 485.615 328.084C484.927 326.433 483.277 321.757 481.214 321.481C480.939 321.481 483.552 318.73 483.827 318.593C486.716 317.355 490.429 317.905 493.043 319.693Z" fill="#362A21"/>
<path d="M524.406 383.376H444.354V385.439H524.406V383.376Z" fill="#B9CADB"/>
<path d="M475.302 402.771H444.354V404.834H475.302V402.771Z" fill="#B9CADB"/>
<path d="M524.545 402.771H477.916V404.834H524.545V402.771Z" fill="#B9CADB"/>
<path d="M490.982 408.686H444.354V410.749H490.982V408.686Z" fill="#B9CADB"/>
<path d="M460.997 396.719H444.354V398.782H460.997V396.719Z" fill="#B9CADB"/>
<path d="M482.178 396.719H465.535V398.782H482.178V396.719Z" fill="#B9CADB"/>
<path d="M503.362 396.719H486.719V398.782H503.362V396.719Z" fill="#B9CADB"/>
<path d="M524.542 396.719H507.898V398.782H524.542V396.719Z" fill="#B9CADB"/>
<path d="M470.488 389.841H444.354V391.905H470.488V389.841Z" fill="#B9CADB"/>
<path d="M501.435 389.841H475.301V391.905H501.435V389.841Z" fill="#B9CADB"/>
<path d="M524.405 389.841H505.836V391.905H524.405V389.841Z" fill="#B9CADB"/>
<path d="M524.406 418.726H444.354V420.79H524.406V418.726Z" fill="#B9CADB"/>
<path d="M475.302 438.12H444.354V440.184H475.302V438.12Z" fill="#B9CADB"/>
<path d="M524.545 438.12H477.916V440.184H524.545V438.12Z" fill="#B9CADB"/>
<path d="M490.982 444.035H444.354V446.098H490.982V444.035Z" fill="#B9CADB"/>
<path d="M460.997 432.069H444.354V434.132H460.997V432.069Z" fill="#B9CADB"/>
<path d="M482.178 432.069H465.535V434.132H482.178V432.069Z" fill="#B9CADB"/>
<path d="M503.362 432.069H486.719V434.132H503.362V432.069Z" fill="#B9CADB"/>
<path d="M524.542 432.069H507.898V434.132H524.542V432.069Z" fill="#B9CADB"/>
<path d="M470.488 425.191H444.354V427.254H470.488V425.191Z" fill="#B9CADB"/>
<path d="M501.435 425.191H475.301V427.254H501.435V425.191Z" fill="#B9CADB"/>
<path d="M524.405 425.191H505.836V427.254H524.405V425.191Z" fill="#B9CADB"/>
<defs>
<filter id="filter0_d" x="20" y="132" width="648" height="526" filterUnits="userSpaceOnUse" color-interpolation-filters="sRGB">
<feFlood flood-opacity="0" result="BackgroundImageFix"/>
<feColorMatrix in="SourceAlpha" type="matrix" values="0 0 0 0 0 0 0 0 0 0 0 0 0 0 0 0 0 0 127 0" result="hardAlpha"/>
<feOffset dx="8" dy="8"/>
<feGaussianBlur stdDeviation="7"/>
<feColorMatrix type="matrix" values="0 0 0 0 0 0 0 0 0 0 0 0 0 0 0 0 0 0 0.25 0"/>
<feBlend mode="normal" in2="BackgroundImageFix" result="effect1_dropShadow"/>
<feBlend mode="normal" in="SourceGraphic" in2="effect1_dropShadow" result="shape"/>
</filter>
<filter id="filter1_d" x="59" y="344.628" width="188.468" height="194.385" filterUnits="userSpaceOnUse" color-interpolation-filters="sRGB">
<feFlood flood-opacity="0" result="BackgroundImageFix"/>
<feColorMatrix in="SourceAlpha" type="matrix" values="0 0 0 0 0 0 0 0 0 0 0 0 0 0 0 0 0 0 127 0" result="hardAlpha"/>
<feOffset dx="8" dy="8"/>
<feGaussianBlur stdDeviation="7"/>
<feColorMatrix type="matrix" values="0 0 0 0 0 0 0 0 0 0 0 0 0 0 0 0 0 0 0.25 0"/>
<feBlend mode="normal" in2="BackgroundImageFix" result="effect1_dropShadow"/>
<feBlend mode="normal" in="SourceGraphic" in2="effect1_dropShadow" result="shape"/>
</filter>
<filter id="filter2_d" x="152.031" y="123" width="85.9539" height="84.6766" filterUnits="userSpaceOnUse" color-interpolation-filters="sRGB">
<feFlood flood-opacity="0" result="BackgroundImageFix"/>
<feColorMatrix in="SourceAlpha" type="matrix" values="0 0 0 0 0 0 0 0 0 0 0 0 0 0 0 0 0 0 127 0" result="hardAlpha"/>
<feOffset dx="8" dy="8"/>
<feGaussianBlur stdDeviation="7"/>
<feColorMatrix type="matrix" values="0 0 0 0 0 0 0 0 0 0 0 0 0 0 0 0 0 0 0.25 0"/>
<feBlend mode="normal" in2="BackgroundImageFix" result="effect1_dropShadow"/>
<feBlend mode="normal" in="SourceGraphic" in2="effect1_dropShadow" result="shape"/>
</filter>
<filter id="filter3_d" x="138" y="513.628" width="48.4515" height="48.9195" filterUnits="userSpaceOnUse" color-interpolation-filters="sRGB">
<feFlood flood-opacity="0" result="BackgroundImageFix"/>
<feColorMatrix in="SourceAlpha" type="matrix" values="0 0 0 0 0 0 0 0 0 0 0 0 0 0 0 0 0 0 127 0" result="hardAlpha"/>
<feOffset dx="8" dy="8"/>
<feGaussianBlur stdDeviation="7"/>
<feColorMatrix type="matrix" values="0 0 0 0 0 0 0 0 0 0 0 0 0 0 0 0 0 0 0.25 0"/>
<feBlend mode="normal" in2="BackgroundImageFix" result="effect1_dropShadow"/>
<feBlend mode="normal" in="SourceGraphic" in2="effect1_dropShadow" result="shape"/>
</filter>
<filter id="filter4_d" x="196" y="538.628" width="134.233" height="136.664" filterUnits="userSpaceOnUse" color-interpolation-filters="sRGB">
<feFlood flood-opacity="0" result="BackgroundImageFix"/>
<feColorMatrix in="SourceAlpha" type="matrix" values="0 0 0 0 0 0 0 0 0 0 0 0 0 0 0 0 0 0 127 0" result="hardAlpha"/>
<feOffset dx="8" dy="8"/>
<feGaussianBlur stdDeviation="7"/>
<feColorMatrix type="matrix" values="0 0 0 0 0 0 0 0 0 0 0 0 0 0 0 0 0 0 0.25 0"/>
<feBlend mode="normal" in2="BackgroundImageFix" result="effect1_dropShadow"/>
<feBlend mode="normal" in="SourceGraphic" in2="effect1_dropShadow" result="shape"/>
</filter>
<filter id="filter5_d" x="58" y="266.628" width="91.0106" height="92.4523" filterUnits="userSpaceOnUse" color-interpolation-filters="sRGB">
<feFlood flood-opacity="0" result="BackgroundImageFix"/>
<feColorMatrix in="SourceAlpha" type="matrix" values="0 0 0 0 0 0 0 0 0 0 0 0 0 0 0 0 0 0 127 0" result="hardAlpha"/>
<feOffset dx="8" dy="8"/>
<feGaussianBlur stdDeviation="7"/>
<feColorMatrix type="matrix" values="0 0 0 0 0 0 0 0 0 0 0 0 0 0 0 0 0 0 0.25 0"/>
<feBlend mode="normal" in2="BackgroundImageFix" result="effect1_dropShadow"/>
<feBlend mode="normal" in="SourceGraphic" in2="effect1_dropShadow" result="shape"/>
</filter>
<filter id="filter6_d" x="173.74" y="180.916" width="42.7775" height="41.6115" filterUnits="userSpaceOnUse" color-interpolation-filters="sRGB">
<feFlood flood-opacity="0" result="BackgroundImageFix"/>
<feColorMatrix in="SourceAlpha" type="matrix" values="0 0 0 0 0 0 0 0 0 0 0 0 0 0 0 0 0 0 127 0" result="hardAlpha"/>
<feOffset dx="8" dy="8"/>
<feGaussianBlur stdDeviation="7"/>
<feColorMatrix type="matrix" values="0 0 0 0 0 0 0 0 0 0 0 0 0 0 0 0 0 0 0.25 0"/>
<feBlend mode="normal" in2="BackgroundImageFix" result="effect1_dropShadow"/>
<feBlend mode="normal" in="SourceGraphic" in2="effect1_dropShadow" result="shape"/>
</filter>
<filter id="filter7_d" x="652" y="380.628" width="48.4515" height="48.9195" filterUnits="userSpaceOnUse" color-interpolation-filters="sRGB">
<feFlood flood-opacity="0" result="BackgroundImageFix"/>
<feColorMatrix in="SourceAlpha" type="matrix" values="0 0 0 0 0 0 0 0 0 0 0 0 0 0 0 0 0 0 127 0" result="hardAlpha"/>
<feOffset dx="8" dy="8"/>
<feGaussianBlur stdDeviation="7"/>
<feColorMatrix type="matrix" values="0 0 0 0 0 0 0 0 0 0 0 0 0 0 0 0 0 0 0.25 0"/>
<feBlend mode="normal" in2="BackgroundImageFix" result="effect1_dropShadow"/>
<feBlend mode="normal" in="SourceGraphic" in2="effect1_dropShadow" result="shape"/>
</filter>
<filter id="filter8_d" x="599" y="387.628" width="114.965" height="108.653" filterUnits="userSpaceOnUse" color-interpolation-filters="sRGB">
<feFlood flood-opacity="0" result="BackgroundImageFix"/>
<feColorMatrix in="SourceAlpha" type="matrix" values="0 0 0 0 0 0 0 0 0 0 0 0 0 0 0 0 0 0 127 0" result="hardAlpha"/>
<feOffset dx="8" dy="8"/>
<feGaussianBlur stdDeviation="7"/>
<feColorMatrix type="matrix" values="0 0 0 0 0 0 0 0 0 0 0 0 0 0 0 0 0 0 0.25 0"/>
<feBlend mode="normal" in2="BackgroundImageFix" result="effect1_dropShadow"/>
<feBlend mode="normal" in="SourceGraphic" in2="effect1_dropShadow" result="shape"/>
</filter>
<filter id="filter9_d" x="168" y="362.628" width="49.9286" height="49.5964" filterUnits="userSpaceOnUse" color-interpolation-filters="sRGB">
<feFlood flood-opacity="0" result="BackgroundImageFix"/>
<feColorMatrix in="SourceAlpha" type="matrix" values="0 0 0 0 0 0 0 0 0 0 0 0 0 0 0 0 0 0 127 0" result="hardAlpha"/>
<feOffset dx="8" dy="8"/>
<feGaussianBlur stdDeviation="7"/>
<feColorMatrix type="matrix" values="0 0 0 0 0 0 0 0 0 0 0 0 0 0 0 0 0 0 0.25 0"/>
<feBlend mode="normal" in2="BackgroundImageFix" result="effect1_dropShadow"/>
<feBlend mode="normal" in="SourceGraphic" in2="effect1_dropShadow" result="shape"/>
</filter>
<linearGradient id="paint0_linear" x1="44.8833" y1="38.3996" x2="713.799" y2="80.352" gradientUnits="userSpaceOnUse">
<stop offset="0.0756841" stop-color="#B565D8"/>
<stop offset="0.945898" stop-color="#EE609C"/>
</linearGradient>
<linearGradient id="paint1_linear" x1="232.644" y1="452.008" x2="250.226" y2="477.479" gradientUnits="userSpaceOnUse">
<stop offset="0.0756841" stop-color="#B565D8"/>
<stop offset="0.945898" stop-color="#EE609C"/>
</linearGradient>
<linearGradient id="paint2_linear" x1="200.433" y1="437.326" x2="217.976" y2="462.829" gradientUnits="userSpaceOnUse">
<stop offset="0.0756841" stop-color="#B565D8"/>
<stop offset="0.945898" stop-color="#EE609C"/>
</linearGradient>
<linearGradient id="paint3_linear" x1="139.941" y1="439.1" x2="157.369" y2="464.804" gradientUnits="userSpaceOnUse">
<stop offset="0.0756841" stop-color="#B565D8"/>
<stop offset="0.945898" stop-color="#EE609C"/>
</linearGradient>
<linearGradient id="paint4_linear" x1="120.758" y1="416.836" x2="138.244" y2="442.494" gradientUnits="userSpaceOnUse">
<stop offset="0.0756841" stop-color="#B565D8"/>
<stop offset="0.945898" stop-color="#EE609C"/>
</linearGradient>
<linearGradient id="paint5_linear" x1="217.337" y1="444.207" x2="234.902" y2="469.691" gradientUnits="userSpaceOnUse">
<stop offset="0.0756841" stop-color="#B565D8"/>
<stop offset="0.945898" stop-color="#EE609C"/>
</linearGradient>
<linearGradient id="paint6_linear" x1="181.431" y1="431.67" x2="198.944" y2="457.196" gradientUnits="userSpaceOnUse">
<stop offset="0.0756841" stop-color="#B565D8"/>
<stop offset="0.945898" stop-color="#EE609C"/>
</linearGradient>
<linearGradient id="paint7_linear" x1="130.001" y1="428.171" x2="147.454" y2="453.855" gradientUnits="userSpaceOnUse">
<stop offset="0.0756841" stop-color="#B565D8"/>
<stop offset="0.945898" stop-color="#EE609C"/>
</linearGradient>
<linearGradient id="paint8_linear" x1="350.324" y1="550.666" x2="368.112" y2="575.967" gradientUnits="userSpaceOnUse">
<stop offset="0.0756841" stop-color="#B565D8"/>
<stop offset="0.945898" stop-color="#EE609C"/>
</linearGradient>
<linearGradient id="paint9_linear" x1="328.983" y1="529.658" x2="346.763" y2="555.077" gradientUnits="userSpaceOnUse">
<stop offset="0.0756841" stop-color="#B565D8"/>
<stop offset="0.945898" stop-color="#EE609C"/>
</linearGradient>
<linearGradient id="paint10_linear" x1="307.357" y1="508.815" x2="325.092" y2="534.273" gradientUnits="userSpaceOnUse">
<stop offset="0.0756841" stop-color="#B565D8"/>
<stop offset="0.945898" stop-color="#EE609C"/>
</linearGradient>
<linearGradient id="paint11_linear" x1="284.667" y1="488.593" x2="302.364" y2="514.08" gradientUnits="userSpaceOnUse">
<stop offset="0.0756841" stop-color="#B565D8"/>
<stop offset="0.945898" stop-color="#EE609C"/>
</linearGradient>
<linearGradient id="paint12_linear" x1="260.124" y1="469.449" x2="277.736" y2="494.895" gradientUnits="userSpaceOnUse">
<stop offset="0.0756841" stop-color="#B565D8"/>
<stop offset="0.945898" stop-color="#EE609C"/>
</linearGradient>
<linearGradient id="paint13_linear" x1="339.642" y1="540.168" x2="357.451" y2="565.563" gradientUnits="userSpaceOnUse">
<stop offset="0.0756841" stop-color="#B565D8"/>
<stop offset="0.945898" stop-color="#EE609C"/>
</linearGradient>
<linearGradient id="paint14_linear" x1="318.255" y1="519.187" x2="336.011" y2="544.627" gradientUnits="userSpaceOnUse">
<stop offset="0.0756841" stop-color="#B565D8"/>
<stop offset="0.945898" stop-color="#EE609C"/>
</linearGradient>
<linearGradient id="paint15_linear" x1="296.196" y1="498.596" x2="313.911" y2="524.069" gradientUnits="userSpaceOnUse">
<stop offset="0.0756841" stop-color="#B565D8"/>
<stop offset="0.945898" stop-color="#EE609C"/>
</linearGradient>
<linearGradient id="paint16_linear" x1="272.673" y1="478.859" x2="290.355" y2="504.359" gradientUnits="userSpaceOnUse">
<stop offset="0.0756841" stop-color="#B565D8"/>
<stop offset="0.945898" stop-color="#EE609C"/>
</linearGradient>
<linearGradient id="paint17_linear" x1="246.82" y1="460.477" x2="264.418" y2="485.935" gradientUnits="userSpaceOnUse">
<stop offset="0.0756841" stop-color="#B565D8"/>
<stop offset="0.945898" stop-color="#EE609C"/>
</linearGradient>
<linearGradient id="paint18_linear" x1="448.645" y1="627.163" x2="467.183" y2="651.791" gradientUnits="userSpaceOnUse">
<stop offset="0.0756841" stop-color="#B565D8"/>
<stop offset="0.945898" stop-color="#EE609C"/>
</linearGradient>
<linearGradient id="paint19_linear" x1="420.1" y1="610.348" x2="438.308" y2="635.282" gradientUnits="userSpaceOnUse">
<stop offset="0.0756841" stop-color="#B565D8"/>
<stop offset="0.945898" stop-color="#EE609C"/>
</linearGradient>
<linearGradient id="paint20_linear" x1="395.05" y1="591.499" x2="413.059" y2="616.611" gradientUnits="userSpaceOnUse">
<stop offset="0.0756841" stop-color="#B565D8"/>
<stop offset="0.945898" stop-color="#EE609C"/>
</linearGradient>
<linearGradient id="paint21_linear" x1="372.091" y1="571.426" x2="389.97" y2="596.651" gradientUnits="userSpaceOnUse">
<stop offset="0.0756841" stop-color="#B565D8"/>
<stop offset="0.945898" stop-color="#EE609C"/>
</linearGradient>
<linearGradient id="paint22_linear" x1="464.95" y1="634.389" x2="483.749" y2="658.762" gradientUnits="userSpaceOnUse">
<stop offset="0.0756841" stop-color="#B565D8"/>
<stop offset="0.945898" stop-color="#EE609C"/>
</linearGradient>
<linearGradient id="paint23_linear" x1="433.772" y1="619.105" x2="452.123" y2="643.911" gradientUnits="userSpaceOnUse">
<stop offset="0.0756841" stop-color="#B565D8"/>
<stop offset="0.945898" stop-color="#EE609C"/>
</linearGradient>
<linearGradient id="paint24_linear" x1="407.24" y1="601.118" x2="425.338" y2="626.151" gradientUnits="userSpaceOnUse">
<stop offset="0.0756841" stop-color="#B565D8"/>
<stop offset="0.945898" stop-color="#EE609C"/>
</linearGradient>
<linearGradient id="paint25_linear" x1="383.35" y1="581.593" x2="401.287" y2="606.767" gradientUnits="userSpaceOnUse">
<stop offset="0.0756841" stop-color="#B565D8"/>
<stop offset="0.945898" stop-color="#EE609C"/>
</linearGradient>
<linearGradient id="paint26_linear" x1="361.103" y1="561.111" x2="378.989" y2="586.443" gradientUnits="userSpaceOnUse">
<stop offset="0.0756841" stop-color="#B565D8"/>
<stop offset="0.945898" stop-color="#EE609C"/>
</linearGradient>
<linearGradient id="paint27_linear" x1="483.137" y1="640.518" x2="502.382" y2="664.549" gradientUnits="userSpaceOnUse">
<stop offset="0.0756841" stop-color="#B565D8"/>
<stop offset="0.945898" stop-color="#EE609C"/>
</linearGradient>
<linearGradient id="paint28_linear" x1="530.174" y1="646.574" x2="551.369" y2="668.001" gradientUnits="userSpaceOnUse">
<stop offset="0.0756841" stop-color="#B565D8"/>
<stop offset="0.945898" stop-color="#EE609C"/>
</linearGradient>
<linearGradient id="paint29_linear" x1="504.105" y1="645.035" x2="523.921" y2="668.281" gradientUnits="userSpaceOnUse">
<stop offset="0.0756841" stop-color="#B565D8"/>
<stop offset="0.945898" stop-color="#EE609C"/>
</linearGradient>
<linearGradient id="paint30_linear" x1="119.092" y1="167.101" x2="141.859" y2="184.649" gradientUnits="userSpaceOnUse">
<stop offset="0.0756841" stop-color="#B565D8"/>
<stop offset="0.945898" stop-color="#EE609C"/>
</linearGradient>
<linearGradient id="paint31_linear" x1="94.2956" y1="198.244" x2="114.399" y2="221.13" gradientUnits="userSpaceOnUse">
<stop offset="0.0756841" stop-color="#B565D8"/>
<stop offset="0.945898" stop-color="#EE609C"/>
</linearGradient>
<linearGradient id="paint32_linear" x1="90.9754" y1="367.308" x2="108.669" y2="392.8" gradientUnits="userSpaceOnUse">
<stop offset="0.0756841" stop-color="#B565D8"/>
<stop offset="0.945898" stop-color="#EE609C"/>
</linearGradient>
<linearGradient id="paint33_linear" x1="80.8792" y1="339.757" x2="98.7291" y2="365.118" gradientUnits="userSpaceOnUse">
<stop offset="0.0756841" stop-color="#B565D8"/>
<stop offset="0.945898" stop-color="#EE609C"/>
</linearGradient>
<linearGradient id="paint34_linear" x1="74.4715" y1="310.065" x2="92.468" y2="335.188" gradientUnits="userSpaceOnUse">
<stop offset="0.0756841" stop-color="#B565D8"/>
<stop offset="0.945898" stop-color="#EE609C"/>
</linearGradient>
<linearGradient id="paint35_linear" x1="72.5727" y1="277.743" x2="90.857" y2="302.609" gradientUnits="userSpaceOnUse">
<stop offset="0.0756841" stop-color="#B565D8"/>
<stop offset="0.945898" stop-color="#EE609C"/>
</linearGradient>
<linearGradient id="paint36_linear" x1="77.0885" y1="241.684" x2="95.8754" y2="266.069" gradientUnits="userSpaceOnUse">
<stop offset="0.0756841" stop-color="#B565D8"/>
<stop offset="0.945898" stop-color="#EE609C"/>
</linearGradient>
<linearGradient id="paint37_linear" x1="85.49" y1="353.787" x2="103.257" y2="379.218" gradientUnits="userSpaceOnUse">
<stop offset="0.0756841" stop-color="#B565D8"/>
<stop offset="0.945898" stop-color="#EE609C"/>
</linearGradient>
<linearGradient id="paint38_linear" x1="77.1845" y1="325.194" x2="95.129" y2="350.475" gradientUnits="userSpaceOnUse">
<stop offset="0.0756841" stop-color="#B565D8"/>
<stop offset="0.945898" stop-color="#EE609C"/>
</linearGradient>
<linearGradient id="paint39_linear" x1="72.879" y1="294.278" x2="91.0036" y2="319.288" gradientUnits="userSpaceOnUse">
<stop offset="0.0756841" stop-color="#B565D8"/>
<stop offset="0.945898" stop-color="#EE609C"/>
</linearGradient>
<linearGradient id="paint40_linear" x1="73.8091" y1="260.31" x2="92.3023" y2="284.981" gradientUnits="userSpaceOnUse">
<stop offset="0.0756841" stop-color="#B565D8"/>
<stop offset="0.945898" stop-color="#EE609C"/>
</linearGradient>
<linearGradient id="paint41_linear" x1="83.1982" y1="221.42" x2="102.44" y2="245.329" gradientUnits="userSpaceOnUse">
<stop offset="0.0756841" stop-color="#B565D8"/>
<stop offset="0.945898" stop-color="#EE609C"/>
</linearGradient>
<linearGradient id="paint42_linear" x1="175.991" y1="484.981" x2="196.135" y2="488.978" gradientUnits="userSpaceOnUse">
<stop offset="0.0756841" stop-color="#B565D8"/>
<stop offset="0.945898" stop-color="#EE609C"/>
</linearGradient>
<linearGradient id="paint43_linear" x1="151.564" y1="465.769" x2="173.829" y2="473.539" gradientUnits="userSpaceOnUse">
<stop offset="0.0756841" stop-color="#B565D8"/>
<stop offset="0.945898" stop-color="#EE609C"/>
</linearGradient>
<linearGradient id="paint44_linear" x1="104.403" y1="392.922" x2="121.976" y2="418.51" gradientUnits="userSpaceOnUse">
<stop offset="0.0756841" stop-color="#B565D8"/>
<stop offset="0.945898" stop-color="#EE609C"/>
</linearGradient>
<linearGradient id="paint45_linear" x1="163.421" y1="475.581" x2="184.938" y2="481.723" gradientUnits="userSpaceOnUse">
<stop offset="0.0756841" stop-color="#B565D8"/>
<stop offset="0.945898" stop-color="#EE609C"/>
</linearGradient>
<linearGradient id="paint46_linear" x1="140.401" y1="455.551" x2="163.07" y2="464.493" gradientUnits="userSpaceOnUse">
<stop offset="0.0756841" stop-color="#B565D8"/>
<stop offset="0.945898" stop-color="#EE609C"/>
</linearGradient>
<linearGradient id="paint47_linear" x1="112.223" y1="405.089" x2="129.749" y2="430.715" gradientUnits="userSpaceOnUse">
<stop offset="0.0756841" stop-color="#B565D8"/>
<stop offset="0.945898" stop-color="#EE609C"/>
</linearGradient>
<linearGradient id="paint48_linear" x1="97.2782" y1="380.359" x2="114.907" y2="405.902" gradientUnits="userSpaceOnUse">
<stop offset="0.0756841" stop-color="#B565D8"/>
<stop offset="0.945898" stop-color="#EE609C"/>
</linearGradient>
<linearGradient id="paint49_linear" x1="203.4" y1="502.458" x2="216.606" y2="501.321" gradientUnits="userSpaceOnUse">
<stop offset="0.0756841" stop-color="#B565D8"/>
<stop offset="0.945898" stop-color="#EE609C"/>
</linearGradient>
<linearGradient id="paint50_linear" x1="218.292" y1="510.499" x2="224.569" y2="508.465" gradientUnits="userSpaceOnUse">
<stop offset="0.0756841" stop-color="#B565D8"/>
<stop offset="0.945898" stop-color="#EE609C"/>
</linearGradient>
<linearGradient id="paint51_linear" x1="189.311" y1="493.943" x2="206.941" y2="495.341" gradientUnits="userSpaceOnUse">
<stop offset="0.0756841" stop-color="#B565D8"/>
<stop offset="0.945898" stop-color="#EE609C"/>
</linearGradient>
<linearGradient id="paint52_linear" x1="51.1364" y1="388.899" x2="139.201" y2="325.973" gradientUnits="userSpaceOnUse">
<stop offset="0.0756841" stop-color="#B565D8"/>
<stop offset="0.945898" stop-color="#EE609C"/>
</linearGradient>
<linearGradient id="paint53_linear" x1="155.437" y1="141.408" x2="198.781" y2="121.762" gradientUnits="userSpaceOnUse">
<stop offset="0.0756841" stop-color="#B565D8"/>
<stop offset="0.945898" stop-color="#EE609C"/>
</linearGradient>
<linearGradient id="paint54_linear" x1="141.507" y1="532.309" x2="149.832" y2="517.137" gradientUnits="userSpaceOnUse">
<stop offset="0.0756841" stop-color="#B565D8"/>
<stop offset="0.945898" stop-color="#EE609C"/>
</linearGradient>
<linearGradient id="paint55_linear" x1="189.052" y1="610.498" x2="232.293" y2="531.691" gradientUnits="userSpaceOnUse">
<stop offset="0.0756841" stop-color="#B565D8"/>
<stop offset="0.945898" stop-color="#EE609C"/>
</linearGradient>
<linearGradient id="paint56_linear" x1="56.3203" y1="311.698" x2="81.9676" y2="264.954" gradientUnits="userSpaceOnUse">
<stop offset="0.0756841" stop-color="#B565D8"/>
<stop offset="0.945898" stop-color="#EE609C"/>
</linearGradient>
<linearGradient id="paint57_linear" x1="197.094" y1="189.473" x2="194.743" y2="202.125" gradientUnits="userSpaceOnUse">
<stop offset="0.0756841" stop-color="#B565D8"/>
<stop offset="0.945898" stop-color="#EE609C"/>
</linearGradient>
<linearGradient id="paint58_linear" x1="655.507" y1="399.309" x2="663.832" y2="384.138" gradientUnits="userSpaceOnUse">
<stop offset="0.0756841" stop-color="#B565D8"/>
<stop offset="0.945898" stop-color="#EE609C"/>
</linearGradient>
<linearGradient id="paint59_linear" x1="635.777" y1="384.34" x2="701.668" y2="420.598" gradientUnits="userSpaceOnUse">
<stop offset="0.0756841" stop-color="#B565D8"/>
<stop offset="0.945898" stop-color="#EE609C"/>
</linearGradient>
<linearGradient id="paint60_linear" x1="182.654" y1="365.951" x2="198.559" y2="374.506" gradientUnits="userSpaceOnUse">
<stop offset="0.0756841" stop-color="#B565D8"/>
<stop offset="0.945898" stop-color="#EE609C"/>
</linearGradient>
</defs>
</svg>
